<svg xmlns="http://www.w3.org/2000/svg" width="104.517" height="104.517" viewBox="0 0 104.517 104.517"><defs><style>.a{fill:#fedea9;}.b{fill:#ee743b;}.c{fill:#16223b;font-size:11px;font-family:Poppins-Bold, Poppins;font-weight:700;}</style></defs><g transform="translate(-301 -947.741)"><g transform="translate(301 947.741)"><rect class="a" width="104.517" height="104.517" rx="52.259" transform="translate(0 0)"/></g><g transform="translate(320.386 968.174)"><g transform="translate(0 0)"><g transform="translate(0 0)"><path class="b" d="M161.115,146.772a14.342,14.342,0,1,0,14.342,14.342A14.342,14.342,0,0,0,161.115,146.772Zm0,26.583a12.241,12.241,0,1,1,12.241-12.241A12.241,12.241,0,0,1,161.115,173.355Z" transform="translate(-128.289 -128.288)"/><path class="b" d="M123.472,103.44A20.032,20.032,0,1,0,143.5,123.472,20.054,20.054,0,0,0,123.472,103.44Zm0,37.963A17.931,17.931,0,1,1,141.4,123.472,17.951,17.951,0,0,1,123.472,141.4Z" transform="translate(-90.646 -90.646)"/><path class="b" d="M429.4,219.442a1.05,1.05,0,1,0-1.483,1.488l2,2H423.6a1.05,1.05,0,1,0,0,2.1h6.314l-2,2a1.05,1.05,0,1,0,1.483,1.488l3.8-3.79a1.05,1.05,0,0,0,0-1.488Z" transform="translate(-367.858 -191.15)"/><path class="b" d="M227.019,427.914l-2,2V423.6a1.05,1.05,0,1,0-2.1,0v6.314l-2-2a1.051,1.051,0,0,0-1.488,1.484l3.79,3.8a1.05,1.05,0,0,0,1.488,0l3.79-3.8a1.051,1.051,0,1,0-1.488-1.484Z" transform="translate(-191.147 -367.857)"/><path class="b" d="M223.976,16.958a1.05,1.05,0,0,0,1.05-1.05V9.593l2,2a1.051,1.051,0,1,0,1.488-1.484l-3.79-3.8a1.05,1.05,0,0,0-1.488,0l-3.79,3.8a1.05,1.05,0,1,0,1.488,1.483l2-2v6.314A1.05,1.05,0,0,0,223.976,16.958Z" transform="translate(-191.15 -6.001)"/><path class="b" d="M9.592,225.023h6.314a1.05,1.05,0,1,0,0-2.1H9.592l2-2a1.051,1.051,0,0,0-1.484-1.488l-3.8,3.79a1.05,1.05,0,0,0,0,1.488l3.8,3.79a1.051,1.051,0,0,0,1.484-1.488Z" transform="translate(-6 -191.147)"/><path class="b" d="M378.726,372.268h0a1.063,1.063,0,0,0-1.049,1.067l0,2.834-4.464-4.461a1.051,1.051,0,0,0-1.486,1.488l4.464,4.462-2.827-.008h0a1.049,1.049,0,1,0,0,2.1l5.369,0h0a1.037,1.037,0,0,0,1.05-1.04l-.009-5.382a1.062,1.062,0,0,0-1.05-1.062Z" transform="translate(-323.441 -323.423)"/><path class="b" d="M83.45,371.56l-4.464,4.464,0-2.842a1.063,1.063,0,0,0-1.049-1.067h0a1.064,1.064,0,0,0-1.05,1.064l-.009,5.376a1.044,1.044,0,0,0,1.05,1.044H83.3a1.05,1.05,0,0,0,0-2.1h0l-2.827.008,4.464-4.463a1.05,1.05,0,1,0-1.486-1.484Z" transform="translate(-67.573 -323.27)"/><path class="b" d="M378.561,84.486h0a1.064,1.064,0,0,0,1.05-1.064l.009-5.376A1.043,1.043,0,0,0,378.572,77H373.2a1.05,1.05,0,0,0,0,2.1h0l2.827-.008-4.464,4.463a1.05,1.05,0,1,0,1.486,1.484l4.464-4.464,0,2.842A1.063,1.063,0,0,0,378.561,84.486Z" transform="translate(-323.277 -67.679)"/><path class="b" d="M84.193,85.347a1.05,1.05,0,0,0,.743-1.793l-4.464-4.461L83.3,79.1h0a1.049,1.049,0,1,0,0-2.1l-5.369,0h0a1.037,1.037,0,0,0-1.05,1.04l.009,5.382a1.062,1.062,0,0,0,1.05,1.062h0a1.063,1.063,0,0,0,1.049-1.067l0-2.834,4.464,4.461A1.043,1.043,0,0,0,84.193,85.347Z" transform="translate(-67.573 -67.677)"/><path class="b" d="M249.919,183.811a.919.919,0,0,0,.919-.919v-2.539a.919.919,0,1,0-1.838,0v2.539A.919.919,0,0,0,249.919,183.811Z" transform="translate(-217.093 -156.662)"/><path class="b" d="M307.625,252h-2.643a.919.919,0,1,0,0,1.838h2.643a.919.919,0,0,0,0-1.838Z" transform="translate(-264.926 -219.699)"/><path class="b" d="M177.373,252H174.73a.919.919,0,1,0,0,1.838h2.643a.919.919,0,1,0,0-1.838Z" transform="translate(-151.777 -219.699)"/><path class="b" d="M291.265,200.913a.919.919,0,0,0-1.3-.033l-1.882,1.787A.919.919,0,1,0,289.35,204l1.882-1.788A.919.919,0,0,0,291.265,200.913Z" transform="translate(-250.796 -175.072)"/><path class="b" d="M199.336,203.965a.919.919,0,0,0-.033-1.3l-1.882-1.787a.919.919,0,1,0-1.266,1.333L198.037,204a.919.919,0,0,0,1.3-.033Z" transform="translate(-170.938 -175.07)"/></g></g><text class="c" transform="translate(29.454 38.083)"><tspan x="0" y="0">$</tspan></text></g></g></svg>