<svg xmlns="http://www.w3.org/2000/svg" width="33.96" height="40.135" viewBox="0 0 33.96 40.135"><defs><style>.a{fill:#fff;}</style></defs><path class="a" d="M45.028,179.141a2.4,2.4,0,0,0-1.761.723,2.368,2.368,0,0,0-.724,1.737v10.371a2.47,2.47,0,0,0,2.484,2.485,2.359,2.359,0,0,0,1.749-.724,2.418,2.418,0,0,0,.711-1.761V181.6a2.47,2.47,0,0,0-2.46-2.46Z" transform="translate(-42.544 -166.141)"/><path class="a" d="M139.293,3.69,141.005.531a.318.318,0,0,0-.12-.482.334.334,0,0,0-.482.144l-1.736,3.184a12.1,12.1,0,0,0-9.7,0L127.233.193a.335.335,0,0,0-.482-.144.317.317,0,0,0-.12.482l1.713,3.159a10.575,10.575,0,0,0-4.149,3.7,9.352,9.352,0,0,0-1.544,5.2h22.31a9.354,9.354,0,0,0-1.544-5.2A10.62,10.62,0,0,0,139.293,3.69Zm-9.9,4.595a.9.9,0,0,1-.664.278.863.863,0,0,1-.651-.278.962.962,0,0,1,0-1.326.866.866,0,0,1,.651-.277.937.937,0,0,1,.664,1.6Zm10.166,0a.865.865,0,0,1-.651.278.941.941,0,0,1,0-1.881.867.867,0,0,1,.651.277.962.962,0,0,1,0,1.326Z" transform="translate(-116.838 0)"/><path class="a" d="M123.971,201.514a2.634,2.634,0,0,0,2.653,2.653h1.785l.024,5.476a2.4,2.4,0,0,0,.723,1.761,2.369,2.369,0,0,0,1.737.724,2.47,2.47,0,0,0,2.484-2.484v-5.475h3.328v5.475a2.484,2.484,0,1,0,4.968,0v-5.475h1.809a2.634,2.634,0,0,0,2.629-2.653V185.45h-22.14Z" transform="translate(-118.062 -171.992)"/><path class="a" d="M444.836,179.141a2.39,2.39,0,0,0-1.737.712,2.359,2.359,0,0,0-.723,1.748v10.371a2.4,2.4,0,0,0,.723,1.761,2.369,2.369,0,0,0,1.737.724,2.47,2.47,0,0,0,2.484-2.485V181.6a2.358,2.358,0,0,0-.723-1.748A2.419,2.419,0,0,0,444.836,179.141Z" transform="translate(-413.36 -166.141)"/></svg>