<svg width="9" height="6" viewBox="0 0 9 6" fill="none" xmlns="http://www.w3.org/2000/svg">
<path d="M8.95759 0.857142C8.95759 0.785714 8.92188 0.705357 8.8683 0.651785L8.42188 0.205357C8.3683 0.151785 8.28795 0.116071 8.21652 0.116071C8.14509 0.116071 8.06473 0.151785 8.01116 0.205357L4.50223 3.71429L0.993304 0.205357C0.939732 0.151785 0.859375 0.116071 0.787946 0.116071C0.707589 0.116071 0.636161 0.151785 0.582589 0.205357L0.136161 0.651785C0.0825893 0.705357 0.0468751 0.785714 0.0468751 0.857142C0.0468751 0.928571 0.0825893 1.00893 0.136161 1.0625L4.29688 5.22321C4.35045 5.27679 4.4308 5.3125 4.50223 5.3125C4.57366 5.3125 4.65402 5.27679 4.70759 5.22321L8.8683 1.0625C8.92188 1.00893 8.95759 0.928571 8.95759 0.857142Z" fill="#EE743B"/>
</svg>
