<svg width="96" height="96" viewBox="0 0 96 96" fill="none" xmlns="http://www.w3.org/2000/svg">
<circle cx="48" cy="48" r="48" fill="white" fill-opacity="0.05"/>
<g clip-path="url(#clip0)">
<path d="M50.7551 23C47.7069 22.9756 44.7201 23.8573 42.1737 25.5331C39.6274 27.2089 37.6362 29.6033 36.4528 32.4125C35.2694 35.2218 34.9472 38.3192 35.527 41.3119C36.1068 44.3046 37.5624 47.0576 39.7093 49.2217C41.8562 51.3857 44.5976 52.8633 47.5855 53.4669C50.5735 54.0705 53.6734 53.7729 56.492 52.6119C59.3106 51.4509 61.7208 49.4789 63.4168 46.9459C65.1128 44.413 66.0182 41.4333 66.0181 38.385C66.0295 34.3223 64.429 30.4209 61.5677 27.5366C58.7063 24.6524 54.8178 23.0209 50.7551 23V23ZM50.7551 50.829C48.2886 50.8534 45.8704 50.1442 43.8077 48.7916C41.745 47.439 40.1308 45.5039 39.17 43.2321C38.2092 40.9603 37.9452 38.4542 38.4115 36.032C38.8778 33.6098 40.0533 31.3809 41.7889 29.6281C43.5245 27.8754 45.7418 26.6779 48.1592 26.1878C50.5767 25.6976 53.0853 25.9369 55.3664 26.8753C57.6476 27.8137 59.5985 29.4088 60.9714 31.458C62.3442 33.5073 63.0772 35.9184 63.0771 38.385C63.0888 41.6678 61.7983 44.8213 59.4884 47.1541C57.1785 49.4868 54.0379 50.8084 50.7551 50.829V50.829Z" fill="white"/>
<path d="M52.3251 36.972C51.3196 36.6672 50.3614 36.224 49.4781 35.655C49.4071 35.5625 49.3589 35.4544 49.3377 35.3397C49.3165 35.2249 49.3228 35.1068 49.3561 34.995C49.3847 34.8058 49.4638 34.6279 49.5851 34.4799C49.7063 34.3318 49.8653 34.2193 50.0451 34.154C50.3589 34.0454 50.6941 34.0132 51.0228 34.0602C51.3515 34.1072 51.6643 34.2319 51.9351 34.424C52.0897 34.5396 52.2656 34.6237 52.4527 34.6713C52.6399 34.719 52.8345 34.7293 53.0256 34.7017C53.2167 34.6741 53.4005 34.6092 53.5665 34.5106C53.7325 34.412 53.8775 34.2816 53.9931 34.127C54.1088 33.9724 54.1928 33.7965 54.2404 33.6094C54.2881 33.4222 54.2984 33.2276 54.2708 33.0365C54.2433 32.8454 54.1783 32.6616 54.0797 32.4956C53.9811 32.3296 53.8507 32.1846 53.6961 32.069C53.1976 31.7067 52.6366 31.4396 52.0411 31.281V31.019C52.0411 30.629 51.8862 30.255 51.6104 29.9792C51.3346 29.7034 50.9606 29.5485 50.5706 29.5485C50.1806 29.5485 49.8066 29.7034 49.5308 29.9792C49.255 30.255 49.1001 30.629 49.1001 31.019V31.371C48.4255 31.6011 47.8251 32.0083 47.3617 32.55C46.8983 33.0916 46.589 33.7479 46.4661 34.45C46.3243 35.0902 46.3612 35.7571 46.5728 36.3777C46.7845 36.9983 47.1627 37.5488 47.6661 37.969C48.7943 38.7456 50.0351 39.3443 51.3451 39.744C51.6617 39.8217 51.9354 40.0201 52.1078 40.2968C52.2802 40.5734 52.3378 40.9065 52.2681 41.225C52.2036 41.631 51.996 42.0005 51.6827 42.2666C51.3694 42.5328 50.9712 42.678 50.5601 42.676C49.7695 42.7827 48.9686 42.5744 48.3301 42.096C48.0038 41.8825 47.606 41.8074 47.2242 41.8872C46.8425 41.967 46.5081 42.1951 46.2946 42.5215C46.0811 42.8478 46.006 43.2456 46.0858 43.6274C46.1656 44.0091 46.3938 44.3435 46.7201 44.557C47.4268 45.063 48.2411 45.3984 49.0991 45.537V45.829C49.0991 46.219 49.254 46.593 49.5298 46.8688C49.8056 47.1446 50.1796 47.2995 50.5696 47.2995C50.9596 47.2995 51.3336 47.1446 51.6094 46.8688C51.8852 46.593 52.0401 46.219 52.0401 45.829V45.38C52.8422 45.1048 53.5557 44.6192 54.106 43.974C54.6562 43.3287 55.023 42.5475 55.1681 41.712C55.3509 40.7113 55.1631 39.6782 54.64 38.8058C54.1168 37.9333 53.294 37.2811 52.3251 36.971V36.972Z" fill="white"/>
<path d="M70.658 58.638C69.3333 57.3162 67.5384 56.5738 65.667 56.5738C63.7956 56.5738 62.0007 57.3162 60.676 58.638L56.258 63.05H54.168C55.0908 61.8064 55.5884 60.2986 55.587 58.75C55.587 58.557 55.549 58.3658 55.4751 58.1875C55.4012 58.0091 55.293 57.8471 55.1564 57.7106C55.0199 57.5741 54.8579 57.4658 54.6795 57.3919C54.5012 57.318 54.31 57.28 54.117 57.28H49.234C47.5611 57.1348 45.9401 56.6263 44.484 55.79C42.7755 54.8506 40.902 54.249 38.966 54.018C37.1586 53.8992 35.3443 54.0972 33.605 54.603C32.6881 54.8713 31.8733 55.4096 31.2669 56.1477C30.6604 56.8858 30.2903 57.7895 30.205 58.741H25.47C25.277 58.741 25.0858 58.779 24.9075 58.8529C24.7291 58.9268 24.5671 59.0351 24.4306 59.1716C24.2941 59.3081 24.1858 59.4701 24.1119 59.6485C24.038 59.8268 24 60.018 24 60.211V71.722C24 71.9151 24.038 72.1062 24.1119 72.2845C24.1858 72.4629 24.2941 72.6249 24.4306 72.7614C24.5671 72.8979 24.7291 73.0062 24.9075 73.0801C25.0858 73.154 25.277 73.192 25.47 73.192H55.484C56.3387 73.1937 57.1853 73.0261 57.9748 72.6988C58.7644 72.3715 59.4812 71.8909 60.084 71.285L70.658 60.718C70.9338 60.4422 71.0887 60.0681 71.0887 59.678C71.0887 59.288 70.9338 58.9139 70.658 58.638V58.638ZM26.945 61.679H30.193V70.249H26.941L26.945 61.679ZM58.014 69.203C57.6832 69.5356 57.2897 69.7993 56.8563 69.9789C56.4228 70.1584 55.9581 70.2502 55.489 70.249H33.13V59.132C33.1331 58.7465 33.2603 58.3722 33.4929 58.0648C33.7254 57.7573 34.0509 57.5329 34.421 57.425C35.8322 57.0141 37.3043 56.853 38.771 56.949C40.3366 57.1695 41.8477 57.678 43.228 58.449C45.0692 59.4886 47.1233 60.0946 49.234 60.221H52.387C52.0958 61.0177 51.576 61.7108 50.8928 62.2134C50.2096 62.7161 49.3932 63.0061 48.546 63.047C48.495 63.042 40.954 63.039 40.954 63.039C40.564 63.039 40.19 63.1939 39.9142 63.4697C39.6384 63.7455 39.4835 64.1195 39.4835 64.5095C39.4835 64.8995 39.6384 65.2735 39.9142 65.5493C40.19 65.8251 40.564 65.98 40.954 65.98L56.868 65.993C57.0612 65.993 57.2524 65.955 57.4309 65.881C57.6093 65.8071 57.7715 65.6987 57.908 65.562L62.751 60.72C63.3411 60.131 64.0959 59.7346 64.9158 59.583C65.7357 59.4315 66.5823 59.5319 67.344 59.871L58.014 69.203Z" fill="white"/>
</g>
<defs>
<clipPath id="clip0">
<rect width="47.085" height="50.191" fill="white" transform="translate(24 23)"/>
</clipPath>
</defs>
</svg>
