<svg xmlns="http://www.w3.org/2000/svg" width="11.582" height="16.036" viewBox="0 0 11.582 16.036"><defs><style>.a{fill:#ee743b;}</style></defs><path class="a" d="M12.245,30H3.336A1.312,1.312,0,0,0,2,31.336v6.236a1.312,1.312,0,0,0,1.336,1.336h8.909a1.312,1.312,0,0,0,1.336-1.336V31.336A1.312,1.312,0,0,0,12.245,30ZM9.127,36.682H6.454L6.9,34.544a1.276,1.276,0,0,1-.445-.98,1.336,1.336,0,1,1,2.673,0,1.276,1.276,0,0,1-.445.98Z" transform="translate(-2 -22.873)"/><path class="a" d="M4.445,20.791H5.782V18.9a3.118,3.118,0,1,1,6.236,0v1.891h1.336a1.515,1.515,0,0,1,.445.045V18.9a4.9,4.9,0,0,0-9.8,0v1.935A1.515,1.515,0,0,1,4.445,20.791Z" transform="translate(-3.109 -14)"/></svg>