<svg xmlns="http://www.w3.org/2000/svg" width="13.458" height="13.458" viewBox="0 0 13.458 13.458"><defs><style>.a{fill:#f28755;}</style></defs><path class="a" d="M12.378,8.833a7.641,7.641,0,0,1-2.4-.382,1.1,1.1,0,0,0-1.067.225L7.4,9.818a8.362,8.362,0,0,1-3.76-3.759L4.747,4.586a1.088,1.088,0,0,0,.268-1.1,7.653,7.653,0,0,1-.384-2.4A1.081,1.081,0,0,0,3.551,0H1.08A1.081,1.081,0,0,0,0,1.08,12.392,12.392,0,0,0,12.378,13.458a1.081,1.081,0,0,0,1.08-1.08V9.913A1.081,1.081,0,0,0,12.378,8.833Z" transform="translate(0 0)"/></svg>