<svg xmlns="http://www.w3.org/2000/svg" width="28.331" height="39.208" viewBox="0 0 28.331 39.208"><defs><style>.a{fill:#f8824b;}</style></defs><path class="a" d="M93.108,20.569a7.075,7.075,0,0,0-4.124-2.427q3.511-1.791,3.087-6.08a6.008,6.008,0,0,0-.86-2.7,5.4,5.4,0,0,0-1.944-1.838A10.7,10.7,0,0,0,86.6,6.468a21.008,21.008,0,0,0-3.3-.53V0H79.677V5.773q-.942,0-2.874.047V0H73.174V5.938q-.778.024-2.286.024l-5-.024V9.8h2.615a1.872,1.872,0,0,1,2.1,1.6v6.763a2.4,2.4,0,0,1,.377.024h-.377v9.472a1.259,1.259,0,0,1-1.367,1.2H66.624l-.731,4.312h4.713q.448,0,1.3.011t1.272.012v6.008H76.8V33.27q.989.024,2.874.024v5.914h3.628V33.2a28.21,28.21,0,0,0,3.428-.353,13.952,13.952,0,0,0,2.863-.813,7.726,7.726,0,0,0,2.285-1.379,6.5,6.5,0,0,0,1.52-2.1,8.915,8.915,0,0,0,.765-2.946A6.98,6.98,0,0,0,93.108,20.569ZM76.873,10.061q.165,0,.931-.012t1.272-.024q.507-.012,1.367.059a13,13,0,0,1,1.449.188,8.072,8.072,0,0,1,1.3.389,3.512,3.512,0,0,1,1.131.66,3.273,3.273,0,0,1,.719.99,3.09,3.09,0,0,1,.295,1.378,3.278,3.278,0,0,1-.212,1.2,2.264,2.264,0,0,1-.636.907,6.446,6.446,0,0,1-.872.636,3.993,3.993,0,0,1-1.143.436q-.695.165-1.213.259a9.934,9.934,0,0,1-1.3.13q-.778.035-1.178.047t-1.1,0q-.7-.012-.813-.012V10.061h0Zm9.909,16.046a3.35,3.35,0,0,1-.577.943,3.273,3.273,0,0,1-.931.706,7.983,7.983,0,0,1-1.119.495,9.008,9.008,0,0,1-1.308.33q-.767.142-1.344.2t-1.378.094q-.8.035-1.249.035T77.745,28.9q-.684-.011-.872-.011V20.923q.188,0,1.119-.024t1.52-.023q.589,0,1.626.071a13.893,13.893,0,0,1,1.744.211,11.463,11.463,0,0,1,1.543.436,4.475,4.475,0,0,1,1.355.719,3.536,3.536,0,0,1,.872,1.084,3.366,3.366,0,0,1,.13,2.71Z" transform="translate(-65.893)"/></svg>