<svg xmlns="http://www.w3.org/2000/svg" xmlns:xlink="http://www.w3.org/1999/xlink" width="151.485" height="75.753" viewBox="0 0 151.485 75.753"><defs><style>.a{fill:url(#a);}.b{opacity:0.05;isolation:isolate;clip-path:url(#b);}.c{fill:#94c6fb;stroke:#a6d4fe;stroke-linejoin:round;stroke-width:0.6px;fill-rule:evenodd;}</style><linearGradient id="a" x1="1.103" y1="1.39" x2="0.277" y2="-0.262" gradientUnits="objectBoundingBox"><stop offset="0" stop-color="#4296d6"/><stop offset="1" stop-color="#20335a"/></linearGradient><clipPath id="b"><path class="a" d="M4.116,0,144.6.028a6.433,6.433,0,0,1,6.864,6.4l-.026,63.216a6.512,6.512,0,0,1-6.458,6.111L6.277,75.71c-4.109,0-6.3-3.951-6.3-6.084L0,3.861A4,4,0,0,1,4.116,0Z" transform="translate(0.021 0)"/></clipPath></defs><g class="b" transform="translate(0 0)"><path class="c" d="M-497-292.269h98.441l5.155-2.436h4.81l6.185-.811,2.405.649,3.437-1.785,1.718,1.785,9.965-.974,3.437-4.87,3.78,2.6,5.842-8.6,1.718-.65,2.405,2.76,7.214-9.741.687,1.623,5.5-45.62,1.374,19.482,2.405-10.228s1.773,3.681,1.719,5.844-.928.382,0,2.435.687,6.169.687,6.169l1.718,2.6-.687,9.254.687,5.52,3.093-16.56,1.031,9.417,2.062,2.435,1.031,4.059,1.375,3.9,3.093-10.553,2.061,3.9,3.437,2.76s2.27,6.209,3.78,6.169,4.123-7.306,4.123-7.306l.687,4.708,1.718,2.273,3.437-5.682.344,3.247,1.718.812,4.467-1.623,1.031,1.136,1.718.162.687,1.3,2.06,3.571v5.845l5.155-4.384a13.732,13.732,0,0,0,2.405,2.922l1.375,1.136s2.407-1.562,2.405-2.922,2.405-1.623,2.405-1.623l1.375,1.786s1.047,1.36,2.405-1.786-.249-2.012,1.374-3.9,4.421-2.624,5.155-3.572.641-6.069.687-7.306,2.749-1.461,2.749-1.461l1.375-10.066,3.093,3.085.687,3.9,2.062,2.922,2.062-9.254.686,4.221,1.031,2.273,1.375,2.922,2.749-.649.687,5.195,4.124,2.111v-4.383l2.405.162,1.031.974v4.871l4.467-.162,4.123-4.871,3.437-5.033,1.03,2.435a2.552,2.552,0,0,1,1.374,2.6,11.571,11.571,0,0,0,1.031,4.546l1.718,6.494,6.872-13.637,3.093-1.461,2.062-1.3,2.062,3.9,3.093-.162v-6.332l3.091-5.358,1.375,2.76,1.031,2.435.452-1.033,3.678-7.887s3.844-6.389,4.991-8.573,2.89-10.63,2.89-10.63l2.765-.613,1.375-15.1,1.029-.974V-425.72h4.124v-1.3h9.621v136.7l-334.51.423Z" transform="translate(326.161 376.608)"/></g></svg>