<svg xmlns="http://www.w3.org/2000/svg" xmlns:xlink="http://www.w3.org/1999/xlink" width="284.742" height="205.69" viewBox="0 0 284.742 205.69"><defs><style>.a{fill:url(#a);}.b{opacity:0.05;isolation:isolate;clip-path:url(#b);}.c{fill:#94c6fb;stroke:#a6d4fe;stroke-linejoin:round;stroke-width:0.6px;fill-rule:evenodd;}</style><linearGradient id="a" x1="1.103" y1="1.39" x2="0.277" y2="-0.262" gradientUnits="objectBoundingBox"><stop offset="0" stop-color="#4296d6"/><stop offset="1" stop-color="#20335a"/></linearGradient><clipPath id="b"><path class="a" d="M7.755,0,271.819.077c10.132,0,12.9,11.58,12.9,17.369l-.05,171.651c0,5.79-3.827,16.594-12.139,16.594l-260.716-.117c-7.724,0-11.838-10.729-11.838-16.519L.016,10.483C.016,4.693,3.481,0,7.755,0Z" transform="translate(0.021 0)"/></clipPath></defs><g class="b"><path class="c" d="M-497-61.133h185.038l9.69-6.614h9.041l11.626-2.2,4.522,1.762,6.46-4.848,3.23,4.848,18.731-2.644,6.46-13.224L-235.1-77l10.98-23.363,3.23-1.764,4.521,7.494,13.56-26.448,1.292,4.408L-191.18-240.55l2.583,52.9,4.521-27.772s3.333,10,3.23,15.869-1.745,1.038,0,6.613,1.292,16.751,1.292,16.751l3.23,7.053-1.292,25.127,1.292,14.988,5.813-44.964,1.938,25.569,3.875,6.612,1.938,11.021,2.584,10.58,5.813-28.654,3.874,10.579,6.46,7.494s4.268,16.86,7.105,16.752,7.751-19.837,7.751-19.837l1.292,12.784,3.23,6.172,6.46-15.429.646,8.817,3.23,2.2,8.4-4.408,1.938,3.086,3.23.441,1.292,3.527,3.872,9.7v15.87l9.69-11.9c.617,2.525,4.521,7.935,4.521,7.935l2.584,3.086s4.525-4.242,4.521-7.935,4.521-4.408,4.521-4.408l2.584,4.849s1.968,3.694,4.521-4.849-.468-5.462,2.583-10.58,8.31-7.124,9.69-9.7,1.2-16.479,1.292-19.837,5.167-3.968,5.167-3.968l2.584-27.331,5.813,8.376,1.292,10.58,3.875,7.935,3.875-25.127,1.289,11.461,1.938,6.172,2.584,7.935,5.167-1.763,1.292,14.105,7.751,5.732v-11.9l4.521.441,1.938,2.645v13.225l8.4-.441L16.156-139.6l6.46-13.665,1.937,6.613s2.869,1.794,2.583,7.052,1.938,12.343,1.938,12.343l3.23,17.633,12.917-37.029,5.813-3.967,3.875-3.527,3.876,10.58,5.815-.441V-161.2l5.81-14.547,2.584,7.494,1.938,6.612.85-2.8L82.7-185.861s7.225-17.348,9.382-23.278S97.51-238,97.51-238l5.2-1.665,2.584-41,1.934-2.645V-423.493h7.752v-3.526h18.085V-55.845L-495.707-54.7Z" transform="translate(175.879 290.139)"/></g></svg>