<svg xmlns="http://www.w3.org/2000/svg" width="122" height="22" viewBox="0 0 122 22"><defs><style>.a{fill:#08ae77;}.b{fill:#fff;}.c{fill:#d8dde1;}</style></defs><g transform="translate(-0.069 -0.375)"><g transform="translate(-0.396 0.204)"><rect class="a" width="23" height="22" transform="translate(0.465 0.17)"/><path class="b" d="M6.525,0,8.189,4.462l4.861.166L9.217,7.552l1.34,4.565L6.525,9.462,2.492,12.117l1.34-4.565L0,4.628l4.861-.166Z" transform="translate(5.659 5.025)"/></g><g transform="translate(24.941 0.204)"><rect class="a" width="22" height="22" transform="translate(0.127 0.17)"/><path class="b" d="M6.525,0,8.189,4.462l4.861.166L9.217,7.552l1.34,4.565L6.525,9.462,2.492,12.117l1.34-4.565L0,4.628l4.861-.166Z" transform="translate(5.217 5.025)"/></g><g transform="translate(49.223 0.204)"><rect class="a" width="23" height="22" transform="translate(-0.154 0.17)"/><path class="b" d="M6.525,0,8.189,4.462l4.861.166L9.217,7.552l1.34,4.565L6.525,9.462,2.492,12.117l1.34-4.565L0,4.628l4.861-.166Z" transform="translate(5.83 5.025)"/></g><g transform="translate(74.561 0.204)"><rect class="a" width="23" height="22" transform="translate(-0.492 0.17)"/><path class="b" d="M6.525,0,8.189,4.462l4.861.166L9.217,7.552l1.34,4.565L6.525,9.462,2.492,12.117l1.34-4.565L0,4.628l4.861-.166Z" transform="translate(5.387 5.025)"/></g><g transform="translate(99.898 0.204)"><rect class="c" width="22" height="22" transform="translate(0.171 0.17)"/><rect class="a" width="11" height="22" transform="translate(0.171 0.17)"/><path class="b" d="M6.525,0,8.189,4.462l4.861.166L9.217,7.552l1.34,4.565L6.525,9.462,2.492,12.117l1.34-4.565L0,4.628l4.861-.166Z" transform="translate(4.945 5.025)"/></g></g></svg>