<svg xmlns="http://www.w3.org/2000/svg" xmlns:xlink="http://www.w3.org/1999/xlink" width="155" height="155" viewBox="0 0 155 155"><defs><style>.a{opacity:0.2;}.a,.b{fill:url(#a);}.c{fill:#fff;}.d{filter:url(#c);}</style><linearGradient id="a" x1="0.537" y1="1" x2="0.46" gradientUnits="objectBoundingBox"><stop offset="0" stop-color="#ee743b"/><stop offset="1" stop-color="#fedea9"/></linearGradient><filter id="c" x="0" y="0" width="155" height="155" filterUnits="userSpaceOnUse"><feOffset dx="4" dy="5" input="SourceAlpha"/><feGaussianBlur stdDeviation="4.5" result="d"/><feFlood flood-opacity="0.059"/><feComposite operator="in" in2="d"/><feComposite in="SourceGraphic"/></filter></defs><g transform="translate(-225.5 -2355.5)"><circle class="a" cx="71" cy="71" r="71" transform="translate(228 2357)"/><g class="d" transform="matrix(1, 0, 0, 1, 225.5, 2355.5)"><circle class="b" cx="64" cy="64" r="64" transform="translate(9.5 8.5)"/></g><g transform="translate(249.361 2378.361)"><path class="c" d="M328.679,86.583V73.122A1.122,1.122,0,0,0,327.557,72H323.07a1.122,1.122,0,0,0-1.122,1.122V86.583h-1.122v-10.1a1.122,1.122,0,0,0-1.122-1.122h-4.487a1.122,1.122,0,0,0-1.122,1.122v10.1h-1.122V79.852a1.122,1.122,0,0,0-1.122-1.122h-4.487a1.122,1.122,0,0,0-1.122,1.122v6.731H304v2.244h26.922V86.583Zm-4.487-12.339h2.244V86.583h-2.244Zm-7.852,3.365h2.244v8.974h-2.244Zm-7.852,3.365h2.243v5.609h-2.243Z" transform="translate(-247.616 -48.148)"/><path class="c" d="M115.6,228.192H66.244v-19.07H64V233.8a3.369,3.369,0,0,0,3.365,3.365h19.07v3.365a1.123,1.123,0,0,1-1.122,1.122,3.365,3.365,0,1,0,0,6.731H96.531a3.365,3.365,0,1,0,0-6.731,1.123,1.123,0,0,1-1.122-1.122v-3.365h19.07a3.369,3.369,0,0,0,3.365-3.365V208H115.6Zm-19.07,15.7a1.122,1.122,0,1,1,0,2.244H85.314a1.122,1.122,0,0,1,0-2.244,3.369,3.369,0,0,0,3.365-3.365v-3.365h4.487v3.365A3.369,3.369,0,0,0,96.531,243.9Zm17.948-8.974H67.365a1.123,1.123,0,0,1-1.122-1.122v-3.365H115.6V233.8a1.123,1.123,0,0,1-1.122,1.122Z" transform="translate(-41.269 -165.078)"/><rect class="c" width="18.462" height="2.637" transform="translate(37.978 33.583)"/><ellipse class="c" cx="0.879" cy="1.319" rx="0.879" ry="1.319" transform="translate(48.528 66.11)"/><path class="c" d="M116.487,253.461v-2.244h1.122a1.122,1.122,0,0,0,1.122-1.122v-6.731a1.122,1.122,0,0,0-1.122-1.122h-1.122V240h-2.244v2.244h-1.122A1.122,1.122,0,0,0,112,243.365V250.1a1.122,1.122,0,0,0,1.122,1.122h1.122v2.244Zm-2.244-8.974h2.244v4.487h-2.244Z" transform="translate(-82.539 -192.591)"/><path class="c" d="M196.487,205.461v-2.244h1.122a1.122,1.122,0,0,0,1.122-1.122v-6.731a1.122,1.122,0,0,0-1.122-1.122h-1.122V192h-2.244v2.244h-1.122A1.122,1.122,0,0,0,192,195.365V202.1a1.122,1.122,0,0,0,1.122,1.122h1.122v2.244Zm-2.244-8.974h2.244v4.487h-2.244Z" transform="translate(-151.321 -151.321)"/><path class="c" d="M274.244,224v2.244h-1.122A1.122,1.122,0,0,0,272,227.365V234.1a1.122,1.122,0,0,0,1.122,1.122h1.122v2.244h2.244v-2.244h1.122a1.122,1.122,0,0,0,1.122-1.122v-6.731a1.122,1.122,0,0,0-1.122-1.122h-1.122V224Zm2.244,8.974h-2.244v-4.487h2.244Z" transform="translate(-220.104 -178.834)"/><path class="c" d="M354.244,200v2.244h-1.122A1.122,1.122,0,0,0,352,203.365V210.1a1.122,1.122,0,0,0,1.122,1.122h1.122v2.244h2.244v-2.244h1.122a1.122,1.122,0,0,0,1.122-1.122v-6.731a1.122,1.122,0,0,0-1.122-1.122h-1.122V200Zm2.244,8.974h-2.244v-4.487h2.244Z" transform="translate(-288.886 -158.199)"/><path class="c" d="M36.192,66.1a10.071,10.071,0,0,0-1.353-5.05,1.122,1.122,0,0,0-1.531-.409l-6.09,3.516V57.122A1.122,1.122,0,0,0,26.1,56a10.1,10.1,0,1,0,10.1,10.1Zm-2.8-2.915a7.856,7.856,0,0,1-6.171,10.686V66.744Zm-8.415-4.857v6.651h-6.65a7.87,7.87,0,0,1,6.65-6.651Zm-6.649,8.894h6.649v6.649A7.868,7.868,0,0,1,18.325,67.218Z" transform="translate(0 -34.391)"/><path class="c" d="M104.561,27.067a1.122,1.122,0,0,0,1.122,0l7.772-4.487a1.122,1.122,0,0,0,.561-.972h0a1.122,1.122,0,0,0-.151-.562A10.131,10.131,0,0,0,105.122,16,1.122,1.122,0,0,0,104,17.122V26.1a1.122,1.122,0,0,0,.561.971Zm1.683-8.743a7.9,7.9,0,0,1,5.048,2.914l-5.048,2.914Z" transform="translate(-75.661)"/></g></g></svg>