<svg xmlns="http://www.w3.org/2000/svg" width="104.517" height="104.517" viewBox="0 0 104.517 104.517"><defs><style>.a{fill:#fedea9;}.b{fill:#ee743b;}.c{fill:#16223b;}</style></defs><g transform="translate(-1035 -948)"><g transform="translate(1035 948)"><rect class="a" width="104.517" height="104.517" rx="52.259" transform="translate(0 0)"/></g><g transform="translate(0 1)"><g transform="translate(1077.223 972)"><path class="b" d="M25.82,57.006a.7.7,0,0,1-.388-.077A1.277,1.277,0,0,1,24.58,55.3L41.708,2.833a1.3,1.3,0,1,1,2.48.775L27.06,56.154A1.257,1.257,0,0,1,25.82,57.006Z" transform="translate(-24.513 -1.913)"/></g><g transform="translate(1087.83 981.833)"><path class="b" d="M64.085,19.56H62.458v-3.1A1.886,1.886,0,0,0,60.6,14.6H48.9a1.163,1.163,0,1,0,0,2.325H60.133V19.56H46.8a1.163,1.163,0,0,0,0,2.325H63.62V43.74H39.363a1.163,1.163,0,1,0,0,2.325H64.085a1.886,1.886,0,0,0,1.86-1.86V21.42A1.886,1.886,0,0,0,64.085,19.56Z" transform="translate(-38.2 -14.6)"/><path class="b" d="M41.063,44.758H56.95l.155-1.008a4.44,4.44,0,0,1,3.72-3.72l1.008-.155V31.583l-1.008-.155a4.619,4.619,0,0,1-3.72-3.72L56.95,26.7H45.713a1.163,1.163,0,0,0,0,2.325h9.3a6.8,6.8,0,0,0,4.418,4.418V37.86a6.909,6.909,0,0,0-4.418,4.5H41.063A1.192,1.192,0,0,0,39.9,43.518,1.263,1.263,0,0,0,41.063,44.758Z" transform="translate(-38.582 -17.322)"/><path class="c" d="M49.11,37.128A4.93,4.93,0,0,0,45.623,32.4l-.7,2.248a2.581,2.581,0,0,1,1.86,2.48,2.613,2.613,0,0,1-2.635,2.635,3.3,3.3,0,0,1-.853-.155l-.7,2.248a5,5,0,0,0,1.55.233A4.9,4.9,0,0,0,49.11,37.128Z" transform="translate(-39.19 -18.605)"/></g><g transform="translate(1059 981.833)"><path class="b" d="M28.435,14.6H6.425a1.886,1.886,0,0,0-1.86,1.86v3.1H2.86A1.886,1.886,0,0,0,1,21.42V44.205a1.886,1.886,0,0,0,1.86,1.86H18.9a1.163,1.163,0,0,0,0-2.325H3.325V21.885H26.808a1.192,1.192,0,0,0,1.163-1.163,1.141,1.141,0,0,0-1.163-1.163H6.89V16.925H28.435A1.192,1.192,0,0,0,29.6,15.763,1.141,1.141,0,0,0,28.435,14.6Z" transform="translate(-1 -14.6)"/><path class="b" d="M26.628,26.5H11.283l-.155,1.008a4.44,4.44,0,0,1-3.72,3.72L6.4,31.383v8.293l1.008.155a4.619,4.619,0,0,1,3.72,3.72l.155,1.008H21.59a1.163,1.163,0,0,0,0-2.325H13.22A6.8,6.8,0,0,0,8.8,37.815V33.4a6.909,6.909,0,0,0,4.418-4.5H26.628A1.192,1.192,0,0,0,27.79,27.74,1.207,1.207,0,0,0,26.628,26.5Z" transform="translate(-2.215 -17.277)"/><path class="c" d="M22.8,36.538a4.93,4.93,0,0,0,3.488,4.728l.7-2.248a2.676,2.676,0,0,1-1.86-2.558,2.613,2.613,0,0,1,2.635-2.635,3.3,3.3,0,0,1,.853.155l.7-2.248a5,5,0,0,0-1.55-.233A5.114,5.114,0,0,0,22.8,36.538Z" transform="translate(-5.905 -18.402)"/></g></g></g></svg>