<svg width="36" height="36" viewBox="0 0 36 36" fill="none" xmlns="http://www.w3.org/2000/svg">
<rect width="36" height="36" rx="18" fill="#9A9BAA"/>
<path d="M23.3337 22.4445H20.9633V18.4445C20.9633 17.8172 20.2593 17.2924 19.632 17.2924C19.0047 17.2924 18.5929 17.8172 18.5929 18.4445V22.4445H16.2226V15.3334H18.5929V16.5186C18.9854 15.8837 19.9893 15.474 20.6818 15.474C22.1464 15.474 23.3337 16.6837 23.3337 18.1482V22.4445ZM15.0374 22.4445H12.667V15.3334H15.0374V22.4445ZM13.8522 11.7778C14.5067 11.7778 15.0374 12.3085 15.0374 12.963C15.0374 13.6176 14.5067 14.1482 13.8522 14.1482C13.1976 14.1482 12.667 13.6176 12.667 12.963C12.667 12.3085 13.1976 11.7778 13.8522 11.7778Z" fill="#E6E6E6"/>
</svg>
