<svg width="36" height="36" viewBox="0 0 36 36" fill="none" xmlns="http://www.w3.org/2000/svg">
<rect width="36" height="36" rx="18" fill="#9A9BAA"/>
<g clip-path="url(#clip0)">
<path d="M23.3327 18.0001C23.3327 19.0717 23.3327 19.7945 23.3078 20.1932C23.2579 21.1652 22.9838 21.9129 22.4355 22.4362C21.8872 22.9596 21.1645 23.2586 20.1925 23.3085C19.7937 23.3334 19.0461 23.3334 17.9993 23.3334C16.9277 23.3334 16.205 23.3334 15.8062 23.3085C14.8342 23.2586 14.0866 22.9845 13.5632 22.4362C13.0398 21.9129 12.7408 21.1652 12.6909 20.1932C12.666 19.7945 12.666 19.0468 12.666 18.0001C12.666 16.9534 12.666 16.2057 12.6909 15.8069C12.7408 14.835 13.0149 14.0873 13.5632 13.5639C14.0866 13.0406 14.8342 12.7415 15.8062 12.6917C16.205 12.6667 16.9526 12.6667 17.9993 12.6667C19.071 12.6667 19.7937 12.6667 20.1925 12.6917C21.1645 12.7415 21.9121 13.0157 22.4355 13.5639C22.9588 14.1122 23.2579 14.835 23.3078 15.8069C23.3078 16.2057 23.3327 16.9284 23.3327 18.0001ZM18.5227 13.6138C18.1987 13.6138 18.0243 13.6138 17.9993 13.6138C17.9744 13.6138 17.8 13.6138 17.476 13.6138C17.152 13.6138 16.9028 13.6138 16.7532 13.6138C16.5788 13.6138 16.3545 13.6138 16.0803 13.6387C15.8062 13.6387 15.557 13.6636 15.3576 13.7135C15.1582 13.7384 14.9838 13.7882 14.8592 13.8381C14.6349 13.9378 14.4355 14.0624 14.2361 14.2368C14.0617 14.4113 13.937 14.6107 13.8374 14.8599C13.7875 14.9845 13.7377 15.159 13.7127 15.3583C13.6878 15.5577 13.6629 15.782 13.638 16.0811C13.638 16.3552 13.6131 16.5795 13.6131 16.754C13.6131 16.9284 13.6131 17.1777 13.6131 17.4767C13.6131 17.8007 13.6131 17.9752 13.6131 18.0001C13.6131 18.025 13.6131 18.1995 13.6131 18.5234C13.6131 18.8474 13.6131 19.0967 13.6131 19.2462C13.6131 19.4206 13.6131 19.6449 13.638 19.9191C13.638 20.1932 13.6629 20.4424 13.7127 20.6418C13.7626 20.8412 13.7875 21.0157 13.8374 21.1403C13.937 21.3646 14.0617 21.5639 14.2361 21.7633C14.4106 21.9378 14.6099 22.0624 14.8592 22.1621C14.9838 22.2119 15.1582 22.2618 15.3576 22.2867C15.557 22.3116 15.7813 22.3365 16.0803 22.3615C16.3794 22.3864 16.5788 22.3864 16.7532 22.3864C16.9277 22.3864 17.1769 22.3864 17.476 22.3864C17.8 22.3864 17.9744 22.3864 17.9993 22.3864C18.0243 22.3864 18.1987 22.3864 18.5227 22.3864C18.8467 22.3864 19.0959 22.3864 19.2455 22.3864C19.4199 22.3864 19.6442 22.3864 19.9184 22.3615C20.1925 22.3615 20.4417 22.3365 20.6411 22.2867C20.8405 22.2618 21.0149 22.2119 21.1395 22.1621C21.3638 22.0624 21.5632 21.9378 21.7626 21.7633C21.937 21.5889 22.0617 21.3895 22.1613 21.1403C22.2112 21.0157 22.261 20.8412 22.286 20.6418C22.3109 20.4424 22.3358 20.2181 22.3607 19.9191C22.3607 19.6449 22.3856 19.4206 22.3856 19.2462C22.3856 19.0717 22.3856 18.8225 22.3856 18.5234C22.3856 18.1995 22.3856 18.025 22.3856 18.0001C22.3856 17.9752 22.3856 17.8007 22.3856 17.4767C22.3856 17.1527 22.3856 16.9035 22.3856 16.754C22.3856 16.5795 22.3856 16.3552 22.3607 16.0811C22.3607 15.8069 22.3358 15.5577 22.286 15.3583C22.261 15.159 22.2112 14.9845 22.1613 14.8599C22.0617 14.6356 21.937 14.4362 21.7626 14.2368C21.5881 14.0624 21.3888 13.9378 21.1395 13.8381C21.0149 13.7882 20.8405 13.7384 20.6411 13.7135C20.4417 13.6886 20.2174 13.6636 19.9184 13.6387C19.6442 13.6387 19.4199 13.6138 19.2455 13.6138C19.0959 13.6138 18.8467 13.6138 18.5227 13.6138ZM19.9184 16.0562C20.4417 16.5795 20.7159 17.2275 20.7159 18.0001C20.7159 18.7727 20.4417 19.3957 19.9184 19.944C19.395 20.4674 18.747 20.7415 17.9744 20.7415C17.2018 20.7415 16.5788 20.4674 16.0305 19.944C15.5071 19.4206 15.233 18.7727 15.233 18.0001C15.233 17.2275 15.5071 16.6044 16.0305 16.0562C16.5539 15.5328 17.2018 15.2586 17.9744 15.2586C18.747 15.2586 19.395 15.5079 19.9184 16.0562ZM19.2455 19.2462C19.5944 18.8973 19.7688 18.4736 19.7688 18.0001C19.7688 17.5266 19.5944 17.078 19.2455 16.7291C18.8965 16.3801 18.4729 16.2057 17.9744 16.2057C17.476 16.2057 17.0523 16.3801 16.7034 16.7291C16.3545 17.078 16.18 17.5016 16.18 18.0001C16.18 18.4985 16.3545 18.9222 16.7034 19.2462C17.0523 19.5951 17.476 19.7696 17.9744 19.7696C18.4729 19.7696 18.8965 19.5951 19.2455 19.2462ZM21.2891 14.6854C21.4137 14.8101 21.4884 14.9596 21.4884 15.134C21.4884 15.3085 21.4137 15.458 21.2891 15.5826C21.1645 15.7072 21.0149 15.782 20.8405 15.782C20.666 15.782 20.5165 15.7072 20.3919 15.5826C20.2673 15.458 20.1925 15.3085 20.1925 15.134C20.1925 14.9596 20.2673 14.8101 20.3919 14.6854C20.5165 14.5608 20.666 14.4861 20.8405 14.4861C21.0149 14.4861 21.1645 14.5608 21.2891 14.6854Z" fill="#E6E6E6"/>
</g>
<defs>
<clipPath id="clip0">
<rect width="16" height="16" fill="white" transform="translate(10 10)"/>
</clipPath>
</defs>
</svg>
