<svg width="36" height="36" viewBox="0 0 36 36" fill="none" xmlns="http://www.w3.org/2000/svg">
<rect width="36" height="36" rx="18" fill="#9A9BAA"/>
<path d="M24.973 14.0083C24.4599 14.2359 23.9084 14.3897 23.3298 14.4588C23.9204 14.1048 24.3741 13.5441 24.5877 12.8759C24.0348 13.2038 23.4226 13.4419 22.7708 13.5702C22.249 13.0142 21.5054 12.6667 20.6825 12.6667C19.1024 12.6667 17.8213 13.9477 17.8213 15.5278C17.8213 15.752 17.8466 15.9704 17.8954 16.1798C15.5176 16.0605 13.4093 14.9214 11.9982 13.1904C11.7519 13.613 11.6108 14.1045 11.6108 14.6288C11.6108 15.6214 12.1159 16.4972 12.8837 17.0103C12.4147 16.9953 11.9735 16.8667 11.5878 16.6524C11.5875 16.6643 11.5875 16.6763 11.5875 16.6883C11.5875 18.0746 12.5737 19.2309 13.8826 19.4938C13.6425 19.5592 13.3897 19.5942 13.1288 19.5942C12.9444 19.5942 12.7652 19.5762 12.5905 19.5429C12.9546 20.6795 14.0112 21.5067 15.2632 21.5297C14.284 22.2972 13.0503 22.7546 11.7099 22.7546C11.4789 22.7546 11.2512 22.741 11.0273 22.7145C12.2935 23.5263 13.7974 24.0001 15.4132 24.0001C20.6758 24.0001 23.5536 19.6404 23.5536 15.8595C23.5536 15.7355 23.5508 15.6121 23.5453 15.4894C24.1044 15.086 24.5894 14.5821 24.973 14.0083Z" fill="#E6E6E6"/>
</svg>
