<svg width="38" height="38" viewBox="0 0 38 38" fill="none" xmlns="http://www.w3.org/2000/svg">
<rect width="38" height="38" rx="19" fill="#9A9BAA"/>
<g clip-path="url(#clip0)">
<path d="M26.191 14.8776C26.0181 14.1435 25.5115 13.5647 24.869 13.3671C23.6952 13 19 13 19 13C19 13 14.3048 13 13.131 13.3529C12.5008 13.5506 11.9819 14.1435 11.8089 14.8776C11.5 16.2188 11.5 19 11.5 19C11.5 19 11.5 21.7953 11.8089 23.1224C11.9819 23.8565 12.4885 24.4353 13.131 24.6329C14.3171 25 19 25 19 25C19 25 23.6952 25 24.869 24.6471C25.5115 24.4494 26.0181 23.8706 26.191 23.1365C26.4999 21.7953 26.4999 19.0141 26.4999 19.0141C26.4999 19.0141 26.5123 16.2188 26.191 14.8776Z" fill="#E6E6E6"/>
<path d="M21.4093 19.0001L17.5049 16.4307V21.5695L21.4093 19.0001Z" fill="#9A9BAA"/>
</g>
<defs>
<clipPath id="clip0">
<rect width="15" height="12" fill="white" transform="translate(11.5 13)"/>
</clipPath>
</defs>
</svg>
