<svg xmlns="http://www.w3.org/2000/svg" width="30.589" height="37.567" viewBox="0 0 30.589 37.567"><defs><style>.a{fill:#fff;}</style></defs><path class="a" d="M26.83,14.229a8.5,8.5,0,0,1,4.056-7.153,8.768,8.768,0,0,0-6.87-3.718c-2.921-.3-5.705,1.72-7.191,1.72s-3.773-1.679-6.2-1.636A9.2,9.2,0,0,0,2.855,8.151C-.458,13.9,2.006,22.414,5.234,27.082c1.579,2.281,3.462,4.842,5.931,4.752,2.379-.1,3.277-1.541,6.154-1.541s3.685,1.541,6.2,1.494c2.561-.049,4.181-2.327,5.746-4.614a20.905,20.905,0,0,0,2.6-5.343A8.312,8.312,0,0,1,26.83,14.229Z" transform="translate(-1.282 5.73)"/><path class="a" d="M12.484,6a8.277,8.277,0,0,0,1.954-6A8.409,8.409,0,0,0,8.9,2.844,7.874,7.874,0,0,0,6.912,8.656,6.965,6.965,0,0,0,12.484,6Z" transform="translate(8.333)"/></svg>