<svg width="18" height="24" viewBox="0 0 18 24" fill="none" xmlns="http://www.w3.org/2000/svg">
<path d="M9 0C4.0274 0 0 4.09334 0 9.14736C0 11.1523 0.616439 13.0319 1.80822 14.6191L8.46575 23.7247C8.46575 23.7664 8.50685 23.7664 8.50685 23.7664C8.83562 24.1424 9.32877 24.017 9.57534 23.7247C11.5068 21.135 15 16.2898 16.3562 14.452C17.4247 12.9066 18 11.0687 18 9.14736C18 4.09334 13.9315 0 9 0ZM9 14.0761C6.32877 14.0761 4.15069 11.8623 4.15069 9.14736C4.15069 6.43239 6.32877 4.21865 9 4.21865C11.6712 4.21865 13.8493 6.43239 13.8493 9.14736C13.8493 11.8623 11.6712 14.0761 9 14.0761Z" fill="#EE743B"/>
</svg>
