<svg width="18" height="18" viewBox="0 0 18 18" fill="none" xmlns="http://www.w3.org/2000/svg">
<path d="M16.9615 12.4615C15.7067 12.4615 14.4952 12.2452 13.3702 11.899C13.024 11.7692 12.6346 11.8558 12.375 12.1587L10.1683 14.3654C7.3125 12.9375 5.01923 10.601 3.59135 7.78846L5.79808 5.58173C6.05769 5.32212 6.14423 4.93269 6.05769 4.58654C5.66827 3.46154 5.49519 2.25 5.49519 0.995193C5.49519 0.432693 5.0625 0 4.5 0H0.995194C0.432694 0 0 0.432693 0 0.995193C0 10.3846 7.61539 18 17.0048 18C17.5673 18 18 17.5673 18 17.0048V13.5C17.9567 12.8942 17.524 12.4615 16.9615 12.4615Z" fill="#EE743B"/>
</svg>
