<svg width="81" height="34" viewBox="0 0 81 34" fill="none" xmlns="http://www.w3.org/2000/svg">
<g filter="url(#filter0_f)">
<path d="M33.2001 12.9C33.4001 12.8 33.5 12.6 33.5 12.3C33.5 12 33.4001 11.8 33.2001 11.7C33.0001 11.6 32.7001 11.5 32.2001 11.5H31.8V13H32.2001C32.6001 13 33.0001 13 33.2001 12.9Z" fill="#FF7800"/>
<path d="M40.0999 11.9C40.0999 11.7 39.9999 11.5 39.8999 11.3C39.8999 11.5 39.7999 11.7 39.7999 11.8C39.7999 12 39.6999 12.1 39.6999 12.3L38.8999 14.8H40.8999L40.0999 12.3C40.1999 12.2 40.0999 12.1 40.0999 11.9Z" fill="#FF7800"/>
<path d="M32.7001 20C32.7001 19.9 32.6 19.7 32.6 19.5C32.6 19.6 32.5 19.8 32.5 19.9C32.5 20 32.4001 20.1 32.4001 20.3L31.8 22.2H33.3L32.7001 20.3C32.7001 20.2 32.7001 20.1 32.7001 20Z" fill="#FF7800"/>
<path d="M61.5999 2H19C17.4 2 16.2 3.3 16.2 4.8V29.1C16.2 30.7 17.5 31.9 19 31.9H61.5999C63.1999 31.9 64.4 30.6 64.4 29.1V4.9C64.5 3.3 63.1999 2 61.5999 2ZM19.9 10H28.2V11.5H19.9V10ZM19.9 12.9H28.2V14.4H19.9V12.9ZM19.9 16H28.2V17.5H19.9V16ZM24.5 19.9H23.2V24.2H21.7V19.9H20.4V18.6H24.5V19.9ZM33.9 24.2L33.5999 23.2H31.4L31.1 24.2H29.6H29.5H28L26.7 22V24.2H25.2999V18.6H26.9C27.5 18.6 28 18.6 28.2 18.7C28.4 18.8 28.6999 18.9 28.7999 19C28.9999 19.2 29.1999 19.4 29.2999 19.6C29.3999 19.8 29.5 20.1 29.5 20.4C29.5 20.8 29.4 21.2 29.2 21.5C29 21.8 28.6999 22 28.2999 22L29.7999 24.2L31.7 18.6H33.5999L35.5 24.2H33.9ZM35.5 16.5C35.3 16.8 35.0999 17 34.7999 17.2C34.4999 17.3 34.2 17.4 33.9 17.5C33.6 17.6 32.8999 17.6 32.0999 17.6H30V10H32.0999C32.8999 10 33.5 10 33.9 10.1C34.2 10.2 34.4999 10.2 34.7999 10.4C34.7999 10.5 35 10.8 35.2 11C35.3 11.3 35.4 11.6 35.4 11.9C35.4 12.3 35.2999 12.7 35.0999 12.9C34.8999 13.2 34.4999 13.3 34.0999 13.5C34.5999 13.5 35.1 13.7 35.4 14.1C35.7 14.4 35.9 14.9 35.9 15.4C35.7 15.8 35.6 16.1 35.5 16.5ZM41.5 24.2H40L37.9 21.3C37.9 21.2 37.8 21.1 37.7 20.9C37.6 20.7 37.5 20.5 37.4 20.3C37.4 20.5 37.5 20.7 37.5 20.9C37.5 21.1 37.5 21.2 37.5 21.4V24.2H36V18.6H37.5L39.5999 21.5C39.5999 21.6 39.6999 21.7 39.7999 21.9C39.8999 22.1 39.9999 22.3 40.0999 22.5C40.0999 22.3 40 22.1 40 21.9C40 21.7 40 21.6 40 21.4V18.6H41.5V24.2ZM41.4 16.2H38.5L38.0999 17.5H36.0999L38.5999 10H41.2L43.7999 17.5H41.7999L41.4 16.2ZM45.7999 23.8C45.3999 24.2 44.9 24.3 44.2 24.3C43.8 24.3 43.4999 24.2 43.0999 24.1C42.7999 24 42.5 23.8 42.2 23.5L42.9 22.4C43.1 22.7 43.3999 22.9 43.5999 23C43.7999 23.1 43.9999 23.2 44.2999 23.2C44.4999 23.2 44.6999 23.1 44.7999 23C44.8999 22.9 45 22.7 45 22.6C45 22.4 44.8999 22.3 44.7999 22.2C44.6999 22.1 44.4 22 44 21.9C43.4 21.8 43.0999 21.6 42.7999 21.3C42.5999 21.1 42.5 20.7 42.5 20.3C42.5 19.8 42.7 19.3 43 19C43.4 18.7 43.8 18.5 44.4 18.5C44.7 18.5 44.9999 18.5 45.2999 18.6C45.5999 18.7 45.7999 18.8 46.0999 19L45.7 20C45.5 19.9 45.3 19.7 45.2 19.7C45 19.6 44.8 19.6 44.7 19.6C44.5 19.6 44.3999 19.6 44.2999 19.7C43.9999 19.8 44 19.9 44 20.1C44 20.2 44.1 20.4 44.2 20.4C44.3 20.5 44.4999 20.6 44.7999 20.6H44.9C45.5 20.8 45.8999 21 46.0999 21.2C46.1999 21.3 46.3 21.5 46.4 21.7C46.5 21.9 46.5 22.1 46.5 22.3C46.4 23 46.1999 23.4 45.7999 23.8ZM46.7999 13.2C46.6999 13 46.5 12.7 46.4 12.4C46.4 12.7 46.5 13 46.5 13.2C46.5 13.4 46.5 13.7 46.5 13.8V17.5H44.5V10H46.5L49.2999 13.9C49.3999 14 49.3999 14.1 49.5999 14.4C49.6999 14.6 49.9 14.9 50 15.2C50 14.9 49.9 14.6 49.9 14.4C49.9 14.2 49.9 13.9 49.9 13.8V10H51.9V17.5H49.9L47.0999 13.6C46.9999 13.6 46.8999 13.4 46.7999 13.2ZM50.7 19.8H48.7V20.8H50.5V22H48.7V24.2H47.2V18.6H50.7V19.8ZM55 19.8H53V20.8H54.7999V22H53V22.9H55V24.2H51.5V18.6H55V19.8ZM58.7999 24.2L57.5 22V24.2H56V18.6H57.5999C58.1999 18.6 58.7 18.6 58.9 18.7C59.1 18.8 59.4 18.9 59.5 19C59.7 19.2 59.9 19.4 60 19.6C60.1 19.8 60.2 20.1 60.2 20.4C60.2 20.8 60.1 21.2 59.9 21.5C59.7 21.8 59.4 22 59 22L60.5 24.3H58.7999V24.2ZM57.9 17.5L55.5 14.1V17.5H53.5V10H55.5V13.4L57.9 10H60.2999L57.5 13.7L60.5 17.5H57.9Z" fill="#FF7800"/>
<path d="M58.5 19.9C58.4 19.8 58.1 19.7 57.8 19.7H57.5V21.2H57.8C58.1 21.2 58.4 21.1 58.5 21C58.7 20.9 58.7 20.7 58.7 20.5C58.7 20.2 58.6 20 58.5 19.9Z" fill="#FF7800"/>
<path d="M33.5 14.5999C33.3 14.4999 33 14.3999 32.5 14.3999H31.8V15.9999H32.5C33 15.9999 33.3 15.8999 33.5 15.7999C33.7 15.6999 33.8 15.4999 33.8 15.1999C33.8 14.8999 33.7 14.6999 33.5 14.5999Z" fill="#FF7800"/>
<path d="M27.7 19.9C27.6 19.8 27.3 19.7 27 19.7H26.7V21.2H27C27.3 21.2 27.6 21.1 27.7 21C27.9 20.9 27.9 20.7 27.9 20.5C27.9 20.2 27.9 20 27.7 19.9Z" fill="#FF7800"/>
</g>
<defs>
<filter id="filter0_f" x="-1.3" y="0.7" width="83.6" height="32.6" filterUnits="userSpaceOnUse" color-interpolation-filters="sRGB">
<feFlood flood-opacity="0" result="BackgroundImageFix"/>
<feBlend mode="normal" in="SourceGraphic" in2="BackgroundImageFix" result="shape"/>
<feGaussianBlur stdDeviation="0.65" result="effect1_foregroundBlur"/>
</filter>
</defs>
</svg>
