<svg width="263" height="58" viewBox="0 0 263 58" fill="none" xmlns="http://www.w3.org/2000/svg">
<g clip-path="url(#clip0)" filter="url(#filter0_f)">
<path d="M117.9 39.5V29.9C118 29.1 117.8 28.3 117.6 27.5C117.3 26.7 116.9 26 116.3 25.5C115.7 24.9 115.1 24.5 114.3 24.2C113.6 23.9 112.8 23.8 112 23.8C111 23.7 109.9 23.9 109 24.4C108.1 24.9 107.3 25.6 106.7 26.5C106.2 25.6 105.5 24.9 104.6 24.4C103.7 23.9 102.7 23.7 101.7 23.7C100.8 23.7 100 23.8 99.2 24.2C98.4 24.6 97.8 25.2 97.3 25.9V24H94V39.4H97.3V30.9C97.2 30.4 97.3 29.8 97.4 29.3C97.6 28.8 97.8 28.3 98.2 27.9C98.6 27.5 99 27.2 99.5 27C100 26.8 100.5 26.7 101 26.7C103.2 26.7 104.3 28.1 104.3 30.8V39.4H107.6V30.9C107.5 30.4 107.6 29.8 107.7 29.3C107.9 28.8 108.1 28.3 108.5 27.9C108.9 27.5 109.3 27.2 109.8 27C110.3 26.8 110.8 26.7 111.3 26.7C113.5 26.7 114.6 28.1 114.6 30.8V39.4L117.9 39.5ZM166.8 24.2H161.4V19.5H158.1V24.2H155.1V27.3H158.2V34.4C158.2 38 159.6 40.1 163.4 40.1C164.8 40.1 166.3 39.7 167.5 38.9L166.6 36C165.7 36.5 164.7 36.8 163.7 36.9C162.1 36.9 161.5 35.9 161.5 34.3V27.3H166.9L166.8 24.2ZM194.7 23.8C193.9 23.8 193.1 24 192.4 24.4C191.7 24.8 191.1 25.4 190.7 26.1V24.2H187.5V39.6H190.8V31C190.8 28.5 191.9 27 193.9 27C194.6 27 195.3 27.1 195.9 27.4L196.9 24.2C196.2 23.9 195.4 23.7 194.7 23.8ZM152.5 25.4C150.6 24.3 148.5 23.7 146.4 23.8C142.6 23.8 140.1 25.7 140.1 28.7C140.1 31.2 141.9 32.8 145.3 33.2L146.9 33.4C148.7 33.7 149.5 34.1 149.5 35C149.5 36.2 148.3 36.9 146.1 36.9C144.3 37 142.5 36.4 141.1 35.3L139.5 37.9C141.4 39.3 143.7 40 146 39.9C150.3 39.9 152.9 37.8 152.9 34.9C152.9 32 150.9 30.8 147.6 30.3L146 30.1C144.6 29.9 143.4 29.6 143.4 28.6C143.4 27.6 144.5 26.8 146.3 26.8C148 26.8 149.6 27.3 151 28.1L152.5 25.4ZM240.2 23.8C239.4 23.8 238.6 24 237.9 24.4C237.2 24.8 236.6 25.4 236.2 26.1V24.2H233V39.6H236.3V31C236.3 28.5 237.4 27 239.4 27C240.1 27 240.8 27.1 241.4 27.4L242.4 24.2C241.7 23.9 240.9 23.7 240.2 23.8ZM198 31.8C198 32.9 198.1 34 198.5 35C198.9 36 199.5 36.9 200.2 37.7C201 38.5 201.9 39 202.8 39.4C203.8 39.8 204.8 39.9 205.9 39.9C207.9 40 209.8 39.3 211.3 38.1L209.7 35.4C208.6 36.3 207.2 36.8 205.8 36.8C204.6 36.7 203.5 36.1 202.6 35.2C201.8 34.3 201.3 33.1 201.3 31.9C201.3 30.7 201.8 29.5 202.6 28.6C203.4 27.7 204.6 27.1 205.8 27C207.2 27 208.6 27.5 209.7 28.4L211.3 25.7C209.8 24.4 207.9 23.8 205.9 23.9C204.8 23.8 203.8 24 202.8 24.4C201.8 24.8 200.9 25.4 200.2 26.1C199.4 26.9 198.9 27.8 198.5 28.8C198.1 29.6 198 30.7 198 31.8ZM228.7 31.8V24.1H225.4V26C224.8 25.3 224.1 24.7 223.3 24.3C222.5 23.9 221.6 23.7 220.7 23.8C218.6 23.8 216.6 24.6 215.1 26.2C213.6 27.7 212.8 29.8 212.8 31.9C212.8 34 213.6 36.1 215.1 37.6C216.6 39.1 218.6 40 220.7 40C221.6 40 222.5 39.8 223.3 39.5C224.1 39.1 224.8 38.5 225.4 37.8V39.7H228.7V31.8ZM216.5 31.8C216.6 30.9 216.9 30 217.4 29.3C217.9 28.6 218.7 28 219.5 27.7C220.3 27.4 221.2 27.3 222.1 27.5C223 27.7 223.7 28.2 224.4 28.8C225 29.5 225.4 30.3 225.6 31.2C225.8 32.1 225.7 33 225.3 33.8C225 34.6 224.4 35.3 223.6 35.8C222.9 36.3 222 36.6 221.1 36.6C220.5 36.6 219.9 36.5 219.3 36.2C218.7 36 218.2 35.6 217.8 35.1C217.4 34.6 217 34.1 216.8 33.5C216.5 33.1 216.4 32.5 216.5 31.8ZM177 23.8C174.9 23.8 172.9 24.7 171.5 26.2C170 27.7 169.2 29.8 169.3 31.9C169.3 34 170.2 36.1 171.7 37.6C173.2 39.1 175.2 39.9 177.3 39.9C179.6 40 181.8 39.3 183.6 37.8L182 35.3C180.8 36.3 179.2 36.9 177.6 36.9C176.5 37 175.4 36.7 174.6 36C173.8 35.3 173.2 34.3 173.1 33.2H184.3C184.3 32.8 184.3 32.4 184.3 31.9C184.2 27 181.2 23.8 177 23.8ZM177 26.8C177.5 26.8 178 26.9 178.4 27.1C178.9 27.3 179.3 27.6 179.6 27.9C180 28.2 180.2 28.7 180.4 29.1C180.6 29.6 180.7 30.1 180.7 30.6H172.8C172.9 29.6 173.3 28.6 174.1 27.9C174.9 27.1 175.9 26.7 177 26.8ZM259 31.9V18H255.9V26C255.3 25.3 254.6 24.7 253.8 24.3C253 23.9 252.1 23.7 251.2 23.8C249.1 23.8 247.1 24.6 245.6 26.2C244.1 27.7 243.3 29.8 243.3 31.9C243.3 34 244.1 36.1 245.6 37.6C247.1 39.1 249.1 40 251.2 40C252.1 40 253 39.8 253.8 39.5C254.6 39.1 255.3 38.5 255.9 37.8V39.7H259V31.9ZM246.9 31.9C247 31 247.3 30.1 247.8 29.4C248.3 28.7 249.1 28.1 249.9 27.8C250.7 27.5 251.6 27.4 252.5 27.6C253.4 27.8 254.1 28.3 254.8 28.9C255.4 29.6 255.8 30.4 256 31.3C256.2 32.2 256.1 33.1 255.7 33.9C255.4 34.7 254.8 35.4 254 35.9C253.3 36.4 252.4 36.7 251.5 36.7C250.9 36.7 250.3 36.6 249.7 36.3C249.1 36.1 248.6 35.7 248.2 35.2C247.8 34.7 247.4 34.2 247.2 33.6C246.9 33.1 246.9 32.5 246.9 31.9ZM136.3 31.9V24.2H133V26C132.4 25.3 131.7 24.7 130.9 24.3C130.1 23.9 129.2 23.7 128.3 23.8C126.2 23.8 124.2 24.6 122.7 26.2C121.2 27.7 120.4 29.8 120.4 31.9C120.4 34 121.2 36.1 122.7 37.6C124.2 39.1 126.2 40 128.3 40C129.2 40 130.1 39.8 130.9 39.5C131.7 39.1 132.4 38.5 133 37.8V39.7H136.3V31.9ZM124.1 31.9C124.2 31 124.5 30.1 125 29.4C125.5 28.7 126.3 28.1 127.1 27.8C127.9 27.5 128.8 27.4 129.7 27.6C130.6 27.8 131.3 28.3 132 28.9C132.6 29.6 133 30.4 133.2 31.3C133.4 32.2 133.3 33.1 132.9 33.9C132.6 34.7 132 35.4 131.2 35.9C130.5 36.4 129.6 36.7 128.7 36.7C128.1 36.7 127.5 36.6 126.9 36.3C126.3 36.1 125.8 35.7 125.4 35.2C125 34.7 124.6 34.2 124.4 33.6C124.2 33.1 124.1 32.5 124.1 31.9Z" fill="#231F20"/>
<path d="M56 9H33V49H56V9Z" fill="#FF5F00"/>
<path d="M34.6 29.0001C34.6 25.2001 35.4 21.5001 37.1 18.1001C38.7 14.7001 41.1 11.7001 44.1 9.40014C40.5 6.50014 36.1 4.70014 31.5 4.20014C26.9 3.70014 22.2 4.50014 18.1 6.60014C13.7 8.60014 10.2 11.8001 7.8 15.7001C5.3 19.7001 4 24.3001 4 29.0001C4 33.7001 5.3 38.3001 7.8 42.3001C10.3 46.3001 13.8 49.5001 18 51.5001C22.2 53.6001 26.8 54.4001 31.4 53.9001C36 53.4001 40.4 51.6001 44 48.7001C41.1 46.4001 38.7 43.4001 37 40.0001C35.4 36.5001 34.6 32.8001 34.6 29.0001Z" fill="#EB001B"/>
<path d="M84.9999 29C84.9999 33.7 83.6999 38.3 81.0999 42.3C78.5999 46.3 74.9999 49.5 70.6999 51.5C66.3999 53.5 61.5999 54.4 56.8999 53.9C52.1999 53.4 47.6999 51.6 43.8999 48.7C46.8999 46.4 49.3999 43.4 50.9999 40C52.6999 36.6 53.4999 32.9 53.4999 29.1C53.4999 25.3 52.5999 21.6 50.9999 18.2C49.4999 14.7 46.9999 11.7 43.9999 9.30004C47.6999 6.40004 52.1999 4.60004 56.9999 4.10004C61.6999 3.60004 66.4999 4.40004 70.7999 6.50004C75.0999 8.50004 78.6999 11.7 81.1999 15.7C83.6999 19.7 84.9999 24.3 84.9999 29Z" fill="#F79E1B"/>
</g>
<defs>
<filter id="filter0_f" x="0" y="0" width="263" height="58" filterUnits="userSpaceOnUse" color-interpolation-filters="sRGB">
<feFlood flood-opacity="0" result="BackgroundImageFix"/>
<feBlend mode="normal" in="SourceGraphic" in2="BackgroundImageFix" result="shape"/>
<feGaussianBlur stdDeviation="2" result="effect1_foregroundBlur"/>
</filter>
<clipPath id="clip0">
<rect width="255" height="50" fill="white" transform="translate(4 4)"/>
</clipPath>
</defs>
</svg>
