<svg xmlns="http://www.w3.org/2000/svg" xmlns:xlink="http://www.w3.org/1999/xlink" width="87.713" height="201.568" viewBox="0 0 87.713 201.568"><defs><style>.a{fill:#f9f9f9;}.b{fill:#e95c29;}.c{fill:#fff;}.d{fill:url(#c);}.e{fill:none;stroke:#60cf38;stroke-linecap:round;stroke-linejoin:round;stroke-width:3px;}.f{fill:#16223b;}.g{fill:url(#f);}.h{filter:url(#a);}</style><filter id="a" x="0" y="118.163" width="87.713" height="83.405" filterUnits="userSpaceOnUse"><feOffset dx="3" dy="5" input="SourceAlpha"/><feGaussianBlur stdDeviation="5.5" result="b"/><feFlood flood-color="#f36f35" flood-opacity="0.29"/><feComposite operator="in" in2="b"/><feComposite in="SourceGraphic"/></filter><linearGradient id="c" y1="0.5" x2="1" y2="0.5" gradientUnits="objectBoundingBox"><stop offset="0" stop-color="#ffd596"/><stop offset="1" stop-color="#e95c29"/></linearGradient><linearGradient id="f" y1="0.498" x2="0.998" y2="0.498" gradientUnits="objectBoundingBox"><stop offset="0" stop-color="#fedea9"/><stop offset="1" stop-color="#ee743b"/></linearGradient></defs><g transform="translate(-682.04 -189.039)"><g transform="translate(0 27)"><g class="h" transform="matrix(1, 0, 0, 1, 682.04, 162.04)"><path class="a" d="M734.855,154.3v-9.655a2.916,2.916,0,0,0-2.916-2.917H704.46a2.917,2.917,0,0,0-2.917,2.917V154.3l-10.7,5.824v32.009h54.713V160.128Z" transform="translate(-677.34 -12.07)"/></g><g transform="translate(2.8 146.477)"><path class="b" d="M690.843,161.045l29.253-15.92,29.253,15.92-20.3,19.9H711.539Z" transform="translate(0 0.358)"/><rect class="c" width="35.621" height="42.556" rx="2.82" transform="translate(702.286 145.482)"/><g transform="translate(690.843 161.403)"><path class="d" d="M690.843,159.525v35.446l20.7-15.433Z" transform="translate(-690.843 -159.525)"/><path class="d" d="M745.7,159.525l-20.273,19.922L745.7,194.971Z" transform="translate(-687.196 -159.525)"/></g><path class="d" d="M749.349,193.071H690.843l20.7-15.546h17.512Z" transform="translate(0 3.778)"/><path class="e" d="M710.891,160.752l5.015,4.073,7.126-8.71" transform="translate(3.135 5.287)"/></g></g><g transform="translate(6 -99.713)"><path class="f" d="M22.539,0V9.838H17.172V0L0,3.041C.716,30.767,16.993,41.678,16.993,41.678v-22.9H22.36v22.9S38.816,30.767,39.532,3.041Z" transform="translate(697 327.569)"/><path class="g" d="M19.14,28.978a6.077,6.077,0,0,0,5.187-5.009,5.877,5.877,0,0,0-2.5-5.724L26.116,7.513l4.293,10.733a5.7,5.7,0,0,0-2.5,4.83,6.4,6.4,0,0,0,1.968,4.472,6.306,6.306,0,0,0,4.651,1.431,6.072,6.072,0,0,0,5.187-5.187,5.508,5.508,0,0,0-.537-3.4l7.513-6.082-6.44,20.213a24.136,24.136,0,0,0-4.293-1.431,40.686,40.686,0,0,0-19.677,0,24.136,24.136,0,0,0-4.293,1.431L5.545,14.489l7.513,6.082a5.713,5.713,0,0,0-.537,2.5,6.4,6.4,0,0,0,1.968,4.472,6.251,6.251,0,0,0,3.935,1.431Zm-.894-9.3,1.252.537a3.137,3.137,0,0,1,1.968,3.4,3.042,3.042,0,0,1-2.683,2.683,3.206,3.206,0,0,1-2.5-.716A2.884,2.884,0,0,1,15.2,23.254a2.69,2.69,0,0,1,.716-1.968l.894-1.073L0,6.618,10.375,39l1.431-.716a24.288,24.288,0,0,1,5.187-1.968,35.068,35.068,0,0,1,18.246,0,28.662,28.662,0,0,1,5.187,1.968L41.857,39,52.232,6.618,35.418,20.034l.894,1.073a3.935,3.935,0,0,1,.716,2.325,3.042,3.042,0,0,1-2.683,2.683,3.206,3.206,0,0,1-2.5-.716,2.884,2.884,0,0,1-1.073-2.325,3.149,3.149,0,0,1,1.968-2.862l1.252-.537L26.116,0Z" transform="translate(691 288.752)"/></g></g></svg>