<svg width="30" height="31" viewBox="0 0 30 31" fill="none" xmlns="http://www.w3.org/2000/svg">
<path d="M20.6731 16.4727H9.32401C9.16303 16.4727 9.03079 16.6044 9.03654 16.7648C9.07104 18.0883 9.16303 19.3601 9.30101 20.5575C9.31826 20.7294 9.48499 20.844 9.65747 20.8039C11.3938 20.3627 13.1818 20.1393 15.0043 20.1393C16.8269 20.1393 18.6149 20.3627 20.3512 20.8039C20.5179 20.844 20.6846 20.7294 20.7076 20.5575C20.8456 19.3601 20.9376 18.094 20.9664 16.7648C20.9664 16.6044 20.8399 16.4727 20.6731 16.4727Z" fill="white"/>
<path d="M20.7023 10.5542C20.685 10.3823 20.5183 10.2677 20.3458 10.3078C18.6095 10.749 16.8215 10.9724 14.999 10.9724C13.1764 10.9724 11.3884 10.749 9.6521 10.3078C9.48537 10.2677 9.31864 10.3823 9.29564 10.5542C9.15766 11.7516 9.06567 13.0177 9.03117 14.3468C9.02542 14.5073 9.15766 14.639 9.31864 14.639H20.6735C20.8345 14.639 20.9667 14.5073 20.961 14.3468C20.9322 13.0177 20.8403 11.7516 20.7023 10.5542Z" fill="white"/>
<path d="M20.3459 8.13647C19.8284 5.29483 19.0408 2.96882 18.1324 1.31884C18.0922 1.24436 18.0232 1.1928 17.9369 1.17561C16.9825 0.986555 15.9994 0.88916 14.999 0.88916C13.9986 0.88916 13.0213 0.986555 12.0611 1.18134C11.9806 1.19853 11.9059 1.25009 11.8657 1.32457C10.9515 2.96882 10.1639 5.30056 9.65217 8.14219C9.62342 8.28542 9.71541 8.42865 9.85914 8.46875C11.4977 8.90989 13.2225 9.14479 14.999 9.14479C16.7756 9.14479 18.5004 8.90989 20.1389 8.46875C20.2826 8.42292 20.3746 8.28542 20.3459 8.13647Z" fill="white"/>
<path d="M21.1158 2.20658C20.8801 2.09773 20.6386 2.33262 20.7306 2.57324C20.7306 2.57897 20.7364 2.57897 20.7364 2.5847C21.2941 4.03416 21.7482 5.67841 22.0932 7.46016C22.1277 7.63776 22.3174 7.74089 22.4842 7.67214C23.6168 7.20808 24.6976 6.64663 25.7095 5.98778C25.859 5.89039 25.8878 5.68414 25.767 5.55237C25.652 5.42633 25.5313 5.30602 25.4106 5.17998C24.1457 3.92531 22.6911 2.92845 21.1158 2.20658Z" fill="white"/>
<path d="M23.0938 14.6389H29.3835C29.5503 14.6389 29.6825 14.4957 29.671 14.3296C29.4698 11.8718 28.6534 9.53431 27.308 7.50048C27.2218 7.36871 27.0436 7.3286 26.9056 7.42027C25.8075 8.14214 24.6404 8.76661 23.4158 9.28223C23.1628 9.38535 22.9098 9.48847 22.6569 9.58587C22.5304 9.6317 22.4556 9.75774 22.4729 9.88951C22.6511 11.3275 22.7661 12.8285 22.8063 14.3639C22.8063 14.5129 22.9328 14.6389 23.0938 14.6389Z" fill="white"/>
<path d="M9.65222 22.975C10.1697 25.8166 10.9573 28.1426 11.8657 29.7926C11.906 29.8671 11.9749 29.9187 12.0612 29.9359C13.0156 30.1306 13.9987 30.228 14.9991 30.228C15.9995 30.228 16.9768 30.1306 17.937 29.9359C18.0175 29.9187 18.0922 29.8671 18.1325 29.7926C19.0466 28.1484 19.8342 25.8166 20.3459 22.975C20.3747 22.8318 20.2827 22.6885 20.139 22.6484C18.5004 22.2073 16.7756 21.9724 14.9991 21.9724C13.2225 21.9724 11.4978 22.2073 9.8592 22.6484C9.71546 22.6885 9.62923 22.826 9.65222 22.975Z" fill="white"/>
<path d="M6.58765 21.8351C6.84062 21.732 7.09359 21.6288 7.34656 21.5314C7.47305 21.4856 7.54779 21.3596 7.53054 21.2278C7.35231 19.7898 7.23733 18.2888 7.19708 16.7534C7.19133 16.5987 7.06485 16.4727 6.90962 16.4727H0.619873C0.453143 16.4727 0.320909 16.6159 0.332408 16.782C0.533634 19.2398 1.35004 21.5773 2.69537 23.6111C2.78161 23.7429 2.96559 23.783 3.09782 23.6913C4.19594 22.9695 5.36305 22.3507 6.58765 21.8351Z" fill="white"/>
<path d="M25.7095 25.1175C24.6919 24.4643 23.6168 23.8972 22.4842 23.4331C22.3174 23.3644 22.1277 23.4675 22.0932 23.6451C21.754 25.4268 21.2998 27.0711 20.7364 28.5205C20.7364 28.5263 20.7306 28.5263 20.7306 28.532C20.6386 28.7726 20.8801 29.0018 21.1158 28.8987C22.6911 28.1825 24.1457 27.1799 25.4048 25.9253C25.5255 25.8049 25.6463 25.6789 25.7613 25.5529C25.8877 25.4268 25.859 25.2148 25.7095 25.1175Z" fill="white"/>
<path d="M22.8063 16.7532C22.7661 18.2886 22.6569 19.7896 22.4729 21.2276C22.4556 21.3594 22.5304 21.4854 22.6569 21.5313C22.9098 21.6287 23.1628 21.7261 23.4158 21.8349C24.6404 22.3505 25.8017 22.975 26.9056 23.6969C27.0378 23.7828 27.2161 23.7484 27.308 23.6167C28.6591 21.5828 29.4698 19.2454 29.671 16.7876C29.6825 16.6214 29.5503 16.4782 29.3835 16.4782H23.0938C22.9328 16.4725 22.8063 16.5985 22.8063 16.7532Z" fill="white"/>
<path d="M4.28789 5.99358C5.30552 6.64669 6.38064 7.21387 7.51325 7.67793C7.67998 7.74668 7.86971 7.64356 7.90421 7.46595C8.24342 5.68421 8.69761 4.03995 9.26105 2.59049C9.26105 2.58476 9.26679 2.58476 9.26679 2.57903C9.35878 2.33841 9.11731 2.10925 8.88159 2.21237C7.30628 2.92851 5.85745 3.92537 4.5926 5.18577C4.47187 5.30608 4.35113 5.43212 4.23614 5.55816C4.11541 5.6842 4.13841 5.89618 4.28789 5.99358Z" fill="white"/>
<path d="M7.19133 14.639C7.22008 13.0062 7.33506 11.4135 7.53054 9.88381C7.54779 9.75204 7.47305 9.626 7.34656 9.58017C7.09359 9.48277 6.84062 9.38538 6.58765 9.27653C5.36305 8.76091 4.20169 8.13644 3.09782 7.41457C2.96559 7.32863 2.78736 7.36301 2.69537 7.49478C1.35004 9.53434 0.539383 11.8661 0.332408 14.3296C0.320909 14.4957 0.453143 14.639 0.619873 14.639H7.19133Z" fill="white"/>
<path d="M8.882 28.9045C9.11772 29.0134 9.35919 28.7785 9.2672 28.5378C9.2672 28.5321 9.26145 28.5321 9.26145 28.5264C8.70377 27.0769 8.24957 25.4327 7.90462 23.6509C7.87012 23.4733 7.68039 23.3702 7.51366 23.439C6.38105 23.903 5.30018 24.4645 4.2883 25.1233C4.13882 25.2207 4.11007 25.427 4.23081 25.5587C4.34579 25.6848 4.46653 25.8051 4.58726 25.9311C5.85786 27.1858 7.30669 28.1826 8.882 28.9045Z" fill="white"/>
</svg>
