<svg xmlns="http://www.w3.org/2000/svg" xmlns:xlink="http://www.w3.org/1999/xlink" width="114.362" height="161.716" viewBox="0 0 114.362 161.716"><defs><style>.a{fill:url(#a);}.b{fill:#fff;}</style><linearGradient id="a" x1="0.5" x2="0.5" y2="1" gradientUnits="objectBoundingBox"><stop offset="0" stop-color="#fff"/><stop offset="1" stop-color="gray"/></linearGradient></defs><g transform="translate(-470.544 -343.54)"><path class="a" d="M58.5-44.765q0,31.133-14.274,47.238T5.6,18.578q-24.562,0-38.889-16.105T-47.615-44.765v-34.58q0-31.025,14.274-47.238T5.386-142.8q24.346,0,38.728,16.213T58.5-79.345ZM27.147-82.611q0-18.62-5.6-27.283T5.386-118.558q-10.665,0-16.159,8.61t-5.494,27.337v40.788q0,18.943,5.548,27.553T5.6-5.661q10.557,0,16.051-8.61t5.494-27.553Z" transform="translate(518.158 486.336)"/><path class="b" d="M52.905-60.908q0,31.045-14.233,47.1T.161,2.256q-24.492,0-38.779-16.06t-14.287-47.1V-95.391q0-30.937,14.233-47.1T-.054-158.662q24.277,0,38.618,16.167t14.341,47.1ZM21.646-98.647q0-18.567-5.586-27.206T-.054-134.492q-10.635,0-16.113,8.585t-5.479,27.26v40.673q0,18.889,5.532,27.475T.161-21.914q10.527,0,16.006-8.585t5.479-27.475Z" transform="translate(532 503)"/></g></svg>