<svg xmlns="http://www.w3.org/2000/svg" xmlns:xlink="http://www.w3.org/1999/xlink" width="343.98" height="410.102" viewBox="0 0 343.98 410.102"><defs><style>.a{fill:#22314c;}.b{fill:url(#a);}.c{clip-path:url(#b);}.d{fill:none;stroke:#fff;stroke-miterlimit:10;stroke-width:0.94px;}.e{fill:url(#c);}.f{fill:#404d60;}.g{fill:#fff;}</style><linearGradient id="a" x1="0.01" y1="-0.269" x2="1.029" y2="-0.269" gradientUnits="objectBoundingBox"><stop offset="0" stop-color="#fddda8"/><stop offset="1" stop-color="#ed743b"/></linearGradient><clipPath id="b"><path class="a" d="M-500.714,391.622a54.567,54.567,0,0,1-6.037,11.034c-.14.2-.289.4-.429.6a55.386,55.386,0,0,1-6.422,7.369A58.944,58.944,0,0,1-529.118,421.3a76.7,76.7,0,0,1-29.784,7.121,107.663,107.663,0,0,1-35.484-4.624,134.319,134.319,0,0,1-39.086-19.171,134.534,134.534,0,0,1-30.572-29.67,108.964,108.964,0,0,1-16.17-30.76,79.526,79.526,0,0,1-4.154-28.082,59.525,59.525,0,0,1,6.168-24.494c.408-.826.84-1.641,1.3-2.445.9-1.586,1.881-3.14,2.947-4.646a55.59,55.59,0,0,1,9.743-10.572,61.265,61.265,0,0,1,16.166-9.661h.008c21.272-8.707,48.974-7.36,75.77,4.182a137.824,137.824,0,0,1,25.035,14.07c.294.206.58.411.873.625a137.193,137.193,0,0,1,21.875,19.484,120.269,120.269,0,0,1,17.831,25.617c6.988,13.613,10.588,27.733,10.372,41.03A60.923,60.923,0,0,1-500.714,391.622Z" transform="translate(684.43 -258.654)"/></clipPath><linearGradient id="c" x1="0" y1="0.5" x2="1" y2="0.5" xlink:href="#a"/></defs><g transform="translate(862.254 -234.347)"><path class="b" d="M-499.384,387.306a114.209,114.209,0,0,1-6.8,11.008q-2.377,3.433-5.047,6.735c-.34.421-.687.842-1.036,1.262a58.942,58.942,0,0,1-15.516,10.676c-8.848,4.255-152.879-122.142-149.082-129.682.513-.808,1.05-1.614,1.6-2.411q2.608-3.819,5.563-7.485,3.282-4.067,6.826-7.768c38.845-40.554,100.209-47.368,141.466-14.143C-482.89,286.526-474.747,342.136-499.384,387.306Z" transform="translate(-32.908 0)"/><g transform="translate(-716.008 254.338)"><path class="a" d="M-500.714,391.622a54.567,54.567,0,0,1-6.037,11.034c-.14.2-.289.4-.429.6a55.386,55.386,0,0,1-6.422,7.369A58.944,58.944,0,0,1-529.118,421.3a76.7,76.7,0,0,1-29.784,7.121,107.663,107.663,0,0,1-35.484-4.624,134.319,134.319,0,0,1-39.086-19.171,134.534,134.534,0,0,1-30.572-29.67,108.964,108.964,0,0,1-16.17-30.76,79.526,79.526,0,0,1-4.154-28.082,59.525,59.525,0,0,1,6.168-24.494c.408-.826.84-1.641,1.3-2.445.9-1.586,1.881-3.14,2.947-4.646a55.59,55.59,0,0,1,9.743-10.572,61.265,61.265,0,0,1,16.166-9.661h.008c21.272-8.707,48.974-7.36,75.77,4.182a137.824,137.824,0,0,1,25.035,14.07c.294.206.58.411.873.625a137.193,137.193,0,0,1,21.875,19.484,120.269,120.269,0,0,1,17.831,25.617c6.988,13.613,10.588,27.733,10.372,41.03A60.923,60.923,0,0,1-500.714,391.622Z" transform="translate(684.43 -258.654)"/><g class="c"><path class="d" d="M-575,426.627a595.986,595.986,0,0,0,19.223-101.56l.007-.086c.021-.167.041-.335.045-.5a.711.711,0,0,0,.025-.185,1.637,1.637,0,0,0,.015-.171c.03-.243.053-.489.071-.729a.355.355,0,0,0,.013-.081q2.631-26.714,2.971-53.722" transform="translate(664.997 -260.596)"/><path class="d" d="M-685.629,327.262c37.053-6.644,74.222-5.438,108.345,5.009.413.13.827.26,1.244.383.256.09.521.165.781.248.085.03.164.056.249.086.039.007.08.025.118.033.261.083.511.169.771.252.651.207,1.3.421,1.945.646A184.44,184.44,0,0,1-514.7,365.354c6.463,5.223,12.821,10.534,19.251,15.693" transform="translate(684.643 -270.107)"/><path class="d" d="M-660.631,384.71a414.544,414.544,0,0,1,80.572-48.867q4.329-2.007,8.63-3.862a.407.407,0,0,1,.074-.029c.063-.026.126-.053.183-.083a.777.777,0,0,0,.1-.048,1.723,1.723,0,0,0,.163-.067c.314-.132.623-.267.932-.4.1-.041.2-.082.293-.127,17.031-7.3,33.748-13.2,50.149-19.614" transform="translate(680.204 -268.058)"/><path class="d" d="M-640.963,264.454l.006,0a221.43,221.43,0,0,1,70.121,55.615c.5.586.989,1.184,1.484,1.776.47.575.931,1.153,1.4,1.724l.006,0c0,.011.013.02.014.03.044.051.094.106.137.157.1.132.2.265.309.391a.518.518,0,0,0,.063.086c22.571,28.341,38.187,62.061,46.7,98.946" transform="translate(676.711 -259.684)"/><path class="d" d="M-623.047,410.452q28.657-41.693,58.429-82.568l.138-.2,0-.007.081-.114c.063-.077.12-.158.178-.238.138-.2.282-.387.42-.583l.019-.027q14.293-19.628,28.8-39.062" transform="translate(673.53 -263.805)"/><path class="d" d="M-676.427,295.041c25.591,2.619,50.784,7.082,75.168,17.768a155.89,155.89,0,0,1,24.125,12.7q1.293.823,2.563,1.679c.322.208.646.427.96.648a1.694,1.694,0,0,1,.236.167.509.509,0,0,1,.1.06c.165.117.337.227.5.351.265.177.535.358.791.549l.006,0c29.4,20.574,49.91,49.769,67.137,81.412" transform="translate(683.009 -265.116)"/><path class="d" d="M-680.515,357.979A303.935,303.935,0,0,1-574.98,336.312l.006,0a.629.629,0,0,1,.088,0c.065,0,.131-.009.2-.01l.006,0c.076-.007.147-.007.218-.007.583-.023,1.168-.035,1.748-.039l.006,0c.479-.015.96-.03,1.441-.034a331.967,331.967,0,0,1,66.234,5.643" transform="translate(683.735 -272.424)"/><path class="d" d="M-587.949,258.5a327.678,327.678,0,0,1,29.09,62.2q.09.231.165.481c.148.418.289.831.428,1.263a.121.121,0,0,1,.024.067s.011,0,0,.011c.066.158.116.325.173.5a1.01,1.01,0,0,1,.056.172,319.584,319.584,0,0,1,16.59,106.153" transform="translate(667.297 -258.626)"/></g></g><path class="e" d="M-689.98,651.436l.19-.26-.4-.289.19-.26-.4-.29.19-.26-.4-.29.189-.26-.4-.289.19-.261-.4-.289.19-.261-.4-.289.19-.26-.4-.289.19-.26-.4-.289.19-.26-.4-.289.19-.26-.4-.289.19-.261-.4-.289.19-.261-.4-.289.19-.26-.4-.29.19-.26-.4-.29.19-.26L-707.7,632.515l-14.059,19.261,1.239-22.636-.227-.165.021-.383-.227-.166.021-.383-.227-.166.021-.383-.227-.166.021-.383-.227-.165.021-.384-.227-.165.021-.384-.227-.165.021-.383-.227-.166.021-.383-.227-.166.021-.383-.227-.166.021-.383-.227-.166.021-.383-.228-.165.021-.384-.227-.165.021-.383-.227-.166.021-.383-.227-.166.021-.383-15.03-10.971-14.6,20a28.683,28.683,0,0,0,2-10.238,25.153,25.153,0,0,0-1.831-9.576c-.067-.177-.128-.355-.2-.531s-.133-.368-.206-.55-.132-.367-.206-.549-.133-.366-.206-.549-.133-.368-.206-.55-.133-.367-.206-.549-.133-.366-.206-.548-.133-.368-.206-.55-.133-.367-.206-.549-.132-.367-.206-.549-.133-.369-.206-.551-.133-.367-.206-.549-.133-.366-.206-.548c-.021-.056-.048-.111-.069-.167a27.165,27.165,0,0,0-1.689-3.8,31.715,31.715,0,0,0-9.433-10.465,30.7,30.7,0,0,0-14.841-6.111,25.73,25.73,0,0,0-14.526,2.628,29.98,29.98,0,0,0-3.393,1.98l7.477-10.243-.4-.289.19-.261-.4-.289.19-.261-.4-.289.19-.261-.4-.289.19-.26-.4-.289.19-.26-.4-.289.191-.26-.4-.289.19-.26-.4-.289.19-.26-.4-.289.19-.26-.4-.289.19-.261-.4-.289.19-.261-.4-.289.19-.261-.4-.289.19-.261-.4-.289.191-.26-.4-.29.19-.26-31.956-23.325-34.987,47.934.4.289-.19.261.4.289-.19.26.4.289-.19.26.4.289-.189.26.4.289-.19.261.4.289-.189.261.4.289-.19.26.4.29-.19.26.4.29-.19.26.4.29-.19.26.4.289-.19.261.4.289-.189.261.4.289-.19.26.4.289-.19.26.4.289-.19.26,31.956,23.326,8.746-11.983-.4-.29.19-.26-.4-.289.19-.26-.4-.289.19-.26-.4-.289.19-.26-.4-.289.19-.26-.4-.289.19-.261-.4-.289.19-.261-.4-.289.19-.261-.4-.289.19-.261-.4-.289.19-.26-.4-.289.19-.26-.4-.29.19-.26-.4-.289.19-.26-.4-.289.19-.26-.4-.29.19-.26-10.986-8.018,2.093-2.867,14.895,10.872L-807.3,593.2l-.4-.289.19-.26-.4-.29.19-.26-.4-.289.19-.261-.4-.289.19-.261-.4-.289.189-.261-.4-.289.19-.261-.4-.289.19-.26-.4-.289.19-.26-.4-.289.19-.26-.4-.289.19-.26-.4-.289.19-.26-.4-.289.19-.26-.4-.289.19-.261-.4-.289.189-.261-.4-.289.19-.261-8.954-6.535,1.5-2.055,16.39,11.964a36.4,36.4,0,0,0-6.971,7.3,33.548,33.548,0,0,0-6.363,14.762,25.691,25.691,0,0,0,1.478,13.528c.031.086.056.172.088.257.065.183.136.366.206.549s.137.367.206.55.136.366.206.549.136.366.206.549.136.367.206.549.137.366.206.549.136.367.206.55.137.367.206.549.137.366.206.549.137.366.206.549.136.366.206.548.136.367.206.55c.047.132.108.264.157.4.245.7.511,1.406.819,2.1a30.676,30.676,0,0,0,10.344,12.271,31.7,31.7,0,0,0,12.841,5.794,25.49,25.49,0,0,0,12.808-.77,28.729,28.729,0,0,0,9.141-5.024l-9,12.326.4.289-.191.261.4.289-.19.261.4.289-.189.26.4.289-.19.26.4.289-.19.26.4.289-.19.261.4.289-.19.261.4.289-.189.26.4.289-.19.26.4.289-.19.26.4.29-.19.26.4.289-.19.261.4.289-.19.261.4.289-.19.26.4.289-.189.26,15.03,10.971,13.873-19.006-1.053,22.381.224.164-.018.386.225.164-.018.386.225.164-.018.385.224.164-.018.386.224.164-.018.386.224.164-.018.386.225.164-.018.386.224.164-.018.386.224.164-.018.385.225.164-.018.386.224.164-.018.386.224.164-.018.386.225.164-.019.386.224.164-.018.386.225.164-.018.385,15.029,10.971,34.987-47.934Zm-72.771-8.478-.321-.235c.081-.076.164-.145.243-.221l-.449-.328c.08-.075.163-.145.243-.221l-.449-.327c.081-.076.164-.145.243-.222l-.45-.327c.081-.076.164-.145.243-.222l-.449-.327c.081-.076.163-.145.243-.221l-.45-.328c.081-.076.164-.145.243-.221l-.449-.328c.081-.076.163-.145.243-.221l-.449-.328c.081-.076.164-.145.243-.221l-.449-.328c.08-.076.163-.145.243-.221l-.449-.328c.081-.076.163-.145.243-.221l-.449-.328c.08-.076.163-.145.243-.221l-.449-.328c.081-.075.163-.145.243-.221l-.45-.327c.081-.076.164-.145.243-.222l-.449-.327c.08-.076.163-.145.243-.222L-781.35,623.8a10.624,10.624,0,0,1-5.775,1.442,10.021,10.021,0,0,1-5.533-2.016c-.262-.191-.5-.391-.738-.594a16.3,16.3,0,0,1,3.3-7.64q3.507-4.806,7.785-6.045a8.875,8.875,0,0,1,8.066,1.531,11.566,11.566,0,0,1,1.106.925,12.254,12.254,0,0,1-.2,1.429l.262.192c-.021.119-.032.237-.057.357l.267.195c-.021.118-.037.235-.061.354l.266.195c-.02.118-.036.235-.061.354l.267.195c-.021.118-.036.235-.061.354l.267.2c-.021.118-.037.235-.061.354l.266.195c-.021.117-.037.235-.061.354l.267.2c-.021.118-.037.235-.062.354l.267.195c-.021.118-.036.235-.061.354l.267.195c-.021.118-.036.235-.061.354l.267.195c-.021.118-.037.235-.062.354l.267.195c-.021.118-.037.235-.061.354l.267.195c-.021.118-.037.235-.062.354l.267.2c-.021.118-.036.235-.061.354l.267.195c-.021.119-.037.235-.061.355l.267.195c-.021.118-.037.235-.062.354l15.318,11.181Z" transform="translate(0 -55.209)"/><g transform="translate(-769.136 280.685)"><path class="f" d="M-685.745,290.69l-9.844,40.7L-746.8,543.066l-.535,2.212-.345-.082-1.349-.329,53.137-219.619v-.008l7.2-29.8a.008.008,0,0,0,.008-.008c.1-.189.206-.378.312-.567C-687.554,293.445-686.682,292.047-685.745,290.69Z" transform="translate(749.03 -290.69)"/></g><g transform="translate(-766.291 391.399)"><path class="f" d="M-513.425,425.31q-.814,1.6-1.744,3.166v.008l-45.809,28.686-180.9,113.3-.008.008-1.118.7-1.628,1.02-.469-.748-.469-.748.288-.181,2.048-1.283.321-.2.008-.008,2.7-1.686.008-.008,8.907-5.576.008-.008L-565.123,457.68h.008Z" transform="translate(745.57 -425.31)"/></g><g transform="translate(-768.281 254.349)"><path class="f" d="M-629.183,258.67l-47.454,114.489L-745.473,539.23l-.608,1.472-.28.666-1.628-.674.493-1.184.88-2.13,68.779-165.931,46.73-112.754C-630.466,258.678-629.825,258.661-629.183,258.67Z" transform="translate(747.99 -258.667)"/></g><g transform="translate(-764.736 343.394)"><path class="f" d="M-509.109,368.831l-91.577,75.358h-.008L-730.949,551.384l-10.6,8.726-1.011.831-.107-.132-.321-.386-.485-.6-.206-.247.707-.576.008-.008.386-.321,4.564-3.758.008-.008,135.214-111.273h.008l93.188-76.691C-509.422,367.573-509.266,368.207-509.109,368.831Z" transform="translate(743.68 -366.94)"/></g><g transform="translate(-766.472 301.196)"><path class="f" d="M-531.739,316.987-628.7,424.346-738.38,545.792l-1.867,2.072-3.117,3.446-1.127,1.25-.65-.592-.65-.592.362-.4,4.252-4.7.008-.016L-630.3,423.5l97.416-107.869C-532.487,316.082-532.109,316.535-531.739,316.987Z" transform="translate(745.79 -315.63)"/></g><g transform="translate(-766.579 264.565)"><path class="f" d="M-580.63,271.814l-75.663,125.608-84.9,140.922-2.105,3.5-.074.132-.5.822-.535.888-.937-.559-.107-.066-.263-.156-.206-.123.814-1.349v-.008l87.473-145.2L-582.25,271.09C-581.707,271.328-581.173,271.567-580.63,271.814Z" transform="translate(745.92 -271.09)"/></g><g transform="translate(-859.164 498.275)"><path class="g" d="M-817.175,578.149l-4.349,5.958,14.895,10.872-8.253,11.306-14.895-10.872-4.942,6.77,16.925,12.354-8.746,11.983L-858.5,603.2l34.987-47.932,31.956,23.325-8.7,11.916Z" transform="translate(858.497 -555.263)"/><path class="g" d="M-743.566,617.036a25.5,25.5,0,0,1,3.17,12.432,29.6,29.6,0,0,1-3.168,12.942l-15.843-11.564a10.62,10.62,0,0,0-.386-5.938,10.027,10.027,0,0,0-3.606-4.656,8.875,8.875,0,0,0-8.066-1.531q-4.278,1.239-7.785,6.045t-3.384,9.256a8.873,8.873,0,0,0,3.916,7.217,10.019,10.019,0,0,0,5.533,2.016,10.612,10.612,0,0,0,5.773-1.442l15.843,11.564a29.636,29.636,0,0,1-11.36,6.963,25.489,25.489,0,0,1-12.808.77,31.7,31.7,0,0,1-12.841-5.794,30.679,30.679,0,0,1-10.344-12.271,25.717,25.717,0,0,1-1.924-14.637,33.556,33.556,0,0,1,6.364-14.762,33.529,33.529,0,0,1,12.118-10.558,25.735,25.735,0,0,1,14.526-2.629A30.707,30.707,0,0,1-753,606.57,31.725,31.725,0,0,1-743.566,617.036Z" transform="translate(848.317 -563.261)"/><path class="g" d="M-704.768,715.4-719.8,704.434l1.682-35.714-17.593,24.1-15.03-10.971,34.987-47.933,15.031,10.97-1.978,36.122L-684.81,656.5l15.03,10.969Z" transform="translate(839.361 -569.23)"/></g><ellipse class="f" cx="2.056" cy="2.965" rx="2.056" ry="2.965" transform="matrix(0.554, -0.833, 0.833, 0.554, -770.442, 536.245)"/></g></svg>