<svg xmlns="http://www.w3.org/2000/svg" xmlns:xlink="http://www.w3.org/1999/xlink" width="213.7" height="61.763" viewBox="0 0 213.7 61.763"><defs><style>.a{fill:#fff;}.b{fill:url(#a);}.c{fill:url(#b);}</style><linearGradient id="a" x1="0.001" y1="0.503" x2="1" y2="0.503" gradientUnits="objectBoundingBox"><stop offset="0" stop-color="#fedea9"/><stop offset="1" stop-color="#ee743b"/></linearGradient><linearGradient id="b" x1="0" y1="0.498" x2="0.998" y2="0.498" xlink:href="#a"/></defs><path class="a" d="M17.294,0V7.549H13.176V0L0,2.333C.549,23.607,13.039,31.98,13.039,31.98V14.411h4.118V31.98S29.784,23.607,30.333,2.333Z" transform="translate(4.804 29.784)"/><g transform="translate(39.94 32.666)"><path class="a" d="M15.647,9.745H4.8V0H0V24.293H4.8V14.411H15.647v9.882h4.8V0h-4.8Z" transform="translate(0 0.961)"/><path class="a" d="M21.137,3.706A13.71,13.71,0,0,0,17.156.961,11.562,11.562,0,0,0,12.353,0a11.139,11.139,0,0,0-4.8.961,12.933,12.933,0,0,0-3.98,2.745A11.149,11.149,0,0,0,.961,7.686,11.139,11.139,0,0,0,0,12.49a11.139,11.139,0,0,0,.961,4.8,15.345,15.345,0,0,0,2.608,3.98,11.149,11.149,0,0,0,3.98,2.608,11.562,11.562,0,0,0,4.8.961,11.562,11.562,0,0,0,4.8-.961,13.342,13.342,0,0,0,3.98-2.608,13.71,13.71,0,0,0,2.745-3.98,11.562,11.562,0,0,0,.961-4.8,11.562,11.562,0,0,0-.961-4.8A11.493,11.493,0,0,0,21.137,3.706Zm-1.784,11.8a7.472,7.472,0,0,1-1.51,2.471,7.177,7.177,0,0,1-2.333,1.647,6.75,6.75,0,0,1-2.882.549,7.386,7.386,0,0,1-3.02-.549A7.57,7.57,0,0,1,5.49,15.509a7.386,7.386,0,0,1-.549-3.02A7.386,7.386,0,0,1,5.49,9.47,7.789,7.789,0,0,1,7.137,7,9.017,9.017,0,0,1,9.47,5.353,7.168,7.168,0,0,1,12.353,4.8a6.366,6.366,0,0,1,2.882.549A7.177,7.177,0,0,1,17.568,7,7.789,7.789,0,0,1,19.215,9.47a7.386,7.386,0,0,1,.549,3.02A5.608,5.608,0,0,1,19.352,15.509Z" transform="translate(25.254 0.686)"/><path class="a" d="M17.156,15.647.137,0H0V25.254H4.8V10.843L21.823,26.215V.961h-4.8Z" transform="translate(54.901)"/><path class="a" d="M21.137,3.706A13.71,13.71,0,0,0,17.156.961,11.562,11.562,0,0,0,12.353,0a11.139,11.139,0,0,0-4.8.961,12.933,12.933,0,0,0-3.98,2.745A11.149,11.149,0,0,0,.961,7.686,11.139,11.139,0,0,0,0,12.49a11.139,11.139,0,0,0,.961,4.8,15.345,15.345,0,0,0,2.608,3.98,11.149,11.149,0,0,0,3.98,2.608,11.562,11.562,0,0,0,4.8.961,11.562,11.562,0,0,0,4.8-.961,13.342,13.342,0,0,0,3.98-2.608,13.71,13.71,0,0,0,2.745-3.98,11.562,11.562,0,0,0,.961-4.8,11.562,11.562,0,0,0-.961-4.8A11.493,11.493,0,0,0,21.137,3.706Zm-1.784,11.8a7.472,7.472,0,0,1-1.51,2.471,7.177,7.177,0,0,1-2.333,1.647,6.75,6.75,0,0,1-2.882.549,7.386,7.386,0,0,1-3.02-.549A7.57,7.57,0,0,1,5.49,15.509a7.386,7.386,0,0,1-.549-3.02A7.386,7.386,0,0,1,5.49,9.47,7.788,7.788,0,0,1,7.137,7,9.017,9.017,0,0,1,9.47,5.353,7.168,7.168,0,0,1,12.353,4.8a6.366,6.366,0,0,1,2.882.549A7.177,7.177,0,0,1,17.568,7,7.789,7.789,0,0,1,19.215,9.47a7.386,7.386,0,0,1,.549,3.02A5.608,5.608,0,0,1,19.352,15.509Z" transform="translate(81.527 0.686)"/><path class="a" d="M15.1,14a10.725,10.725,0,0,0,1.51-2.745,10.7,10.7,0,0,0,.412-3.02A9.557,9.557,0,0,0,16.333,4.8,6.818,6.818,0,0,0,14.549,2.2,9.06,9.06,0,0,0,11.529.549,13.006,13.006,0,0,0,7.412,0H0V4.667H8.235a4.583,4.583,0,0,1,2.059.412,2.809,2.809,0,0,1,1.1,1.1A2.214,2.214,0,0,1,11.8,7.412a2.68,2.68,0,0,1,.137.961,3.022,3.022,0,0,1-.137,1.1,4.875,4.875,0,0,1-.549,1.235,3.7,3.7,0,0,1-1.1.961,3.8,3.8,0,0,1-1.784.412H.137V24.431h4.8V16.745H8.1l5.078,7.686H18.8l-5.627-8.784A7.592,7.592,0,0,0,15.1,14Z" transform="translate(111.036 0.824)"/></g><path class="b" d="M33.764,24.431l-5.49-8.372-4.667,8.372h-5.9l7.961-12.49L17.98.137h6.176l5.216,8.1L33.9.137h5.765L31.98,12.215,39.94,24.431ZM0,24.431H4.8V14.823h9.059V10.157H4.8V4.667H15.235V0H0Z" transform="translate(173.76 33.489)"/><path class="c" d="M14.686,22.235a4.662,4.662,0,0,0,3.98-3.843A4.51,4.51,0,0,0,16.745,14l3.294-8.235L23.333,14a4.377,4.377,0,0,0-1.922,3.706,4.914,4.914,0,0,0,1.51,3.431,4.839,4.839,0,0,0,3.569,1.1,4.659,4.659,0,0,0,3.98-3.98,4.227,4.227,0,0,0-.412-2.608l5.765-4.667L30.882,26.49a18.519,18.519,0,0,0-3.294-1.1,31.218,31.218,0,0,0-15.1,0A18.519,18.519,0,0,0,9.2,26.49L4.255,11.117l5.765,4.667a4.384,4.384,0,0,0-.412,1.922,4.914,4.914,0,0,0,1.51,3.431,4.8,4.8,0,0,0,3.02,1.1ZM14,15.1l.961.412a2.407,2.407,0,0,1,1.51,2.608,2.334,2.334,0,0,1-2.059,2.059,2.46,2.46,0,0,1-1.922-.549,2.213,2.213,0,0,1-.824-1.784,2.064,2.064,0,0,1,.549-1.51l.686-.824L0,5.078,7.961,29.921l1.1-.549a18.636,18.636,0,0,1,3.98-1.51,26.907,26.907,0,0,1,14,0,21.992,21.992,0,0,1,3.98,1.51l1.1.549L40.077,5.078l-12.9,10.294.686.824a3.019,3.019,0,0,1,.549,1.784,2.334,2.334,0,0,1-2.059,2.059,2.46,2.46,0,0,1-1.922-.549,2.213,2.213,0,0,1-.824-1.784,2.417,2.417,0,0,1,1.51-2.2l.961-.412L20.039,0Z"/></svg>