<svg xmlns="http://www.w3.org/2000/svg" xmlns:xlink="http://www.w3.org/1999/xlink" width="171.196" height="49.479" viewBox="0 0 171.196 49.479"><defs><style>.a{fill:#16223b;}.b{fill:url(#a);}.c{fill:url(#b);}</style><linearGradient id="a" x1="0.001" y1="0.503" x2="1" y2="0.503" gradientUnits="objectBoundingBox"><stop offset="0" stop-color="#fedea9"/><stop offset="1" stop-color="#ee743b"/></linearGradient><linearGradient id="b" x1="0" y1="0.498" x2="0.998" y2="0.498" xlink:href="#a"/></defs><path class="a" d="M13.854,0V6.047h-3.3V0L0,1.869c.44,17.043,10.445,23.75,10.445,23.75V11.545h3.3V25.619S23.86,18.912,24.3,1.869Z" transform="translate(3.848 23.86)"/><g transform="translate(31.996 26.169)"><path class="a" d="M12.535,7.807H3.848V0H0V19.462H3.848V11.545h8.686v7.917h3.848V0H12.535Z" transform="translate(0 0.77)"/><path class="a" d="M16.933,2.969A10.983,10.983,0,0,0,13.744.77,9.262,9.262,0,0,0,9.9,0,8.924,8.924,0,0,0,6.047.77a10.361,10.361,0,0,0-3.189,2.2A8.931,8.931,0,0,0,.77,6.157,8.924,8.924,0,0,0,0,10.006a8.924,8.924,0,0,0,.77,3.848,12.293,12.293,0,0,0,2.089,3.189,8.931,8.931,0,0,0,3.189,2.089A9.262,9.262,0,0,0,9.9,19.9a9.262,9.262,0,0,0,3.848-.77,10.689,10.689,0,0,0,3.189-2.089,10.983,10.983,0,0,0,2.2-3.189,9.262,9.262,0,0,0,.77-3.848,9.262,9.262,0,0,0-.77-3.848A9.207,9.207,0,0,0,16.933,2.969ZM15.5,12.425A5.985,5.985,0,0,1,14.294,14.4a5.749,5.749,0,0,1-1.869,1.319,5.408,5.408,0,0,1-2.309.44,5.917,5.917,0,0,1-2.419-.44,6.064,6.064,0,0,1-3.3-3.3,5.917,5.917,0,0,1-.44-2.419A5.917,5.917,0,0,1,4.4,7.587,6.239,6.239,0,0,1,5.718,5.608,7.223,7.223,0,0,1,7.587,4.288,5.742,5.742,0,0,1,9.9,3.848a5.1,5.1,0,0,1,2.309.44,5.749,5.749,0,0,1,1.869,1.319,6.239,6.239,0,0,1,1.319,1.979,5.917,5.917,0,0,1,.44,2.419A4.492,4.492,0,0,1,15.5,12.425Z" transform="translate(20.231 0.55)"/><path class="a" d="M13.744,12.535.11,0H0V20.231H3.848V8.686L17.482,21V.77H13.634Z" transform="translate(43.981)"/><path class="a" d="M16.933,2.969A10.983,10.983,0,0,0,13.744.77,9.262,9.262,0,0,0,9.9,0,8.924,8.924,0,0,0,6.047.77a10.361,10.361,0,0,0-3.189,2.2A8.931,8.931,0,0,0,.77,6.157,8.924,8.924,0,0,0,0,10.006a8.924,8.924,0,0,0,.77,3.848,12.293,12.293,0,0,0,2.089,3.189,8.931,8.931,0,0,0,3.189,2.089A9.262,9.262,0,0,0,9.9,19.9a9.262,9.262,0,0,0,3.848-.77,10.689,10.689,0,0,0,3.189-2.089,10.983,10.983,0,0,0,2.2-3.189,9.262,9.262,0,0,0,.77-3.848,9.262,9.262,0,0,0-.77-3.848A9.207,9.207,0,0,0,16.933,2.969ZM15.5,12.425A5.985,5.985,0,0,1,14.294,14.4a5.749,5.749,0,0,1-1.869,1.319,5.408,5.408,0,0,1-2.309.44,5.917,5.917,0,0,1-2.419-.44,6.064,6.064,0,0,1-3.3-3.3,5.917,5.917,0,0,1-.44-2.419A5.917,5.917,0,0,1,4.4,7.587,6.239,6.239,0,0,1,5.718,5.608,7.223,7.223,0,0,1,7.587,4.288,5.742,5.742,0,0,1,9.9,3.848a5.1,5.1,0,0,1,2.309.44,5.749,5.749,0,0,1,1.869,1.319,6.239,6.239,0,0,1,1.319,1.979,5.917,5.917,0,0,1,.44,2.419A4.492,4.492,0,0,1,15.5,12.425Z" transform="translate(65.312 0.55)"/><path class="a" d="M12.095,11.215a8.592,8.592,0,0,0,1.209-2.2,8.575,8.575,0,0,0,.33-2.419,7.656,7.656,0,0,0-.55-2.749,5.462,5.462,0,0,0-1.429-2.089A7.258,7.258,0,0,0,9.236.44,10.419,10.419,0,0,0,5.937,0H0V3.738H6.6a3.672,3.672,0,0,1,1.649.33,2.251,2.251,0,0,1,.88.88,1.773,1.773,0,0,1,.33.99,2.147,2.147,0,0,1,.11.77,2.421,2.421,0,0,1-.11.88,3.906,3.906,0,0,1-.44.99,2.964,2.964,0,0,1-.88.77,3.044,3.044,0,0,1-1.429.33H.11v9.9H3.958V13.414H6.487l4.068,6.157h4.508l-4.508-7.037A6.082,6.082,0,0,0,12.095,11.215Z" transform="translate(88.952 0.66)"/></g><path class="b" d="M27.048,19.572l-4.4-6.707-3.738,6.707H14.184L20.561,9.566,14.4.11h4.948L23.53,6.6,27.158.11h4.618L25.619,9.786,32,19.572ZM0,19.572H3.848v-7.7h7.257V8.136H3.848v-4.4H12.2V0H0Z" transform="translate(139.2 26.828)"/><path class="c" d="M11.765,17.812a3.735,3.735,0,0,0,3.189-3.079,3.613,3.613,0,0,0-1.539-3.518l2.639-6.6,2.639,6.6a3.506,3.506,0,0,0-1.539,2.969,3.937,3.937,0,0,0,1.209,2.749,3.876,3.876,0,0,0,2.859.88,3.732,3.732,0,0,0,3.189-3.189,3.386,3.386,0,0,0-.33-2.089L28.7,8.8,24.739,21.221a14.836,14.836,0,0,0-2.639-.88,25.009,25.009,0,0,0-12.095,0,14.835,14.835,0,0,0-2.639.88L3.409,8.906l4.618,3.738a3.512,3.512,0,0,0-.33,1.539,3.937,3.937,0,0,0,1.209,2.749,3.842,3.842,0,0,0,2.419.88Zm-.55-5.718.77.33a1.928,1.928,0,0,1,1.209,2.089,1.87,1.87,0,0,1-1.649,1.649,1.97,1.97,0,0,1-1.539-.44,1.773,1.773,0,0,1-.66-1.429,1.654,1.654,0,0,1,.44-1.209l.55-.66L0,4.068l6.377,19.9.88-.44a14.929,14.929,0,0,1,3.189-1.209,21.555,21.555,0,0,1,11.215,0,17.618,17.618,0,0,1,3.189,1.209l.88.44,6.377-19.9L21.771,12.315l.55.66a2.419,2.419,0,0,1,.44,1.429,1.87,1.87,0,0,1-1.649,1.649,1.97,1.97,0,0,1-1.539-.44,1.773,1.773,0,0,1-.66-1.429,1.936,1.936,0,0,1,1.209-1.759l.77-.33L16.053,0Z"/></svg>