<svg xmlns="http://www.w3.org/2000/svg" xmlns:xlink="http://www.w3.org/1999/xlink" width="109" height="109" viewBox="0 0 109 109"><defs><style>.a{fill:#eef3f9;opacity:0.4;}.b{fill:#dce5ee;opacity:0.3;}.c{fill:#16223b;}.d{fill:url(#a);}</style><linearGradient id="a" y1="0.498" x2="0.998" y2="0.498" gradientUnits="objectBoundingBox"><stop offset="0" stop-color="#fedea9"/><stop offset="1" stop-color="#ee743b"/></linearGradient></defs><g transform="translate(-667 -231)"><g transform="translate(-2.42 11.58)"><g transform="translate(669 219)"><g transform="translate(0.42 0.42)"><circle class="a" cx="54.5" cy="54.5" r="54.5"/><circle class="b" cx="44.5" cy="44.5" r="44.5" transform="translate(9 9)"/></g></g><g transform="translate(701.936 240.801)"><path class="c" d="M17.707,0V7.729H13.491V0L0,2.389C.562,24.171,13.35,32.743,13.35,32.743V14.756h4.216V32.743S30.495,24.171,31.057,2.389Z" transform="translate(4.919 30.495)"/><path class="d" d="M15.037,22.766a4.774,4.774,0,0,0,4.075-3.935,4.617,4.617,0,0,0-1.967-4.5L20.517,5.9l3.373,8.432a4.481,4.481,0,0,0-1.967,3.794,5.032,5.032,0,0,0,1.546,3.513,4.954,4.954,0,0,0,3.654,1.124A4.77,4.77,0,0,0,31.2,18.69a4.328,4.328,0,0,0-.422-2.67l5.9-4.778-5.059,15.88A18.961,18.961,0,0,0,28.246,26a31.963,31.963,0,0,0-15.458,0,18.961,18.961,0,0,0-3.373,1.124L4.356,11.383l5.9,4.778a4.488,4.488,0,0,0-.422,1.967,5.032,5.032,0,0,0,1.546,3.513,4.911,4.911,0,0,0,3.092,1.124Zm-.7-7.308.984.422a2.465,2.465,0,0,1,1.546,2.67,2.39,2.39,0,0,1-2.108,2.108,2.518,2.518,0,0,1-1.967-.562,2.266,2.266,0,0,1-.843-1.827,2.113,2.113,0,0,1,.562-1.546l.7-.843L0,5.2,8.151,30.635l1.124-.562a19.081,19.081,0,0,1,4.075-1.546,27.55,27.55,0,0,1,14.334,0,22.517,22.517,0,0,1,4.075,1.546l1.124.562L41.035,5.2l-13.21,10.54.7.843a3.091,3.091,0,0,1,.562,1.827,2.39,2.39,0,0,1-2.108,2.108,2.518,2.518,0,0,1-1.967-.562,2.266,2.266,0,0,1-.843-1.827,2.474,2.474,0,0,1,1.546-2.248l.984-.422L20.517,0Z" transform="translate(0 0)"/></g></g></g></svg>