<svg xmlns="http://www.w3.org/2000/svg" width="20.787" height="20.791" viewBox="0 0 20.787 20.791"><defs><style>.a{fill:#fff;}</style></defs><path class="a" d="M21.183,6.113A7.6,7.6,0,0,0,20.7,3.59,5.326,5.326,0,0,0,17.657.548,7.617,7.617,0,0,0,15.135.065C14.022.012,13.669,0,10.846,0S7.67.012,6.561.061A7.6,7.6,0,0,0,4.039.544a5.073,5.073,0,0,0-1.844,1.2A5.119,5.119,0,0,0,1,3.586,7.617,7.617,0,0,0,.514,6.108C.461,7.221.449,7.575.449,10.4s.012,3.176.061,4.285A7.6,7.6,0,0,0,.993,17.2a5.325,5.325,0,0,0,3.042,3.042,7.618,7.618,0,0,0,2.522.483c1.109.049,1.462.061,4.285.061s3.176-.012,4.285-.061a7.6,7.6,0,0,0,2.522-.483A5.318,5.318,0,0,0,20.691,17.2a7.622,7.622,0,0,0,.483-2.522c.049-1.109.061-1.462.061-4.285s0-3.176-.053-4.285ZM19.31,14.6a5.7,5.7,0,0,1-.357,1.929A3.449,3.449,0,0,1,16.979,18.5a5.719,5.719,0,0,1-1.929.357c-1.1.049-1.425.061-4.2.061s-3.107-.012-4.2-.061A5.7,5.7,0,0,1,4.721,18.5a3.2,3.2,0,0,1-1.194-.776,3.232,3.232,0,0,1-.776-1.194,5.72,5.72,0,0,1-.357-1.929c-.049-1.1-.061-1.426-.061-4.2s.012-3.107.061-4.2a5.7,5.7,0,0,1,.357-1.929,3.16,3.16,0,0,1,.78-1.194,3.227,3.227,0,0,1,1.194-.776A5.723,5.723,0,0,1,6.655,1.95c1.1-.049,1.426-.061,4.2-.061s3.107.012,4.2.061a5.7,5.7,0,0,1,1.929.357,3.2,3.2,0,0,1,1.194.776,3.232,3.232,0,0,1,.776,1.194,5.722,5.722,0,0,1,.357,1.929c.049,1.1.061,1.425.061,4.2s-.012,3.1-.061,4.2Zm0,0" transform="translate(-0.449 0)"/><path class="a" d="M130.29,124.5a5.341,5.341,0,1,0,5.341,5.341A5.342,5.342,0,0,0,130.29,124.5Zm0,8.805a3.464,3.464,0,1,1,3.464-3.464A3.465,3.465,0,0,1,130.29,133.305Zm0,0" transform="translate(-119.892 -119.443)"/><path class="a" d="M364.944,89.849A1.247,1.247,0,1,1,363.7,88.6,1.247,1.247,0,0,1,364.944,89.849Zm0,0" transform="translate(-347.747 -85.003)"/></svg>