<svg xmlns="http://www.w3.org/2000/svg" width="23.084" height="18.76" viewBox="0 0 23.084 18.76"><defs><style>.a{fill:#fff;}</style></defs><g transform="translate(0 0)"><path class="a" d="M23.084,2.221a9.467,9.467,0,0,1-2.72.746A4.751,4.751,0,0,0,22.446.346,9.48,9.48,0,0,1,19.439,1.5a4.74,4.74,0,0,0-8.07,4.32A13.445,13.445,0,0,1,1.607.867,4.741,4.741,0,0,0,3.073,7.19,4.718,4.718,0,0,1,.928,6.6c0,.02,0,.04,0,.06a4.739,4.739,0,0,0,3.8,4.644,4.745,4.745,0,0,1-2.139.081,4.741,4.741,0,0,0,4.424,3.289A9.5,9.5,0,0,1,1.13,16.7,9.617,9.617,0,0,1,0,16.632,13.4,13.4,0,0,0,7.26,18.76,13.383,13.383,0,0,0,20.734,5.285q0-.308-.014-.613A9.621,9.621,0,0,0,23.084,2.221Z"/></g></svg>