<svg xmlns="http://www.w3.org/2000/svg" width="25.231" height="17.872" viewBox="0 0 25.231 17.872"><defs><style>.a{fill:#fff;}</style></defs><path class="a" d="M24.673,6.054l.032.206a3.2,3.2,0,0,0-2.174-2.22l-.022-.005C20.541,3.5,12.626,3.5,12.626,3.5s-7.9-.011-9.882.534a3.2,3.2,0,0,0-2.19,2.2L.549,6.26A35.17,35.17,0,0,0,.581,18.82l-.033-.208a3.2,3.2,0,0,0,2.174,2.22l.022.005c1.965.535,9.882.535,9.882.535s7.894,0,9.882-.535a3.2,3.2,0,0,0,2.191-2.2l.005-.022a32.869,32.869,0,0,0,.526-5.938c0-.077,0-.155,0-.232s0-.157,0-.242a33.911,33.911,0,0,0-.558-6.146ZM10.1,17.373V7.511l7.863,4.93Z" transform="translate(0 -3.5)"/></svg>