<svg xmlns="http://www.w3.org/2000/svg" xmlns:xlink="http://www.w3.org/1999/xlink" width="384" height="657" viewBox="0 0 384 657"><defs><style>.a{fill:#16223b;}.b{clip-path:url(#a);}.c{fill:url(#b);}.d{filter:url(#i);}.e{filter:url(#f);}.f{filter:url(#c);}</style><clipPath id="a"><rect class="a" width="384" height="657" transform="translate(0 0.318)"/></clipPath><linearGradient id="b" x1="0.5" x2="0.5" y2="1" gradientUnits="objectBoundingBox"><stop offset="0" stop-color="#21345a"/><stop offset="1" stop-color="#16223b"/></linearGradient><filter id="c" x="42.745" y="436.43" width="359.4" height="359.4" filterUnits="userSpaceOnUse"><feOffset dx="7" dy="10" input="SourceAlpha"/><feGaussianBlur stdDeviation="12" result="d"/><feFlood flood-color="#2e4678" flood-opacity="0.529"/><feComposite operator="in" in2="d"/><feComposite in="SourceGraphic"/></filter><filter id="f" x="-224.968" y="44.32" width="480.551" height="480.551" filterUnits="userSpaceOnUse"><feOffset dx="7" dy="10" input="SourceAlpha"/><feGaussianBlur stdDeviation="12" result="g"/><feFlood flood-color="#2e4678" flood-opacity="0.529"/><feComposite operator="in" in2="g"/><feComposite in="SourceGraphic"/></filter><filter id="i" x="-7.694" y="418.709" width="193.714" height="193.714" filterUnits="userSpaceOnUse"><feOffset dx="7" dy="10" input="SourceAlpha"/><feGaussianBlur stdDeviation="12" result="j"/><feFlood flood-color="#2e4678" flood-opacity="0.529"/><feComposite operator="in" in2="j"/><feComposite in="SourceGraphic"/></filter></defs><g class="b" transform="translate(0 -0.318)"><g transform="translate(-195.968 70.638)"><g class="f" transform="matrix(1, 0, 0, 1, 195.97, -70.32)"><rect class="c" width="203.223" height="203.223" rx="21" transform="translate(215.45 749.83) rotate(-135)"/></g><g class="e" transform="matrix(1, 0, 0, 1, 195.97, -70.32)"><rect class="c" width="288.889" height="288.889" rx="21" transform="translate(8.31 478.87) rotate(-135)"/></g><g class="d" transform="matrix(1, 0, 0, 1, 195.97, -70.32)"><rect class="c" width="86.065" height="86.065" rx="21" transform="translate(82.16 566.42) rotate(-135)"/></g></g></g></svg>