<svg xmlns="http://www.w3.org/2000/svg" xmlns:xlink="http://www.w3.org/1999/xlink" width="64" height="64" viewBox="0 0 64 64"><defs><style>.a{fill:url(#a);}.b{fill:#ee743b;opacity:0.1;}.c{opacity:0.85;clip-path:url(#c);}.d{opacity:0.28;fill:url(#d);}.e{fill:#fff;}.f{fill:url(#e);}.g{fill:#ffedd2;}</style><linearGradient id="a" x1="0.309" y1="0.5" x2="2.495" y2="0.5" gradientUnits="objectBoundingBox"><stop offset="0" stop-color="#ffd9a1"/><stop offset="1" stop-color="#f37944"/></linearGradient><clipPath id="c"><rect class="a" width="54.789" height="54.789" rx="27.394"/></clipPath><linearGradient id="d" x1="0.309" y1="0.5" x2="2.495" y2="0.5" gradientUnits="objectBoundingBox"><stop offset="0" stop-color="#fff7eb"/><stop offset="1" stop-color="#fff"/></linearGradient><linearGradient id="e" y1="0.5" x2="1" y2="0.5" gradientUnits="objectBoundingBox"><stop offset="0" stop-color="#fedea9"/><stop offset="1" stop-color="#ee743b"/></linearGradient></defs><g transform="translate(0 -0.454)"><circle class="b" cx="32" cy="32" r="32" transform="translate(0 0.454)"/><rect class="a" width="54.789" height="54.789" rx="27.394" transform="translate(4.708 4.08)"/><g class="c" transform="translate(4.529 4.019)"><rect class="d" width="72.535" height="72.535" rx="36.267" transform="translate(6.1 -36.267)"/></g><g transform="translate(-337.93 -560.642)"><g transform="translate(357.416 578.168)"><path class="e" d="M357.416,594.515q0-6.821,2.75-10.81c1.833-2.659,4.968-3.94,8.984-4.163a9.154,9.154,0,0,1,8.562,4.163q2.771,3.99,2.771,10.81,0,6.863-2.771,10.872c-1.847,2.674-1.659,4.324-8.763,4.01-4.018-.177-6.951-1.337-8.784-4.01S357.416,599.09,357.416,594.515Zm16.089,0a15.394,15.394,0,0,0-.924-6.015,3.579,3.579,0,0,0-3.632-2.088,3.648,3.648,0,0,0-3.694,2.108,15.111,15.111,0,0,0-.944,5.994,15.4,15.4,0,0,0,.944,6.056,3.643,3.643,0,0,0,3.694,2.129,3.569,3.569,0,0,0,3.632-2.129A15.717,15.717,0,0,0,373.505,594.515Z" transform="translate(-357.416 -579.522)"/></g><g transform="translate(358.776 577.958)"><g transform="translate(0 0)"><path class="f" d="M370.527,595.652q0-6.772,2.75-10.733t8.784-3.961q5.992,0,8.763,3.961t2.771,10.733q0,6.813-2.771,10.794t-8.763,3.981q-6.034,0-8.784-3.981T370.527,595.652Zm16.089,0a15.186,15.186,0,0,0-.924-5.972,3.583,3.583,0,0,0-3.632-2.073,3.652,3.652,0,0,0-3.694,2.093,14.909,14.909,0,0,0-.944,5.951,15.193,15.193,0,0,0,.944,6.013,3.646,3.646,0,0,0,3.694,2.114,3.572,3.572,0,0,0,3.632-2.114A15.5,15.5,0,0,0,386.616,595.652Z" transform="translate(-370.124 -580.554)"/><path class="g" d="M379.464,608.235c-4.145,0-7.211-1.4-9.116-4.155-1.872-2.71-2.821-6.419-2.821-11.024,0-4.578.949-8.266,2.822-10.963,1.9-2.743,4.971-4.134,9.115-4.134,4.116,0,7.175,1.391,9.094,4.133,1.887,2.7,2.843,6.387,2.843,10.964,0,4.605-.956,8.315-2.843,11.025C386.64,606.837,383.58,608.235,379.464,608.235Zm0-29.47c-3.864,0-6.708,1.274-8.452,3.787-1.777,2.559-2.678,6.093-2.678,10.5,0,4.438.9,7.993,2.678,10.565,1.745,2.526,4.588,3.807,8.452,3.807,3.836,0,6.673-1.281,8.432-3.808,1.791-2.572,2.7-6.127,2.7-10.564,0-4.409-.908-7.942-2.7-10.5C386.138,580.04,383.3,578.765,379.464,578.765Zm0,22.821a4.033,4.033,0,0,1-4.062-2.353,15.639,15.639,0,0,1-.979-6.177,15.354,15.354,0,0,1,.98-6.118,4.039,4.039,0,0,1,4.062-2.331,3.969,3.969,0,0,1,4,2.312,15.631,15.631,0,0,1,.958,6.136,15.954,15.954,0,0,1-.957,6.174A3.959,3.959,0,0,1,379.464,601.586Zm0-16.171a3.256,3.256,0,0,0-3.326,1.856,14.6,14.6,0,0,0-.908,5.786,14.886,14.886,0,0,0,.909,5.848,3.25,3.25,0,0,0,3.326,1.875,3.177,3.177,0,0,0,3.263-1.872,15.2,15.2,0,0,0,.89-5.852,14.888,14.888,0,0,0-.888-5.808A3.187,3.187,0,0,0,379.464,585.414Z" transform="translate(-367.527 -577.958)"/></g></g></g></g></svg>