<svg xmlns="http://www.w3.org/2000/svg" xmlns:xlink="http://www.w3.org/1999/xlink" width="71" height="71" viewBox="0 0 71 71"><defs><style>.a{fill:url(#a);}.b{fill:#fef1eb;}.c{fill:#fed79f;}.d{opacity:0.85;clip-path:url(#b);}.e{opacity:0.28;fill:url(#c);}.f{fill:#fff;}.g{fill:url(#d);}.h{fill:url(#e);}</style><linearGradient id="a" x1="0.309" y1="0.5" x2="2.495" y2="0.5" gradientUnits="objectBoundingBox"><stop offset="0" stop-color="#ffd9a1"/><stop offset="1" stop-color="#f37944"/></linearGradient><clipPath id="b"><rect class="a" width="60.655" height="60.655" rx="30.327"/></clipPath><linearGradient id="c" x1="0.309" y1="0.5" x2="2.495" y2="0.5" gradientUnits="objectBoundingBox"><stop offset="0" stop-color="#fff7eb"/><stop offset="1" stop-color="#fff"/></linearGradient><linearGradient id="d" x1="1.262" x2="0.542" y2="0.76" gradientUnits="objectBoundingBox"><stop offset="0" stop-color="#fedea9"/><stop offset="1" stop-color="#ee743b"/></linearGradient><linearGradient id="e" x1="0.351" y1="-0.179" x2="0.295" y2="1.044" xlink:href="#d"/></defs><g transform="translate(0 0)"><circle class="b" cx="35.5" cy="35.5" r="35.5" transform="translate(0 0)"/><circle class="c" cx="30.329" cy="30.329" r="30.329" transform="translate(4.366 5.399)"/><g class="d" transform="translate(4.366 5.399)"><rect class="e" width="76.617" height="76.617" rx="38.309" transform="translate(18.663 -21.118)"/></g><g transform="translate(-62.527 -919.802)"><g transform="translate(80.566 943.975)"><g transform="translate(0 1.701)"><g transform="translate(7.267)"><path class="f" d="M217.775,1057.187H215.83v-1.937h1.945Z" transform="translate(-215.83 -1055.25)"/></g><g transform="translate(0 6.485)"><path class="f" d="M105.206,1157.638h-1.945V1155.7h1.945Z" transform="translate(-103.261 -1155.701)"/></g></g><g transform="translate(16.697)"><g transform="translate(0 3.88)"><path class="f" d="M363.844,1090.937H361.9V1089h1.945Z" transform="translate(-361.899 -1089)"/></g><g transform="translate(9.01)"><path class="f" d="M503.38,1030.831h-1.912v-1.937h1.912Z" transform="translate(-501.468 -1028.894)"/></g></g></g><path class="g" d="M322.34,1121.3l.059,9,1.475,2.07h14.834V1113.7l-3.8-2.2-3.486,6.294h-3.05l-2.251-2.161Z" transform="translate(-227.63 -162.192)"/><path class="h" d="M101.15,1163.185s.868.881.956.968h13.318l.822-.968h14.582l-3.874-4.1-5.854-4.246-4.855-.653-6.722-8.659-1.937,3.873-4.116,1.937Z" transform="translate(-20.72 -194.025)"/><path class="f" d="M112.054,939.964h-1.937l-.008,29.2H79V971.1h33.054Z"/></g></g></svg>