<svg xmlns="http://www.w3.org/2000/svg" xmlns:xlink="http://www.w3.org/1999/xlink" width="63" height="64" viewBox="0 0 63 64"><defs><style>.a{fill:url(#a);}.b{fill:#ee743b;opacity:0.1;}.c{opacity:0.85;clip-path:url(#c);}.d{opacity:0.28;fill:url(#d);}.e{fill:url(#e);}.f{fill:#fff;}.g{fill:#e6e6e6;}.h{fill:#fedea9;}</style><linearGradient id="a" x1="0.309" y1="0.5" x2="2.495" y2="0.5" gradientUnits="objectBoundingBox"><stop offset="0" stop-color="#ffd9a1"/><stop offset="1" stop-color="#f37944"/></linearGradient><clipPath id="c"><rect class="a" width="54.789" height="54.789" rx="27.394"/></clipPath><linearGradient id="d" x1="0.309" y1="0.5" x2="2.495" y2="0.5" gradientUnits="objectBoundingBox"><stop offset="0" stop-color="#fff7eb"/><stop offset="1" stop-color="#fff"/></linearGradient><linearGradient id="e" y1="0.5" x2="1" y2="0.5" gradientUnits="objectBoundingBox"><stop offset="0" stop-color="#fedea9"/><stop offset="1" stop-color="#ee743b"/></linearGradient></defs><g transform="translate(0 -0.235)"><ellipse class="b" cx="31.5" cy="32" rx="31.5" ry="32" transform="translate(0 0.235)"/><rect class="a" width="54.789" height="54.789" rx="27.394" transform="translate(4.112 4.186)"/><g class="c" transform="translate(4.112 4.186)"><rect class="d" width="72.535" height="72.535" rx="36.267" transform="translate(6.1 -36.267)"/></g><g transform="translate(261.721 -484.344)"><path class="e" d="M-217.92,533.292v4.272h-24.8v-4.272a1.663,1.663,0,0,1,.888-1.472,1.651,1.651,0,0,1,.777-.193h21.472a1.662,1.662,0,0,1,1.472.888A1.651,1.651,0,0,1-217.92,533.292Z" transform="translate(0 -26.716)"/><path class="f" d="M-241.833,533.673v5.744h-.888v-4.272A1.663,1.663,0,0,1-241.833,533.673Z" transform="translate(0 -28.569)"/><g transform="translate(-238.449 514.167)"><path class="g" d="M-197.031,630.014h2.855a.277.277,0,0,1,.277.277v2.854a.277.277,0,0,1-.277.277h-2.855a.277.277,0,0,1-.277-.277v-2.854a.277.277,0,0,1,.277-.277Z" transform="translate(197.308 -630.014)"/><path class="g" d="M-197.031,675.1h2.855a.277.277,0,0,1,.277.277v2.855a.277.277,0,0,1-.277.277h-2.855a.277.277,0,0,1-.277-.277v-2.855A.277.277,0,0,1-197.031,675.1Z" transform="translate(197.308 -670.862)"/><path class="g" d="M-197.031,720.2h2.855a.277.277,0,0,1,.277.277v2.855a.277.277,0,0,1-.277.277h-2.855a.277.277,0,0,1-.277-.277v-2.855A.277.277,0,0,1-197.031,720.2Z" transform="translate(197.308 -711.714)"/><path class="g" d="M-151.942,630.014h2.916a.277.277,0,0,1,.277.277v2.854a.277.277,0,0,1-.277.277h-2.916a.277.277,0,0,1-.277-.277v-2.854a.277.277,0,0,1,.277-.277Z" transform="translate(156.461 -630.014)"/><path class="g" d="M-151.942,675.1h2.916a.278.278,0,0,1,.277.277v2.855a.277.277,0,0,1-.277.277h-2.916a.277.277,0,0,1-.277-.277v-2.855A.277.277,0,0,1-151.942,675.1Z" transform="translate(156.461 -670.862)"/><path class="g" d="M-151.942,720.2h2.916a.277.277,0,0,1,.277.277v2.855a.278.278,0,0,1-.277.277h-2.916a.277.277,0,0,1-.277-.277v-2.855A.277.277,0,0,1-151.942,720.2Z" transform="translate(156.461 -711.714)"/><path class="g" d="M-106.2,630.014h2.916a.277.277,0,0,1,.277.277v2.854a.277.277,0,0,1-.277.277H-106.2a.277.277,0,0,1-.277-.277v-2.854a.277.277,0,0,1,.277-.277Z" transform="translate(115.025 -630.014)"/><path class="g" d="M-106.2,675.1h2.916a.277.277,0,0,1,.277.277v2.855a.277.277,0,0,1-.277.277H-106.2a.277.277,0,0,1-.277-.277v-2.855A.277.277,0,0,1-106.2,675.1Z" transform="translate(115.025 -670.862)"/><path class="g" d="M-106.2,720.2h2.916a.277.277,0,0,1,.277.277v2.855a.277.277,0,0,1-.277.277H-106.2a.277.277,0,0,1-.277-.277v-2.855A.277.277,0,0,1-106.2,720.2Z" transform="translate(115.025 -711.714)"/><path class="g" d="M-57.335,630.292v2.854a.277.277,0,0,1-.277.277h-2.855a.277.277,0,0,1-.277-.277v-2.854a.277.277,0,0,1,.277-.277h2.855a.277.277,0,0,1,.277.277Z" transform="translate(73.591 -630.014)"/><path class="g" d="M-60.467,675.1h2.855a.277.277,0,0,1,.277.277v2.855a.277.277,0,0,1-.277.277h-2.855a.277.277,0,0,1-.277-.277v-2.855A.278.278,0,0,1-60.467,675.1Z" transform="translate(73.591 -670.862)"/><path class="g" d="M-60.467,720.2h2.855a.277.277,0,0,1,.277.277v2.855a.277.277,0,0,1-.277.277h-2.855a.278.278,0,0,1-.277-.277v-2.855A.277.277,0,0,1-60.467,720.2Z" transform="translate(73.591 -711.714)"/></g><path class="e" d="M-242.721,590.605v17.588a1.664,1.664,0,0,0,1.664,1.664h21.472a1.664,1.664,0,0,0,1.665-1.664V590.605Z" transform="translate(0 -80.146)"/><path class="e" d="M-198.662,502.692v4.439a.555.555,0,0,1-.555.555h-1.665a.555.555,0,0,1-.555-.555v-4.439a.555.555,0,0,1,.555-.555h1.665A.555.555,0,0,1-198.662,502.692Z" transform="translate(-37.401 0)"/><path class="h" d="M-197.308,630.014h3.409v3.409h-3.409Z" transform="translate(-41.141 -115.847)"/><path class="h" d="M-60.744,630.014h3.409v3.409h-3.409Z" transform="translate(-164.858 -115.847)"/><path class="h" d="M-152.219,630.014h3.47v3.409h-3.47Z" transform="translate(-81.988 -115.847)"/><path class="h" d="M-197.308,675.1h3.409v3.41h-3.409Z" transform="translate(-41.141 -156.695)"/><path class="h" d="M-60.744,675.1h3.409v3.41h-3.409Z" transform="translate(-164.858 -156.695)"/><path class="h" d="M-152.219,675.1h3.47v3.41h-3.47Z" transform="translate(-81.988 -156.695)"/><path class="h" d="M-197.308,720.2h3.409v3.409h-3.409Z" transform="translate(-41.141 -197.547)"/><path class="h" d="M-60.744,720.2h3.409v3.409h-3.409Z" transform="translate(-164.858 -197.547)"/><path class="h" d="M-152.219,720.2h3.47v3.409h-3.47Z" transform="translate(-81.988 -197.547)"/><path class="h" d="M-106.481,630.014h3.47v3.409h-3.47Z" transform="translate(-123.423 -115.847)"/><path class="h" d="M-106.481,675.1h3.47v3.41h-3.47Z" transform="translate(-123.423 -156.695)"/><path class="h" d="M-106.481,720.2h3.47v3.409h-3.47Z" transform="translate(-123.423 -197.547)"/><path class="e" d="M-47.088,502.692v4.439a.555.555,0,0,1-.555.555h-1.664a.555.555,0,0,1-.555-.555v-4.439a.555.555,0,0,1,.555-.555h1.664A.555.555,0,0,1-47.088,502.692Z" transform="translate(-174.716 0)"/><path class="f" d="M-242.721,590.605v17.588a1.664,1.664,0,0,0,1.664,1.664h.615a1.663,1.663,0,0,1-1.364-1.637V591.782a.444.444,0,0,1,.416-.29h23.469v-.888Z" transform="translate(0 -80.146)"/><path class="f" d="M-199.994,507.685h-.888a.555.555,0,0,1-.555-.555v-4.439a.555.555,0,0,1,.555-.555h.333v4.993A.555.555,0,0,0-199.994,507.685Z" transform="translate(-37.401 0)"/><path class="f" d="M-48.419,507.685h-.888a.555.555,0,0,1-.555-.555v-4.439a.555.555,0,0,1,.555-.555h.333v4.993A.555.555,0,0,0-48.419,507.685Z" transform="translate(-174.716 0)"/></g></g></svg>