<svg xmlns="http://www.w3.org/2000/svg" xmlns:xlink="http://www.w3.org/1999/xlink" width="545.735" height="321.275" viewBox="0 0 545.735 321.275"><defs><style>.a{opacity:0.53;fill:url(#a);}.b{opacity:0.12;}.c,.d,.e,.j{fill:none;}.c,.d,.e{stroke:#75d9ff;stroke-width:8px;}.d{opacity:0.67;}.e{opacity:0.34;}.f{fill:#111e39;}.g{fill:#84c6ff;}.h{fill:#fff;}.i{stroke:none;}.k{filter:url(#h);}.l{filter:url(#f);}.m{filter:url(#d);}.n{filter:url(#b);}</style><radialGradient id="a" cx="0.5" cy="0.5" r="0.5" gradientUnits="objectBoundingBox"><stop offset="0" stop-color="#1ac8ff"/><stop offset="1" stop-color="#a1f5ff" stop-opacity="0"/></radialGradient><filter id="b" x="207.767" y="123.87" width="135.194" height="135.194" filterUnits="userSpaceOnUse"><feOffset input="SourceAlpha"/><feGaussianBlur stdDeviation="3" result="c"/><feFlood flood-color="#fff" flood-opacity="0.902"/><feComposite operator="in" in2="c"/><feComposite in="SourceGraphic"/></filter><filter id="d" x="274.5" y="163.99" width="25" height="25" filterUnits="userSpaceOnUse"><feOffset dy="1" input="SourceAlpha"/><feGaussianBlur stdDeviation="2.5" result="e"/><feFlood flood-color="#fff" flood-opacity="0.471"/><feComposite operator="in" in2="e"/><feComposite in="SourceGraphic"/></filter><filter id="f" x="294.5" y="163.99" width="25" height="25" filterUnits="userSpaceOnUse"><feOffset dy="1" input="SourceAlpha"/><feGaussianBlur stdDeviation="2.5" result="g"/><feFlood flood-color="#fff" flood-opacity="0.471"/><feComposite operator="in" in2="g"/><feComposite in="SourceGraphic"/></filter><filter id="h" x="314.5" y="163.99" width="25" height="25" filterUnits="userSpaceOnUse"><feOffset dy="1" input="SourceAlpha"/><feGaussianBlur stdDeviation="2.5" result="i"/><feFlood flood-color="#fff" flood-opacity="0.471"/><feComposite operator="in" in2="i"/><feComposite in="SourceGraphic"/></filter></defs><g transform="translate(-211 -2236.51)"><ellipse class="a" cx="236.867" cy="124.638" rx="236.867" ry="124.638" transform="translate(247 2272.51)"/><g class="b" transform="translate(376 2294.672)"><g class="c" transform="translate(60 59.902)"><circle class="i" cx="54.5" cy="54.5" r="54.5"/><circle class="j" cx="54.5" cy="54.5" r="50.5"/></g><g class="d" transform="translate(31 30.902)"><circle class="i" cx="83.5" cy="83.5" r="83.5"/><circle class="j" cx="83.5" cy="83.5" r="79.5"/></g><g class="e" transform="translate(0 -0.098)"><circle class="i" cx="114.5" cy="114.5" r="114.5"/><circle class="j" cx="114.5" cy="114.5" r="110.5"/></g></g><ellipse class="f" cx="75.5" cy="5" rx="75.5" ry="5" transform="translate(415 2486.573)"/><g transform="translate(-5.231 -214.823)"><g transform="translate(434.044 2584.202)"><path class="g" d="M117.114,96.458a8.992,8.992,0,0,0-4.46-6.661L83.742,73.15a9.073,9.073,0,0,0-10.924,1.445l-5.695,5.695a4.173,4.173,0,0,1-5.576.312A164.6,164.6,0,0,1,48.41,68.784,164.65,164.65,0,0,1,36.594,55.646a4.173,4.173,0,0,1,.312-5.576L42.6,44.375a9.071,9.071,0,0,0,1.445-10.923L27.4,4.54A9.057,9.057,0,0,0,13.144,2.655L4.563,11.236c-5.989,5.989-6.085,16.944-.271,30.848C9.883,55.453,20.317,70.17,33.67,83.524s28.071,23.787,41.44,29.378c6.844,2.862,12.973,4.292,18.148,4.292,5.338,0,9.66-1.522,12.7-4.563l8.581-8.581a8.993,8.993,0,0,0,2.575-7.592ZM81.848,76.44,110.76,93.086a5.259,5.259,0,0,1,1.607,7.683L73.943,78.84l1.56-1.56a5.27,5.27,0,0,1,6.345-.839ZM20.239,3.844a5.222,5.222,0,0,1,3.869,2.59L40.754,35.347a5.269,5.269,0,0,1-.839,6.344l-1.433,1.433-22.05-38.3a5.2,5.2,0,0,1,3.1-1.03,5.361,5.361,0,0,1,.7.047Zm83.035,106.1c-4.758,4.758-14.489,4.559-26.7-.547-12.924-5.4-27.207-15.547-40.22-28.56S13.2,53.543,7.8,40.619C2.689,28.41,2.49,18.678,7.248,13.92l6.37-6.37L35.7,45.9,34.22,47.386a7.965,7.965,0,0,0-.585,10.641,168.442,168.442,0,0,0,12.09,13.442,168.534,168.534,0,0,0,13.443,12.09,7.965,7.965,0,0,0,10.641-.585l1.351-1.351,38.477,21.96-6.363,6.364Z" transform="translate(-0.001 0)"/></g><g transform="translate(432.998 2584.202)"><g class="n" transform="matrix(1, 0, 0, 1, -216.77, -132.87)"><path class="h" d="M117.114,96.458a8.992,8.992,0,0,0-4.46-6.661L83.742,73.15a9.073,9.073,0,0,0-10.924,1.445l-5.695,5.695a4.173,4.173,0,0,1-5.576.312A164.6,164.6,0,0,1,48.41,68.784,164.65,164.65,0,0,1,36.594,55.646a4.173,4.173,0,0,1,.312-5.576L42.6,44.375a9.071,9.071,0,0,0,1.445-10.923L27.4,4.54A9.057,9.057,0,0,0,13.144,2.655L4.563,11.236c-5.989,5.989-6.085,16.944-.271,30.848C9.883,55.453,20.317,70.17,33.67,83.524s28.071,23.787,41.44,29.378c6.844,2.862,12.973,4.292,18.148,4.292,5.338,0,9.66-1.522,12.7-4.563l8.581-8.581a8.993,8.993,0,0,0,2.575-7.592ZM81.848,76.44,110.76,93.086a5.259,5.259,0,0,1,1.607,7.683L73.943,78.84l1.56-1.56a5.27,5.27,0,0,1,6.345-.839ZM20.239,3.844a5.222,5.222,0,0,1,3.869,2.59L40.754,35.347a5.269,5.269,0,0,1-.839,6.344l-1.433,1.433-22.05-38.3a5.2,5.2,0,0,1,3.1-1.03,5.361,5.361,0,0,1,.7.047Zm83.035,106.1c-4.758,4.758-14.489,4.559-26.7-.547-12.924-5.4-27.207-15.547-40.22-28.56S13.2,53.543,7.8,40.619C2.689,28.41,2.49,18.678,7.248,13.92l6.37-6.37L35.7,45.9,34.22,47.386a7.965,7.965,0,0,0-.585,10.641,168.442,168.442,0,0,0,12.09,13.442,168.534,168.534,0,0,0,13.443,12.09,7.965,7.965,0,0,0,10.641-.585l1.351-1.351,38.477,21.96-6.363,6.364Z" transform="translate(216.77 132.87)"/></g></g></g><g class="m" transform="matrix(1, 0, 0, 1, 211, 2236.51)"><circle class="h" cx="5" cy="5" r="5" transform="translate(282 170.49)"/></g><g class="l" transform="matrix(1, 0, 0, 1, 211, 2236.51)"><circle class="h" cx="5" cy="5" r="5" transform="translate(302 170.49)"/></g><g class="k" transform="matrix(1, 0, 0, 1, 211, 2236.51)"><circle class="h" cx="5" cy="5" r="5" transform="translate(322 170.49)"/></g></g></svg>