<svg xmlns="http://www.w3.org/2000/svg" width="104.517" height="104.517" viewBox="0 0 104.517 104.517"><defs><style>.a{fill:#fedea9;}.b,.d{fill:#ee743b;}.b{stroke:#ee743b;}.c{fill:#16223b;}</style></defs><g transform="translate(-668 -948)"><rect class="a" width="104.517" height="104.517" rx="52.259" transform="translate(668 948)"/><g transform="translate(676.49 956.417)"><path class="b" d="M69.671,19.49H17.943a2.437,2.437,0,0,0-2.433,2.439V57.515a2.436,2.436,0,0,0,2.433,2.433H35.45L34.6,67.541H32a1.949,1.949,0,1,0,0,3.9H55.537a1.949,1.949,0,1,0,0-3.9H53.01l-.846-7.592H69.671A2.436,2.436,0,0,0,72.1,57.515V21.929A2.437,2.437,0,0,0,69.671,19.49ZM53.138,68.708h2.4a.782.782,0,1,1,0,1.564H32a.782.782,0,1,1,0-1.564Zm-1.3-1.167H35.777l.846-7.592H50.991Zm19.1-10.026a1.265,1.265,0,0,1-1.266,1.266H17.943a1.265,1.265,0,0,1-1.266-1.266V21.929a1.27,1.27,0,0,1,1.266-1.272H69.671a1.27,1.27,0,0,1,1.266,1.272Z" transform="translate(0 0)"/><path class="b" d="M68.054,23.458H19.9a.6.6,0,0,0-.552.647V53.476a.6.6,0,0,0,.552.647H68.054a.6.6,0,0,0,.552-.647V24.1A.6.6,0,0,0,68.054,23.458ZM67.5,52.83H20.449V24.751H67.5Z" transform="translate(-0.184 -0.46)"/><path class="c" d="M34.922,41.775a1.269,1.269,0,0,0,.015.149L31.2,44.476a.584.584,0,1,0,.658.965l3.74-2.551a1.244,1.244,0,0,0,1.088.058L43.725,48.8a1.271,1.271,0,1,0,2.433-.18l4.465-4.748a1.248,1.248,0,0,0,1.576-.928l5.008-1.27a1.234,1.234,0,0,0,1.37.373l3.65,3.519a1.254,1.254,0,0,0-.053.343,1.27,1.27,0,1,0,2.464-.416l6.553-7.117a.584.584,0,1,0-.859-.79L63.79,44.693a1.25,1.25,0,0,0-.345-.054,1.263,1.263,0,0,0-.419.076L59.382,41.2a1.266,1.266,0,1,0-2.442-.665l-5.03,1.276a1.262,1.262,0,0,0-2.139,1.259L45.3,47.834a1.214,1.214,0,0,0-.835.058l-7.03-5.84a1.269,1.269,0,1,0-2.509-.275Z" transform="translate(-12.659 2.251) rotate(-9)"/><path class="d" d="M94.559,53.741a.584.584,0,0,0,.584.584h4.13a.584.584,0,0,0,0-1.167h-4.13A.584.584,0,0,0,94.559,53.741Z" transform="translate(-34.938 -10.278)"/><path class="d" d="M94.559,53.741c0,.322.081.584.181.584h1.279c.1,0,.181-.261.181-.584s-.081-.584-.181-.584H94.74C94.64,53.157,94.559,53.418,94.559,53.741Z" transform="translate(-38.281 -10.278)"/><path class="d" d="M99.273,57.655h-4.13a.584.584,0,0,0,0,1.167h4.13a.584.584,0,0,0,0-1.167Z" transform="translate(-34.938 -12.151)"/><path class="d" d="M96.019,57.655H94.74c-.1,0-.181.261-.181.584s.081.584.181.584h1.279c.1,0,.181-.261.181-.584S96.119,57.655,96.019,57.655Z" transform="translate(-38.281 -12.151)"/><path class="d" d="M99.273,62.153h-4.13a.584.584,0,0,0,0,1.167h4.13a.584.584,0,0,0,0-1.167Z" transform="translate(-34.938 -14.024)"/><path class="d" d="M96.019,62.153H94.74c-.1,0-.181.261-.181.584s.081.584.181.584h1.279c.1,0,.181-.261.181-.584S96.119,62.153,96.019,62.153Z" transform="translate(-38.281 -14.024)"/><path class="d" d="M27.209,31.292h7.145a.584.584,0,0,0,0-1.167H27.209a.584.584,0,1,0,0,1.167Z" transform="translate(-4.629 -3.153)"/><path class="d" d="M27.209,36.323h7.145a.584.584,0,0,0,0-1.167H27.209a.584.584,0,1,0,0,1.167Z" transform="translate(-4.629 -5.248)"/></g></g></svg>