<svg xmlns="http://www.w3.org/2000/svg" width="104.517" height="104.517" viewBox="0 0 104.517 104.517"><defs><style>.a{fill:#fedea9;}.b{fill:#ee743b;}.c{fill:#16223b;}</style></defs><g transform="translate(-301 -1384)"><rect class="a" width="104.517" height="104.517" rx="52.259" transform="translate(301 1384)"/><g transform="translate(321 1414)"><path class="b" d="M29.262,45.2H28v2.133h1.262A3.2,3.2,0,0,0,31.2,49.268V50.53h2.133V49.268a3.2,3.2,0,0,0,1.936-1.936H36.53V45.2H35.268a3.2,3.2,0,0,0-1.936-1.936V42H31.2v1.262A3.2,3.2,0,0,0,29.262,45.2Zm3,0A1.066,1.066,0,1,1,31.2,46.265,1.066,1.066,0,0,1,32.265,45.2Z" transform="translate(0.329 -8.946)"/><path class="b" d="M12.268,47.331H13.53V45.2H12.268a3.2,3.2,0,0,0-1.936-1.936V42H8.2v1.262a3.2,3.2,0,0,0-1.3.87H5v2.133H6.066a3.2,3.2,0,0,0,2.133,3V50.53h2.133V49.268a3.2,3.2,0,0,0,1.936-1.936Zm-3,0a1.066,1.066,0,1,1,1.066-1.066A1.066,1.066,0,0,1,9.265,47.331Z" transform="translate(-1.195 -8.946)"/><path class="b" d="M58.512,39H9.464a7.464,7.464,0,1,0,0,14.928H57.446l.384-.034c.225.02.452.034.682.034a7.464,7.464,0,0,0,0-14.928ZM39.32,46.464a5.331,5.331,0,1,1-5.331-5.331A5.331,5.331,0,0,1,39.32,46.464Zm-35.187,0A5.331,5.331,0,1,1,9.464,51.8a5.331,5.331,0,0,1-5.331-5.331ZM14.689,51.8c.01-.01.018-.021.029-.031.084-.083.161-.174.241-.26s.168-.178.246-.272.147-.191.22-.288.147-.189.213-.288.131-.213.2-.32.126-.2.182-.3.113-.228.168-.343.107-.206.15-.312.093-.246.138-.37c.039-.107.083-.213.117-.32.043-.136.074-.277.107-.416.026-.1.057-.2.078-.3.034-.163.054-.331.078-.5.011-.083.029-.163.037-.246a7.49,7.49,0,0,0,0-1.535c-.009-.083-.027-.163-.037-.246-.023-.166-.044-.335-.078-.5-.021-.107-.052-.2-.078-.3-.035-.14-.066-.28-.107-.416-.034-.107-.078-.213-.117-.32-.045-.124-.086-.25-.138-.37s-.1-.213-.15-.312-.107-.231-.168-.343-.122-.2-.182-.3-.127-.213-.2-.32-.144-.193-.213-.289-.143-.194-.22-.287-.164-.181-.246-.272-.157-.177-.241-.26c-.011-.01-.019-.021-.029-.031H28.775a7.439,7.439,0,0,0,0,10.663Zm26.763-5.331A7.436,7.436,0,0,0,39.2,41.131H53.276l-.016.017q-.243.24-.463.5c-.041.048-.077.1-.116.15-.107.129-.206.26-.3.4-.05.074-.1.15-.145.226-.076.117-.15.237-.22.359-.048.084-.092.171-.135.256-.062.12-.122.241-.177.365-.041.091-.078.181-.115.274-.05.126-.1.254-.141.383-.031.093-.062.186-.09.28-.041.135-.075.274-.107.414-.021.091-.044.18-.062.273-.03.156-.052.32-.073.473-.01.079-.023.157-.032.236-.022.24-.036.483-.036.728s.014.488.036.728c.009.08.022.157.032.237.02.159.043.32.073.472.018.092.041.18.061.271.033.141.067.281.107.419.027.092.057.181.086.272.045.133.094.265.146.4.034.086.07.173.107.258.06.132.124.262.19.39.039.077.078.154.119.228.08.141.165.278.254.414.036.055.07.113.107.167.129.188.266.37.411.544h0a6.875,6.875,0,0,0,.494.533H39.195a7.435,7.435,0,0,0,2.257-5.329ZM58.512,51.8a5.253,5.253,0,0,1-.949-.1,5.065,5.065,0,0,1-.5-.129c-.171-.048-.343-.093-.506-.157-.117-.046-.227-.107-.34-.157a5.307,5.307,0,0,1-.583-.32c-.077-.049-.15-.107-.224-.156a5.3,5.3,0,0,1-.58-.479c-.053-.051-.107-.107-.157-.156a5.374,5.374,0,0,1-.5-.6c-.043-.061-.087-.119-.128-.181a5.544,5.544,0,0,1-.367-.674c-.034-.076-.074-.147-.107-.223a5.3,5.3,0,0,1-.228-.731c-.02-.083-.05-.162-.067-.246a5.16,5.16,0,0,1,0-2.056c.017-.085.048-.165.068-.25a5.3,5.3,0,0,1,.226-.725c.032-.081.075-.156.107-.235a5.362,5.362,0,0,1,.357-.658c.046-.069.1-.135.144-.2a5.271,5.271,0,0,1,.471-.57c.063-.066.127-.129.193-.191a5.351,5.351,0,0,1,.533-.438c.092-.066.183-.133.28-.194a5.284,5.284,0,0,1,.513-.279c.135-.065.269-.133.411-.188s.293-.094.441-.138a5.09,5.09,0,0,1,.548-.141,5.327,5.327,0,1,1,.937,10.57Z" transform="translate(-1.394 -9.144)"/><path class="b" d="M56.331,43.262V42H54.2v1.262A3.2,3.2,0,0,0,52.262,45.2H51v2.133h1.262A3.2,3.2,0,0,0,54.2,49.268V50.53h2.133V49.268a3.2,3.2,0,0,0,1.936-1.936H59.53V45.2H58.268a3.2,3.2,0,0,0-1.936-1.936Zm-1.066,4.069a1.066,1.066,0,1,1,1.066-1.066A1.066,1.066,0,0,1,55.265,47.331Z" transform="translate(1.853 -8.946)"/><path class="b" d="M47.856,25.928A14.928,14.928,0,1,0,32.928,40.856,14.928,14.928,0,0,0,47.856,25.928Zm-14.928,12.8a12.8,12.8,0,1,1,12.8-12.8,12.8,12.8,0,0,1-12.8,12.8Z" transform="translate(-0.334 -11)"/><path class="b" d="M36.729,19.265A1.066,1.066,0,0,1,37.8,20.331h2.133a3.2,3.2,0,0,0-3.2-3.2h-3.2V15H31.4v2.133H28.2a3.2,3.2,0,0,0-3.2,3.2v3.2a3.2,3.2,0,0,0,3.2,3.2h3.2V32.06H28.2a1.066,1.066,0,0,1-1.066-1.066H25a3.2,3.2,0,0,0,3.2,3.2h3.2v2.133H33.53V34.193h3.2a3.2,3.2,0,0,0,3.2-3.2V27.8a3.2,3.2,0,0,0-3.2-3.2h-3.2V19.265Zm0,7.464A1.066,1.066,0,0,1,37.8,27.8v3.2a1.066,1.066,0,0,1-1.066,1.066h-3.2V26.729ZM31.4,24.6H28.2a1.066,1.066,0,0,1-1.066-1.066v-3.2A1.066,1.066,0,0,1,28.2,19.265h3.2Z" transform="translate(0.13 -10.735)"/><rect class="b" width="1.018" height="2.037" transform="translate(22.404 14.245)"/><rect class="b" width="1.018" height="2.037" transform="translate(41.753 14.245)"/><rect class="b" width="8.147" height="2.037" transform="translate(4.073 14.245)"/><rect class="b" width="2.037" height="2.037" transform="translate(0 14.245)"/><rect class="b" width="9.165" height="2.037" transform="translate(8.147 8.135)"/><rect class="b" width="3.055" height="2.037" transform="translate(3.055 8.135)"/><rect class="b" width="9.165" height="2.037" transform="translate(8.147 20.355)"/><rect class="b" width="3.055" height="2.037" transform="translate(3.055 20.355)"/><path class="c" d="M56.534,28.839,62.8,25.225,56.534,21.61v2.548H50v2.133h6.534Z" transform="translate(1.787 -10.297)"/></g></g></svg>