<svg xmlns="http://www.w3.org/2000/svg" width="104.517" height="104.517" viewBox="0 0 104.517 104.517"><defs><style>.a{fill:#fedea9;}.b{fill:#16223b;}.c{fill:#ee743b;}</style></defs><g transform="translate(-668 -1383.741)"><g transform="translate(668 1383.741)"><rect class="a" width="104.517" height="104.517" rx="52.259" transform="translate(0 0)"/></g><g transform="translate(-3 -1)"><path class="b" d="M278.81,179.133a1.309,1.309,0,0,1,1.307,1.307.9.9,0,1,0,1.8,0,3.114,3.114,0,0,0-2.269-2.992V176.9a.9.9,0,1,0-1.8,0v.582a3.11,3.11,0,0,0,.962,6.068,1.307,1.307,0,1,1-1.307,1.307.9.9,0,0,0-1.8,0,3.115,3.115,0,0,0,2.149,2.958v.806a.9.9,0,1,0,1.8,0v-.771a3.109,3.109,0,0,0-.841-6.1,1.308,1.308,0,1,1,0-2.615Z" transform="translate(447.527 1247.345)"/><path class="c" d="M188.313,132.432A19.113,19.113,0,1,0,169.2,113.319a19.113,19.113,0,0,0,19.113,19.113Zm-9.566-8.3a14.389,14.389,0,0,0,8.454,3.589v2.87a17.244,17.244,0,0,1-10.482-4.431ZM189,127.747a14.384,14.384,0,0,0,8.776-3.528l2.028,2.029a17.237,17.237,0,0,1-10.8,4.365Zm-.691-1.786a12.642,12.642,0,1,1,12.642-12.642,12.642,12.642,0,0,1-12.642,12.642Zm9.537-23.481A14.384,14.384,0,0,0,189,98.891V96.024a17.239,17.239,0,0,1,10.874,4.427ZM187.2,98.916a14.391,14.391,0,0,0-8.524,3.65l-2.027-2.027A17.244,17.244,0,0,1,187.2,96.046Zm-9.789,4.936a14.383,14.383,0,0,0-3.521,8.655h-2.868a17.239,17.239,0,0,1,4.361-10.683ZM173.9,114.31a14.387,14.387,0,0,0,3.571,8.547l-2.029,2.028a17.241,17.241,0,0,1-4.413-10.575Zm27.19,10.672-2.027-2.027a14.389,14.389,0,0,0,3.658-8.644h2.87A17.244,17.244,0,0,1,201.092,124.981Zm4.51-12.475h-2.868a14.386,14.386,0,0,0-3.608-8.753l2.028-2.028A17.241,17.241,0,0,1,205.6,112.507Z" transform="translate(538.025 1316.849)"/><path class="c" d="M77.63,356.3a.9.9,0,0,0,1.043.733l8.032-1.4a.9.9,0,0,0,.733-1.043l-.165-.944,1.911-1.551a3.759,3.759,0,0,1,2.687-.86l13.1.957c.047,0,.093,0,.14,0a13.6,13.6,0,0,0,7.99-2.616.878.878,0,0,0,.1-.083l15.6-15.275a.9.9,0,0,0,.05-1.235,5.066,5.066,0,0,0-6.963-.663l-7.229,5.406a6.435,6.435,0,0,0-6.124-2.314l-7.325,1.281a7.977,7.977,0,0,1-3.541-.184l-.819-.233a13.214,13.214,0,0,0-12.158,2.592l-.333-1.9a.9.9,0,0,0-1.043-.733l-8.032,1.4a.9.9,0,0,0-.733,1.043ZM96.352,338l.819.233a9.793,9.793,0,0,0,4.345.226l7.324-1.281a4.636,4.636,0,0,1,5.113,2.888L102.889,342a.9.9,0,0,0,.311,1.776l12.04-2.106a.9.9,0,0,0,.733-1.044,6.415,6.415,0,0,0-.394-1.351l7.393-5.529.019-.015a3.265,3.265,0,0,1,3.859-.142L111.98,348.152a11.77,11.77,0,0,1-6.912,2.229L92,349.427a5.547,5.547,0,0,0-3.962,1.264l-1.122.911-1.86-10.633A11.423,11.423,0,0,1,96.352,338Zm-13.618.153L85.506,354,79.251,355.1l-2.772-15.849Z" transform="translate(618.467 1115.442)"/><path class="c" d="M289.9,19.668a.9.9,0,0,0,.9-.9V9.9a.9.9,0,1,0-1.8,0v8.865A.9.9,0,0,0,289.9,19.668Z" transform="translate(436.226 1389.252)"/><path class="c" d="M328.9,35.813a.9.9,0,0,0,.9-.9V28.9a.9.9,0,0,0-1.8,0v6.01A.9.9,0,0,0,328.9,35.813Z" transform="translate(403.086 1373.107)"/><path class="c" d="M251.9,35.813a.9.9,0,0,0,.9-.9V28.9a.9.9,0,1,0-1.8,0v6.01A.9.9,0,0,0,251.9,35.813Z" transform="translate(468.516 1373.107)"/><path class="c" d="M356.9,53.461a.9.9,0,0,0,.9-.9V47.9a.9.9,0,1,0-1.8,0V52.56A.9.9,0,0,0,356.9,53.461Z" transform="translate(379.293 1356.962)"/><path class="c" d="M222.9,53.461a.9.9,0,0,0,.9-.9V47.9a.9.9,0,1,0-1.8,0V52.56A.9.9,0,0,0,222.9,53.461Z" transform="translate(493.158 1356.962)"/></g></g></svg>