<svg xmlns="http://www.w3.org/2000/svg" width="104.517" height="104.517" viewBox="0 0 104.517 104.517"><defs><style>.a{fill:#fedea9;}.b{fill:#16223b;}.c{fill:#ee743b;}</style></defs><g transform="translate(-1035 -1384)"><g transform="translate(1035 1384)"><rect class="a" width="104.517" height="104.517" rx="52.259" transform="translate(0 0)"/></g><g transform="translate(1059 1407)"><rect class="b" width="4" height="6" transform="translate(13.509 15.509)"/><rect class="b" width="3" height="6" transform="translate(42.509 15.509)"/><path class="c" d="M54.268,48.032l-9.308-2.8a.858.858,0,0,0-.283-.158L42.092,40.1a.86.86,0,0,0-.55-.437.872.872,0,0,0-.257-.012v-3.9a15.2,15.2,0,0,0,1.928-2.112,17.548,17.548,0,0,0,2.312-4.11c.862-.541,2.741-2.089,2.741-2.089a3.576,3.576,0,0,0,3.386-3.344V21.917c0-1.582-1.15-2.654-3.06-2.981a.857.857,0,0,0,.137-.442A13.509,13.509,0,0,0,35.235,5H33.429A13.51,13.51,0,0,0,19.934,18.494a.85.85,0,0,0,.142.447c-1.859.33-2.979,1.4-2.979,2.976v2.172c0,2.215,2.136,3.373,4.245,3.373h.073a.864.864,0,0,0,.864-.864V25.049c0,3.785,2.323,8.12,5.18,10.712,0,.071,0,.141,0,.2a.835.835,0,0,0-.012.2.88.88,0,0,0,.018.132v3.388A.845.845,0,0,0,27,39.658a.861.861,0,0,0-.55.429l-2.717,5.065L13.572,48.03C7.324,49.834,5,52.714,5,58.66v2.494a.864.864,0,0,0,.864.864H61.153a.864.864,0,0,0,.864-.864V58.66C62.018,52.307,60.133,49.724,54.268,48.032Zm-7.8-22.983v1.44a.686.686,0,0,0-.007.108c0,.01,0,.016,0,.026-.053.051-.108.1-.163.148A10.253,10.253,0,0,0,46.468,25.049Zm3.455-3.132v2.172c0,.884-.869,1.36-1.728,1.548V20.611C48.981,20.726,49.923,21.045,49.923,21.917ZM20.551,25.652c-.86-.174-1.728-.647-1.728-1.564V21.917c0-.886.908-1.2,1.728-1.313Zm1.728-5.966a.9.9,0,0,0-.711-.819.844.844,0,0,0,.093-.373A11.78,11.78,0,0,1,33.428,6.728h1.806A11.781,11.781,0,0,1,47,18.495a.858.858,0,0,0,.093.374.848.848,0,0,0-.626.792v-.133A11.1,11.1,0,0,0,35.194,8.461c-.034,0-.067-.005-.1-.005H33.572A11.014,11.014,0,0,0,23.1,15.242a11.443,11.443,0,0,0-.933,3.294.845.845,0,0,0,.133.534c-.005.153-.022.3-.022.458v.158Zm1.728,5.362V19.528c0-.1.027-.2.029-.3A15.793,15.793,0,0,0,29.083,16.6a17.182,17.182,0,0,0,10.733,3.949h1.468a.864.864,0,0,0,0-1.728H39.816a15.486,15.486,0,0,1-10.152-4,.862.862,0,0,0-1.15,0,13.463,13.463,0,0,1-4.237,2.5,9.2,9.2,0,0,1,.568-1.712,9.786,9.786,0,0,1,7.009-5.274,10.519,10.519,0,0,1,1.719-.16h1.516c.016,0,.03,0,.047,0a9.717,9.717,0,0,1,9.393,8.961.848.848,0,0,0,.21.462v5.438a10.285,10.285,0,0,1-.64,3.324,11.668,11.668,0,0,1-4.893,1.444A2.585,2.585,0,0,0,36.964,28.5H35.236a2.592,2.592,0,0,0,0,5.184h1.728a2.589,2.589,0,0,0,2.547-2.163,13.322,13.322,0,0,0,3.523-.778,15.7,15.7,0,0,1-1.2,1.846c-1.75,2.317-3.847,3.754-5.474,3.754a2.508,2.508,0,0,1-.945-.178.837.837,0,0,0-.328-.065H33.571a.826.826,0,0,0-.328.065,2.491,2.491,0,0,1-.941.178C28.738,36.344,24.007,29.9,24.007,25.049Zm13.821,6.044a.865.865,0,0,1-.864.864H35.236a.864.864,0,0,1,0-1.728h1.728A.864.864,0,0,1,37.828,31.093ZM32.3,38.072a4.225,4.225,0,0,0,1.427-.243h1.2a4.236,4.236,0,0,0,1.429.243h0a6.321,6.321,0,0,0,3.2-1.026v3.392a21.042,21.042,0,0,1-5.192,1.314,21.247,21.247,0,0,1-5.175-1.221V37.066A6.164,6.164,0,0,0,32.3,38.072ZM27.55,41.689c.012.006.025.011.037.017a.855.855,0,0,0,.739.442.81.81,0,0,0,.172-.035,22.592,22.592,0,0,0,5.867,1.358,22.394,22.394,0,0,0,5.75-1.386.881.881,0,0,0,.305.063.85.85,0,0,0,.637-.293l2.077,4L39.214,49.3l-4.221-5a.866.866,0,0,0-1.319,0l-4.223,5L25.382,45.73Zm5.873,11.689h1.8l.964,6.911H32.453Zm2.9-4.387-.95,2.659H33.284l-.943-2.666a.877.877,0,0,0-.151-.253L34.333,46.2l2.143,2.538A.849.849,0,0,0,36.321,48.992ZM6.729,58.66c0-5.191,1.78-7.371,7.32-8.97l10-2.831,4.923,4.316a.868.868,0,0,0,.57.216.549.549,0,0,0,.064,0,.86.86,0,0,0,.6-.3l.739-.874.849,2.394-1.08,7.685H6.729ZM60.29,60.29H37.936L36.864,52.6l.857-2.4.741.877a.866.866,0,0,0,.6.3.817.817,0,0,0,.634-.212l4.86-4.262,9.229,2.777c5.111,1.474,6.51,3.4,6.51,8.97V60.29Z" transform="translate(-5.001 -5)"/></g></g></svg>