<svg width="291" height="560" viewBox="0 0 291 560" fill="none" xmlns="http://www.w3.org/2000/svg">
<path d="M200.1 270.2V339.1H162.4V270.2L43.4 291.1C48.1 483.5 162.4 560 162.4 560V400.5H200.1V560C200.1 560 314.3 483.5 319 291.1L200.1 270.2Z" fill="#F8F8F8"/>
<path d="M132.8 201.8C151.3 199.7 166.4 184.8 168.9 166.5C171 150.9 164.3 135.7 151.6 127L181.3 52.9L211 127.1C200 134.8 193.3 147.5 193.3 161C193.3 172.7 198.3 184 207.1 191.8C215.9 199.6 227.6 203.3 239.4 202C257.9 199.9 273.1 185 275.6 166.5C276.7 158.4 275.4 150.4 272 143.3L324.4 101.5L279.4 242.6C270.7 238.8 260.8 235.5 249.8 232.6C205.3 220.8 157.5 220.8 113 232.6C102 235.5 92.1 238.9 83.4 242.6L38.4 101.5L90.8 143.3C88.2 148.8 86.8 154.9 86.8 161C86.8 172.8 91.8 184 100.6 191.8C108.2 198.6 118 202.3 128.2 202.3C129.7 202 131.3 202 132.8 201.8ZM126.5 136.9L135.8 140.5C145.2 144.1 150.9 153.7 149.5 163.8C148.2 173.4 140.2 181.2 130.6 182.3C124.3 183 118.2 181.1 113.6 176.9C109 172.8 106.3 166.9 106.3 160.7C106.3 155.6 108 150.9 111.2 147L117.5 139.3L0 45.6L71.7 270.2L82.1 264.6C91.7 259.5 103.7 254.9 118 251.2C159.5 240.2 203.3 240.2 244.8 251.2C259.1 255 271.1 259.5 280.7 264.6L291.1 270.2L362.8 45.6L245.3 139.3L251.6 147C255.4 151.7 257.1 157.6 256.3 163.7C255 173.4 247.1 181.2 237.4 182.3C231.1 183 225.1 181.1 220.4 176.9C215.8 172.8 213.2 166.9 213.2 160.7C213.2 151.8 218.8 143.6 227.1 140.4L236.4 136.8L181.3 0L126.5 136.9Z" fill="#F8F8F8"/>
</svg>
