<svg id="Слой_1" data-name="Слой 1" xmlns="http://www.w3.org/2000/svg" width="201.88" height="693.48" viewBox="0 0 201.88 693.48"><defs><style>.cls-1{fill:#16223b;opacity:0.06;isolation:isolate;}</style></defs><title>Монтажная область 1</title><path class="cls-1" d="M248.11,334.41v84.76H201.88V334.41L53.94,360.61c6.16,238.87,146.4,332.87,146.4,332.87V496.23h46.23V693.48s141.78-94,147.94-332.87Z"/><path class="cls-1" d="M164.89,249.65c23.12-3.08,41.61-21.57,44.69-43.15,3.09-20-6.16-38.52-21.57-49.31l37-92.47,37,92.47c-13.87,9.24-21.58,24.66-21.58,41.61,0,13.87,6.16,27.74,17,38.53a54.33,54.33,0,0,0,40.07,12.32A52.29,52.29,0,0,0,342.12,205a47.41,47.41,0,0,0-4.62-29.28l64.72-52.4L346.74,297.43a207.94,207.94,0,0,0-37-12.33,350.52,350.52,0,0,0-169.52,0,207.77,207.77,0,0,0-37,12.33L47.77,124.83l64.73,52.4a49,49,0,0,0-4.62,21.57c0,13.87,6.16,27.74,17,38.53a53.81,53.81,0,0,0,33.9,12.33Zm-7.7-80.13L168,174.14c12.32,4.62,18.49,17,17,29.28a26.21,26.21,0,0,1-23.12,23.12c-7.7,1.54-15.41-1.54-21.57-6.17S131,208,131,200.34c0-6.16,1.54-12.33,6.16-17l7.71-9.25L0,57,89.38,336l12.33-6.16a209,209,0,0,1,44.69-17,302.11,302.11,0,0,1,157.19,0,246.84,246.84,0,0,1,44.69,17L360.61,336,450,57,305.13,172.6l7.71,9.25c4.62,6.16,6.16,13.87,6.16,20A26.2,26.2,0,0,1,295.89,225c-7.71,1.54-15.42-1.54-21.58-6.16s-9.25-12.33-9.25-20c0-10.79,7.71-21.57,17-24.65l10.78-4.63L225,0Z"/></svg>