<svg id="Слой_1" data-name="Слой 1" xmlns="http://www.w3.org/2000/svg" width="201.88" height="693.48" viewBox="0 0 201.88 693.48"><defs><style>.cls-1{fill:#16223b;opacity:0.06;isolation:isolate;}</style></defs><title>Монтажная область 1</title><path class="cls-1" d="M0,334.41v84.76H-46.23V334.41l-148,26.2C-188,599.48-47.78,693.48-47.78,693.48V496.23H-1.54V693.48s141.78-94,147.94-332.87Z"/><path class="cls-1" d="M-83.22,249.65c23.12-3.08,41.61-21.57,44.69-43.15,3.08-20-6.16-38.52-21.57-49.31l37-92.47,37,92.47C0,166.43-7.7,181.85-7.7,198.8c0,13.87,6.16,27.74,17,38.53a54.33,54.33,0,0,0,40.07,12.32A52.3,52.3,0,0,0,94,205a47.55,47.55,0,0,0-4.62-29.28l64.72-52.4L98.63,297.43a207.77,207.77,0,0,0-37-12.33,350.52,350.52,0,0,0-169.52,0,207.67,207.67,0,0,0-37,12.33l-55.48-172.6,64.73,52.4a49.17,49.17,0,0,0-4.63,21.57c0,13.87,6.17,27.74,17,38.53a53.83,53.83,0,0,0,33.9,12.33Zm-7.7-80.13,10.78,4.62c12.33,4.62,18.5,17,17,29.28A26.22,26.22,0,0,1-86.3,226.54c-7.71,1.54-15.41-1.54-21.58-6.17s-9.24-12.33-9.24-20c0-6.16,1.54-12.33,6.16-17l7.71-9.25L-248.11,57-158.73,336l12.33-6.16a208.82,208.82,0,0,1,44.69-17,302.11,302.11,0,0,1,157.19,0,247.12,247.12,0,0,1,44.69,17L112.5,336,201.88,57,57,172.6l7.7,9.25c4.63,6.16,6.17,13.87,6.17,20A26.21,26.21,0,0,1,47.77,225c-7.7,1.54-15.41-1.54-21.57-6.16S17,206.51,17,198.8c0-10.79,7.71-21.57,17-24.65l10.79-4.63L-23.11,0Z"/></svg>