<svg width="293" height="49" viewBox="0 0 293 49" fill="none" xmlns="http://www.w3.org/2000/svg">
<path d="M162.753 31.9023V33.1921C162.753 35.3245 164.391 37.0613 166.402 37.0613H200.459C202.47 37.0613 204.108 35.3245 204.108 33.1921V31.9023H162.753Z" fill="white"/>
<path d="M191.54 41.532H190.137L189.431 39.6404H177.438L176.733 41.532H175.322C173.303 41.532 171.673 43.2603 171.673 45.4013C171.673 46.1149 172.216 46.691 172.889 46.691H193.972C194.645 46.691 195.189 46.1149 195.189 45.4013C195.189 43.2603 193.559 41.532 191.54 41.532Z" fill="white"/>
<path d="M200.459 2.66821H166.402C164.391 2.66821 162.753 4.40507 162.753 6.53746V29.323H204.108V6.53746C204.108 4.40507 202.47 2.66821 200.459 2.66821Z" fill="white"/>
<path d="M99.6874 13.7988C97.8114 13.7988 94.9075 11.642 91.8494 11.7199C87.8148 11.7719 84.1143 14.0847 82.0328 17.7488C77.844 25.103 80.9534 35.9654 85.0394 41.9423C87.0439 44.8528 89.4081 48.1271 92.5433 48.0231C95.55 47.8932 96.6807 46.0481 100.33 46.0481C103.953 46.0481 104.981 48.0231 108.168 47.9452C111.406 47.8932 113.462 44.9827 115.44 42.0462C117.727 38.668 118.678 35.3937 118.73 35.2118C118.653 35.1858 112.434 32.769 112.357 25.4928C112.305 19.4119 117.265 16.5014 117.496 16.3715C114.669 12.1877 110.326 11.7199 108.81 11.616C104.853 11.3041 101.538 13.7988 99.6874 13.7988ZM106.369 7.66603C108.039 5.63908 109.144 2.80655 108.836 0C106.446 0.103946 103.568 1.61116 101.846 3.63811C100.304 5.43118 98.9678 8.31569 99.3276 11.0703C101.975 11.2782 104.699 9.69298 106.369 7.66603Z" fill="white"/>
<path d="M278.66 24.7222H261.627C261.386 24.7222 261.187 24.9199 261.196 25.1607C261.248 27.1469 261.386 29.0557 261.593 30.8528C261.619 31.1107 261.869 31.2827 262.128 31.2225C264.734 30.5604 267.417 30.2251 270.152 30.2251C272.888 30.2251 275.571 30.5604 278.177 31.2225C278.427 31.2827 278.677 31.1107 278.712 30.8528C278.919 29.0557 279.057 27.1555 279.1 25.1607C279.1 24.9199 278.91 24.7222 278.66 24.7222Z" fill="white"/>
<path d="M278.704 15.8398C278.678 15.5818 278.428 15.4099 278.169 15.4701C275.563 16.1321 272.88 16.4675 270.144 16.4675C267.409 16.4675 264.726 16.1321 262.12 15.4701C261.869 15.4099 261.619 15.5818 261.585 15.8398C261.378 17.6368 261.24 19.537 261.188 21.5318C261.179 21.7726 261.378 21.9704 261.619 21.9704H278.661C278.902 21.9704 279.101 21.7726 279.092 21.5318C279.049 19.537 278.911 17.6368 278.704 15.8398Z" fill="white"/>
<path d="M278.169 12.2113C277.392 7.94656 276.21 4.45565 274.847 1.97934C274.787 1.86757 274.683 1.79018 274.554 1.76439C273.121 1.48064 271.646 1.33447 270.144 1.33447C268.643 1.33447 267.176 1.48064 265.735 1.77299C265.614 1.79878 265.502 1.87616 265.442 1.98794C264.07 4.45565 262.888 7.95515 262.12 12.2199C262.077 12.4349 262.215 12.6498 262.43 12.71C264.889 13.3721 267.478 13.7246 270.144 13.7246C272.811 13.7246 275.399 13.3721 277.858 12.71C278.074 12.6412 278.212 12.4349 278.169 12.2113Z" fill="white"/>
<path d="M279.324 3.3116C278.971 3.14823 278.608 3.50076 278.746 3.86189C278.746 3.87049 278.755 3.87049 278.755 3.87909C279.592 6.05446 280.274 8.52216 280.791 11.1962C280.843 11.4628 281.128 11.6175 281.378 11.5144C283.078 10.8179 284.7 9.97527 286.219 8.98647C286.443 8.8403 286.486 8.53076 286.305 8.333C286.132 8.14384 285.951 7.96328 285.77 7.77411C283.872 5.89109 281.689 4.39499 279.324 3.3116Z" fill="white"/>
<path d="M282.293 21.9704H291.733C291.983 21.9704 292.182 21.7554 292.164 21.5061C291.862 17.8174 290.637 14.3093 288.618 11.2569C288.489 11.0592 288.221 10.999 288.014 11.1365C286.366 12.2199 284.614 13.1571 282.776 13.931C282.397 14.0858 282.017 14.2405 281.637 14.3867C281.448 14.4555 281.335 14.6447 281.361 14.8424C281.629 17.0006 281.801 19.2533 281.862 21.5577C281.862 21.7812 282.052 21.9704 282.293 21.9704Z" fill="white"/>
<path d="M262.12 34.481C262.896 38.7458 264.078 42.2367 265.442 44.713C265.502 44.8248 265.606 44.9021 265.735 44.9279C267.168 45.2203 268.643 45.3665 270.144 45.3665C271.646 45.3665 273.113 45.2203 274.554 44.9279C274.674 44.9021 274.787 44.8248 274.847 44.713C276.219 42.2453 277.401 38.7458 278.169 34.481C278.212 34.2661 278.074 34.0511 277.858 33.9909C275.399 33.3288 272.811 32.9763 270.144 32.9763C267.478 32.9763 264.89 33.3288 262.43 33.9909C262.215 34.0511 262.085 34.2575 262.12 34.481Z" fill="white"/>
<path d="M257.521 32.7702C257.9 32.6154 258.28 32.4606 258.66 32.3145C258.849 32.2457 258.962 32.0565 258.936 31.8587C258.668 29.7006 258.496 27.4478 258.435 25.1435C258.427 24.9113 258.237 24.7222 258.004 24.7222H248.564C248.314 24.7222 248.115 24.9371 248.133 25.1865C248.435 28.8751 249.66 32.3832 251.679 35.4356C251.808 35.6334 252.085 35.6936 252.283 35.556C253.931 34.4726 255.683 33.544 257.521 32.7702Z" fill="white"/>
<path d="M286.219 37.6964C284.691 36.7162 283.078 35.8649 281.378 35.1685C281.128 35.0653 280.843 35.2201 280.791 35.4866C280.282 38.1607 279.601 40.6284 278.755 42.8037C278.755 42.8123 278.746 42.8123 278.746 42.8209C278.608 43.1821 278.971 43.526 279.324 43.3712C281.689 42.2964 283.872 40.7917 285.761 38.9087C285.943 38.7282 286.124 38.539 286.296 38.3498C286.486 38.1607 286.443 37.8425 286.219 37.6964Z" fill="white"/>
<path d="M281.862 25.1432C281.801 27.4476 281.637 29.7003 281.361 31.8585C281.335 32.0562 281.448 32.2454 281.637 32.3142C282.017 32.4604 282.397 32.6065 282.776 32.7699C284.614 33.5438 286.357 34.481 288.014 35.5643C288.212 35.6933 288.48 35.6417 288.618 35.444C290.646 32.3916 291.862 28.8835 292.164 25.1948C292.182 24.9455 291.983 24.7305 291.733 24.7305H282.293C282.052 24.7219 281.862 24.9111 281.862 25.1432Z" fill="white"/>
<path d="M254.069 8.99516C255.596 9.97536 257.21 10.8266 258.91 11.5231C259.16 11.6262 259.445 11.4715 259.496 11.2049C260.006 8.53085 260.687 6.06314 261.533 3.88778C261.533 3.87918 261.541 3.87918 261.541 3.87058C261.68 3.50945 261.317 3.16552 260.963 3.32029C258.599 4.39507 256.425 5.89118 254.526 7.7828C254.345 7.96336 254.164 8.15253 253.991 8.34169C253.81 8.53085 253.845 8.84899 254.069 8.99516Z" fill="white"/>
<path d="M258.427 21.9703C258.47 19.5198 258.642 17.1295 258.936 14.8337C258.962 14.636 258.849 14.4468 258.66 14.378C258.28 14.2319 257.9 14.0857 257.521 13.9223C255.683 13.1485 253.94 12.2113 252.283 11.1279C252.085 10.9989 251.817 11.0505 251.679 11.2483C249.66 14.3092 248.443 17.8087 248.133 21.506C248.115 21.7554 248.314 21.9703 248.564 21.9703H258.427Z" fill="white"/>
<path d="M260.964 43.38C261.318 43.5434 261.68 43.1908 261.542 42.8297C261.542 42.8211 261.533 42.8211 261.533 42.8125C260.696 40.6372 260.015 38.1695 259.497 35.4954C259.445 35.2288 259.161 35.0741 258.91 35.1773C257.21 35.8737 255.588 36.7163 254.07 37.7051C253.845 37.8513 253.802 38.1609 253.983 38.3586C254.156 38.5478 254.337 38.7283 254.518 38.9175C256.425 40.8005 258.6 42.2966 260.964 43.38Z" fill="white"/>
<path d="M37.0929 15.5917C35.4852 15.5917 34.1645 16.931 34.1645 18.5614V30.9354C34.1645 32.5658 35.4852 33.9051 37.0929 33.9051C38.7006 33.9051 40.0213 32.5658 40.0213 30.9354V18.5614C40.0213 16.9164 38.7006 15.5917 37.0929 15.5917ZM2.92839 15.5917C1.32064 15.5917 0 16.931 0 18.5614V30.9354C0 32.5658 1.32064 33.9051 2.92839 33.9051C4.53613 33.9051 5.85677 32.5658 5.85677 30.9354V18.5614C5.85677 16.9164 4.53613 15.5917 2.92839 15.5917ZM33.0735 16.1012V35.3027C33.0735 37.0787 31.6668 38.5053 29.9155 38.5053H27.8197V45.0563C27.8197 46.6867 26.499 48.026 24.8913 48.026C23.2835 48.026 21.9629 46.6867 21.9629 45.0563V38.5053H18.0584V45.0563C18.0584 46.6867 16.7377 48.026 15.13 48.026C13.5223 48.026 12.2016 46.6867 12.2016 45.0563V38.5053H10.1058C8.35451 38.5053 6.94774 37.0787 6.94774 35.3027V16.1012H33.0735ZM26.4129 4.41144L28.48 0.626465C28.5948 0.422659 28.5231 0.160622 28.3221 0.0587187C28.2647 0.0296035 28.1929 0.000488281 28.1211 0.000488281C27.9776 0.000488281 27.834 0.0732763 27.7623 0.218852L25.6664 4.03294C23.9582 3.26139 22.0347 2.82466 20.0106 2.82466C17.9866 2.82466 16.0631 3.26139 14.3548 4.03294L12.2734 0.218852C12.1585 0.0150459 11.9145 -0.0577421 11.7135 0.0587187C11.5126 0.17518 11.4408 0.422659 11.5556 0.626465L13.6227 4.41144C9.64645 6.50774 6.97645 10.482 6.96209 15.053H33.0879C33.0735 10.482 30.3892 6.50774 26.4129 4.41144ZM13.9816 10.2054C13.3787 10.2054 12.8906 9.71041 12.8906 9.09899C12.8906 8.48757 13.3787 7.99261 13.9816 7.99261C14.5845 7.99261 15.0726 8.48757 15.0726 9.09899C15.0726 9.71041 14.5845 10.2054 13.9816 10.2054ZM26.0397 10.2054C25.4368 10.2054 24.9487 9.71041 24.9487 9.09899C24.9487 8.48757 25.4368 7.99261 26.0397 7.99261C26.6426 7.99261 27.1306 8.48757 27.1306 9.09899C27.1306 9.71041 26.6426 10.2054 26.0397 10.2054Z" fill="white"/>
</svg>
