<svg xmlns="http://www.w3.org/2000/svg" xmlns:xlink="http://www.w3.org/1999/xlink" width="155" height="155" viewBox="0 0 155 155"><defs><style>.a{opacity:0.2;}.a,.b{fill:url(#a);}.c{fill:#fff;}.d{filter:url(#c);}</style><linearGradient id="a" x1="0.537" y1="1" x2="0.46" gradientUnits="objectBoundingBox"><stop offset="0" stop-color="#ee743b"/><stop offset="1" stop-color="#fedea9"/></linearGradient><filter id="c" x="0" y="0" width="155" height="155" filterUnits="userSpaceOnUse"><feOffset dx="4" dy="5" input="SourceAlpha"/><feGaussianBlur stdDeviation="4.5" result="d"/><feFlood flood-opacity="0.059"/><feComposite operator="in" in2="d"/><feComposite in="SourceGraphic"/></filter></defs><g transform="translate(-187.5 -661.5)"><circle class="a" cx="71" cy="71" r="71" transform="translate(190 663)"/><g class="d" transform="matrix(1, 0, 0, 1, 187.5, 661.5)"><circle class="b" cx="64" cy="64" r="64" transform="translate(9.5 8.5)"/></g><g transform="translate(223.25 703.333)"><path class="c" d="M74.767,29.1H69.7a29.095,29.095,0,0,0-54.651,0H9.983A5,5,0,0,0,5,34.086v9.967a5,5,0,0,0,4.983,4.983h6.229a1.734,1.734,0,0,0,1.329-.664,1.61,1.61,0,0,0,.249-1.5,25.086,25.086,0,0,1,0-15.614,25.758,25.758,0,0,1,49.086,0,25.086,25.086,0,0,1,0,15.614,25.6,25.6,0,0,1-24.5,17.94H29.917a5.814,5.814,0,0,0,0,11.628h8.306a5.778,5.778,0,0,0,5.814-5.814V68.056A28.928,28.928,0,0,0,69.7,49.036h5.066a5,5,0,0,0,4.983-4.983V34.086A5,5,0,0,0,74.767,29.1ZM14.053,45.714H9.983a1.666,1.666,0,0,1-1.661-1.661V34.086a1.666,1.666,0,0,1,1.661-1.661h4.07a29.9,29.9,0,0,0,0,13.289ZM40.714,70.631a2.447,2.447,0,0,1-2.492,2.492H29.917a2.492,2.492,0,0,1,0-4.983h10.8ZM76.428,44.053a1.666,1.666,0,0,1-1.661,1.661H70.7a29.9,29.9,0,0,0,0-13.289h4.07a1.666,1.666,0,0,1,1.661,1.661ZM63.139,39.069a20.764,20.764,0,0,0-41.528,0,20.426,20.426,0,0,0,4.983,13.455l-4.485,4.485a1.664,1.664,0,0,0,1.163,2.824h19.1A20.771,20.771,0,0,0,63.139,39.069ZM30.083,51.362a17.219,17.219,0,0,1-5.149-12.292A17.442,17.442,0,1,1,42.375,56.511H27.259L30,53.77A1.788,1.788,0,0,0,30.083,51.362ZM40.714,39.069a1.661,1.661,0,1,1,1.661,1.661A1.666,1.666,0,0,1,40.714,39.069Zm8.306,0a1.661,1.661,0,1,1,1.661,1.661A1.666,1.666,0,0,1,49.019,39.069Zm-16.611,0a1.661,1.661,0,1,1,1.661,1.661A1.666,1.666,0,0,1,32.408,39.069Z" transform="translate(-5 -10)"/></g></g></svg>