<svg xmlns="http://www.w3.org/2000/svg" xmlns:xlink="http://www.w3.org/1999/xlink" width="155" height="155" viewBox="0 0 155 155"><defs><style>.a{opacity:0.2;}.a,.b{fill:url(#a);}.c{fill:#fff;}.d{filter:url(#c);}</style><linearGradient id="a" x1="0.537" y1="1" x2="0.46" gradientUnits="objectBoundingBox"><stop offset="0" stop-color="#ee743b"/><stop offset="1" stop-color="#fedea9"/></linearGradient><filter id="c" x="0" y="0" width="155" height="155" filterUnits="userSpaceOnUse"><feOffset dx="4" dy="5" input="SourceAlpha"/><feGaussianBlur stdDeviation="4.5" result="d"/><feFlood flood-opacity="0.059"/><feComposite operator="in" in2="d"/><feComposite in="SourceGraphic"/></filter></defs><g transform="translate(-763.5 -661.5)"><circle class="a" cx="71" cy="71" r="71" transform="translate(766 663)"/><g class="d" transform="matrix(1, 0, 0, 1, 763.5, 661.5)"><circle class="b" cx="64" cy="64" r="64" transform="translate(9.5 8.5)"/></g><g transform="translate(802.604 707)"><path class="c" d="M68.619,28.919a1.916,1.916,0,0,0-1.028-1.028L18.054,7.171a1.894,1.894,0,0,0-2.479,1.018L3.2,37.753a1.894,1.894,0,0,0,1.018,2.479l49.548,20.72a1.938,1.938,0,0,0,.736.141,1.83,1.83,0,0,0,.714-.141,1.862,1.862,0,0,0,1.028-1.018L68.608,30.37A1.927,1.927,0,0,0,68.619,28.919ZM26.5,27.566,8.462,34.993l8.8-21.023Zm-5.7-15.156L61.929,29.623,35.742,34.462Zm7.881,18.4,4.633,6.8a1.894,1.894,0,0,0,1.916.8l8.1-1.494,7.686,18.793L9.9,38.5Zm18.4,5.413,16.238-2.988-8.8,21.012Z" transform="translate(-0.019 -7.024)"/><path class="c" d="M25.322,57.139H2.144a1.894,1.894,0,0,1,0-3.789H25.322a1.894,1.894,0,1,1,0,3.789Z" transform="translate(-0.25 -3.2)"/><path class="c" d="M15.189,49.619H2.144a1.894,1.894,0,1,1,0-3.789H15.189a1.894,1.894,0,0,1,0,3.789Z" transform="translate(-0.25 -3.821)"/></g></g></svg>