<svg width="25" height="33" viewBox="0 0 25 33" fill="none" xmlns="http://www.w3.org/2000/svg">
<path d="M12.3054 0.935547C5.67871 0.935547 0.311646 6.39049 0.311646 13.1257C0.311646 15.7975 1.13314 18.3023 2.72135 20.4175L11.5934 32.552C11.5934 32.6076 11.6482 32.6076 11.6482 32.6076C12.0863 33.1086 12.7435 32.9416 13.0721 32.552C15.6461 29.1009 20.3012 22.644 22.1085 20.1948C23.5324 18.1353 24.2991 15.6862 24.2991 13.1257C24.2991 6.39049 18.8773 0.935547 12.3054 0.935547ZM12.3054 19.6939C8.74561 19.6939 5.84301 16.7438 5.84301 13.1257C5.84301 9.5076 8.74561 6.55748 12.3054 6.55748C15.8652 6.55748 18.7678 9.5076 18.7678 13.1257C18.7678 16.7438 15.8652 19.6939 12.3054 19.6939Z" fill="#061940"/>
</svg>
