<svg width="25" height="25" viewBox="0 0 25 25" fill="none" xmlns="http://www.w3.org/2000/svg">
<path d="M22.9154 17.4759C21.2432 17.4759 19.6286 17.1876 18.1294 16.7263C17.6681 16.5533 17.1491 16.6686 16.8032 17.0722L13.8624 20.013C10.0567 18.1102 7.00059 14.9964 5.09774 11.2483L8.03851 8.30757C8.38448 7.9616 8.49981 7.44264 8.38448 6.98134C7.86552 5.48212 7.63488 3.86758 7.63488 2.19537C7.63488 1.44576 7.05825 0.869141 6.30864 0.869141H1.638C0.888392 0.869141 0.311768 1.44576 0.311768 2.19537C0.311768 14.7081 10.4603 24.8566 22.973 24.8566C23.7226 24.8566 24.2993 24.28 24.2993 23.5304V18.8598C24.2416 18.0525 23.665 17.4759 22.9154 17.4759Z" fill="#061940"/>
</svg>
