<svg width="67" height="67" viewBox="0 0 67 67" fill="none" xmlns="http://www.w3.org/2000/svg">
<g clip-path="url(#clip0)">
<path d="M25.4004 50.6002C25.8004 50.2002 26.2004 49.5002 27.5004 49.5002C28.8004 49.5002 41.9004 49.5002 43.2004 49.5002C44.4004 49.5002 50.9004 43.0002 51.7004 42.0002C52.5004 41.1002 56.0004 35.8002 57.0004 33.5002C56.4004 32.7002 54.7004 32.0002 52.7004 32.4002C50.8004 32.8002 49.7004 34.2002 48.4004 36.7002L43.8004 39.1002" stroke="#EE743B" stroke-width="2" stroke-miterlimit="10" stroke-linecap="round"/>
<path d="M31.5003 43.1002C31.5003 43.1002 40.0003 43.1002 41.1003 43.1002C45.4003 43.1002 45.4003 37.8002 41.1003 37.8002C40.0003 37.8002 37.7003 37.8002 34.7003 37.8002C33.8003 37.8002 32.1003 35.7002 30.7003 35.7002C30.1003 35.7002 26.8003 35.7002 25.4003 35.7002C24.0003 35.7002 22.2003 36.9002 21.1003 37.8002C19.5003 39.4002 16.8003 42.0002 16.8003 42.0002" stroke="#EE743B" stroke-width="2" stroke-miterlimit="10" stroke-linecap="round"/>
<path d="M14.7554 39.9677L9.45215 45.271L21.19 57.0089L26.4933 51.7056L14.7554 39.9677Z" stroke="#EE743B" stroke-width="2" stroke-miterlimit="10" stroke-linecap="round"/>
<path d="M14.7002 45.2998L16.9002 47.3998" stroke="#EE743B" stroke-width="2" stroke-miterlimit="10" stroke-linecap="round"/>
<path d="M35.6 25.0002H31.6C31.5 25.0002 31.5 24.9002 31.5 24.9002V19.8002C31.5 19.7002 31.6 19.7002 31.6 19.7002H35.6C35.7 19.7002 35.7 19.8002 35.7 19.8002V24.9002C35.8 24.9002 35.7 25.0002 35.6 25.0002Z" stroke="#EE743B" stroke-width="2" stroke-miterlimit="10" stroke-linecap="round"/>
<path d="M20.8003 22.7998V30.2998C20.8003 30.8998 21.3003 31.3998 21.9003 31.3998H45.4003C46.0003 31.3998 46.5003 30.8998 46.5003 30.2998V22.7998" stroke="#EE743B" stroke-width="2" stroke-miterlimit="10" stroke-linecap="round"/>
<path d="M35.8003 21.8002C40.1003 21.8002 44.3003 21.8002 46.5003 19.7002V14.3002C46.5003 13.7002 46.0003 13.2002 45.4003 13.2002H21.9003C21.3003 13.2002 20.8003 13.7002 20.8003 14.3002V19.6002C22.9003 21.7002 27.2003 21.7002 31.5003 21.7002" stroke="#EE743B" stroke-width="2" stroke-miterlimit="10" stroke-linecap="round"/>
<path d="M29.4004 13.3V10.1C29.4004 9.5 29.9004 9 30.5004 9H36.9004C37.5004 9 38.0004 9.5 38.0004 10.1V13.3" stroke="#EE743B" stroke-width="2" stroke-miterlimit="10" stroke-linecap="round"/>
</g>
<defs>
<clipPath id="clip0">
<rect width="50.3" height="50.4" fill="white" transform="translate(8 8)"/>
</clipPath>
</defs>
</svg>
