<svg width="73" height="61" viewBox="0 0 73 61" fill="none" xmlns="http://www.w3.org/2000/svg">
<path d="M49.5404 10.2835V4.37413C49.5404 2.24056 47.8046 0.504883 45.6712 0.504883H24.5662C22.4327 0.504883 20.697 2.24056 20.697 4.37413V10.2835H0.0844727V29.8606L2.12462 30.271V55.026C2.12462 57.9354 4.49147 60.3023 7.40086 60.3023H64.8064C67.7158 60.3023 70.0826 57.9354 70.0826 55.026V30.271L72.1228 29.8606V10.2835H49.5404ZM22.8075 4.37413C22.8075 3.40428 23.5964 2.61538 24.5662 2.61538H45.6712C46.641 2.61538 47.43 3.40428 47.43 4.37413V5.42937H22.8075V4.37413ZM22.8075 7.53987H47.43V10.2835H22.8075V7.53987ZM67.9721 48.4835H52.1434V50.594H67.9721V52.8452H56.3644V54.9557H67.9721V55.026C67.9721 56.7717 66.5519 58.1918 64.8064 58.1918H7.40086C5.6552 58.1918 4.23512 56.7717 4.23512 55.026V54.9557H15.9835V52.8452H4.23512V50.594H20.2045V48.4835H4.23512V30.6957L19.7022 33.8075C19.616 34.4901 19.5714 35.1853 19.5714 35.8907C19.5714 45.0067 26.9877 52.423 36.1036 52.423C45.2196 52.423 52.6358 45.0067 52.6358 35.8907C52.6358 35.1853 52.5912 34.4899 52.505 33.8075L67.9721 30.6957V48.4835ZM35.0484 29.2076V34.8356H27.8656C27.9489 32.8477 28.2665 30.942 28.7965 29.2076H35.0484ZM29.5832 27.0971C29.8363 26.5336 30.1149 25.9964 30.4191 25.4912C31.7173 23.3348 33.3317 21.985 35.0484 21.5906V27.0971H29.5832ZM28.7965 42.5741C28.2665 40.8397 27.9489 38.9341 27.8656 36.9461H35.0484V42.5741H28.7965ZM35.0484 44.6846V50.191C33.3317 49.7968 31.7172 48.4468 30.4191 46.2904C30.1149 45.7852 29.8363 45.248 29.5832 44.6845H35.0484V44.6846ZM29.5221 48.7211C27.6265 47.7448 25.9744 46.3601 24.6815 44.6846H27.2983C27.6737 45.6443 28.1109 46.5487 28.6108 47.379C28.8998 47.8588 29.2043 48.3059 29.5221 48.7211ZM28.6109 24.4027C28.111 25.233 27.6739 26.1374 27.2985 27.0971H24.6816C25.9745 25.4217 27.6266 24.0371 29.5222 23.0606C29.2043 23.4758 28.8998 23.923 28.6109 24.4027ZM26.6016 29.2076C26.1186 30.9712 25.8299 32.8708 25.7535 34.8356H21.7206C21.8673 32.8169 22.4317 30.9124 23.3271 29.2076H26.6016ZM25.7536 36.9461C25.8299 38.911 26.1186 40.8106 26.6017 42.5741H23.3272C22.4318 40.8694 21.8675 38.9649 21.7207 36.9461H25.7536ZM43.4107 29.2076C43.9407 30.942 44.2583 32.8477 44.3416 34.8356H37.1589V29.2076H43.4107ZM37.1589 27.0971V21.5907C38.8757 21.985 40.4901 23.335 41.7882 25.4913C42.0924 25.9966 42.3709 26.5338 42.6241 27.0973H37.1589V27.0971ZM45.6055 42.5741C46.0885 40.8106 46.3772 38.911 46.4536 36.9461H50.4865C50.3398 38.9649 49.7754 40.8694 48.88 42.5741H45.6055ZM47.5258 44.6846C46.2329 46.3601 44.5808 47.7448 42.685 48.7211C43.0028 48.3059 43.3074 47.8588 43.5963 47.379C44.0962 46.5487 44.5335 45.6443 44.9087 44.6846H47.5258ZM46.4536 34.8356C46.3774 32.8708 46.0887 30.9712 45.6055 29.2076H48.88C49.7754 30.9124 50.3398 32.8169 50.4865 34.8356H46.4536ZM44.9087 27.0971C44.5334 26.1374 44.0962 25.233 43.5963 24.4027C43.3074 23.923 43.0028 23.4758 42.685 23.0606C44.5808 24.0369 46.2329 25.4217 47.5258 27.0971H44.9087ZM44.3416 36.9461C44.2583 38.9341 43.9407 40.8397 43.4107 42.5741H37.1589V36.9461H44.3416ZM42.6241 44.6846C42.3709 45.2481 42.0924 45.7853 41.7882 46.2906C40.4899 48.4469 38.8755 49.7969 37.1589 50.1912V44.6846H42.6241ZM70.0123 28.1324L52.1065 31.735C50.2587 24.6242 43.7847 19.3587 36.1036 19.3587C28.4227 19.3587 21.9485 24.6242 20.1007 31.735L2.19497 28.1324V12.394H70.0123V28.1324Z" fill="url(#paint0_linear)"/>
<defs>
<linearGradient id="paint0_linear" x1="0.0844727" y1="23.9039" x2="91.7696" y2="23.9039" gradientUnits="userSpaceOnUse">
<stop stop-color="#FEDD9F"/>
<stop offset="1" stop-color="#ED7427"/>
</linearGradient>
</defs>
</svg>
