<svg width="73" height="74" viewBox="0 0 73 74" fill="none" xmlns="http://www.w3.org/2000/svg">
<path d="M20.1004 34.6713V41.7903L19.2252 42.3929C17.2141 43.7776 16.0135 46.0618 16.0135 48.5035C16.0135 52.5942 19.3417 55.9225 23.4325 55.9225H49.8198C53.9105 55.9225 57.2387 52.5944 57.2387 48.4975C57.2387 46.0604 56.0415 43.7785 54.0364 42.3934L53.165 41.7914V34.6715C53.165 27.7181 48.688 21.6385 42.1508 19.5291L45.0561 9.06946H28.2094L31.1148 19.5291C24.5775 21.6383 20.1004 27.7179 20.1004 34.6713ZM30.986 11.1798H42.2794L40.0517 19.1997H33.2138L30.986 11.1798ZM32.5521 21.3102H40.7131C46.8077 22.8893 51.0544 28.3652 51.0544 34.6713V42.8985L52.8368 44.1297C54.2715 45.1208 55.1281 46.7535 55.1281 48.5035C55.1281 51.4306 52.7467 53.812 49.8196 53.812H23.4325C20.5054 53.812 18.124 51.4306 18.124 48.5035C18.124 46.7565 18.983 45.1221 20.4221 44.1313L22.2109 42.8995V34.6715C22.2109 28.3652 26.4577 22.8893 32.5521 21.3102ZM29.0283 34.6767C29.0283 32.1165 31.1112 30.0336 33.6714 30.0336H35.5708V26.0236H37.6813V30.0336H43.1686V32.1441H33.6714C32.2749 32.1441 31.1388 33.2802 31.1388 34.6767C31.1388 36.0731 32.2749 37.2093 33.6714 37.2093H39.5808C42.1409 37.2093 44.2238 39.2922 44.2238 41.8524C44.2238 44.4125 42.1409 46.4955 39.5808 46.4955H37.6813V50.5054H35.5708V46.4955H30.0835V44.385H39.5808C40.9772 44.385 42.1134 43.2488 42.1134 41.8524C42.1134 40.4559 40.9772 39.3198 39.5808 39.3198H33.6714C31.1112 39.3198 29.0283 37.2369 29.0283 34.6767ZM2.71924 36.5063L0.608887 36.4851C0.616203 35.763 0.645328 35.0328 0.695417 34.3142L2.80085 34.4611C2.75357 35.1379 2.72614 35.8261 2.71924 36.5063ZM3.20536 42.6224C3.87045 46.5063 5.1995 50.2133 7.15551 53.6406L5.32261 54.6869C3.24419 51.045 1.83199 47.1058 1.12511 42.9785L3.20536 42.6224ZM2.92101 40.5955L0.823032 40.8253C0.744521 40.1087 0.686694 39.3797 0.651237 38.6583L2.75906 38.5545C2.79255 39.2339 2.847 39.9207 2.92101 40.5955ZM3.0043 32.4253L0.911532 32.1522C2.03361 23.5553 6.2456 15.6418 12.7718 9.86919C19.3557 4.04563 27.8274 0.838379 36.6261 0.838379C41.6627 0.838379 46.536 1.85831 51.1103 3.8699C54.7476 5.46951 58.0529 7.63094 60.9671 10.3089V5.90357H63.0776V13.9938H54.9874V11.8833H59.5617C53.2956 6.10562 45.2394 2.94888 36.6261 2.94888C19.6518 2.94888 5.19753 15.6209 3.0043 32.4253ZM70.4718 34.7729L72.5785 34.6452C72.6221 35.3648 72.6446 36.0961 72.6453 36.8186L70.5348 36.8205C70.534 36.1397 70.5129 35.4508 70.4718 34.7729ZM69.9789 30.7095L72.0548 30.3295C72.1847 31.0382 72.2946 31.7617 72.3817 32.4794L70.2865 32.7336C70.2045 32.0577 70.1011 31.3767 69.9789 30.7095ZM70.4762 38.867L72.5832 38.9901C71.473 57.9919 55.6788 72.8767 36.6261 72.8767C26.4443 72.8767 16.9219 68.6605 10.1042 61.2264V65.4196H7.99365V57.3293H16.0839V59.4398H11.3309C17.7702 66.6624 26.878 70.7662 36.6261 70.7662C54.5626 70.7662 69.4312 56.7544 70.4762 38.867ZM69.5492 28.7086C68.5819 24.788 66.9318 21.1025 64.6447 17.7547L66.3873 16.5643C68.8173 20.1209 70.5704 24.0367 71.5983 28.2029L69.5492 28.7086Z" fill="url(#paint0_linear)"/>
<path fill-rule="evenodd" clip-rule="evenodd" d="M36.6273 0.969445C27.8611 0.969445 19.4209 4.16481 12.8614 9.96678C6.39268 15.6886 2.20618 23.5213 1.06253 32.0349L2.89075 32.2735C5.15104 15.4682 19.6307 2.81313 36.6273 2.81313C45.274 2.81313 53.3625 5.98243 59.6533 11.7829L59.9044 12.0144H55.122V13.8581H62.9454V6.03464H61.1017V10.6103L60.8781 10.4048C57.9747 7.73675 54.6817 5.58339 51.0578 3.98968C46.5005 1.98559 41.6455 0.969445 36.6273 0.969445ZM3.0055 32.423L2.98824 32.5553L0.763188 32.2649L0.780454 32.1326C1.90673 23.5036 6.13442 15.5608 12.6846 9.76693C19.293 3.92177 27.7961 0.702637 36.6273 0.702637C41.6822 0.702637 46.5738 1.72635 51.1652 3.74544C54.7232 5.31017 57.9649 7.4106 60.8349 10.0045V5.76783H63.2122V14.1249H54.8552V11.7476H59.2189C53.0145 6.13987 45.0914 3.07994 36.6273 3.07994C19.7198 3.07994 5.32232 15.7024 3.13779 32.4403L3.0055 32.423ZM28.0351 8.93371H45.2328L42.3146 19.4396C48.8405 21.6025 53.2996 27.7008 53.2996 34.6691V41.7191L54.1134 42.2813C56.1546 43.6914 57.3733 46.0142 57.3733 48.4951C57.3733 52.6656 53.9854 56.0535 49.821 56.0535H23.4337C19.2692 56.0535 15.8813 52.6656 15.8813 48.5012C15.8813 46.0156 17.1035 43.6902 19.1507 42.2807L19.9682 41.7179V34.669C19.9682 27.7007 24.4274 21.6023 30.9534 19.4396L28.0351 8.93371ZM28.3861 9.20052L31.2789 19.6144L31.157 19.6537C24.6745 21.7452 20.2351 27.7738 20.2351 34.669V41.8581L19.302 42.5005C17.3271 43.8602 16.1481 46.1034 16.1481 48.5012C16.1481 52.5182 19.4165 55.7867 23.4337 55.7867H49.821C53.8379 55.7867 57.1065 52.5184 57.1065 48.4951C57.1065 46.1019 55.9308 43.8611 53.9618 42.5008L53.0328 41.8591V34.6691C53.0328 27.7739 48.5934 21.7454 42.111 19.6537L41.9892 19.6144L44.8818 9.20052H28.3861ZM30.8117 11.0441H42.4561L40.1543 19.3308H33.1136L30.8117 11.0441ZM31.1627 11.3109L33.3164 19.064H39.9515L42.1051 11.3109H31.1627ZM66.4234 16.3765L66.4986 16.4867C68.9376 20.0564 70.6973 23.9869 71.729 28.1686L71.7609 28.2982L69.4529 28.8678L69.4209 28.7382C68.4575 24.8332 66.8139 21.1623 64.5358 17.8276L64.4605 17.7175L66.4234 16.3765ZM64.8311 17.7874C67.0632 21.082 68.6832 24.7 69.6478 28.5449L71.4378 28.1031C70.4203 24.0437 68.7105 20.2246 66.3534 16.7475L64.8311 17.7874ZM32.5703 21.4413C26.5435 23.0107 22.3456 28.4294 22.3456 34.6691V42.9672L20.499 44.2388C19.096 45.2047 18.2586 46.798 18.2586 48.5012C18.2586 51.3546 20.5803 53.6762 23.4337 53.6762H49.8208C52.6743 53.6762 54.9959 51.3546 54.9959 48.5012C54.9959 46.7949 54.1608 45.2033 52.7622 44.2372L50.9222 42.9661V34.669C50.9222 28.4294 46.7242 23.0107 40.6973 21.4413H32.5703ZM32.5533 21.3079V21.1745H40.7313L40.7478 21.1787C46.9011 22.773 51.189 28.302 51.189 34.669V42.8261L52.9138 44.0176C54.3847 45.0337 55.2627 46.7074 55.2627 48.5012C55.2627 51.502 52.8216 53.9431 49.8208 53.9431H23.4337C20.4329 53.9431 17.9918 51.502 17.9918 48.5012C17.9918 46.7102 18.8724 45.0348 20.3476 44.0191L22.0787 42.827V34.6691C22.0787 28.302 26.3666 22.773 32.5198 21.1787L32.5533 21.3079ZM35.4386 25.8879H37.8159V29.8978H43.3032V32.2751H33.6726C32.3498 32.2751 31.2734 33.3516 31.2734 34.6743C31.2734 35.9971 32.3498 37.0735 33.6726 37.0735H39.582C42.2158 37.0735 44.3585 39.2162 44.3585 41.85C44.3585 44.4839 42.2158 46.6265 39.582 46.6265H37.8159V50.6365H35.4386V46.6265H29.9513V44.2492H39.582C40.9047 44.2492 41.9812 43.1728 41.9812 41.85C41.9812 40.5273 40.9047 39.4508 39.582 39.4508H33.6726C31.0387 39.4508 28.8961 37.3082 28.8961 34.6743C28.8961 32.0405 31.0387 29.8978 33.6726 29.8978H35.4386V25.8879ZM35.7054 26.1547V30.1646H33.6726C31.1861 30.1646 29.1629 32.1878 29.1629 34.6743C29.1629 37.1608 31.1861 39.184 33.6726 39.184H39.582C41.0521 39.184 42.248 40.3799 42.248 41.85C42.248 43.3201 41.0521 44.516 39.582 44.516H30.2181V46.3597H35.7054V50.3697H37.5491V46.3597H39.582C42.0685 46.3597 44.0916 44.3365 44.0916 41.85C44.0916 39.3635 42.0685 37.3403 39.582 37.3403H33.6726C32.2024 37.3403 31.0066 36.1445 31.0066 34.6743C31.0066 33.2042 32.2024 32.0083 33.6726 32.0083H43.0364V30.1646H37.5491V26.1547H35.7054ZM72.1632 30.1719L72.1872 30.3031C72.3176 31.0145 72.4279 31.7406 72.5153 32.461L72.5314 32.5934L70.1714 32.8798L70.1553 32.7473C70.0736 32.0741 69.9706 31.3957 69.8489 30.7312L69.8249 30.6L72.1632 30.1719ZM70.1351 30.8144C70.2396 31.3985 70.3298 31.9921 70.4038 32.5828L72.2341 32.3607C72.1556 31.7334 72.0598 31.1027 71.9486 30.4824L70.1351 30.8144ZM0.572817 34.1695L2.94443 34.335L2.93513 34.4681C2.88804 35.1422 2.86071 35.8277 2.85384 36.5053L2.85249 36.6387L0.475342 36.6148L0.476694 36.4814C0.484037 35.7567 0.513267 35.0238 0.56354 34.3026L0.572817 34.1695ZM0.820673 34.4543C0.77921 35.0828 0.753825 35.7194 0.745088 36.3507L2.58866 36.3693C2.59701 35.7745 2.62092 35.1747 2.65994 34.5826L0.820673 34.4543ZM72.7048 34.5016L72.7129 34.6348C72.7567 35.3571 72.7792 36.0909 72.7799 36.8161L72.7801 36.9495L70.4028 36.9517L70.4026 36.8183C70.4018 36.1401 70.3808 35.4539 70.3399 34.7786L70.473 34.7706L70.4649 34.6374L72.7048 34.5016ZM70.614 34.8957C70.6476 35.4888 70.666 36.0893 70.669 36.6847L72.5128 36.6829C72.5098 36.0512 72.4902 35.4137 72.4544 34.7841L70.614 34.8957ZM2.88694 38.4124L2.89351 38.5456C2.92686 39.2224 2.9811 39.9065 3.05482 40.5786L3.06937 40.7112L0.706154 40.9701L0.691625 40.8374C0.612824 40.1182 0.554786 39.3866 0.519198 38.6626L0.51265 38.5293L2.88694 38.4124ZM0.792483 38.7827C0.825849 39.4133 0.876256 40.0488 0.942567 40.6758L2.77532 40.475C2.71293 39.8845 2.66547 39.286 2.63385 38.692L0.792483 38.7827ZM70.352 38.7237L72.7253 38.8624L72.7175 38.9956C71.6033 58.068 55.7505 73.0077 36.6273 73.0077C26.5229 73.0077 17.0649 68.8704 10.2388 61.5646V65.5506H7.86145V57.1936H16.2185V59.5709H11.6315C18.0334 66.627 27.0177 70.6304 36.6273 70.6304C54.4933 70.6304 69.3034 56.6737 70.3442 38.8569L70.352 38.7237ZM70.6025 39.0056C69.4876 56.9 54.5898 70.8972 36.6273 70.8972C26.8411 70.8972 17.6971 66.7772 11.2325 59.5263L11.0345 59.3041H15.9517V57.4604H8.12826V65.2838H9.97195V60.8813L10.2037 61.1339C16.9962 68.5404 26.483 72.7409 36.6273 72.7409C55.5649 72.7409 71.2713 57.9806 72.4432 39.1132L70.6025 39.0056ZM3.31554 42.4661L3.33805 42.5976C4.00051 46.4661 5.32427 50.1583 7.27257 53.5721L7.33869 53.688L5.27408 54.8665L5.20795 54.7506C3.12183 51.0953 1.70433 47.1413 0.994829 42.9987L0.972307 42.8672L3.31554 42.4661ZM1.28057 43.0851C1.98447 47.1055 3.36101 50.9452 5.37376 54.5024L6.97495 53.5884C5.06918 50.2188 3.76521 46.5817 3.09785 42.774L1.28057 43.0851Z" fill="url(#paint1_linear)"/>
<defs>
<linearGradient id="paint0_linear" x1="0.608887" y1="29.0273" x2="92.2916" y2="29.0273" gradientUnits="userSpaceOnUse">
<stop stop-color="#FEDD9F"/>
<stop offset="1" stop-color="#ED7427"/>
</linearGradient>
<linearGradient id="paint1_linear" x1="0.475342" y1="28.9959" x2="92.4995" y2="28.9959" gradientUnits="userSpaceOnUse">
<stop stop-color="#FEDD9F"/>
<stop offset="1" stop-color="#ED7427"/>
</linearGradient>
</defs>
</svg>
