<svg width="63" height="73" viewBox="0 0 63 73" fill="none" xmlns="http://www.w3.org/2000/svg">
<path d="M57.9885 38.4427V11.3246L47.5008 0.836914H5.12281V29.9842C2.7127 30.4754 0.893555 32.6113 0.893555 35.1644V67.5886C0.893555 70.5037 3.26504 72.8752 6.18012 72.8752H56.9312C59.8462 72.8752 62.2177 70.5037 62.2177 67.5886V43.6229C62.2177 41.0698 60.3986 38.9339 57.9885 38.4427ZM48.1202 4.44672L54.3787 10.7052H48.1202V4.44672ZM7.23743 2.95154H46.0056V12.8198H55.8738V38.3363H35.9369C34.5815 38.3363 33.2524 37.87 32.194 37.0234L25.4824 31.6542C24.0507 30.5087 22.2523 29.8778 20.4186 29.8778H7.23743V2.95154ZM60.1031 67.5886C60.1031 69.3376 58.6802 70.7606 56.9312 70.7606H6.18012C4.43104 70.7606 3.00818 69.3376 3.00818 67.5886V35.1644C3.00818 33.4154 4.43104 31.9924 6.18012 31.9924H20.4186C21.7739 31.9924 23.1031 32.4588 24.1615 33.3053L30.873 38.6745C32.3049 39.8201 34.1032 40.4509 35.9369 40.4509H56.9312C58.6802 40.4509 60.1031 41.8739 60.1031 43.6229V67.5886ZM36.1373 57.8614C36.1373 59.6881 34.6512 61.1743 32.8244 61.1743H32.613V63.2184H30.4983V61.1743H28.0313V59.0596H32.8244C33.4852 59.0596 34.0227 58.5221 34.0227 57.8614C34.0227 57.2006 33.4852 56.6631 32.8244 56.6631H30.2869C28.4601 56.6631 26.9739 55.1769 26.9739 53.3501C26.9739 51.5234 28.4601 50.0372 30.2869 50.0372H30.4983V47.9931H32.613V50.0372H35.08V52.1519H30.2869C29.6261 52.1519 29.0886 52.6894 29.0886 53.3501C29.0886 54.0109 29.6261 54.5484 30.2869 54.5484H32.8244C34.6512 54.5484 36.1373 56.0346 36.1373 57.8614ZM31.5556 43.2704C24.7539 43.2704 19.2203 48.804 19.2203 55.6058C19.2203 62.4075 24.7539 67.9411 31.5556 67.9411C38.3574 67.9411 43.891 62.4075 43.891 55.6058C43.891 48.804 38.3574 43.2704 31.5556 43.2704ZM31.5556 65.8264C25.9199 65.8264 21.3349 61.2415 21.3349 55.6058C21.3349 49.97 25.9199 45.3851 31.5556 45.3851C37.1914 45.3851 41.7763 49.97 41.7763 55.6058C41.7763 61.2415 37.1914 65.8264 31.5556 65.8264ZM31.5556 30.3007C38.3574 30.3007 43.891 24.7672 43.891 17.9654C43.891 11.1636 38.3574 5.63007 31.5556 5.63007C24.7539 5.63007 19.2203 11.1636 19.2203 17.9654C19.2203 24.7672 24.7539 30.3007 31.5556 30.3007ZM31.5556 7.7447C37.1914 7.7447 41.7763 12.3296 41.7763 17.9654C41.7763 23.6012 37.1914 28.1861 31.5556 28.1861C25.9199 28.1861 21.3349 23.6012 21.3349 17.9654C21.3349 12.3296 25.9199 7.7447 31.5556 7.7447ZM29.0181 24.6767L23.7593 19.4179L25.2545 17.9225L29.0181 21.6861L37.2929 13.4113L38.7881 14.9067L29.0181 24.6767Z" fill="url(#paint0_linear)"/>
<defs>
<linearGradient id="paint0_linear" x1="0.893555" y1="29.0258" x2="78.9425" y2="29.0258" gradientUnits="userSpaceOnUse">
<stop stop-color="#FEDD9F"/>
<stop offset="1" stop-color="#ED7427"/>
</linearGradient>
</defs>
</svg>
