<svg width="16" height="14" viewBox="0 0 16 14" fill="none" xmlns="http://www.w3.org/2000/svg">
<path fill-rule="evenodd" clip-rule="evenodd" d="M1.73954 8.17933H12.7737L9.39507 12.234C9.06586 12.6283 9.1198 13.2152 9.51411 13.5434C9.90935 13.8727 10.4952 13.8187 10.8244 13.4244L15.4743 7.84453C15.5106 7.80083 15.5282 7.74968 15.5552 7.70132C15.5775 7.66226 15.6045 7.62878 15.6212 7.586C15.6631 7.47905 15.6882 7.36653 15.6882 7.25307C15.6882 7.25214 15.6891 7.25028 15.6891 7.24935C15.6891 7.24842 15.6882 7.24656 15.6882 7.24563C15.6882 7.13217 15.6631 7.01964 15.6212 6.9127C15.6045 6.86992 15.5775 6.83644 15.5552 6.79738C15.5282 6.74902 15.5106 6.69787 15.4743 6.65416L10.8244 1.07429C10.6394 0.853889 10.3753 0.739502 10.1093 0.739502C9.89912 0.739502 9.68801 0.81018 9.51411 0.955257C9.1198 1.28354 9.06586 1.87036 9.39507 2.26467L12.7737 6.31937H1.73954C1.2262 6.31937 0.80957 6.736 0.80957 7.24935C0.80957 7.7627 1.2262 8.17933 1.73954 8.17933Z" fill="white"/>
</svg>
