<svg xmlns="http://www.w3.org/2000/svg" xmlns:xlink="http://www.w3.org/1999/xlink" width="155" height="155" viewBox="0 0 155 155"><defs><style>.a{opacity:0.2;}.a,.b{fill:url(#a);}.c{fill:#fff;}.d{filter:url(#c);}</style><linearGradient id="a" x1="0.537" y1="1" x2="0.46" gradientUnits="objectBoundingBox"><stop offset="0" stop-color="#ee743b"/><stop offset="1" stop-color="#fedea9"/></linearGradient><filter id="c" x="0" y="0" width="155" height="155" filterUnits="userSpaceOnUse"><feOffset dx="4" dy="5" input="SourceAlpha"/><feGaussianBlur stdDeviation="4.5" result="d"/><feFlood flood-opacity="0.059"/><feComposite operator="in" in2="d"/><feComposite in="SourceGraphic"/></filter></defs><g transform="translate(-644.5 -2033.5)"><circle class="a" cx="71" cy="71" r="71" transform="translate(647 2035)"/><g class="d" transform="matrix(1, 0, 0, 1, 644.5, 2033.5)"><circle class="b" cx="64" cy="64" r="64" transform="translate(9.5 8.5)"/></g><g transform="translate(688 2031.802)"><g transform="translate(0 51.198)"><path class="c" d="M58.889,66.7,44.011,51.821a2.125,2.125,0,0,0-3.628,1.5V59.7H25.5a2.125,2.125,0,1,0,0,4.251h17a2.125,2.125,0,0,0,2.125-2.125V58.454L54.381,68.2l-9.747,9.747V74.578a2.125,2.125,0,0,0-2.125-2.125H19.128V66.076a2.125,2.125,0,0,0-3.628-1.5L.622,79.451a2.125,2.125,0,0,0,0,3.005L15.5,97.335a2.125,2.125,0,0,0,1.5.623,2.1,2.1,0,0,0,.814-.162,2.125,2.125,0,0,0,1.311-1.964V89.456H34.006a2.125,2.125,0,1,0,0-4.251H17a2.125,2.125,0,0,0-2.125,2.125V90.7L5.13,80.954l9.747-9.747v3.371A2.125,2.125,0,0,0,17,76.7h23.38v6.376a2.125,2.125,0,0,0,3.628,1.5L58.889,69.7A2.125,2.125,0,0,0,58.889,66.7Z" transform="translate(0 -51.198)"/></g></g></g></svg>