<svg xmlns="http://www.w3.org/2000/svg" xmlns:xlink="http://www.w3.org/1999/xlink" width="155" height="155" viewBox="0 0 155 155"><defs><style>.a{opacity:0.2;}.a,.b{fill:url(#a);}.c{fill:#fff;}.d{filter:url(#c);}</style><linearGradient id="a" x1="0.537" y1="1" x2="0.46" gradientUnits="objectBoundingBox"><stop offset="0" stop-color="#ee743b"/><stop offset="1" stop-color="#fedea9"/></linearGradient><filter id="c" x="0" y="0" width="155" height="155" filterUnits="userSpaceOnUse"><feOffset dx="4" dy="5" input="SourceAlpha"/><feGaussianBlur stdDeviation="4.5" result="d"/><feFlood flood-opacity="0.059"/><feComposite operator="in" in2="d"/><feComposite in="SourceGraphic"/></filter></defs><g transform="translate(-644.5 -2355.5)"><circle class="a" cx="71" cy="71" r="71" transform="translate(647 2357)"/><g class="d" transform="matrix(1, 0, 0, 1, 644.5, 2355.5)"><circle class="b" cx="64" cy="64" r="64" transform="translate(9.5 8.5)"/></g><g transform="translate(666 2399)"><g transform="translate(63.006 44.407)"><path class="c" d="M357.121,396a1.121,1.121,0,1,0,1.121,1.121A1.122,1.122,0,0,0,357.121,396Z" transform="translate(-356 -396)"/></g><g transform="translate(26)"><g transform="translate(0)"><path class="c" d="M66.888,40.78,61.558,39l-1.913-3.827a12.282,12.282,0,0,0,3.324-6.5l.239-1.43h2.041a3.368,3.368,0,0,0,3.364-3.364V16.821a16.821,16.821,0,0,0-33.641,0v7.065a3.37,3.37,0,0,0,2.243,3.171v1.314a3.368,3.368,0,0,0,3.364,3.364h.985a12.166,12.166,0,0,0,1.881,2.913c.159.183.324.36.494.532L42.025,39,36.7,40.781C30.5,42.847,26,49.371,26,56.293a1.121,1.121,0,0,0,1.121,1.121H76.462a1.121,1.121,0,0,0,1.121-1.121C77.584,49.371,73.086,42.847,66.888,40.78Zm-.518-16.9a1.123,1.123,0,0,1-1.121,1.121H63.537c.285-2.208.475-4.558.551-6.872,0-.065,0-.129.006-.193H66.37ZM38.335,25.007a1.123,1.123,0,0,1-1.121-1.121V17.942H39.49q.006.175.012.353s0,.008,0,.012h0c.079,2.251.266,4.539.545,6.7H38.335Zm2.243,4.486a1.123,1.123,0,0,1-1.121-1.121V27.25h.919l.239,1.431c.046.272.1.543.166.812ZM39.458,15.7h-2.2a14.579,14.579,0,0,1,29.071,0h-2.2A11.358,11.358,0,0,0,52.8,4.486H50.788A11.358,11.358,0,0,0,39.458,15.7Zm11.33-8.971H52.8a9.118,9.118,0,0,1,9.089,9.129c0,.353,0,.66-.009.94,0,0,0,.007,0,.011l-1.4-.2a18.019,18.019,0,0,1-10.131-5.066,1.122,1.122,0,0,0-.793-.328,10.145,10.145,0,0,0-7.8,3.69A9.116,9.116,0,0,1,50.788,6.728ZM43.106,29.492A64.1,64.1,0,0,1,41.76,18.609L43.269,16.6a7.893,7.893,0,0,1,5.837-3.127,20.283,20.283,0,0,0,11.05,5.359l1.651.236c-.11,2.342-.336,4.692-.659,6.854v0c-.1.695-.184,1.142-.39,2.391A9.525,9.525,0,0,1,54,35.971a8.823,8.823,0,0,1-9.9-4.236h2.286a3.369,3.369,0,0,0,3.171,2.243h2.243a3.364,3.364,0,1,0,0-6.728H49.549a3.366,3.366,0,0,0-3.173,2.243Zm6.349,8.749a11.248,11.248,0,0,0,4.171.094l-1.981,2.1Zm.648,3.82-3.557,3.761A42.726,42.726,0,0,1,44.035,40l1.336-2.671Zm7.92-5.112L59.548,40a42.714,42.714,0,0,1-2.511,5.824L53.23,42.017Zm-9.6-6.335a1.122,1.122,0,0,1,1.121-1.121h2.243a1.121,1.121,0,0,1,0,2.243H49.549A1.123,1.123,0,0,1,48.428,30.614ZM28.288,55.172c.444-5.555,4.141-10.6,9.117-12.264l4.72-1.573a44.953,44.953,0,0,0,3.192,6.923l.006.011h0a44.966,44.966,0,0,0,3.069,4.687l1.38,2.215Zm23.5-1-1.521-2.442q-.026-.041-.054-.08a42.755,42.755,0,0,1-2.527-3.775l4-4.229L55.9,47.861a42.71,42.71,0,0,1-2.536,3.79C53.312,51.724,53.39,51.609,51.792,54.172Zm2.02,1,1.379-2.215a44.949,44.949,0,0,0,3.091-4.725l.016-.03,0,0a44.917,44.917,0,0,0,3.158-6.864l4.72,1.573c4.976,1.659,8.673,6.709,9.117,12.264H53.811Z" transform="translate(-26)"/></g></g><g transform="translate(66.946 46.547)"><path class="c" d="M396.119,419.175a11.212,11.212,0,0,0-3.175-3.854,1.121,1.121,0,0,0-1.368,1.778,8.956,8.956,0,0,1,2.536,3.079,1.121,1.121,0,0,0,2.007-1Z" transform="translate(-391.139 -415.088)"/></g></g></g></svg>