<svg xmlns="http://www.w3.org/2000/svg" xmlns:xlink="http://www.w3.org/1999/xlink" width="190" height="602" viewBox="0 0 190 602"><defs><style>.a{fill:#16223b;}.b{clip-path:url(#a);}.c{opacity:0.03;}.d{fill:#cdfee8;}</style><clipPath id="a"><rect class="a" width="190" height="602" transform="translate(0 180)"/></clipPath></defs><g class="b" transform="translate(0 -180)"><g class="c" transform="translate(-420.771 127.035)"><g transform="translate(231.035 60.771)"><path class="d" d="M407.667,138.908l-.011,72.146H368.139l.011-72.146L243.6,160.8C248.51,362.24,368.15,442.33,368.15,442.33v-167h39.517v167S527.293,362.24,532.207,160.8Z" transform="translate(-198.108 144.057)"/><path class="d" d="M370.126,272.043a43.252,43.252,0,0,0,19.726-78.425l31.057-77.625,31.061,77.661a43.206,43.206,0,1,0,63.816,16.887l54.882-43.79L523.51,314.522a221.593,221.593,0,0,0-30.963-10.509,281.078,281.078,0,0,0-143.284,0A221.269,221.269,0,0,0,318.3,314.522L271.138,166.751l54.919,43.815a43.223,43.223,0,0,0,39.122,61.756,42.732,42.732,0,0,0,4.947-.279m-6.584-67.9,9.7,3.734A22.722,22.722,0,1,1,342.386,229.1a22.456,22.456,0,0,1,5.117-14.377l6.584-8.039L231.035,108.523,306.089,343.74l10.864-5.83c10.013-5.385,22.659-10.125,37.583-14.076a258.988,258.988,0,0,1,132.735,0c14.924,3.951,27.57,8.691,37.6,14.076l10.86,5.83,75.043-235.217L487.72,206.684l6.573,8.039a22.709,22.709,0,1,1-25.738-6.852l9.709-3.734L420.908,60.771Z" transform="translate(-231.035 -60.771)"/></g></g></g></svg>