<svg width="146" height="280" viewBox="0 0 146 280" fill="none" xmlns="http://www.w3.org/2000/svg">
<g opacity="0.21" clip-path="url(#clip0)">
<path d="M0.200012 143.1L45.7 135.1V169.5H64.6V135.1L124.1 145.6C121.7 241.8 64.6 280 64.6 280V200.3H45.7V280C45.7 280 17.8 261.3 0.200012 217.3V143.1Z" fill="white"/>
<path d="M6.10001 121.2C10.4 119.3 15.4 117.6 20.9 116.2C43.2 110.3 67.1 110.3 89.3 116.2C94.8 117.7 99.7 119.3 104.1 121.2L126.6 50.6L100.4 71.5C101.7 74.3 102.4 77.3 102.4 80.4C102.4 86.3 99.9 91.9 95.5 95.8C91.7 99.2 86.8 101 81.7 101C80.9 101 80.1 101 79.3 100.9C70.1 99.9 62.5 92.4 61.2 83.2C60.2 75.4 63.5 67.8 69.8 63.4L55.1 26.4L40.2 63.5C45.7 67.3 49 73.7 49 80.4C49 86.3 46.5 91.9 42.1 95.8C37.7 99.7 31.8 101.6 26 100.9C16.7 99.9 9.10001 92.4 7.90001 83.2C7.40001 79.1 8.00001 75.2 9.70001 71.6L0.200012 63.9V51.4L23.2 69.7L20.1 73.5C18.2 75.8 17.3 78.8 17.7 81.9C18.3 86.7 22.3 90.6 27.2 91.2C30.4 91.6 33.4 90.6 35.7 88.5C38 86.4 39.3 83.5 39.3 80.4C39.3 75.9 36.5 71.9 32.3 70.3L27.7 68.5L55.1 0L82.5 68.5L77.9 70.3C73.2 72.1 70.4 76.9 71 82C71.6 86.8 75.6 90.7 80.5 91.2C83.6 91.6 86.7 90.6 89 88.5C91.3 86.4 92.6 83.5 92.6 80.4C92.6 77.9 91.8 75.5 90.2 73.5L87.1 69.7L145.9 22.8L110.1 135.1L104.9 132.3C100.1 129.7 94.1 127.5 87 125.6C66.3 120.1 44.3 120.1 23.6 125.6C16.5 127.5 10.4 129.8 5.60001 132.3L0.400012 135.1L0.200012 134.9V102.7L6.10001 121.2Z" fill="white"/>
</g>
<defs>
<clipPath id="clip0">
<rect width="145.5" height="280" fill="white" transform="translate(0.200012)"/>
</clipPath>
</defs>
</svg>
