<svg xmlns="http://www.w3.org/2000/svg" xmlns:xlink="http://www.w3.org/1999/xlink" width="110" height="110" viewBox="0 0 110 110"><defs><style>.a{fill:#f9f9f9;}.b{fill:#16223b;}.c{fill:url(#a);}</style><linearGradient id="a" y1="0.498" x2="0.998" y2="0.498" gradientUnits="objectBoundingBox"><stop offset="0" stop-color="#fedea9"/><stop offset="1" stop-color="#ee743b"/></linearGradient></defs><g transform="translate(-662 -274)"><circle class="a" cx="55" cy="55" r="55" transform="translate(662 274)"/><g transform="translate(0 0.248)"><path class="b" d="M22.539,0V9.838H17.172V0L0,3.041C.716,30.767,16.993,41.678,16.993,41.678v-22.9H22.36v22.9S38.816,30.767,39.532,3.041Z" transform="translate(697 327.569)"/><path class="c" d="M19.14,28.978a6.077,6.077,0,0,0,5.187-5.009,5.877,5.877,0,0,0-2.5-5.724L26.116,7.513l4.293,10.733a5.7,5.7,0,0,0-2.5,4.83,6.4,6.4,0,0,0,1.968,4.472,6.306,6.306,0,0,0,4.651,1.431,6.072,6.072,0,0,0,5.187-5.187,5.508,5.508,0,0,0-.537-3.4l7.513-6.082-6.44,20.213a24.136,24.136,0,0,0-4.293-1.431,40.686,40.686,0,0,0-19.677,0,24.136,24.136,0,0,0-4.293,1.431L5.545,14.489l7.513,6.082a5.713,5.713,0,0,0-.537,2.5,6.4,6.4,0,0,0,1.968,4.472,6.251,6.251,0,0,0,3.935,1.431Zm-.894-9.3,1.252.537a3.137,3.137,0,0,1,1.968,3.4,3.042,3.042,0,0,1-2.683,2.683,3.206,3.206,0,0,1-2.5-.716A2.884,2.884,0,0,1,15.2,23.254a2.69,2.69,0,0,1,.716-1.968l.894-1.073L0,6.618,10.375,39l1.431-.716a24.288,24.288,0,0,1,5.187-1.968,35.068,35.068,0,0,1,18.246,0,28.662,28.662,0,0,1,5.187,1.968L41.857,39,52.232,6.618,35.418,20.034l.894,1.073a3.935,3.935,0,0,1,.716,2.325,3.042,3.042,0,0,1-2.683,2.683,3.206,3.206,0,0,1-2.5-.716,2.884,2.884,0,0,1-1.073-2.325,3.149,3.149,0,0,1,1.968-2.862l1.252-.537L26.116,0Z" transform="translate(691 288.752)"/></g></g></svg> 