<svg width="68" height="57" viewBox="0 0 68 57" fill="none" xmlns="http://www.w3.org/2000/svg">
<g clip-path="url(#clip0)">
<path d="M33.4998 40.0001C39.9615 40.0001 45.1998 34.7618 45.1998 28.3001C45.1998 21.8384 39.9615 16.6001 33.4998 16.6001C27.0381 16.6001 21.7998 21.8384 21.7998 28.3001C21.7998 34.7618 27.0381 40.0001 33.4998 40.0001Z" stroke="#EE743B" stroke-width="2" stroke-miterlimit="10" stroke-linecap="round"/>
<path d="M13.8001 29.2999C15.5674 29.2999 17.0001 27.8672 17.0001 26.0999C17.0001 24.3326 15.5674 22.8999 13.8001 22.8999C12.0328 22.8999 10.6001 24.3326 10.6001 26.0999C10.6001 27.8672 12.0328 29.2999 13.8001 29.2999Z" stroke="#EE743B" stroke-width="2" stroke-miterlimit="10" stroke-linecap="round"/>
<path d="M18.6 34.6999V32.5999C18.6 30.7999 16.5 29.3999 13.8 29.3999C11.1 29.3999 9 30.7999 9 32.4999V34.5999" stroke="#EE743B" stroke-width="2" stroke-miterlimit="10" stroke-linecap="round"/>
<path d="M53.3001 29.2999C55.0674 29.2999 56.5001 27.8672 56.5001 26.0999C56.5001 24.3326 55.0674 22.8999 53.3001 22.8999C51.5328 22.8999 50.1001 24.3326 50.1001 26.0999C50.1001 27.8672 51.5328 29.2999 53.3001 29.2999Z" stroke="#EE743B" stroke-width="2" stroke-miterlimit="10" stroke-linecap="round"/>
<path d="M58.1 34.6999V32.5999C58.1 30.7999 56 29.3999 53.3 29.3999C50.6 29.3999 48.5 30.7999 48.5 32.5999V34.6999" stroke="#EE743B" stroke-width="2" stroke-miterlimit="10" stroke-linecap="round"/>
<path d="M50.5998 12.2998V17.5998H45.2998" stroke="#EE743B" stroke-width="2" stroke-miterlimit="10" stroke-linecap="round"/>
<path d="M16.5 17.6C20 11.8 26.3 8 33.5 8C40.8 8 47 11.8 50.6 17.6" stroke="#EE743B" stroke-width="2" stroke-miterlimit="10" stroke-linecap="round"/>
<path d="M16.5 44.2999V38.8999H21.8" stroke="#EE743B" stroke-width="2" stroke-miterlimit="10" stroke-linecap="round"/>
<path d="M50.5999 38.8999C46.9999 44.6999 40.7999 48.4999 33.4999 48.4999C26.1999 48.4999 19.9999 44.6999 16.3999 38.8999" stroke="#EE743B" stroke-width="2" stroke-miterlimit="10" stroke-linecap="round"/>
<path d="M30.3001 30.4V31.5C30.3001 32.7 31.3001 33.6 32.4001 33.6H34.5001C35.7001 33.6 36.6001 32.6 36.6001 31.5V30.9C36.6001 30 36.0001 29.2 35.1001 28.9L31.6001 27.7C30.7001 27.4 30.1001 26.6 30.1001 25.7V25.1C30.1001 23.9 31.1001 23 32.2001 23H34.3001C35.5001 23 36.4001 24 36.4001 25.1V26.2" stroke="#EE743B" stroke-width="2" stroke-miterlimit="10" stroke-linecap="round"/>
<path d="M33.5 22.9002V19.7002" stroke="#EE743B" stroke-width="2" stroke-miterlimit="10" stroke-linecap="round"/>
<path d="M33.5 33.6001V36.8001" stroke="#EE743B" stroke-width="2" stroke-miterlimit="10" stroke-linecap="round"/>
</g>
<defs>
<clipPath id="clip0">
<rect width="51.1" height="42.5" fill="white" transform="translate(8 7)"/>
</clipPath>
</defs>
</svg>
