<svg xmlns="http://www.w3.org/2000/svg" xmlns:xlink="http://www.w3.org/1999/xlink" width="598" height="97" viewBox="0 0 598 97"><defs><style>.a{fill:#16223b;}.b{clip-path:url(#a);}.c{opacity:0.06;mix-blend-mode:luminosity;isolation:isolate;fill:url(#b);}</style><clipPath id="a"><rect class="a" width="598" height="97" transform="translate(462 30)"/></clipPath><linearGradient id="b" y1="0.5" x2="1" y2="0.5" gradientUnits="objectBoundingBox"><stop offset="0" stop-color="#ffd596"/><stop offset="1" stop-color="#e95c29"/></linearGradient></defs><g transform="translate(-2 0)"><rect class="a" width="598" height="97" transform="translate(2 0)"/><g class="b" transform="translate(-460 -30)"><path class="c" d="M199.066,279.066c27.671-2.893,50.423-23.458,54.113-48.885,3.123-21.555-6.933-42.542-25.887-54.7L271.747,72.944,316.2,175.532c-16.434,10.649-26.5,28.176-26.5,46.815,0,16.247,7.548,31.759,20.69,42.6s30.782,15.946,48.35,14.121c27.78-2.893,50.58-23.536,54.185-49.074a53.181,53.181,0,0,0-5.39-32.16l78.541-57.843L418.592,335.184A336.452,336.452,0,0,0,374.269,321.3a434.887,434.887,0,0,0-205.07,0,336.233,336.233,0,0,0-44.311,13.888l-67.5-195.195,78.6,57.876a53.641,53.641,0,0,0-6,24.482c0,16.258,7.548,31.77,20.7,42.6a66.395,66.395,0,0,0,48.374,14.121m-9.417-89.691,13.878,4.941c14.144,5,22.608,18.272,20.57,32.26-1.942,13.309-13.854,24.059-28.347,25.572a34.051,34.051,0,0,1-25.5-7.411,29.093,29.093,0,0,1-10.887-22.389,28.3,28.3,0,0,1,7.331-18.984l9.417-10.616L0,63.084,107.418,373.776l15.542-7.7c14.336-7.111,32.434-13.376,53.788-18.595a400.55,400.55,0,0,1,189.974,0c21.366,5.219,39.463,11.484,53.811,18.595l15.542,7.7L543.481,63.084,367.373,192.747l9.4,10.616a28.31,28.31,0,0,1,7.054,23.1c-1.905,13.354-13.842,24.17-28.383,25.683a33.96,33.96,0,0,1-25.5-7.411,28.992,28.992,0,0,1-10.863-22.389c0-12.341,8.392-23.614,20.847-28.031l13.9-4.941L271.747,0Z" transform="translate(489 -33.507)"/></g></g></svg>