<svg xmlns="http://www.w3.org/2000/svg" width="31" height="31" viewBox="0 0 31 31"><defs><style>.a,.c{fill:none;}.b{fill:#16223b;}.c{stroke:#ee743b;}.d{stroke:none;}</style></defs><g transform="translate(-342 -479)"><g transform="translate(340.059 476.97)"><g transform="translate(10 10)"><path class="a" d="M0,0H15.941V15.822H0Z" transform="translate(-0.059 0.03)"/><path class="b" d="M10.667,5.333c0,1.072,0,1.794-.025,2.193a3.18,3.18,0,0,1-.872,2.243,3.342,3.342,0,0,1-2.243.872c-.4.025-1.146.025-2.193.025-1.072,0-1.794,0-2.193-.025A3.18,3.18,0,0,1,.9,9.769,3.293,3.293,0,0,1,.025,7.526C0,7.128,0,6.38,0,5.333S0,3.539.025,3.14A3.18,3.18,0,0,1,.9.9,3.293,3.293,0,0,1,3.14.025C3.539,0,4.287,0,5.333,0,6.4,0,7.128,0,7.526.025A3.18,3.18,0,0,1,9.769.9a3.342,3.342,0,0,1,.872,2.243C10.642,3.539,10.667,4.262,10.667,5.333ZM5.857.947H4.087c-.174,0-.4,0-.673.025a3.068,3.068,0,0,0-.723.075,2.068,2.068,0,0,0-.5.125,2.4,2.4,0,0,0-.623.4,1.785,1.785,0,0,0-.4.623,2.068,2.068,0,0,0-.125.5c-.025.2-.05.424-.075.723,0,.274-.025.5-.025.673V6.579c0,.174,0,.4.025.673a3.068,3.068,0,0,0,.075.723,4.8,4.8,0,0,0,.125.5,2.4,2.4,0,0,0,.4.623,1.785,1.785,0,0,0,.623.4,2.068,2.068,0,0,0,.5.125c.2.025.424.05.723.075s.5.025.673.025H6.579c.174,0,.4,0,.673-.025a3.068,3.068,0,0,0,.723-.075,2.068,2.068,0,0,0,.5-.125A2.4,2.4,0,0,0,9.1,9.1a1.785,1.785,0,0,0,.4-.623,2.068,2.068,0,0,0,.125-.5c.025-.2.05-.424.075-.723,0-.274.025-.5.025-.673V4.087c0-.174,0-.4-.025-.673a3.068,3.068,0,0,0-.075-.723,2.068,2.068,0,0,0-.125-.5,2.4,2.4,0,0,0-.4-.623,1.785,1.785,0,0,0-.623-.4,2.068,2.068,0,0,0-.5-.125c-.2-.025-.424-.05-.723-.075-.274,0-.5-.025-.673-.025Zm1.4,2.442a2.651,2.651,0,0,1,.8,1.944,2.692,2.692,0,0,1-.8,1.944,2.651,2.651,0,0,1-1.944.8,2.692,2.692,0,0,1-1.944-.8,2.651,2.651,0,0,1-.8-1.944,2.692,2.692,0,0,1,.8-1.944,2.651,2.651,0,0,1,1.944-.8A2.558,2.558,0,0,1,7.252,3.389Zm-.673,3.19A1.715,1.715,0,0,0,7.1,5.333a1.771,1.771,0,0,0-.523-1.271,1.73,1.73,0,0,0-1.271-.523A1.787,1.787,0,0,0,3.514,5.333a1.637,1.637,0,0,0,.523,1.246A1.73,1.73,0,0,0,5.308,7.1,1.73,1.73,0,0,0,6.579,6.579ZM8.623,2.019a.648.648,0,1,1-.9,0,.6.6,0,0,1,.9,0Z" transform="translate(2.667 2.667)"/></g></g><g class="c" transform="translate(342 479)"><circle class="d" cx="15.5" cy="15.5" r="15.5"/><circle class="a" cx="15.5" cy="15.5" r="15"/></g></g></svg>