<svg xmlns="http://www.w3.org/2000/svg" width="31" height="31" viewBox="0 0 31 31"><defs><style>.a{fill:#16223b;}.b,.d{fill:none;}.b{stroke:#ee743b;}.c{stroke:none;}</style></defs><g transform="translate(-289.5 -479)"><g transform="translate(287.5 476.83)"><g transform="translate(10 10)"><path class="a" d="M10.667,10.667H8.3v-4A1.333,1.333,0,0,0,6.965,5.515,1.071,1.071,0,0,0,5.926,6.667v4H3.556V3.556h2.37V4.741A2.721,2.721,0,0,1,8.015,3.7,2.671,2.671,0,0,1,10.667,6.37Zm-8.3,0H0V3.556H2.37ZM1.185,0A1.185,1.185,0,1,1,0,1.185,1.185,1.185,0,0,1,1.185,0Z" transform="translate(2.667 1.778)"/></g></g><g class="b" transform="translate(289.5 479)"><circle class="c" cx="15.5" cy="15.5" r="15.5"/><circle class="d" cx="15.5" cy="15.5" r="15"/></g></g></svg>