<svg width="156" height="45" viewBox="0 0 156 45" fill="none" xmlns="http://www.w3.org/2000/svg">
<path d="M16.08 21.7202V27.2602H13.05V21.7202L3.48999 23.4002C3.86999 38.8502 13.05 45.0002 13.05 45.0002V32.1802H16.08V45.0002C16.08 45.0002 25.26 38.8502 25.64 23.3902L16.08 21.7202Z" fill="white"/>
<path d="M10.67 16.21C12.15 16.04 13.37 14.85 13.57 13.37C13.74 12.12 13.2 10.9 12.18 10.19L14.56 4.23L16.94 10.19C16.06 10.81 15.52 11.83 15.52 12.91C15.52 13.85 15.92 14.75 16.63 15.38C17.34 16.01 18.28 16.31 19.22 16.2C20.71 16.03 21.93 14.83 22.13 13.35C22.22 12.7 22.11 12.06 21.84 11.48L26.05 8.12L22.43 19.46C21.73 19.16 20.93 18.89 20.05 18.65C16.47 17.7 12.63 17.7 9.05 18.65C8.17 18.88 7.37 19.16 6.67 19.46L3.08 8.13L7.29 11.49C7.08 11.93 6.97 12.42 6.97 12.91C6.97 13.85 7.37 14.76 8.08 15.38C8.69 15.92 9.48 16.22 10.29 16.22C10.42 16.23 10.55 16.23 10.67 16.21ZM10.17 11L10.91 11.29C11.67 11.58 12.12 12.35 12.01 13.16C11.91 13.93 11.27 14.56 10.49 14.65C9.98 14.71 9.5 14.55 9.12 14.22C8.75 13.89 8.54 13.42 8.54 12.92C8.54 12.51 8.68 12.13 8.93 11.82L9.44 11.2L0 3.66L5.76 21.71L6.59 21.26C7.36 20.85 8.33 20.48 9.47 20.18C12.8 19.3 16.32 19.3 19.66 20.18C20.81 20.48 21.78 20.85 22.55 21.26L23.38 21.71L29.14 3.66L19.7 11.2L20.2 11.82C20.51 12.2 20.64 12.67 20.58 13.16C20.48 13.94 19.84 14.56 19.06 14.65C18.55 14.71 18.07 14.56 17.69 14.22C17.32 13.89 17.11 13.42 17.11 12.92C17.11 12.2 17.56 11.55 18.23 11.29L18.97 11L14.57 0L10.17 11Z" fill="url(#paint0_linear)"/>
<path d="M40.5399 31.6397H32.6299V24.4897H29.1399V42.1997H32.6299V35.0097H40.5399V42.1997H44.0299V24.4897H40.5399V31.6397Z" fill="white"/>
<path d="M62.9298 27.0096C62.0898 26.1696 61.1198 25.5096 60.0298 25.0296C58.9398 24.5496 57.7798 24.3096 56.5398 24.3096C55.2898 24.3096 54.1198 24.5496 53.0298 25.0296C51.9398 25.5096 50.9798 26.1696 50.1598 27.0096C49.3298 27.8496 48.6898 28.8196 48.2198 29.9096C47.7498 30.9996 47.5198 32.1596 47.5198 33.3696C47.5198 34.6196 47.7498 35.7896 48.2198 36.8796C48.6798 37.9696 49.3298 38.9296 50.1598 39.7496C50.9898 40.5796 51.9398 41.2196 53.0298 41.6896C54.1198 42.1596 55.2898 42.3896 56.5398 42.3896C57.7698 42.3896 58.9398 42.1596 60.0298 41.6896C61.1198 41.2196 62.0898 40.5796 62.9298 39.7496C63.7698 38.9196 64.4298 37.9696 64.8998 36.8796C65.3698 35.7896 65.6098 34.6196 65.6098 33.3696C65.6098 32.1496 65.3698 30.9996 64.8998 29.9096C64.4298 28.8196 63.7698 27.8496 62.9298 27.0096ZM61.5898 35.5696C61.3198 36.2496 60.9398 36.8496 60.4598 37.3696C59.9798 37.8896 59.4098 38.2996 58.7598 38.5796C58.1098 38.8696 57.4098 39.0096 56.6598 39.0096C55.8698 39.0096 55.1498 38.8696 54.4798 38.5796C53.8098 38.2896 53.2298 37.8896 52.7198 37.3696C52.2098 36.8496 51.8198 36.2496 51.5398 35.5696C51.2598 34.8896 51.1198 34.1496 51.1198 33.3696C51.1198 32.5696 51.2598 31.8196 51.5298 31.1296C51.7998 30.4396 52.1898 29.8296 52.6898 29.3096C53.1898 28.7896 53.7598 28.3796 54.4198 28.0996C55.0798 27.8096 55.7898 27.6696 56.5598 27.6696C57.3298 27.6696 58.0398 27.8096 58.6998 28.0996C59.3598 28.3896 59.9298 28.7896 60.4198 29.3096C60.9098 29.8296 61.2898 30.4396 61.5698 31.1296C61.8498 31.8196 61.9898 32.5696 61.9898 33.3696C61.9998 34.1596 61.8698 34.8896 61.5898 35.5696Z" fill="white"/>
<path d="M81.6099 35.1598L69.2399 23.7998H69.0999V42.1998H72.6299L72.5699 31.7298L84.9499 42.9198H85.0499V24.4898H81.5399L81.6099 35.1598Z" fill="white"/>
<path d="M103.94 27.0096C103.1 26.1696 102.13 25.5096 101.04 25.0296C99.9498 24.5496 98.7898 24.3096 97.5498 24.3096C96.2998 24.3096 95.1298 24.5496 94.0398 25.0296C92.9498 25.5096 91.9898 26.1696 91.1698 27.0096C90.3398 27.8496 89.6998 28.8196 89.2298 29.9096C88.7598 30.9996 88.5298 32.1596 88.5298 33.3696C88.5298 34.6196 88.7598 35.7896 89.2298 36.8796C89.6898 37.9696 90.3398 38.9296 91.1698 39.7496C91.9998 40.5796 92.9498 41.2196 94.0398 41.6896C95.1298 42.1596 96.2998 42.3896 97.5498 42.3896C98.7798 42.3896 99.9498 42.1596 101.04 41.6896C102.13 41.2196 103.1 40.5796 103.94 39.7496C104.78 38.9196 105.44 37.9696 105.91 36.8796C106.38 35.7896 106.62 34.6196 106.62 33.3696C106.62 32.1496 106.38 30.9996 105.91 29.9096C105.44 28.8196 104.79 27.8496 103.94 27.0096ZM102.61 35.5696C102.34 36.2496 101.96 36.8496 101.48 37.3696C101 37.8896 100.43 38.2996 99.7798 38.5796C99.1298 38.8696 98.4298 39.0096 97.6798 39.0096C96.8898 39.0096 96.1698 38.8696 95.4998 38.5796C94.8298 38.2896 94.2498 37.8896 93.7398 37.3696C93.2298 36.8496 92.8398 36.2496 92.5598 35.5696C92.2798 34.8896 92.1398 34.1496 92.1398 33.3696C92.1398 32.5696 92.2798 31.8196 92.5498 31.1296C92.8198 30.4396 93.2098 29.8296 93.7098 29.3096C94.2098 28.7896 94.7798 28.3796 95.4398 28.0996C96.0998 27.8096 96.8098 27.6696 97.5798 27.6696C98.3498 27.6696 99.0598 27.8096 99.7198 28.0996C100.38 28.3896 100.95 28.7896 101.44 29.3096C101.93 29.8296 102.31 30.4396 102.59 31.1296C102.87 31.8196 103.01 32.5696 103.01 33.3696C103.02 34.1596 102.88 34.8896 102.61 35.5696Z" fill="white"/>
<path d="M121.02 34.5997C121.51 34.0097 121.86 33.3497 122.08 32.6297C122.3 31.9097 122.4 31.1897 122.4 30.4597C122.4 29.5497 122.25 28.7197 121.94 27.9897C121.64 27.2597 121.19 26.6297 120.6 26.1097C120.01 25.5897 119.29 25.1897 118.42 24.9097C117.55 24.6297 116.57 24.4897 115.46 24.4897H110.1V27.8597H116.09C116.7 27.8597 117.18 27.9597 117.55 28.1697C117.91 28.3797 118.18 28.6397 118.36 28.9397C118.54 29.2397 118.65 29.5497 118.71 29.8397C118.77 30.1397 118.79 30.3797 118.79 30.5697C118.79 30.8297 118.75 31.0997 118.66 31.3997C118.57 31.6997 118.43 31.9797 118.23 32.2497C118.03 32.5197 117.75 32.7497 117.4 32.9197C117.05 33.0997 116.61 33.1797 116.08 33.1797H110.11V42.1797H113.6V36.5497H115.92L119.66 42.1797H123.73L119.61 35.7397C120.17 35.4397 120.65 35.0597 121.02 34.5997Z" fill="white"/>
<path d="M151.19 42.2002L147.22 36.0902L143.78 42.2002H139.45L145.26 33.0702L139.69 24.5002H144.14L147.97 30.3802L151.28 24.5002H155.51L149.87 33.3002L155.68 42.2002H151.19ZM126.62 42.2002H130.11V35.2502H136.68V31.8802H130.11V27.8602H137.69V24.4902H126.62V42.2002Z" fill="url(#paint1_linear)"/>
<defs>
<linearGradient id="paint0_linear" x1="0" y1="10.8577" x2="29.1414" y2="10.8577" gradientUnits="userSpaceOnUse">
<stop stop-color="#FEDEA9"/>
<stop offset="1" stop-color="#EE743B"/>
</linearGradient>
<linearGradient id="paint1_linear" x1="126.617" y1="33.3458" x2="155.686" y2="33.3458" gradientUnits="userSpaceOnUse">
<stop stop-color="#FEDEA9"/>
<stop offset="1" stop-color="#EE743B"/>
</linearGradient>
</defs>
</svg>
