<svg xmlns="http://www.w3.org/2000/svg" width="31" height="31" viewBox="0 0 31 31"><defs><style>.a{fill:#16223b;}.b,.d{fill:none;}.b{stroke:#ee743b;}.c{stroke:none;}</style></defs><g transform="translate(-237.5 -479)"><g transform="translate(234.5 477)"><g transform="translate(11 10)"><path class="a" d="M13.946,1.342a5.72,5.72,0,0,1-1.643.451A2.87,2.87,0,0,0,13.56.209,5.727,5.727,0,0,1,11.743.9a2.864,2.864,0,0,0-4.875,2.61A8.123,8.123,0,0,1,.971.524a2.864,2.864,0,0,0,.885,3.82,2.851,2.851,0,0,1-1.3-.358c0,.012,0,.024,0,.036a2.863,2.863,0,0,0,2.3,2.805,2.867,2.867,0,0,1-1.292.049A2.864,2.864,0,0,0,4.236,8.863,5.74,5.74,0,0,1,.683,10.088,5.81,5.81,0,0,1,0,10.048a8.1,8.1,0,0,0,4.386,1.286,8.085,8.085,0,0,0,8.14-8.141q0-.186-.008-.37A5.812,5.812,0,0,0,13.946,1.342Z" transform="translate(1.027 2.667)"/></g></g><g class="b" transform="translate(237.5 479)"><circle class="c" cx="15.5" cy="15.5" r="15.5"/><circle class="d" cx="15.5" cy="15.5" r="15"/></g></g></svg>