<svg xmlns="http://www.w3.org/2000/svg" width="31" height="31" viewBox="0 0 31 31"><defs><style>.a{fill:#16223b;}.b{fill:#fff;}.c,.e{fill:none;}.c{stroke:#ee743b;}.d{stroke:none;}</style></defs><g transform="translate(-394 -479)"><g transform="translate(391.5 476)"><g transform="translate(11.5 13)"><path class="a" d="M12.405,1.586A1.715,1.715,0,0,0,11.289.31,32.489,32.489,0,0,0,6.333,0,33.772,33.772,0,0,0,1.377.3,1.753,1.753,0,0,0,.261,1.586,21.773,21.773,0,0,0,0,5.067,21.692,21.692,0,0,0,.261,8.548,1.715,1.715,0,0,0,1.377,9.823a32.558,32.558,0,0,0,4.956.31,33.772,33.772,0,0,0,4.956-.3,1.715,1.715,0,0,0,1.116-1.276,21.773,21.773,0,0,0,.261-3.481,20.674,20.674,0,0,0-.261-3.493Z"/><path class="b" d="M3.3,2.17,0,0V4.339Z" transform="translate(5.071 2.897)"/></g></g><g class="c" transform="translate(394 479)"><circle class="d" cx="15.5" cy="15.5" r="15.5"/><circle class="e" cx="15.5" cy="15.5" r="15"/></g></g></svg>