<svg xmlns="http://www.w3.org/2000/svg" width="96" height="96" viewBox="0 0 96 96"><defs><style>.a,.b{fill:#fff;}.a{opacity:0.05;}</style></defs><g transform="translate(-236 -3834)"><circle class="a" cx="48" cy="48" r="48" transform="translate(236 3834)"/><g transform="translate(259.096 3855)"><path class="b" d="M0,367v15.08H53.249V367Zm3.12,3.12H39.573v8.84H3.12Zm47.009,8.84H42.693v-8.84h7.436Zm0,0" transform="translate(0 -328.831)"/><path class="b" d="M79.5,424.5h3.12v3.12H79.5Zm0,0" transform="translate(-71.232 -380.351)"/><path class="b" d="M135,424.5h3.12v3.12H135Zm0,0" transform="translate(-120.96 -380.351)"/><path class="b" d="M190.5,424.5h3.12v3.12H190.5Zm0,0" transform="translate(-170.687 -380.351)"/><path class="b" d="M246,424.5h3.12v3.12H246Zm0,0" transform="translate(-220.415 -380.351)"/><path class="b" d="M301.5,424.5h3.12v3.12H301.5Zm0,0" transform="translate(-270.143 -380.351)"/><path class="b" d="M109.952,33.9A16.952,16.952,0,1,0,93,16.952,16.972,16.972,0,0,0,109.952,33.9Zm-4.183-20.05a4.183,4.183,0,1,1,4.183,4.183A4.187,4.187,0,0,1,105.77,13.855Zm4.183,16.93A13.756,13.756,0,0,1,102,28.261q-.385-.272-.749-.567a9.067,9.067,0,0,1,17.412,0q-.364.3-.749.567A13.756,13.756,0,0,1,109.952,30.785Zm0-27.665a13.826,13.826,0,0,1,11.1,22.075A12.192,12.192,0,0,0,115,19.13a7.3,7.3,0,1,0-10.094,0,12.255,12.255,0,0,0-6.054,6.066,13.825,13.825,0,0,1,11.1-22.073Zm0,0" transform="translate(-83.328)"/></g></g></svg>