<svg xmlns="http://www.w3.org/2000/svg" width="96" height="96" viewBox="0 0 96 96"><defs><style>.a,.b{fill:#fff;}.a{opacity:0.05;}</style></defs><g transform="translate(-526 -3834)"><circle class="a" cx="48" cy="48" r="48" transform="translate(526 3834)"/><g transform="translate(550 3861)"><path class="b" d="M3.117,163.4a1.472,1.472,0,0,1-1.558,1.558A1.472,1.472,0,0,1,0,163.4,13.536,13.536,0,0,1,13.558,150h15.9v3.117h-15.9A10.41,10.41,0,0,0,3.117,163.4Z" transform="translate(0 -126.624)"/><path class="b" d="M82.286,0a10.109,10.109,0,0,1,10.13,10.13,10.144,10.144,0,0,1-10.13,10.286A10.276,10.276,0,0,1,72,10.13,10.243,10.243,0,0,1,82.286,0Zm0,3.117a7.019,7.019,0,0,0-7.169,7.013A7.15,7.15,0,0,0,82.286,17.3,7.019,7.019,0,0,0,89.3,10.13,6.984,6.984,0,0,0,82.286,3.117Z" transform="translate(-60.779)"/><path class="b" d="M83.985,0a11.78,11.78,0,0,1,11.8,11.8,11.82,11.82,0,0,1-11.8,11.985A11.973,11.973,0,0,1,72,11.8,11.936,11.936,0,0,1,83.985,0Zm0,3.632A8.179,8.179,0,0,0,75.632,11.8a8.331,8.331,0,0,0,8.353,8.353A8.179,8.179,0,0,0,92.156,11.8,8.137,8.137,0,0,0,83.985,3.632Z" transform="translate(-46.794 19.168)"/><path class="b" d="M214.391,71.211a1.29,1.29,0,0,1,1.824-1.824l1.824,1.824,4.82-4.82a1.29,1.29,0,1,1,1.824,1.824l-5.732,5.6a1.171,1.171,0,0,1-1.824.13Z" transform="translate(-182.364 -39.146)"/></g></g></svg>