<svg xmlns="http://www.w3.org/2000/svg" width="96" height="96" viewBox="0 0 96 96"><defs><style>.a,.b{fill:#fff;}.a{opacity:0.05;}</style></defs><g transform="translate(-1097 -3834)"><circle class="a" cx="48" cy="48" r="48" transform="translate(1097 3834)"/><g transform="translate(1123 3860)"><path class="b" d="M33.565,122.565H31v10.262h2.565v2.565h2.565v-2.565H38.7V122.565H36.131V120H33.565Zm2.565,7.7H33.565v-5.131h2.565Z" transform="translate(-28.349 -109.738)"/><path class="b" d="M156.131,75.393V72.827H158.7V62.565h-2.565V60h-2.565v2.565H151V72.827h2.565v2.565Zm-2.565-10.262h2.565v5.131h-2.565Z" transform="translate(-138.087 -54.869)"/><path class="b" d="M276.131,45.393V42.827H278.7V32.565h-2.565V30h-2.565v2.565H271V42.827h2.565v2.565Zm-2.565-10.262h2.565v5.131h-2.565Z" transform="translate(-247.825 -27.435)"/><path class="b" d="M396.131,15.393V12.827H398.7V2.565h-2.565V0h-2.565V2.565H391V12.827h2.565v2.565ZM393.566,5.131h2.565v5.131h-2.565Z" transform="translate(-357.563)"/><path class="b" d="M16,208.411H26.565l10.262-5.131H47.089l6.976-3.488L53.549,202l2.5.584,1.381-5.909-5.556-2.441-1.032,2.349,2.078.913-6.435,3.217H36.221l-10.262,5.131H16Z" transform="translate(-14.632 -177.625)"/><path class="b" d="M41.133,330h-7.7v13H30.871V330h-7.7v13H20.609V331.773l-7.7,3.848V343H10.347v-7.867h-7.7V343H0v2.565H43.784V343H41.133ZM36,332.565h2.565V343H36Zm-10.262,0h2.565V343H25.74Zm-10.262,4.641,2.565-1.283V343H15.478Zm-10.262.49H7.782V343H5.216Z" transform="translate(0 -301.78)"/></g></g></svg>