<svg width="146" height="280" viewBox="0 0 146 280" fill="none" xmlns="http://www.w3.org/2000/svg">
<g opacity="0.1" clip-path="url(#clip0)">
<path d="M0 143.1L45.5 135.1V169.5H64.4V135.1L123.9 145.6C121.5 241.8 64.4 280 64.4 280V200.3H45.5V280C45.5 280 17.6 261.3 0 217.3V143.1Z" fill="white"/>
<path d="M5.9 121.2C10.2 119.3 15.2 117.6 20.7 116.2C43 110.3 66.9 110.3 89.1 116.2C94.6 117.7 99.5 119.3 103.9 121.2L126.4 50.6L100.2 71.5C101.5 74.3 102.2 77.3 102.2 80.4C102.2 86.3 99.7 91.9 95.3 95.8C91.5 99.2 86.6 101 81.5 101C80.7 101 79.9 101 79.1 100.9C69.9 99.9 62.3 92.4 61 83.2C60 75.4 63.3 67.8 69.6 63.4L54.9 26.4L40 63.5C45.5 67.3 48.8 73.7 48.8 80.4C48.8 86.3 46.3 91.9 41.9 95.8C37.5 99.7 31.6 101.6 25.8 100.9C16.5 99.9 8.9 92.4 7.7 83.2C7.2 79.1 7.8 75.2 9.5 71.6L0 63.9V51.4L23 69.7L19.9 73.5C18 75.8 17.1 78.8 17.5 81.9C18.1 86.7 22.1 90.6 27 91.2C30.2 91.6 33.2 90.6 35.5 88.5C37.8 86.4 39.1 83.5 39.1 80.4C39.1 75.9 36.3 71.9 32.1 70.3L27.5 68.5L54.9 0L82.3 68.5L77.7 70.3C73 72.1 70.2 76.9 70.8 82C71.4 86.8 75.4 90.7 80.3 91.2C83.4 91.6 86.5 90.6 88.8 88.5C91.1 86.4 92.4 83.5 92.4 80.4C92.4 77.9 91.6 75.5 90 73.5L86.9 69.7L145.7 22.8L109.9 135.1L104.7 132.3C99.9 129.7 93.9 127.5 86.8 125.6C66.1 120.1 44.1 120.1 23.4 125.6C16.3 127.5 10.2 129.8 5.4 132.3L0.2 135.1L0 134.9V102.7L5.9 121.2Z" fill="white"/>
</g>
<defs>
<clipPath id="clip0">
<rect width="145.5" height="280" fill="white"/>
</clipPath>
</defs>
</svg>
