<svg width="220" height="423" viewBox="0 0 220 423" fill="none" xmlns="http://www.w3.org/2000/svg">
<g clip-path="url(#clip0)">
<path d="M0 216.183L68.7972 204.098V256.066H97.3746V204.098L187.34 219.96C183.711 365.291 97.3746 423 97.3746 423V302.596H68.7972V423C68.7972 423 26.6117 394.75 0 328.278V216.183Z" fill="#F8F8F8"/>
<path d="M8.92096 183.099C15.4227 180.228 22.9828 177.66 31.299 175.545C65.0172 166.632 101.155 166.632 134.722 175.545C143.038 177.811 150.447 180.228 157.1 183.099L191.12 76.4421L151.505 108.016C153.471 112.246 154.529 116.778 154.529 121.461C154.529 130.375 150.749 138.835 144.096 144.726C138.351 149.863 130.942 152.582 123.23 152.582C122.021 152.582 120.811 152.582 119.601 152.431C105.691 150.92 94.1993 139.59 92.2337 125.691C90.7216 113.908 95.7113 102.426 105.237 95.7793L83.0103 39.8829L60.4811 95.9304C68.7972 101.671 73.7869 111.34 73.7869 121.461C73.7869 130.375 70.0069 138.835 63.354 144.726C56.701 150.618 47.7801 153.489 39.0103 152.431C24.9485 150.92 13.457 139.59 11.6426 125.691C10.8866 119.497 11.7938 113.606 14.3643 108.167L0 96.5346V77.6507L34.7766 105.297L30.0893 111.037C27.2165 114.512 25.8557 119.044 26.4605 123.728C27.3677 130.979 33.4158 136.871 40.8247 137.777C45.6632 138.381 50.1993 136.871 53.677 133.698C57.1546 130.526 59.1203 126.145 59.1203 121.461C59.1203 114.663 54.8866 108.62 48.5361 106.203L41.5808 103.484L83.0103 0L124.44 103.484L117.485 106.203C110.378 108.923 106.144 116.174 107.052 123.879C107.959 131.13 114.007 137.022 121.416 137.777C126.103 138.381 130.79 136.871 134.268 133.698C137.746 130.526 139.711 126.145 139.711 121.461C139.711 117.685 138.502 114.059 136.082 111.037L131.395 105.297L220.302 34.4443L166.172 204.098L158.309 199.868C151.052 195.94 141.979 192.616 131.244 189.746C99.945 181.437 66.6804 181.437 35.3814 189.746C24.646 192.616 15.4227 196.091 8.16495 199.868L0.302406 204.098L0 203.795V155.15L8.92096 183.099Z" fill="#F8F8F8"/>
</g>
<defs>
<clipPath id="clip0">
<rect width="220" height="423" fill="white"/>
</clipPath>
</defs>
</svg>
