<svg xmlns="http://www.w3.org/2000/svg" xmlns:xlink="http://www.w3.org/1999/xlink" width="155" height="155" viewBox="0 0 155 155"><defs><style>.a{opacity:0.2;}.a,.b{fill:url(#a);}.c{fill:none;stroke:#f8f8f8;stroke-width:4px;}.d{fill:#fff;}.e{filter:url(#c);}</style><linearGradient id="a" x1="0.537" y1="1" x2="0.46" gradientUnits="objectBoundingBox"><stop offset="0" stop-color="#ee743b"/><stop offset="1" stop-color="#fedea9"/></linearGradient><filter id="c" x="0" y="0" width="155" height="155" filterUnits="userSpaceOnUse"><feOffset dx="4" dy="5" input="SourceAlpha"/><feGaussianBlur stdDeviation="4.5" result="d"/><feFlood flood-opacity="0.059"/><feComposite operator="in" in2="d"/><feComposite in="SourceGraphic"/></filter></defs><g transform="translate(-459.5 -661.5)"><circle class="a" cx="71" cy="71" r="71" transform="translate(462 663)"/><g class="e" transform="matrix(1, 0, 0, 1, 459.5, 661.5)"><circle class="b" cx="64" cy="64" r="64" transform="translate(9.5 8.5)"/></g><g transform="translate(502.971 704.349)"><path class="c" d="M24.738,33.588c-5.472-5.472-6.707-10.943-6.986-13.135a1.965,1.965,0,0,1,.564-1.645l4.428-4.426a1.977,1.977,0,0,0,.279-2.446L15.973.989A1.977,1.977,0,0,0,13.412.269L2.094,5.6A1.966,1.966,0,0,0,1.007,7.563C1.6,13.2,4.056,27.045,17.666,40.656S45.123,56.722,50.759,57.315a1.966,1.966,0,0,0,1.964-1.087l5.33-11.318a1.977,1.977,0,0,0-.717-2.557L46.39,35.305a1.977,1.977,0,0,0-2.446.277L39.518,40.01a1.965,1.965,0,0,1-1.645.564c-2.192-.279-7.664-1.514-13.135-6.986Z" transform="translate(-0.997 1.976)"/><path class="d" d="M46.779,30.756A1.977,1.977,0,0,1,44.8,28.779,14.842,14.842,0,0,0,29.977,13.953a1.977,1.977,0,1,1,0-3.953A18.8,18.8,0,0,1,48.756,28.779,1.977,1.977,0,0,1,46.779,30.756Z" transform="translate(0.666 -0.116)"/><path class="d" d="M56.663,30.639a1.977,1.977,0,0,1-1.977-1.977A24.737,24.737,0,0,0,29.977,3.953a1.977,1.977,0,1,1,0-3.953A28.694,28.694,0,0,1,58.639,28.663a1.977,1.977,0,0,1-1.977,1.977Z" transform="translate(0.666)"/></g></g></svg>