<svg xmlns="http://www.w3.org/2000/svg" xmlns:xlink="http://www.w3.org/1999/xlink" width="155" height="155" viewBox="0 0 155 155"><defs><style>.a{opacity:0.2;}.a,.b{fill:url(#a);}.c{fill:#fff;}.d{filter:url(#c);}</style><linearGradient id="a" x1="0.537" y1="1" x2="0.46" gradientUnits="objectBoundingBox"><stop offset="0" stop-color="#ee743b"/><stop offset="1" stop-color="#fedea9"/></linearGradient><filter id="c" x="0" y="0" width="155" height="155" filterUnits="userSpaceOnUse"><feOffset dx="4" dy="5" input="SourceAlpha"/><feGaussianBlur stdDeviation="4.5" result="d"/><feFlood flood-opacity="0.059"/><feComposite operator="in" in2="d"/><feComposite in="SourceGraphic"/></filter></defs><g transform="translate(-1071.5 -661.5)"><circle class="a" cx="71" cy="71" r="71" transform="translate(1074 663)"/><g class="d" transform="matrix(1, 0, 0, 1, 1071.5, 661.5)"><circle class="b" cx="64" cy="64" r="64" transform="translate(9.5 8.5)"/></g><g transform="translate(1123 699)"><path class="c" d="M28.272,29.363a7.091,7.091,0,1,1,7.091-7.091A7.091,7.091,0,0,1,28.272,29.363Zm0-9.454a2.364,2.364,0,1,0,2.364,2.364A2.364,2.364,0,0,0,28.272,19.909Zm0,37.817a2.364,2.364,0,0,1-1.678-.685C25.909,56.237,7,37.257,7,22.272a21.272,21.272,0,0,1,42.544,0c0,14.985-18.909,33.964-19.594,34.768A2.364,2.364,0,0,1,28.272,57.726Zm0-52A16.545,16.545,0,0,0,11.727,22.272c0,10.66,12.031,24.747,16.545,29.663,4.514-4.893,16.545-18.909,16.545-29.663A16.545,16.545,0,0,0,28.272,5.727Zm0,66.18c-5.885,0-11.818-1.82-11.818-5.909s5.933-5.909,11.818-5.909S40.09,61.909,40.09,66,34.157,71.907,28.272,71.907ZM21.725,66a15.694,15.694,0,0,0,6.547,1.182A15.694,15.694,0,0,0,34.819,66a15.694,15.694,0,0,0-6.547-1.182A15.694,15.694,0,0,0,21.725,66Zm13.756.449Z" transform="translate(-7 -1)"/></g></g></svg>