<svg width="214" height="60" viewBox="0 0 214 60" fill="none" xmlns="http://www.w3.org/2000/svg">
<path d="M22.8979 29.0135V36.2665H18.7641V29.0135L5.74683 31.2063C6.27455 51.3626 18.7641 59.3746 18.7641 59.3746V42.676H22.8979V59.3746C22.8979 59.3746 35.3875 51.3626 35.9152 31.2063L22.8979 29.0135Z" fill="#061940"/>
<path d="M15.5105 21.8451C17.5335 21.5921 19.2046 20.0741 19.4685 18.1343C19.7323 16.532 18.9407 14.9296 17.6214 14.0019L20.8757 6.24295L24.1301 14.0019C22.8987 14.8452 22.1951 16.1103 22.1951 17.544C22.1951 18.809 22.7228 19.9897 23.6903 20.7488C24.6578 21.5921 25.9771 21.9295 27.2085 21.8451C29.2314 21.5921 30.9025 20.0741 31.1664 18.1343C31.2544 17.291 31.1664 16.4476 30.8146 15.6886L36.5316 11.3031L31.6062 26.062C30.6387 25.6403 29.5832 25.3029 28.3519 25.0499C23.5144 23.7849 18.2371 23.7849 13.3996 25.0499C12.1683 25.3873 11.1128 25.7246 10.1453 26.062L5.21986 11.3031L10.9369 15.6886C10.673 16.279 10.4971 16.8693 10.4971 17.544C10.4971 18.809 11.0248 19.9897 11.9923 20.7488C12.7839 21.4235 13.9273 21.8451 14.9828 21.8451C15.1587 21.8451 15.3346 21.8451 15.5105 21.8451ZM14.8069 15.0139L15.8623 15.3513C16.9178 15.6886 17.5335 16.7006 17.3576 17.797C17.1817 18.809 16.3901 19.6524 15.2467 19.7367C14.543 19.8211 13.9273 19.6524 13.3996 19.1464C12.8719 18.7247 12.608 18.1343 12.608 17.4597C12.608 16.9536 12.7839 16.4476 13.1358 16.0259L13.8394 15.1826L0.998047 5.48392L8.82599 29.0137L9.96939 28.4234C11.0248 27.9173 12.3442 27.4113 13.9273 26.9897C18.501 25.8089 23.2505 25.8089 27.8241 26.9897C29.4073 27.4113 30.7266 27.833 31.7821 28.4234L32.9255 29.0137L40.7534 5.48392L27.8241 15.2669L28.5278 16.1103C28.9675 16.6163 29.1435 17.2067 29.0555 17.8813C28.8796 18.8934 28.088 19.7367 26.9446 19.8211C26.241 19.9054 25.6253 19.7367 25.0975 19.2307C24.5698 18.809 24.306 18.2187 24.306 17.544C24.306 16.6163 24.9216 15.7729 25.8012 15.4356L26.8566 15.0982L20.7878 0.676758L14.8069 15.0139Z" fill="url(#paint0_linear)"/>
<path d="M58.64 41.2765H48.0129V31.9279H43.3091V55.2144H48.0129V45.6958H58.64V55.2144H63.3438V31.9279H58.64V41.2765Z" fill="#061940"/>
<path d="M88.8681 35.2413C87.7357 34.1365 86.4291 33.2866 84.9482 32.6067C83.4674 32.0118 81.8995 31.6719 80.2444 31.6719C78.5894 31.6719 77.0214 32.0118 75.5406 32.6067C74.0598 33.2016 72.7532 34.1365 71.7079 35.2413C70.5755 36.3462 69.7044 37.621 69.0947 39.0658C68.4849 40.5106 68.1365 42.0403 68.1365 43.6551C68.1365 45.2699 68.4849 46.7996 69.0947 48.2444C69.7044 49.6892 70.5755 50.964 71.7079 51.9839C72.8403 53.0887 74.1469 53.9386 75.5406 54.5335C77.0214 55.1284 78.5894 55.4684 80.2444 55.4684C81.8995 55.4684 83.4674 55.1284 84.9482 54.5335C86.4291 53.9386 87.7357 53.0887 88.8681 51.9839C90.0005 50.879 90.8715 49.6042 91.5684 48.2444C92.1782 46.7996 92.5266 45.2699 92.5266 43.6551C92.5266 42.0403 92.1782 40.5106 91.5684 39.0658C90.8715 37.621 90.0005 36.3462 88.8681 35.2413ZM87.0388 46.4597C86.6904 47.3945 86.1677 48.1594 85.558 48.8393C84.9482 49.5192 84.1643 50.0292 83.2932 50.4541C82.4221 50.879 81.4639 51.049 80.4186 51.049C79.3733 51.049 78.4152 50.879 77.457 50.4541C76.5859 50.1141 75.8019 49.5192 75.1051 48.8393C74.4082 48.1594 73.8856 47.3945 73.5371 46.4597C73.1016 45.6098 72.9274 44.59 72.9274 43.5701C72.9274 42.5503 73.1016 41.5304 73.45 40.5956C73.7985 39.6607 74.3211 38.8958 75.018 38.2159C75.7148 37.536 76.4988 37.0261 77.3699 36.6011C78.2409 36.2612 79.1991 36.0062 80.2444 36.0062C81.2897 36.0062 82.2479 36.1762 83.119 36.6011C83.9901 36.9411 84.774 37.536 85.4709 38.2159C86.1677 38.8958 86.6904 39.6607 87.0388 40.5956C87.3872 41.5304 87.6486 42.4653 87.6486 43.5701C87.5615 44.59 87.3872 45.6098 87.0388 46.4597Z" fill="#061940"/>
<path d="M113.955 45.9506L97.3175 30.9928H97.1433V55.2142H101.934L101.847 41.4463L118.485 56.1491H118.659V31.9277H113.868L113.955 45.9506Z" fill="#061940"/>
<path d="M144.092 35.2413C142.96 34.1365 141.653 33.2866 140.172 32.6067C138.692 32.0118 137.124 31.6719 135.469 31.6719C133.814 31.6719 132.246 32.0118 130.765 32.6067C129.284 33.2016 127.977 34.1365 126.932 35.2413C125.8 36.3462 124.929 37.621 124.319 39.0658C123.709 40.5106 123.361 42.0403 123.361 43.6551C123.361 45.2699 123.709 46.7996 124.319 48.2444C124.929 49.6892 125.8 50.964 126.932 51.9839C128.064 53.0887 129.371 53.9386 130.765 54.5335C132.246 55.1284 133.814 55.4684 135.469 55.4684C137.124 55.4684 138.692 55.1284 140.172 54.5335C141.653 53.9386 142.96 53.0887 144.092 51.9839C145.225 50.879 146.096 49.6042 146.793 48.2444C147.402 46.7996 147.751 45.2699 147.751 43.6551C147.751 42.0403 147.402 40.5106 146.793 39.0658C146.096 37.621 145.225 36.3462 144.092 35.2413ZM142.263 46.4597C141.915 47.3945 141.392 48.1594 140.782 48.8393C140.172 49.5192 139.388 50.0292 138.517 50.4541C137.646 50.794 136.688 51.049 135.643 51.049C134.597 51.049 133.639 50.879 132.681 50.4541C131.81 50.1141 131.026 49.5192 130.329 48.8393C129.632 48.1594 129.11 47.3945 128.761 46.4597C128.413 45.5248 128.152 44.59 128.152 43.5701C128.152 42.5503 128.326 41.5304 128.674 40.5956C129.023 39.6607 129.545 38.8958 130.242 38.2159C130.939 37.536 131.723 37.0261 132.594 36.6011C133.465 36.2612 134.423 36.0062 135.469 36.0062C136.514 36.0062 137.472 36.1762 138.343 36.6011C139.214 36.9411 139.998 37.536 140.695 38.2159C141.392 38.8958 141.915 39.6607 142.263 40.5956C142.611 41.5304 142.873 42.4653 142.873 43.5701C142.873 44.59 142.698 45.6098 142.263 46.4597Z" fill="#061940"/>
<path d="M167.09 45.1859C167.787 44.421 168.222 43.5712 168.483 42.5513C168.745 41.6165 168.919 40.6816 168.919 39.7467C168.919 38.5569 168.745 37.4521 168.309 36.5172C167.874 35.5823 167.264 34.7325 166.48 34.0526C165.696 33.3727 164.738 32.8627 163.518 32.4378C162.386 32.0979 160.992 31.8429 159.511 31.8429H152.281V36.2622H160.382C161.166 36.2622 161.863 36.4322 162.386 36.6872C162.909 36.9421 163.257 37.2821 163.431 37.707C163.693 38.132 163.867 38.4719 163.867 38.8969C163.867 39.3218 163.954 39.5768 163.954 39.8317C163.954 40.1717 163.867 40.5116 163.78 40.9366C163.693 41.3615 163.431 41.7014 163.17 42.0414C162.909 42.3813 162.56 42.7213 162.038 42.8913C161.602 43.1462 160.992 43.2312 160.295 43.2312H152.281V55.0445H156.985V47.6506H160.121L165.173 55.0445H170.661L165.086 46.5457C165.957 46.2908 166.567 45.7808 167.09 45.1859Z" fill="#061940"/>
<path fill-rule="evenodd" clip-rule="evenodd" d="M203.411 39.6617L207.854 31.9279H213.603L206.024 43.4861L213.777 55.2144H207.767L202.366 47.1406L197.749 55.2144H191.913L199.753 43.1462L192.261 31.9279H198.272L203.411 39.6617ZM174.666 55.2146V31.928H189.562V36.3474H179.37V41.6166H188.168V46.0359H179.37V55.2146H174.666Z" fill="url(#paint1_linear)"/>
<defs>
<linearGradient id="paint0_linear" x1="0.998047" y1="11.7651" x2="51.5958" y2="11.7651" gradientUnits="userSpaceOnUse">
<stop stop-color="#FEDD9F"/>
<stop offset="0.260417" stop-color="#ED7427"/>
<stop offset="0.375" stop-color="#ED7427"/>
<stop offset="0.510417" stop-color="#FEDD9F"/>
<stop offset="0.755208" stop-color="#ED7427"/>
</linearGradient>
<linearGradient id="paint1_linear" x1="161.529" y1="41.04" x2="213.649" y2="41.04" gradientUnits="userSpaceOnUse">
<stop stop-color="#FEDD9F"/>
<stop offset="1" stop-color="#ED7427"/>
</linearGradient>
</defs>
</svg>
