<svg xmlns="http://www.w3.org/2000/svg" xmlns:xlink="http://www.w3.org/1999/xlink" width="113.209" height="139.519" viewBox="0 0 113.209 139.519"><defs><style>.a{fill:url(#a);}.b{opacity:0.29;clip-path:url(#b);}.c{opacity:0.15;mix-blend-mode:luminosity;isolation:isolate;fill:url(#c);}</style><linearGradient id="a" x1="0.5" x2="0.5" y2="1" gradientUnits="objectBoundingBox"><stop offset="0" stop-color="#374564"/><stop offset="1" stop-color="#222f4d"/></linearGradient><clipPath id="b"><path class="a" d="M4.384,0H108.826c2.421,0,4.384,2.8,4.384,6.243V133.276c0,3.448-1.963,6.243-4.384,6.243H4.384c-2.421,0-4.384-2.8-4.384-6.243V6.243C0,2.8,1.963,0,4.384,0Z" transform="translate(600.791 3839.481)"/></clipPath><linearGradient id="c" y1="0.498" x2="0.998" y2="0.498" gradientUnits="objectBoundingBox"><stop offset="0" stop-color="#fedea9"/><stop offset="1" stop-color="#ee743b"/></linearGradient></defs><g class="b" transform="translate(-600.791 -3839.481)"><path class="c" d="M82.968,125.616C94.6,124.065,103.9,114.76,105.455,103.9A25.478,25.478,0,0,0,94.6,79.091l18.61-46.524,18.61,46.524a24.727,24.727,0,0,0-10.856,20.936,27.764,27.764,0,0,0,8.529,19.385,27.336,27.336,0,0,0,20.161,6.2,26.32,26.32,0,0,0,22.487-22.487A23.878,23.878,0,0,0,169.814,88.4l32.567-26.364-27.915,87.621a104.623,104.623,0,0,0-18.61-6.2,176.366,176.366,0,0,0-85.295,0,104.623,104.623,0,0,0-18.61,6.2L24.038,62.808,56.6,89.172a24.767,24.767,0,0,0-2.326,10.856,27.764,27.764,0,0,0,8.529,19.385,27.1,27.1,0,0,0,17.059,6.2ZM79.091,85.295l5.428,2.326c6.2,2.326,9.3,8.529,8.529,14.733a13.188,13.188,0,0,1-11.631,11.631c-3.877.775-7.754-.775-10.856-3.1a12.5,12.5,0,0,1-4.652-10.08,11.661,11.661,0,0,1,3.1-8.529l3.877-4.652L0,28.69,44.974,169.038l6.2-3.1a105.284,105.284,0,0,1,22.487-8.529,152.012,152.012,0,0,1,79.091,0,124.244,124.244,0,0,1,22.487,8.529l6.2,3.1L226.418,28.69,153.53,86.845l3.877,4.652a17.056,17.056,0,0,1,3.1,10.08,13.188,13.188,0,0,1-11.631,11.631c-3.877.775-7.754-.775-10.856-3.1a12.5,12.5,0,0,1-4.652-10.08c0-5.428,3.877-10.856,8.529-12.406l5.428-2.326L113.209,0Z" transform="translate(600.791 3839.481)"/></g></svg>