<svg xmlns="http://www.w3.org/2000/svg" width="51.232" height="37.958" viewBox="0 0 51.232 37.958"><defs><style>.a{fill:#ee743b;}</style></defs><g transform="translate(0 21.704)"><path class="a" d="M98.161,396.775H89.22a1.074,1.074,0,0,0-1.048,1.1v14.058a1.074,1.074,0,0,0,1.048,1.1h8.941a1.074,1.074,0,0,0,1.048-1.1V397.873A1.074,1.074,0,0,0,98.161,396.775Zm-1.048,14.058H90.268V398.971h6.846Z" transform="translate(-88.172 -396.775)"/></g><g transform="translate(40.194 21.704)"><g transform="translate(0)"><path class="a" d="M410.772,396.775h-8.941a1.074,1.074,0,0,0-1.048,1.1v14.058a1.074,1.074,0,0,0,1.048,1.1h8.941a1.074,1.074,0,0,0,1.048-1.1V397.873A1.074,1.074,0,0,0,410.772,396.775Zm-1.048,14.058h-6.846V398.971h6.846Z" transform="translate(-400.783 -396.775)"/></g></g><g transform="translate(13.398)"><g transform="translate(0)"><path class="a" d="M202.365,323.967a1.245,1.245,0,0,0,1.048-1.375v-20.63a1.245,1.245,0,0,0-1.048-1.375h-8.942a1.245,1.245,0,0,0-1.048,1.375V337.17a1.245,1.245,0,0,0,1.048,1.375h8.942a1.245,1.245,0,0,0,1.048-1.375v-8.16a1.087,1.087,0,1,0-2.1,0v6.785h-6.846V303.337h6.846v19.254A1.246,1.246,0,0,0,202.365,323.967Z" transform="translate(-192.375 -300.587)"/></g></g><g transform="translate(26.796 14.675)"><g transform="translate(0)"><path class="a" d="M306.568,348.681h-8.942a1.074,1.074,0,0,0-1.048,1.1v21.087a1.074,1.074,0,0,0,1.048,1.1h8.942a1.074,1.074,0,0,0,1.048-1.1V349.779A1.074,1.074,0,0,0,306.568,348.681Zm-1.048,21.087h-6.846v-18.89h6.846Z" transform="translate(-296.579 -348.681)"/></g></g></svg>