<svg xmlns="http://www.w3.org/2000/svg" width="113" height="113" viewBox="0 0 113 113"><defs><style>.a,.b{fill:#16223b;}.a{opacity:0.05;}.c{fill:none;stroke:#fff;stroke-miterlimit:10;stroke-width:4px;}.d{fill:#fff;}</style></defs><g transform="translate(-432 -2588.08)"><circle class="a" cx="56.5" cy="56.5" r="56.5" transform="translate(432 2588.08)"/><circle class="b" cx="46.5" cy="46.5" r="46.5" transform="translate(442 2598.08)"/><g transform="translate(416.556 3107.642)"><g transform="translate(52.282 -466.717)"><path class="c" d="M113.667-310.833" transform="translate(-109.033 325.845)"/><path class="d" d="M90.745-343.285v5.773H86.111V-355h4.634v6.278" transform="translate(-86.111 362.586)"/><rect class="d" width="0.523" height="7.586" transform="translate(2.055)"/><rect class="d" width="0.523" height="7.586" transform="translate(2.055 25.073)"/></g><g transform="translate(61.204 -471.117)"><path class="c" d="M132.333-367.635" transform="translate(-132.333 379.037)"/><path class="d" d="M132.333-385.908V-396.94h4.634v14.927h-4.634v-5.358" transform="translate(-132.333 403.415)"/><rect class="d" width="0.523" height="6.475" transform="translate(2.578 27.876) rotate(180)"/><rect class="d" width="0.523" height="6.475" transform="translate(2.578 6.475) rotate(180)"/></g><g transform="translate(76.117 -476.912)"><path class="d" d="M214.556-382.5" transform="translate(-214.556 390.839)"/><path class="d" d="M214.556-400.33v-3.6h4.634v10.919h-4.634v-3.92" transform="translate(-214.556 408.671)"/><rect class="d" width="0.523" height="4.736" transform="translate(2.578 20.392) rotate(180)"/><rect class="d" width="0.523" height="4.736" transform="translate(2.578 4.736) rotate(180)"/></g><g transform="translate(84.659 -490.064)"><path class="c" d="M258.778-311.886" transform="translate(-258.778 329.758)"/><path class="d" d="M258.778-350.094v-7.724h4.634v23.4h-4.634v-8.4" transform="translate(-258.778 367.966)"/><rect class="d" width="0.523" height="10.148" transform="translate(2.578 43.692) rotate(180)"/><rect class="d" width="0.523" height="10.148" transform="translate(2.578 10.148) rotate(180)"/></g><g transform="translate(68.661 -483)"><path class="c" d="M173.444-425.189" transform="translate(-173.444 434.91)"/><path class="c" d="M173.444-406.633" transform="translate(-173.444 419.474)"/><path class="d" d="M173.445-445.972v-4.2h4.634v12.726h-4.634v-4.568" transform="translate(-173.444 455.693)"/><rect class="d" width="0.523" height="5.52" transform="translate(2.578 23.766) rotate(180)"/><rect class="d" width="0.523" height="5.52" transform="translate(2.578 5.52) rotate(180)"/></g><g transform="translate(45.444 -460.276)"><path class="c" d="M45.444-284.655" transform="translate(-45.444 289.86)"/><path class="c" d="M45.444-274.719" transform="translate(-45.444 281.595)"/><path class="d" d="M45.444-295.784v-2.25h4.634v6.814H45.444v-2.446" transform="translate(-45.444 300.989)"/><rect class="d" width="0.523" height="2.956" transform="translate(2.578 12.726) rotate(180)"/><rect class="d" width="0.523" height="2.956" transform="translate(2.578 2.956) rotate(180)"/></g><g transform="translate(91.273 -485.989)"><path class="c" d="M298.111-281.6" transform="translate(-298.111 286.808)"/><path class="d" d="M298.111-292.731v-2.25h4.634v6.814h-4.634v-2.446" transform="translate(-298.111 297.937)"/><rect class="d" width="0.523" height="2.956" transform="translate(2.578 12.726) rotate(180)"/><rect class="d" width="0.523" height="2.956" transform="translate(2.578 2.956) rotate(180)"/></g></g></g></svg>