<svg xmlns="http://www.w3.org/2000/svg" width="113" height="113" viewBox="0 0 113 113"><defs><style>.a,.b{fill:#ee743b;}.a{opacity:0.05;}.c{fill:none;stroke:#fff;stroke-miterlimit:10;stroke-width:4px;}.d{fill:#fff;}</style></defs><g transform="translate(-779 -2848)"><circle class="a" cx="56.5" cy="56.5" r="56.5" transform="translate(779 2848)"/><circle class="b" cx="46.5" cy="46.5" r="46.5" transform="translate(789 2857.92)"/><g transform="translate(764.556 3368.715)"><g transform="translate(52.282 -466.717)"><path class="c" d="M113.667-310.833" transform="translate(-109.033 325.845)"/><path class="d" d="M90.745-343.285v5.773H86.111V-355h4.634v6.278" transform="translate(-86.111 362.586)"/><rect class="d" width="0.523" height="7.586" transform="translate(2.055)"/><rect class="d" width="0.523" height="7.586" transform="translate(2.055 25.073)"/></g><g transform="translate(61.204 -482.146)"><path class="c" d="M132.333-367.635" transform="translate(-132.333 379.037)"/><path class="d" d="M132.333-385.908V-396.94h4.634v14.927h-4.634v-5.358" transform="translate(-132.333 403.415)"/><rect class="d" width="0.523" height="6.475" transform="translate(2.578 27.876) rotate(180)"/><rect class="d" width="0.523" height="6.475" transform="translate(2.578 6.475) rotate(180)"/></g><g transform="translate(77.117 -487.108)"><path class="d" d="M214.556-382.5" transform="translate(-214.556 390.839)"/><path class="d" d="M214.556-400.33v-3.6h4.634v10.919h-4.634v-3.92" transform="translate(-214.556 408.671)"/><rect class="d" width="0.523" height="4.736" transform="translate(2.578 20.392) rotate(180)"/><rect class="d" width="0.523" height="4.736" transform="translate(2.578 4.736) rotate(180)"/></g><g transform="translate(84.659 -487.109)"><path class="c" d="M258.778-311.886" transform="translate(-258.778 324.797)"/><path class="d" d="M258.778-354.1v-3.72h4.634v11.267h-4.634V-350.6" transform="translate(-258.778 367.966)"/><rect class="d" width="0.523" height="10.148" transform="translate(2.578 31.563) rotate(180)"/><rect class="d" width="0.523" height="10.148" transform="translate(2.578 10.148) rotate(180)"/></g><g transform="translate(68.661 -488.795)"><path class="c" d="M173.444-425.189" transform="translate(-173.444 441.631)"/><path class="c" d="M173.444-406.633" transform="translate(-173.444 428.352)"/><path class="d" d="M173.445-440.548v-9.625h4.634v29.155h-4.634v-10.466" transform="translate(-173.444 455.693)"/><rect class="d" width="0.523" height="5.52" transform="translate(2.578 40.195) rotate(180)"/><rect class="d" width="0.523" height="5.52" transform="translate(2.578 5.52) rotate(180)"/></g><g transform="translate(45.444 -468.208)"><path class="c" d="M45.444-284.655" transform="translate(-45.444 292.959)"/><path class="c" d="M45.444-274.719" transform="translate(-45.444 285.688)"/><path class="d" d="M45.444-293.283v-4.751h4.634v14.39H45.444v-5.166" transform="translate(-45.444 300.989)"/><rect class="d" width="0.523" height="2.956" transform="translate(2.578 20.301) rotate(180)"/><rect class="d" width="0.523" height="2.956" transform="translate(2.578 2.956) rotate(180)"/></g><g transform="translate(91.273 -484.85)"><path class="c" d="M298.111-281.6" transform="translate(-298.111 289.02)"/><path class="d" d="M298.111-290.946v-4.035h4.634v12.222h-4.634v-4.388" transform="translate(-298.111 297.937)"/><rect class="d" width="0.523" height="2.956" transform="translate(2.578 18.134) rotate(180)"/><rect class="d" width="0.523" height="2.956" transform="translate(2.578 2.956) rotate(180)"/></g></g></g></svg>