<svg xmlns="http://www.w3.org/2000/svg" width="39.09" height="39.44" viewBox="0 0 39.09 39.44"><defs><style>.a{fill:#ee743b;}</style></defs><g transform="translate(-382.102 -1385.015)"><g transform="translate(390.4 1385.015)"><path class="a" d="M25.98,26.36A11.246,11.246,0,1,1,37.227,15.113,11.26,11.26,0,0,1,25.98,26.36Zm0-19.437a8.19,8.19,0,1,0,8.191,8.19A8.2,8.2,0,0,0,25.98,6.923Z" transform="translate(-14.733 -3.867)"/></g><g transform="translate(382.102 1408.731)"><path class="a" d="M6.854,46.478a1.494,1.494,0,0,1-.517-.092,1.527,1.527,0,0,1-.921-1.955,20.675,20.675,0,0,1,38.909,0,1.529,1.529,0,0,1-2.877,1.034,17.618,17.618,0,0,0-33.156,0A1.531,1.531,0,0,1,6.854,46.478Z" transform="translate(-5.325 -30.755)"/></g></g></svg>