<svg xmlns="http://www.w3.org/2000/svg" width="51.093" height="51.113" viewBox="0 0 51.093 51.113"><defs><style>.a{fill:#fff;}.b{fill:none;stroke:#fff;stroke-linecap:round;stroke-miterlimit:10;stroke-width:3px;}</style></defs><g transform="translate(-8.794 0.997)"><g transform="translate(23.429 12.436)"><g transform="translate(0.095 1.987)"><g transform="translate(0)"><path class="a" d="M164.946,144.207a1.419,1.419,0,0,0-2.007,0l-18.732,18.732a1.419,1.419,0,1,0,2.007,2.007l18.732-18.732A1.419,1.419,0,0,0,164.946,144.207Z" transform="translate(-143.791 -143.791)"/></g></g><g transform="translate(0 0)"><path class="a" d="M148.006,123.116a5.2,5.2,0,1,0,5.2,5.2A5.209,5.209,0,0,0,148.006,123.116Zm0,7.569a2.365,2.365,0,1,1,2.365-2.365A2.368,2.368,0,0,1,148.006,130.685Z" transform="translate(-142.802 -123.116)"/></g><g transform="translate(11.353 15.137)"><path class="a" d="M266.126,280.61a5.2,5.2,0,1,0,5.2,5.2A5.209,5.209,0,0,0,266.126,280.61Zm0,7.569a2.365,2.365,0,1,1,2.365-2.365A2.368,2.368,0,0,1,266.126,288.179Z" transform="translate(-260.922 -280.61)"/></g></g><path class="b" d="M1326.024,529.487a24.055,24.055,0,1,1-2.4-13.983" transform="translate(-1267.816 -501.827)"/></g></svg>