<svg xmlns="http://www.w3.org/2000/svg" xmlns:xlink="http://www.w3.org/1999/xlink" width="196" height="196" viewBox="0 0 196 196"><defs><style>.a,.d{fill:#fff;}.a{stroke:#000;stroke-miterlimit:10;}.b{opacity:0.5;clip-path:url(#a);}.c{opacity:0.46;}</style><clipPath id="a"><path class="a" d="M1305-2359a98,98,0,0,0-98,98,98,98,0,0,0,98,98,98,98,0,0,0,98-98A98,98,0,0,0,1305-2359Zm0,146.484A48.488,48.488,0,0,1,1256.516-2261,48.488,48.488,0,0,1,1305-2309.484,48.488,48.488,0,0,1,1353.484-2261,48.488,48.488,0,0,1,1305-2212.516Z" transform="translate(-1021 3386)"/></clipPath></defs><g class="b" transform="translate(-186 -1027)"><g class="c" transform="translate(137.281 1027)"><circle class="d" cx="1.212" cy="1.212" r="1.212" transform="translate(13.701)"/><circle class="d" cx="1.212" cy="1.212" r="1.212" transform="translate(27.403)"/><circle class="d" cx="1.212" cy="1.212" r="1.212"/><circle class="d" cx="1.212" cy="1.212" r="1.212" transform="translate(41.105)"/><circle class="d" cx="1.212" cy="1.212" r="1.212" transform="translate(54.806)"/><circle class="d" cx="1.212" cy="1.212" r="1.212" transform="translate(68.507)"/><circle class="d" cx="1.212" cy="1.212" r="1.212" transform="translate(95.91)"/><circle class="d" cx="1.212" cy="1.212" r="1.212" transform="translate(109.612)"/><circle class="d" cx="1.212" cy="1.212" r="1.212" transform="translate(82.209)"/><circle class="d" cx="1.212" cy="1.212" r="1.212" transform="translate(123.313)"/><circle class="d" cx="1.212" cy="1.212" r="1.212" transform="translate(137.015)"/><circle class="d" cx="1.212" cy="1.212" r="1.212" transform="translate(150.716)"/><circle class="d" cx="1.212" cy="1.212" r="1.212" transform="translate(13.701 9.53)"/><circle class="d" cx="1.212" cy="1.212" r="1.212" transform="translate(27.403 9.53)"/><circle class="d" cx="1.212" cy="1.212" r="1.212" transform="translate(0 9.53)"/><circle class="d" cx="1.212" cy="1.212" r="1.212" transform="translate(41.105 9.53)"/><circle class="d" cx="1.212" cy="1.212" r="1.212" transform="translate(54.806 9.53)"/><circle class="d" cx="1.212" cy="1.212" r="1.212" transform="translate(68.507 9.53)"/><circle class="d" cx="1.212" cy="1.212" r="1.212" transform="translate(95.91 9.53)"/><circle class="d" cx="1.212" cy="1.212" r="1.212" transform="translate(109.612 9.53)"/><circle class="d" cx="1.212" cy="1.212" r="1.212" transform="translate(82.209 9.53)"/><circle class="d" cx="1.212" cy="1.212" r="1.212" transform="translate(123.313 9.53)"/><circle class="d" cx="1.212" cy="1.212" r="1.212" transform="translate(137.015 9.53)"/><circle class="d" cx="1.212" cy="1.212" r="1.212" transform="translate(150.716 9.53)"/><circle class="d" cx="1.212" cy="1.212" r="1.212" transform="translate(13.701 19.06)"/><circle class="d" cx="1.212" cy="1.212" r="1.212" transform="translate(27.403 19.06)"/><circle class="d" cx="1.212" cy="1.212" r="1.212" transform="translate(0 19.06)"/><circle class="d" cx="1.212" cy="1.212" r="1.212" transform="translate(41.105 19.06)"/><circle class="d" cx="1.212" cy="1.212" r="1.212" transform="translate(54.806 19.06)"/><circle class="d" cx="1.212" cy="1.212" r="1.212" transform="translate(68.507 19.06)"/><circle class="d" cx="1.212" cy="1.212" r="1.212" transform="translate(95.91 19.06)"/><circle class="d" cx="1.212" cy="1.212" r="1.212" transform="translate(109.612 19.06)"/><circle class="d" cx="1.212" cy="1.212" r="1.212" transform="translate(82.209 19.06)"/><circle class="d" cx="1.212" cy="1.212" r="1.212" transform="translate(123.313 19.06)"/><circle class="d" cx="1.212" cy="1.212" r="1.212" transform="translate(137.015 19.06)"/><circle class="d" cx="1.212" cy="1.212" r="1.212" transform="translate(150.716 19.06)"/><circle class="d" cx="1.212" cy="1.212" r="1.212" transform="translate(13.701 28.591)"/><circle class="d" cx="1.212" cy="1.212" r="1.212" transform="translate(27.403 28.591)"/><circle class="d" cx="1.212" cy="1.212" r="1.212" transform="translate(0 28.591)"/><circle class="d" cx="1.212" cy="1.212" r="1.212" transform="translate(41.105 28.591)"/><circle class="d" cx="1.212" cy="1.212" r="1.212" transform="translate(54.806 28.591)"/><circle class="d" cx="1.212" cy="1.212" r="1.212" transform="translate(68.507 28.591)"/><circle class="d" cx="1.212" cy="1.212" r="1.212" transform="translate(95.91 28.591)"/><circle class="d" cx="1.212" cy="1.212" r="1.212" transform="translate(109.612 28.591)"/><circle class="d" cx="1.212" cy="1.212" r="1.212" transform="translate(82.209 28.591)"/><circle class="d" cx="1.212" cy="1.212" r="1.212" transform="translate(123.313 28.591)"/><circle class="d" cx="1.212" cy="1.212" r="1.212" transform="translate(137.015 28.591)"/><circle class="d" cx="1.212" cy="1.212" r="1.212" transform="translate(150.716 28.591)"/><circle class="d" cx="1.212" cy="1.212" r="1.212" transform="translate(13.701 38.121)"/><circle class="d" cx="1.212" cy="1.212" r="1.212" transform="translate(27.403 38.121)"/><circle class="d" cx="1.212" cy="1.212" r="1.212" transform="translate(0 38.121)"/><circle class="d" cx="1.212" cy="1.212" r="1.212" transform="translate(41.105 38.121)"/><circle class="d" cx="1.212" cy="1.212" r="1.212" transform="translate(54.806 38.121)"/><circle class="d" cx="1.212" cy="1.212" r="1.212" transform="translate(68.507 38.121)"/><circle class="d" cx="1.212" cy="1.212" r="1.212" transform="translate(95.91 38.121)"/><circle class="d" cx="1.212" cy="1.212" r="1.212" transform="translate(109.612 38.121)"/><circle class="d" cx="1.212" cy="1.212" r="1.212" transform="translate(82.209 38.121)"/><circle class="d" cx="1.212" cy="1.212" r="1.212" transform="translate(123.313 38.121)"/><circle class="d" cx="1.212" cy="1.212" r="1.212" transform="translate(137.015 38.121)"/><circle class="d" cx="1.212" cy="1.212" r="1.212" transform="translate(150.716 38.121)"/><circle class="d" cx="1.212" cy="1.212" r="1.212" transform="translate(13.701 47.651)"/><circle class="d" cx="1.212" cy="1.212" r="1.212" transform="translate(27.403 47.651)"/><circle class="d" cx="1.212" cy="1.212" r="1.212" transform="translate(0 47.651)"/><circle class="d" cx="1.212" cy="1.212" r="1.212" transform="translate(41.105 47.651)"/><circle class="d" cx="1.212" cy="1.212" r="1.212" transform="translate(54.806 47.651)"/><circle class="d" cx="1.212" cy="1.212" r="1.212" transform="translate(68.507 47.651)"/><circle class="d" cx="1.212" cy="1.212" r="1.212" transform="translate(95.91 47.651)"/><circle class="d" cx="1.212" cy="1.212" r="1.212" transform="translate(109.612 47.651)"/><circle class="d" cx="1.212" cy="1.212" r="1.212" transform="translate(82.209 47.651)"/><circle class="d" cx="1.212" cy="1.212" r="1.212" transform="translate(123.313 47.651)"/><circle class="d" cx="1.212" cy="1.212" r="1.212" transform="translate(137.015 47.651)"/><circle class="d" cx="1.212" cy="1.212" r="1.212" transform="translate(150.716 47.651)"/><circle class="d" cx="1.212" cy="1.212" r="1.212" transform="translate(13.701 57.18)"/><circle class="d" cx="1.212" cy="1.212" r="1.212" transform="translate(27.403 57.18)"/><circle class="d" cx="1.212" cy="1.212" r="1.212" transform="translate(0 57.18)"/><circle class="d" cx="1.212" cy="1.212" r="1.212" transform="translate(41.105 57.18)"/><circle class="d" cx="1.212" cy="1.212" r="1.212" transform="translate(54.806 57.18)"/><circle class="d" cx="1.212" cy="1.212" r="1.212" transform="translate(68.507 57.18)"/><circle class="d" cx="1.212" cy="1.212" r="1.212" transform="translate(95.91 57.18)"/><circle class="d" cx="1.212" cy="1.212" r="1.212" transform="translate(109.612 57.18)"/><circle class="d" cx="1.212" cy="1.212" r="1.212" transform="translate(82.209 57.18)"/><circle class="d" cx="1.212" cy="1.212" r="1.212" transform="translate(123.313 57.18)"/><circle class="d" cx="1.212" cy="1.212" r="1.212" transform="translate(137.015 57.18)"/><circle class="d" cx="1.212" cy="1.212" r="1.212" transform="translate(150.716 57.18)"/><circle class="d" cx="1.212" cy="1.212" r="1.212" transform="translate(13.701 66.71)"/><circle class="d" cx="1.212" cy="1.212" r="1.212" transform="translate(27.403 66.71)"/><circle class="d" cx="1.212" cy="1.212" r="1.212" transform="translate(0 66.71)"/><circle class="d" cx="1.212" cy="1.212" r="1.212" transform="translate(41.105 66.71)"/><circle class="d" cx="1.212" cy="1.212" r="1.212" transform="translate(54.806 66.71)"/><circle class="d" cx="1.212" cy="1.212" r="1.212" transform="translate(68.507 66.71)"/><circle class="d" cx="1.212" cy="1.212" r="1.212" transform="translate(95.91 66.71)"/><circle class="d" cx="1.212" cy="1.212" r="1.212" transform="translate(109.612 66.71)"/><circle class="d" cx="1.212" cy="1.212" r="1.212" transform="translate(82.209 66.71)"/><circle class="d" cx="1.212" cy="1.212" r="1.212" transform="translate(123.313 66.71)"/><circle class="d" cx="1.212" cy="1.212" r="1.212" transform="translate(137.015 66.71)"/><circle class="d" cx="1.212" cy="1.212" r="1.212" transform="translate(150.716 66.71)"/><circle class="d" cx="1.212" cy="1.212" r="1.212" transform="translate(13.701 76.241)"/><circle class="d" cx="1.212" cy="1.212" r="1.212" transform="translate(27.403 76.241)"/><circle class="d" cx="1.212" cy="1.212" r="1.212" transform="translate(0 76.241)"/><circle class="d" cx="1.212" cy="1.212" r="1.212" transform="translate(41.105 76.241)"/><circle class="d" cx="1.212" cy="1.212" r="1.212" transform="translate(54.806 76.241)"/><circle class="d" cx="1.212" cy="1.212" r="1.212" transform="translate(68.507 76.241)"/><circle class="d" cx="1.212" cy="1.212" r="1.212" transform="translate(95.91 76.241)"/><circle class="d" cx="1.212" cy="1.212" r="1.212" transform="translate(109.612 76.241)"/><circle class="d" cx="1.212" cy="1.212" r="1.212" transform="translate(82.209 76.241)"/><circle class="d" cx="1.212" cy="1.212" r="1.212" transform="translate(123.313 76.241)"/><circle class="d" cx="1.212" cy="1.212" r="1.212" transform="translate(137.015 76.241)"/><circle class="d" cx="1.212" cy="1.212" r="1.212" transform="translate(150.716 76.241)"/><circle class="d" cx="1.212" cy="1.212" r="1.212" transform="translate(13.701 85.771)"/><circle class="d" cx="1.212" cy="1.212" r="1.212" transform="translate(27.403 85.771)"/><circle class="d" cx="1.212" cy="1.212" r="1.212" transform="translate(0 85.771)"/><circle class="d" cx="1.212" cy="1.212" r="1.212" transform="translate(41.105 85.771)"/><circle class="d" cx="1.212" cy="1.212" r="1.212" transform="translate(54.806 85.771)"/><circle class="d" cx="1.212" cy="1.212" r="1.212" transform="translate(68.507 85.771)"/><circle class="d" cx="1.212" cy="1.212" r="1.212" transform="translate(95.91 85.771)"/><circle class="d" cx="1.212" cy="1.212" r="1.212" transform="translate(109.612 85.771)"/><circle class="d" cx="1.212" cy="1.212" r="1.212" transform="translate(82.209 85.771)"/><circle class="d" cx="1.212" cy="1.212" r="1.212" transform="translate(123.313 85.771)"/><circle class="d" cx="1.212" cy="1.212" r="1.212" transform="translate(137.015 85.771)"/><circle class="d" cx="1.212" cy="1.212" r="1.212" transform="translate(150.716 85.771)"/><circle class="d" cx="1.212" cy="1.212" r="1.212" transform="translate(13.701 95.301)"/><circle class="d" cx="1.212" cy="1.212" r="1.212" transform="translate(27.403 95.301)"/><circle class="d" cx="1.212" cy="1.212" r="1.212" transform="translate(0 95.301)"/><circle class="d" cx="1.212" cy="1.212" r="1.212" transform="translate(41.105 95.301)"/><circle class="d" cx="1.212" cy="1.212" r="1.212" transform="translate(54.806 95.301)"/><circle class="d" cx="1.212" cy="1.212" r="1.212" transform="translate(68.507 95.301)"/><circle class="d" cx="1.212" cy="1.212" r="1.212" transform="translate(95.91 95.301)"/><circle class="d" cx="1.212" cy="1.212" r="1.212" transform="translate(109.612 95.301)"/><circle class="d" cx="1.212" cy="1.212" r="1.212" transform="translate(82.209 95.301)"/><circle class="d" cx="1.212" cy="1.212" r="1.212" transform="translate(123.313 95.301)"/><circle class="d" cx="1.212" cy="1.212" r="1.212" transform="translate(137.015 95.301)"/><circle class="d" cx="1.212" cy="1.212" r="1.212" transform="translate(150.716 95.301)"/><circle class="d" cx="1.212" cy="1.212" r="1.212" transform="translate(175.402)"/><circle class="d" cx="1.212" cy="1.212" r="1.212" transform="translate(189.103)"/><circle class="d" cx="1.212" cy="1.212" r="1.212" transform="translate(161.7)"/><circle class="d" cx="1.212" cy="1.212" r="1.212" transform="translate(202.805)"/><circle class="d" cx="1.212" cy="1.212" r="1.212" transform="translate(216.506)"/><circle class="d" cx="1.212" cy="1.212" r="1.212" transform="translate(230.208)"/><circle class="d" cx="1.212" cy="1.212" r="1.212" transform="translate(257.611)"/><circle class="d" cx="1.212" cy="1.212" r="1.212" transform="translate(271.312)"/><circle class="d" cx="1.212" cy="1.212" r="1.212" transform="translate(243.909)"/><circle class="d" cx="1.212" cy="1.212" r="1.212" transform="translate(285.013)"/><circle class="d" cx="1.212" cy="1.212" r="1.212" transform="translate(298.715)"/><circle class="d" cx="1.212" cy="1.212" r="1.212" transform="translate(312.416)"/><circle class="d" cx="1.212" cy="1.212" r="1.212" transform="translate(175.402 9.53)"/><circle class="d" cx="1.212" cy="1.212" r="1.212" transform="translate(189.103 9.53)"/><circle class="d" cx="1.212" cy="1.212" r="1.212" transform="translate(161.7 9.53)"/><circle class="d" cx="1.212" cy="1.212" r="1.212" transform="translate(202.805 9.53)"/><circle class="d" cx="1.212" cy="1.212" r="1.212" transform="translate(216.506 9.53)"/><circle class="d" cx="1.212" cy="1.212" r="1.212" transform="translate(230.208 9.53)"/><circle class="d" cx="1.212" cy="1.212" r="1.212" transform="translate(257.611 9.53)"/><circle class="d" cx="1.212" cy="1.212" r="1.212" transform="translate(271.312 9.53)"/><circle class="d" cx="1.212" cy="1.212" r="1.212" transform="translate(243.909 9.53)"/><circle class="d" cx="1.212" cy="1.212" r="1.212" transform="translate(285.013 9.53)"/><circle class="d" cx="1.212" cy="1.212" r="1.212" transform="translate(298.715 9.53)"/><circle class="d" cx="1.212" cy="1.212" r="1.212" transform="translate(312.416 9.53)"/><circle class="d" cx="1.212" cy="1.212" r="1.212" transform="translate(175.402 19.06)"/><circle class="d" cx="1.212" cy="1.212" r="1.212" transform="translate(189.103 19.06)"/><circle class="d" cx="1.212" cy="1.212" r="1.212" transform="translate(161.7 19.06)"/><circle class="d" cx="1.212" cy="1.212" r="1.212" transform="translate(202.805 19.06)"/><circle class="d" cx="1.212" cy="1.212" r="1.212" transform="translate(216.506 19.06)"/><circle class="d" cx="1.212" cy="1.212" r="1.212" transform="translate(230.208 19.06)"/><circle class="d" cx="1.212" cy="1.212" r="1.212" transform="translate(257.611 19.06)"/><circle class="d" cx="1.212" cy="1.212" r="1.212" transform="translate(271.312 19.06)"/><circle class="d" cx="1.212" cy="1.212" r="1.212" transform="translate(243.909 19.06)"/><circle class="d" cx="1.212" cy="1.212" r="1.212" transform="translate(285.013 19.06)"/><circle class="d" cx="1.212" cy="1.212" r="1.212" transform="translate(298.715 19.06)"/><circle class="d" cx="1.212" cy="1.212" r="1.212" transform="translate(312.416 19.06)"/><circle class="d" cx="1.212" cy="1.212" r="1.212" transform="translate(175.402 28.591)"/><circle class="d" cx="1.212" cy="1.212" r="1.212" transform="translate(189.103 28.591)"/><circle class="d" cx="1.212" cy="1.212" r="1.212" transform="translate(161.7 28.591)"/><circle class="d" cx="1.212" cy="1.212" r="1.212" transform="translate(202.805 28.591)"/><circle class="d" cx="1.212" cy="1.212" r="1.212" transform="translate(216.506 28.591)"/><circle class="d" cx="1.212" cy="1.212" r="1.212" transform="translate(230.208 28.591)"/><circle class="d" cx="1.212" cy="1.212" r="1.212" transform="translate(257.611 28.591)"/><circle class="d" cx="1.212" cy="1.212" r="1.212" transform="translate(271.312 28.591)"/><circle class="d" cx="1.212" cy="1.212" r="1.212" transform="translate(243.909 28.591)"/><circle class="d" cx="1.212" cy="1.212" r="1.212" transform="translate(285.013 28.591)"/><circle class="d" cx="1.212" cy="1.212" r="1.212" transform="translate(298.715 28.591)"/><circle class="d" cx="1.212" cy="1.212" r="1.212" transform="translate(312.416 28.591)"/><circle class="d" cx="1.212" cy="1.212" r="1.212" transform="translate(175.402 38.121)"/><circle class="d" cx="1.212" cy="1.212" r="1.212" transform="translate(189.103 38.121)"/><circle class="d" cx="1.212" cy="1.212" r="1.212" transform="translate(161.7 38.121)"/><circle class="d" cx="1.212" cy="1.212" r="1.212" transform="translate(202.805 38.121)"/><circle class="d" cx="1.212" cy="1.212" r="1.212" transform="translate(216.506 38.121)"/><circle class="d" cx="1.212" cy="1.212" r="1.212" transform="translate(230.208 38.121)"/><circle class="d" cx="1.212" cy="1.212" r="1.212" transform="translate(257.611 38.121)"/><circle class="d" cx="1.212" cy="1.212" r="1.212" transform="translate(271.312 38.121)"/><circle class="d" cx="1.212" cy="1.212" r="1.212" transform="translate(243.909 38.121)"/><circle class="d" cx="1.212" cy="1.212" r="1.212" transform="translate(285.013 38.121)"/><circle class="d" cx="1.212" cy="1.212" r="1.212" transform="translate(298.715 38.121)"/><circle class="d" cx="1.212" cy="1.212" r="1.212" transform="translate(312.416 38.121)"/><circle class="d" cx="1.212" cy="1.212" r="1.212" transform="translate(175.402 47.651)"/><circle class="d" cx="1.212" cy="1.212" r="1.212" transform="translate(189.103 47.651)"/><circle class="d" cx="1.212" cy="1.212" r="1.212" transform="translate(161.7 47.651)"/><circle class="d" cx="1.212" cy="1.212" r="1.212" transform="translate(202.805 47.651)"/><circle class="d" cx="1.212" cy="1.212" r="1.212" transform="translate(216.506 47.651)"/><circle class="d" cx="1.212" cy="1.212" r="1.212" transform="translate(230.208 47.651)"/><circle class="d" cx="1.212" cy="1.212" r="1.212" transform="translate(257.611 47.651)"/><circle class="d" cx="1.212" cy="1.212" r="1.212" transform="translate(271.312 47.651)"/><circle class="d" cx="1.212" cy="1.212" r="1.212" transform="translate(243.909 47.651)"/><circle class="d" cx="1.212" cy="1.212" r="1.212" transform="translate(285.013 47.651)"/><circle class="d" cx="1.212" cy="1.212" r="1.212" transform="translate(298.715 47.651)"/><circle class="d" cx="1.212" cy="1.212" r="1.212" transform="translate(312.416 47.651)"/><circle class="d" cx="1.212" cy="1.212" r="1.212" transform="translate(175.402 57.18)"/><circle class="d" cx="1.212" cy="1.212" r="1.212" transform="translate(189.103 57.18)"/><circle class="d" cx="1.212" cy="1.212" r="1.212" transform="translate(161.7 57.18)"/><circle class="d" cx="1.212" cy="1.212" r="1.212" transform="translate(202.805 57.18)"/><circle class="d" cx="1.212" cy="1.212" r="1.212" transform="translate(216.506 57.18)"/><circle class="d" cx="1.212" cy="1.212" r="1.212" transform="translate(230.208 57.18)"/><circle class="d" cx="1.212" cy="1.212" r="1.212" transform="translate(257.611 57.18)"/><circle class="d" cx="1.212" cy="1.212" r="1.212" transform="translate(271.312 57.18)"/><circle class="d" cx="1.212" cy="1.212" r="1.212" transform="translate(243.909 57.18)"/><circle class="d" cx="1.212" cy="1.212" r="1.212" transform="translate(285.013 57.18)"/><circle class="d" cx="1.212" cy="1.212" r="1.212" transform="translate(298.715 57.18)"/><circle class="d" cx="1.212" cy="1.212" r="1.212" transform="translate(312.416 57.18)"/><circle class="d" cx="1.212" cy="1.212" r="1.212" transform="translate(175.402 66.71)"/><circle class="d" cx="1.212" cy="1.212" r="1.212" transform="translate(189.103 66.71)"/><circle class="d" cx="1.212" cy="1.212" r="1.212" transform="translate(161.7 66.71)"/><circle class="d" cx="1.212" cy="1.212" r="1.212" transform="translate(202.805 66.71)"/><circle class="d" cx="1.212" cy="1.212" r="1.212" transform="translate(216.506 66.71)"/><circle class="d" cx="1.212" cy="1.212" r="1.212" transform="translate(230.208 66.71)"/><circle class="d" cx="1.212" cy="1.212" r="1.212" transform="translate(257.611 66.71)"/><circle class="d" cx="1.212" cy="1.212" r="1.212" transform="translate(271.312 66.71)"/><circle class="d" cx="1.212" cy="1.212" r="1.212" transform="translate(243.909 66.71)"/><circle class="d" cx="1.212" cy="1.212" r="1.212" transform="translate(285.013 66.71)"/><circle class="d" cx="1.212" cy="1.212" r="1.212" transform="translate(298.715 66.71)"/><circle class="d" cx="1.212" cy="1.212" r="1.212" transform="translate(312.416 66.71)"/><circle class="d" cx="1.212" cy="1.212" r="1.212" transform="translate(175.402 76.241)"/><circle class="d" cx="1.212" cy="1.212" r="1.212" transform="translate(189.103 76.241)"/><circle class="d" cx="1.212" cy="1.212" r="1.212" transform="translate(161.7 76.241)"/><circle class="d" cx="1.212" cy="1.212" r="1.212" transform="translate(202.805 76.241)"/><circle class="d" cx="1.212" cy="1.212" r="1.212" transform="translate(216.506 76.241)"/><circle class="d" cx="1.212" cy="1.212" r="1.212" transform="translate(230.208 76.241)"/><circle class="d" cx="1.212" cy="1.212" r="1.212" transform="translate(257.611 76.241)"/><circle class="d" cx="1.212" cy="1.212" r="1.212" transform="translate(271.312 76.241)"/><circle class="d" cx="1.212" cy="1.212" r="1.212" transform="translate(243.909 76.241)"/><circle class="d" cx="1.212" cy="1.212" r="1.212" transform="translate(285.013 76.241)"/><circle class="d" cx="1.212" cy="1.212" r="1.212" transform="translate(298.715 76.241)"/><circle class="d" cx="1.212" cy="1.212" r="1.212" transform="translate(312.416 76.241)"/><circle class="d" cx="1.212" cy="1.212" r="1.212" transform="translate(175.402 85.771)"/><circle class="d" cx="1.212" cy="1.212" r="1.212" transform="translate(189.103 85.771)"/><circle class="d" cx="1.212" cy="1.212" r="1.212" transform="translate(161.7 85.771)"/><circle class="d" cx="1.212" cy="1.212" r="1.212" transform="translate(202.805 85.771)"/><circle class="d" cx="1.212" cy="1.212" r="1.212" transform="translate(216.506 85.771)"/><circle class="d" cx="1.212" cy="1.212" r="1.212" transform="translate(230.208 85.771)"/><circle class="d" cx="1.212" cy="1.212" r="1.212" transform="translate(257.611 85.771)"/><circle class="d" cx="1.212" cy="1.212" r="1.212" transform="translate(271.312 85.771)"/><circle class="d" cx="1.212" cy="1.212" r="1.212" transform="translate(243.909 85.771)"/><circle class="d" cx="1.212" cy="1.212" r="1.212" transform="translate(285.013 85.771)"/><circle class="d" cx="1.212" cy="1.212" r="1.212" transform="translate(298.715 85.771)"/><circle class="d" cx="1.212" cy="1.212" r="1.212" transform="translate(312.416 85.771)"/><circle class="d" cx="1.212" cy="1.212" r="1.212" transform="translate(175.402 95.301)"/><circle class="d" cx="1.212" cy="1.212" r="1.212" transform="translate(189.103 95.301)"/><circle class="d" cx="1.212" cy="1.212" r="1.212" transform="translate(161.7 95.301)"/><circle class="d" cx="1.212" cy="1.212" r="1.212" transform="translate(202.805 95.301)"/><circle class="d" cx="1.212" cy="1.212" r="1.212" transform="translate(216.506 95.301)"/><circle class="d" cx="1.212" cy="1.212" r="1.212" transform="translate(230.208 95.301)"/><circle class="d" cx="1.212" cy="1.212" r="1.212" transform="translate(257.611 95.301)"/><circle class="d" cx="1.212" cy="1.212" r="1.212" transform="translate(271.312 95.301)"/><circle class="d" cx="1.212" cy="1.212" r="1.212" transform="translate(243.909 95.301)"/><circle class="d" cx="1.212" cy="1.212" r="1.212" transform="translate(285.013 95.301)"/><circle class="d" cx="1.212" cy="1.212" r="1.212" transform="translate(298.715 95.301)"/><circle class="d" cx="1.212" cy="1.212" r="1.212" transform="translate(312.416 95.301)"/><circle class="d" cx="1.212" cy="1.212" r="1.212" transform="translate(13.701 104.832)"/><circle class="d" cx="1.212" cy="1.212" r="1.212" transform="translate(27.403 104.832)"/><circle class="d" cx="1.212" cy="1.212" r="1.212" transform="translate(0 104.832)"/><circle class="d" cx="1.212" cy="1.212" r="1.212" transform="translate(41.105 104.832)"/><circle class="d" cx="1.212" cy="1.212" r="1.212" transform="translate(54.806 104.832)"/><circle class="d" cx="1.212" cy="1.212" r="1.212" transform="translate(68.507 104.832)"/><circle class="d" cx="1.212" cy="1.212" r="1.212" transform="translate(95.91 104.832)"/><circle class="d" cx="1.212" cy="1.212" r="1.212" transform="translate(109.612 104.832)"/><circle class="d" cx="1.212" cy="1.212" r="1.212" transform="translate(82.209 104.832)"/><circle class="d" cx="1.212" cy="1.212" r="1.212" transform="translate(123.313 104.832)"/><circle class="d" cx="1.212" cy="1.212" r="1.212" transform="translate(137.015 104.832)"/><circle class="d" cx="1.212" cy="1.212" r="1.212" transform="translate(150.716 104.832)"/><circle class="d" cx="1.212" cy="1.212" r="1.212" transform="translate(13.701 114.362)"/><circle class="d" cx="1.212" cy="1.212" r="1.212" transform="translate(27.403 114.362)"/><circle class="d" cx="1.212" cy="1.212" r="1.212" transform="translate(0 114.362)"/><circle class="d" cx="1.212" cy="1.212" r="1.212" transform="translate(41.105 114.362)"/><circle class="d" cx="1.212" cy="1.212" r="1.212" transform="translate(54.806 114.362)"/><circle class="d" cx="1.212" cy="1.212" r="1.212" transform="translate(68.507 114.362)"/><circle class="d" cx="1.212" cy="1.212" r="1.212" transform="translate(95.91 114.362)"/><circle class="d" cx="1.212" cy="1.212" r="1.212" transform="translate(109.612 114.362)"/><circle class="d" cx="1.212" cy="1.212" r="1.212" transform="translate(82.209 114.362)"/><circle class="d" cx="1.212" cy="1.212" r="1.212" transform="translate(123.313 114.362)"/><circle class="d" cx="1.212" cy="1.212" r="1.212" transform="translate(137.015 114.362)"/><circle class="d" cx="1.212" cy="1.212" r="1.212" transform="translate(150.716 114.362)"/><circle class="d" cx="1.212" cy="1.212" r="1.212" transform="translate(13.701 123.892)"/><circle class="d" cx="1.212" cy="1.212" r="1.212" transform="translate(27.403 123.892)"/><circle class="d" cx="1.212" cy="1.212" r="1.212" transform="translate(0 123.892)"/><circle class="d" cx="1.212" cy="1.212" r="1.212" transform="translate(41.105 123.892)"/><circle class="d" cx="1.212" cy="1.212" r="1.212" transform="translate(54.806 123.892)"/><circle class="d" cx="1.212" cy="1.212" r="1.212" transform="translate(68.507 123.892)"/><circle class="d" cx="1.212" cy="1.212" r="1.212" transform="translate(95.91 123.892)"/><circle class="d" cx="1.212" cy="1.212" r="1.212" transform="translate(109.612 123.892)"/><circle class="d" cx="1.212" cy="1.212" r="1.212" transform="translate(82.209 123.892)"/><circle class="d" cx="1.212" cy="1.212" r="1.212" transform="translate(123.313 123.892)"/><circle class="d" cx="1.212" cy="1.212" r="1.212" transform="translate(137.015 123.892)"/><circle class="d" cx="1.212" cy="1.212" r="1.212" transform="translate(150.716 123.892)"/><circle class="d" cx="1.212" cy="1.212" r="1.212" transform="translate(13.701 133.422)"/><circle class="d" cx="1.212" cy="1.212" r="1.212" transform="translate(27.403 133.422)"/><circle class="d" cx="1.212" cy="1.212" r="1.212" transform="translate(0 133.422)"/><circle class="d" cx="1.212" cy="1.212" r="1.212" transform="translate(41.105 133.422)"/><circle class="d" cx="1.212" cy="1.212" r="1.212" transform="translate(54.806 133.422)"/><circle class="d" cx="1.212" cy="1.212" r="1.212" transform="translate(68.507 133.422)"/><circle class="d" cx="1.212" cy="1.212" r="1.212" transform="translate(95.91 133.422)"/><circle class="d" cx="1.212" cy="1.212" r="1.212" transform="translate(109.612 133.422)"/><circle class="d" cx="1.212" cy="1.212" r="1.212" transform="translate(82.209 133.422)"/><circle class="d" cx="1.212" cy="1.212" r="1.212" transform="translate(123.313 133.422)"/><circle class="d" cx="1.212" cy="1.212" r="1.212" transform="translate(137.015 133.422)"/><circle class="d" cx="1.212" cy="1.212" r="1.212" transform="translate(150.716 133.422)"/><circle class="d" cx="1.212" cy="1.212" r="1.212" transform="translate(13.701 142.952)"/><circle class="d" cx="1.212" cy="1.212" r="1.212" transform="translate(27.403 142.952)"/><circle class="d" cx="1.212" cy="1.212" r="1.212" transform="translate(0 142.952)"/><circle class="d" cx="1.212" cy="1.212" r="1.212" transform="translate(41.105 142.952)"/><circle class="d" cx="1.212" cy="1.212" r="1.212" transform="translate(54.806 142.952)"/><circle class="d" cx="1.212" cy="1.212" r="1.212" transform="translate(68.507 142.952)"/><circle class="d" cx="1.212" cy="1.212" r="1.212" transform="translate(95.91 142.952)"/><circle class="d" cx="1.212" cy="1.212" r="1.212" transform="translate(109.612 142.952)"/><circle class="d" cx="1.212" cy="1.212" r="1.212" transform="translate(82.209 142.952)"/><circle class="d" cx="1.212" cy="1.212" r="1.212" transform="translate(123.313 142.952)"/><circle class="d" cx="1.212" cy="1.212" r="1.212" transform="translate(137.015 142.952)"/><circle class="d" cx="1.212" cy="1.212" r="1.212" transform="translate(150.716 142.952)"/><circle class="d" cx="1.212" cy="1.212" r="1.212" transform="translate(13.701 152.482)"/><circle class="d" cx="1.212" cy="1.212" r="1.212" transform="translate(27.403 152.482)"/><circle class="d" cx="1.212" cy="1.212" r="1.212" transform="translate(0 152.482)"/><circle class="d" cx="1.212" cy="1.212" r="1.212" transform="translate(41.105 152.482)"/><circle class="d" cx="1.212" cy="1.212" r="1.212" transform="translate(54.806 152.482)"/><circle class="d" cx="1.212" cy="1.212" r="1.212" transform="translate(68.507 152.482)"/><circle class="d" cx="1.212" cy="1.212" r="1.212" transform="translate(95.91 152.482)"/><circle class="d" cx="1.212" cy="1.212" r="1.212" transform="translate(109.612 152.482)"/><circle class="d" cx="1.212" cy="1.212" r="1.212" transform="translate(82.209 152.482)"/><circle class="d" cx="1.212" cy="1.212" r="1.212" transform="translate(123.313 152.482)"/><circle class="d" cx="1.212" cy="1.212" r="1.212" transform="translate(137.015 152.482)"/><circle class="d" cx="1.212" cy="1.212" r="1.212" transform="translate(150.716 152.482)"/><circle class="d" cx="1.212" cy="1.212" r="1.212" transform="translate(13.701 162.012)"/><circle class="d" cx="1.212" cy="1.212" r="1.212" transform="translate(27.403 162.012)"/><circle class="d" cx="1.212" cy="1.212" r="1.212" transform="translate(0 162.012)"/><circle class="d" cx="1.212" cy="1.212" r="1.212" transform="translate(41.105 162.012)"/><circle class="d" cx="1.212" cy="1.212" r="1.212" transform="translate(54.806 162.012)"/><circle class="d" cx="1.212" cy="1.212" r="1.212" transform="translate(68.507 162.012)"/><circle class="d" cx="1.212" cy="1.212" r="1.212" transform="translate(95.91 162.012)"/><circle class="d" cx="1.212" cy="1.212" r="1.212" transform="translate(109.612 162.012)"/><circle class="d" cx="1.212" cy="1.212" r="1.212" transform="translate(82.209 162.012)"/><circle class="d" cx="1.212" cy="1.212" r="1.212" transform="translate(123.313 162.012)"/><circle class="d" cx="1.212" cy="1.212" r="1.212" transform="translate(137.015 162.012)"/><circle class="d" cx="1.212" cy="1.212" r="1.212" transform="translate(150.716 162.012)"/><circle class="d" cx="1.212" cy="1.212" r="1.212" transform="translate(13.701 171.542)"/><circle class="d" cx="1.212" cy="1.212" r="1.212" transform="translate(27.403 171.542)"/><circle class="d" cx="1.212" cy="1.212" r="1.212" transform="translate(0 171.542)"/><circle class="d" cx="1.212" cy="1.212" r="1.212" transform="translate(41.105 171.542)"/><circle class="d" cx="1.212" cy="1.212" r="1.212" transform="translate(54.806 171.542)"/><circle class="d" cx="1.212" cy="1.212" r="1.212" transform="translate(68.507 171.542)"/><circle class="d" cx="1.212" cy="1.212" r="1.212" transform="translate(95.91 171.542)"/><circle class="d" cx="1.212" cy="1.212" r="1.212" transform="translate(109.612 171.542)"/><circle class="d" cx="1.212" cy="1.212" r="1.212" transform="translate(82.209 171.542)"/><circle class="d" cx="1.212" cy="1.212" r="1.212" transform="translate(123.313 171.542)"/><circle class="d" cx="1.212" cy="1.212" r="1.212" transform="translate(137.015 171.542)"/><circle class="d" cx="1.212" cy="1.212" r="1.212" transform="translate(150.716 171.542)"/><circle class="d" cx="1.212" cy="1.212" r="1.212" transform="translate(13.701 181.072)"/><circle class="d" cx="1.212" cy="1.212" r="1.212" transform="translate(27.403 181.072)"/><circle class="d" cx="1.212" cy="1.212" r="1.212" transform="translate(0 181.072)"/><circle class="d" cx="1.212" cy="1.212" r="1.212" transform="translate(41.105 181.072)"/><circle class="d" cx="1.212" cy="1.212" r="1.212" transform="translate(54.806 181.072)"/><circle class="d" cx="1.212" cy="1.212" r="1.212" transform="translate(68.507 181.072)"/><circle class="d" cx="1.212" cy="1.212" r="1.212" transform="translate(95.91 181.072)"/><circle class="d" cx="1.212" cy="1.212" r="1.212" transform="translate(109.612 181.072)"/><circle class="d" cx="1.212" cy="1.212" r="1.212" transform="translate(82.209 181.072)"/><circle class="d" cx="1.212" cy="1.212" r="1.212" transform="translate(123.313 181.072)"/><circle class="d" cx="1.212" cy="1.212" r="1.212" transform="translate(137.015 181.072)"/><circle class="d" cx="1.212" cy="1.212" r="1.212" transform="translate(150.716 181.072)"/><circle class="d" cx="1.212" cy="1.212" r="1.212" transform="translate(13.701 190.603)"/><circle class="d" cx="1.212" cy="1.212" r="1.212" transform="translate(27.403 190.603)"/><circle class="d" cx="1.212" cy="1.212" r="1.212" transform="translate(0 190.603)"/><circle class="d" cx="1.212" cy="1.212" r="1.212" transform="translate(41.105 190.603)"/><circle class="d" cx="1.212" cy="1.212" r="1.212" transform="translate(54.806 190.603)"/><circle class="d" cx="1.212" cy="1.212" r="1.212" transform="translate(68.507 190.603)"/><circle class="d" cx="1.212" cy="1.212" r="1.212" transform="translate(95.91 190.603)"/><circle class="d" cx="1.212" cy="1.212" r="1.212" transform="translate(109.612 190.603)"/><circle class="d" cx="1.212" cy="1.212" r="1.212" transform="translate(82.209 190.603)"/><circle class="d" cx="1.212" cy="1.212" r="1.212" transform="translate(123.313 190.603)"/><circle class="d" cx="1.212" cy="1.212" r="1.212" transform="translate(137.015 190.603)"/><circle class="d" cx="1.212" cy="1.212" r="1.212" transform="translate(150.716 190.603)"/><circle class="d" cx="1.212" cy="1.212" r="1.212" transform="translate(13.701 200.133)"/><circle class="d" cx="1.212" cy="1.212" r="1.212" transform="translate(27.403 200.133)"/><circle class="d" cx="1.212" cy="1.212" r="1.212" transform="translate(0 200.133)"/><circle class="d" cx="1.212" cy="1.212" r="1.212" transform="translate(41.105 200.133)"/><circle class="d" cx="1.212" cy="1.212" r="1.212" transform="translate(54.806 200.133)"/><circle class="d" cx="1.212" cy="1.212" r="1.212" transform="translate(68.507 200.133)"/><circle class="d" cx="1.212" cy="1.212" r="1.212" transform="translate(95.91 200.133)"/><circle class="d" cx="1.212" cy="1.212" r="1.212" transform="translate(109.612 200.133)"/><circle class="d" cx="1.212" cy="1.212" r="1.212" transform="translate(82.209 200.133)"/><circle class="d" cx="1.212" cy="1.212" r="1.212" transform="translate(123.313 200.133)"/><circle class="d" cx="1.212" cy="1.212" r="1.212" transform="translate(137.015 200.133)"/><circle class="d" cx="1.212" cy="1.212" r="1.212" transform="translate(150.716 200.133)"/><circle class="d" cx="1.212" cy="1.212" r="1.212" transform="translate(175.402 104.832)"/><circle class="d" cx="1.212" cy="1.212" r="1.212" transform="translate(189.103 104.832)"/><circle class="d" cx="1.212" cy="1.212" r="1.212" transform="translate(161.7 104.832)"/><circle class="d" cx="1.212" cy="1.212" r="1.212" transform="translate(202.805 104.832)"/><circle class="d" cx="1.212" cy="1.212" r="1.212" transform="translate(216.506 104.832)"/><circle class="d" cx="1.212" cy="1.212" r="1.212" transform="translate(230.208 104.832)"/><circle class="d" cx="1.212" cy="1.212" r="1.212" transform="translate(257.611 104.832)"/><circle class="d" cx="1.212" cy="1.212" r="1.212" transform="translate(271.312 104.832)"/><circle class="d" cx="1.212" cy="1.212" r="1.212" transform="translate(243.909 104.832)"/><circle class="d" cx="1.212" cy="1.212" r="1.212" transform="translate(285.013 104.832)"/><circle class="d" cx="1.212" cy="1.212" r="1.212" transform="translate(298.715 104.832)"/><circle class="d" cx="1.212" cy="1.212" r="1.212" transform="translate(312.416 104.832)"/><circle class="d" cx="1.212" cy="1.212" r="1.212" transform="translate(175.402 114.362)"/><circle class="d" cx="1.212" cy="1.212" r="1.212" transform="translate(189.103 114.362)"/><circle class="d" cx="1.212" cy="1.212" r="1.212" transform="translate(161.7 114.362)"/><circle class="d" cx="1.212" cy="1.212" r="1.212" transform="translate(202.805 114.362)"/><circle class="d" cx="1.212" cy="1.212" r="1.212" transform="translate(216.506 114.362)"/><circle class="d" cx="1.212" cy="1.212" r="1.212" transform="translate(230.208 114.362)"/><circle class="d" cx="1.212" cy="1.212" r="1.212" transform="translate(257.611 114.362)"/><circle class="d" cx="1.212" cy="1.212" r="1.212" transform="translate(271.312 114.362)"/><circle class="d" cx="1.212" cy="1.212" r="1.212" transform="translate(243.909 114.362)"/><circle class="d" cx="1.212" cy="1.212" r="1.212" transform="translate(285.013 114.362)"/><circle class="d" cx="1.212" cy="1.212" r="1.212" transform="translate(298.715 114.362)"/><circle class="d" cx="1.212" cy="1.212" r="1.212" transform="translate(312.416 114.362)"/><circle class="d" cx="1.212" cy="1.212" r="1.212" transform="translate(175.402 123.892)"/><circle class="d" cx="1.212" cy="1.212" r="1.212" transform="translate(189.103 123.892)"/><circle class="d" cx="1.212" cy="1.212" r="1.212" transform="translate(161.7 123.892)"/><circle class="d" cx="1.212" cy="1.212" r="1.212" transform="translate(202.805 123.892)"/><circle class="d" cx="1.212" cy="1.212" r="1.212" transform="translate(216.506 123.892)"/><circle class="d" cx="1.212" cy="1.212" r="1.212" transform="translate(230.208 123.892)"/><circle class="d" cx="1.212" cy="1.212" r="1.212" transform="translate(257.611 123.892)"/><circle class="d" cx="1.212" cy="1.212" r="1.212" transform="translate(271.312 123.892)"/><circle class="d" cx="1.212" cy="1.212" r="1.212" transform="translate(243.909 123.892)"/><circle class="d" cx="1.212" cy="1.212" r="1.212" transform="translate(285.013 123.892)"/><circle class="d" cx="1.212" cy="1.212" r="1.212" transform="translate(298.715 123.892)"/><circle class="d" cx="1.212" cy="1.212" r="1.212" transform="translate(312.416 123.892)"/><circle class="d" cx="1.212" cy="1.212" r="1.212" transform="translate(175.402 133.422)"/><circle class="d" cx="1.212" cy="1.212" r="1.212" transform="translate(189.103 133.422)"/><circle class="d" cx="1.212" cy="1.212" r="1.212" transform="translate(161.7 133.422)"/><circle class="d" cx="1.212" cy="1.212" r="1.212" transform="translate(202.805 133.422)"/><circle class="d" cx="1.212" cy="1.212" r="1.212" transform="translate(216.506 133.422)"/><circle class="d" cx="1.212" cy="1.212" r="1.212" transform="translate(230.208 133.422)"/><circle class="d" cx="1.212" cy="1.212" r="1.212" transform="translate(257.611 133.422)"/><circle class="d" cx="1.212" cy="1.212" r="1.212" transform="translate(271.312 133.422)"/><circle class="d" cx="1.212" cy="1.212" r="1.212" transform="translate(243.909 133.422)"/><circle class="d" cx="1.212" cy="1.212" r="1.212" transform="translate(285.013 133.422)"/><circle class="d" cx="1.212" cy="1.212" r="1.212" transform="translate(298.715 133.422)"/><circle class="d" cx="1.212" cy="1.212" r="1.212" transform="translate(312.416 133.422)"/><circle class="d" cx="1.212" cy="1.212" r="1.212" transform="translate(175.402 142.952)"/><circle class="d" cx="1.212" cy="1.212" r="1.212" transform="translate(189.103 142.952)"/><circle class="d" cx="1.212" cy="1.212" r="1.212" transform="translate(161.7 142.952)"/><circle class="d" cx="1.212" cy="1.212" r="1.212" transform="translate(202.805 142.952)"/><circle class="d" cx="1.212" cy="1.212" r="1.212" transform="translate(216.506 142.952)"/><circle class="d" cx="1.212" cy="1.212" r="1.212" transform="translate(230.208 142.952)"/><circle class="d" cx="1.212" cy="1.212" r="1.212" transform="translate(257.611 142.952)"/><circle class="d" cx="1.212" cy="1.212" r="1.212" transform="translate(271.312 142.952)"/><circle class="d" cx="1.212" cy="1.212" r="1.212" transform="translate(243.909 142.952)"/><circle class="d" cx="1.212" cy="1.212" r="1.212" transform="translate(285.013 142.952)"/><circle class="d" cx="1.212" cy="1.212" r="1.212" transform="translate(298.715 142.952)"/><circle class="d" cx="1.212" cy="1.212" r="1.212" transform="translate(312.416 142.952)"/><circle class="d" cx="1.212" cy="1.212" r="1.212" transform="translate(175.402 152.482)"/><circle class="d" cx="1.212" cy="1.212" r="1.212" transform="translate(189.103 152.482)"/><circle class="d" cx="1.212" cy="1.212" r="1.212" transform="translate(161.7 152.482)"/><circle class="d" cx="1.212" cy="1.212" r="1.212" transform="translate(202.805 152.482)"/><circle class="d" cx="1.212" cy="1.212" r="1.212" transform="translate(216.506 152.482)"/><circle class="d" cx="1.212" cy="1.212" r="1.212" transform="translate(230.208 152.482)"/><circle class="d" cx="1.212" cy="1.212" r="1.212" transform="translate(257.611 152.482)"/><circle class="d" cx="1.212" cy="1.212" r="1.212" transform="translate(271.312 152.482)"/><circle class="d" cx="1.212" cy="1.212" r="1.212" transform="translate(243.909 152.482)"/><circle class="d" cx="1.212" cy="1.212" r="1.212" transform="translate(285.013 152.482)"/><circle class="d" cx="1.212" cy="1.212" r="1.212" transform="translate(298.715 152.482)"/><circle class="d" cx="1.212" cy="1.212" r="1.212" transform="translate(312.416 152.482)"/><circle class="d" cx="1.212" cy="1.212" r="1.212" transform="translate(175.402 162.012)"/><circle class="d" cx="1.212" cy="1.212" r="1.212" transform="translate(189.103 162.012)"/><circle class="d" cx="1.212" cy="1.212" r="1.212" transform="translate(161.7 162.012)"/><circle class="d" cx="1.212" cy="1.212" r="1.212" transform="translate(202.805 162.012)"/><circle class="d" cx="1.212" cy="1.212" r="1.212" transform="translate(216.506 162.012)"/><circle class="d" cx="1.212" cy="1.212" r="1.212" transform="translate(230.208 162.012)"/><circle class="d" cx="1.212" cy="1.212" r="1.212" transform="translate(257.611 162.012)"/><circle class="d" cx="1.212" cy="1.212" r="1.212" transform="translate(271.312 162.012)"/><circle class="d" cx="1.212" cy="1.212" r="1.212" transform="translate(243.909 162.012)"/><circle class="d" cx="1.212" cy="1.212" r="1.212" transform="translate(285.013 162.012)"/><circle class="d" cx="1.212" cy="1.212" r="1.212" transform="translate(298.715 162.012)"/><circle class="d" cx="1.212" cy="1.212" r="1.212" transform="translate(312.416 162.012)"/><circle class="d" cx="1.212" cy="1.212" r="1.212" transform="translate(175.402 171.542)"/><circle class="d" cx="1.212" cy="1.212" r="1.212" transform="translate(189.103 171.542)"/><circle class="d" cx="1.212" cy="1.212" r="1.212" transform="translate(161.7 171.542)"/><circle class="d" cx="1.212" cy="1.212" r="1.212" transform="translate(202.805 171.542)"/><circle class="d" cx="1.212" cy="1.212" r="1.212" transform="translate(216.506 171.542)"/><circle class="d" cx="1.212" cy="1.212" r="1.212" transform="translate(230.208 171.542)"/><circle class="d" cx="1.212" cy="1.212" r="1.212" transform="translate(257.611 171.542)"/><circle class="d" cx="1.212" cy="1.212" r="1.212" transform="translate(271.312 171.542)"/><circle class="d" cx="1.212" cy="1.212" r="1.212" transform="translate(243.909 171.542)"/><circle class="d" cx="1.212" cy="1.212" r="1.212" transform="translate(285.013 171.542)"/><circle class="d" cx="1.212" cy="1.212" r="1.212" transform="translate(298.715 171.542)"/><circle class="d" cx="1.212" cy="1.212" r="1.212" transform="translate(312.416 171.542)"/><circle class="d" cx="1.212" cy="1.212" r="1.212" transform="translate(175.402 181.072)"/><circle class="d" cx="1.212" cy="1.212" r="1.212" transform="translate(189.103 181.072)"/><circle class="d" cx="1.212" cy="1.212" r="1.212" transform="translate(161.7 181.072)"/><circle class="d" cx="1.212" cy="1.212" r="1.212" transform="translate(202.805 181.072)"/><circle class="d" cx="1.212" cy="1.212" r="1.212" transform="translate(216.506 181.072)"/><circle class="d" cx="1.212" cy="1.212" r="1.212" transform="translate(230.208 181.072)"/><circle class="d" cx="1.212" cy="1.212" r="1.212" transform="translate(257.611 181.072)"/><circle class="d" cx="1.212" cy="1.212" r="1.212" transform="translate(271.312 181.072)"/><circle class="d" cx="1.212" cy="1.212" r="1.212" transform="translate(243.909 181.072)"/><circle class="d" cx="1.212" cy="1.212" r="1.212" transform="translate(285.013 181.072)"/><circle class="d" cx="1.212" cy="1.212" r="1.212" transform="translate(298.715 181.072)"/><circle class="d" cx="1.212" cy="1.212" r="1.212" transform="translate(312.416 181.072)"/><circle class="d" cx="1.212" cy="1.212" r="1.212" transform="translate(175.402 190.603)"/><circle class="d" cx="1.212" cy="1.212" r="1.212" transform="translate(189.103 190.603)"/><circle class="d" cx="1.212" cy="1.212" r="1.212" transform="translate(161.7 190.603)"/><circle class="d" cx="1.212" cy="1.212" r="1.212" transform="translate(202.805 190.603)"/><circle class="d" cx="1.212" cy="1.212" r="1.212" transform="translate(216.506 190.603)"/><circle class="d" cx="1.212" cy="1.212" r="1.212" transform="translate(230.208 190.603)"/><circle class="d" cx="1.212" cy="1.212" r="1.212" transform="translate(257.611 190.603)"/><circle class="d" cx="1.212" cy="1.212" r="1.212" transform="translate(271.312 190.603)"/><circle class="d" cx="1.212" cy="1.212" r="1.212" transform="translate(243.909 190.603)"/><circle class="d" cx="1.212" cy="1.212" r="1.212" transform="translate(285.013 190.603)"/><circle class="d" cx="1.212" cy="1.212" r="1.212" transform="translate(298.715 190.603)"/><circle class="d" cx="1.212" cy="1.212" r="1.212" transform="translate(312.416 190.603)"/><circle class="d" cx="1.212" cy="1.212" r="1.212" transform="translate(175.402 200.133)"/><circle class="d" cx="1.212" cy="1.212" r="1.212" transform="translate(189.103 200.133)"/><circle class="d" cx="1.212" cy="1.212" r="1.212" transform="translate(161.7 200.133)"/><circle class="d" cx="1.212" cy="1.212" r="1.212" transform="translate(202.805 200.133)"/><circle class="d" cx="1.212" cy="1.212" r="1.212" transform="translate(216.506 200.133)"/><circle class="d" cx="1.212" cy="1.212" r="1.212" transform="translate(230.208 200.133)"/><circle class="d" cx="1.212" cy="1.212" r="1.212" transform="translate(257.611 200.133)"/><circle class="d" cx="1.212" cy="1.212" r="1.212" transform="translate(271.312 200.133)"/><circle class="d" cx="1.212" cy="1.212" r="1.212" transform="translate(243.909 200.133)"/><circle class="d" cx="1.212" cy="1.212" r="1.212" transform="translate(285.013 200.133)"/><circle class="d" cx="1.212" cy="1.212" r="1.212" transform="translate(298.715 200.133)"/><circle class="d" cx="1.212" cy="1.212" r="1.212" transform="translate(312.416 200.133)"/></g></g></svg>