<svg xmlns="http://www.w3.org/2000/svg" xmlns:xlink="http://www.w3.org/1999/xlink" width="634.832" height="493.971" viewBox="0 0 634.832 493.971"><defs><style>.a{fill:#ee743b;}.b{fill:none;}.c{opacity:0.09;clip-path:url(#e);}.d{fill:#fedea9;}.e{fill:#fcbf57;opacity:0.37;}.f{fill:#f5824d;stroke:#fff;}.f,.g{font-size:99px;font-family:Poppins-Bold, Poppins;font-weight:700;}.g,.h,.j,.l{fill:#fff;}.h{font-size:15px;}.h,.j{font-family:Poppins-SemiBold, Poppins;font-weight:600;}.i{fill:#16223b;}.j{font-size:18px;}.k{clip-path:url(#f);}.m{filter:url(#c);}.n{filter:url(#a);}</style><filter id="a" x="151.546" y="178.061" width="356.73" height="252.24" filterUnits="userSpaceOnUse"><feOffset dx="20" dy="24" input="SourceAlpha"/><feGaussianBlur stdDeviation="10" result="b"/><feFlood flood-color="#ee743b" flood-opacity="0.361"/><feComposite operator="in" in2="b"/><feComposite in="SourceGraphic"/></filter><filter id="c" x="144" y="114.249" width="382.832" height="306.051" filterUnits="userSpaceOnUse"><feOffset dx="18" dy="20" input="SourceAlpha"/><feGaussianBlur stdDeviation="8" result="d"/><feFlood flood-color="#ee743b" flood-opacity="0.271"/><feComposite operator="in" in2="d"/><feComposite in="SourceGraphic"/></filter><clipPath id="e"><g class="n" transform="matrix(1, 0, 0, 1, 0, 0)"><rect class="a" width="296.73" height="192.24" transform="translate(0)"/></g></clipPath><clipPath id="f"><rect class="b" width="56.722" height="56.722"/></clipPath></defs><g transform="translate(150 118.249)"><g class="m" transform="matrix(1, 0, 0, 1, -150, -118.25)"><rect class="a" width="334.832" height="258.051" transform="translate(150 118.25)"/></g><g class="c" transform="translate(11.546 65.812)"><path class="d" d="M85.322,129.179c11.961-1.595,21.53-11.164,23.125-22.327A26.2,26.2,0,0,0,97.283,81.335L116.42,33.491l19.138,47.844a25.428,25.428,0,0,0-11.164,21.53,28.551,28.551,0,0,0,8.771,19.935,28.111,28.111,0,0,0,20.732,6.379,27.066,27.066,0,0,0,23.125-23.125A24.555,24.555,0,0,0,174.63,90.9l33.491-27.112L179.415,153.9a107.591,107.591,0,0,0-19.138-6.379,181.368,181.368,0,0,0-87.714,0A107.591,107.591,0,0,0,53.426,153.9L24.719,64.589,58.21,91.7a25.469,25.469,0,0,0-2.392,11.164A28.551,28.551,0,0,0,64.589,122.8a27.866,27.866,0,0,0,17.543,6.379ZM81.335,87.714l5.582,2.392c6.379,2.392,9.569,8.771,8.771,15.151a13.563,13.563,0,0,1-11.961,11.961c-3.987.8-7.974-.8-11.164-3.19a12.858,12.858,0,0,1-4.784-10.366,11.992,11.992,0,0,1,3.19-8.771l3.987-4.784L0,29.5,46.249,173.833l6.379-3.19a108.27,108.27,0,0,1,23.125-8.771,156.324,156.324,0,0,1,81.335,0,127.768,127.768,0,0,1,23.125,8.771l6.379,3.19L232.841,29.5l-74.956,59.8,3.987,4.784a17.539,17.539,0,0,1,3.19,10.366A13.563,13.563,0,0,1,153.1,116.42c-3.987.8-7.974-.8-11.164-3.19a12.858,12.858,0,0,1-4.784-10.366c0-5.582,3.987-11.164,8.771-12.758l5.582-2.392L116.42,0Z" transform="translate(33.677 101.588)"/></g><ellipse class="e" cx="167.416" cy="96.986" rx="167.416" ry="96.986" transform="translate(0 31.751)"/><text class="f" transform="translate(171.029 145.565)"><tspan x="-126.225" y="0">100%</tspan></text><text class="g" transform="translate(166.988 145.565)"><tspan x="-126.225" y="0">100%</tspan></text><text class="h" transform="translate(170.43 200.157)"><tspan x="-99.848" y="0">TO INCREASE MY LEVERAGE</tspan></text><rect class="i" width="95.254" height="25.978" transform="translate(123.541 151.829)"/><text class="j" transform="translate(139.706 170.829)"><tspan x="0" y="0">BONUS</tspan></text><rect class="i" width="58.307" height="25.978" transform="translate(142.015 39.833)"/><text class="j" transform="translate(154.138 58.833)"><tspan x="0" y="0">GET</tspan></text><g transform="translate(15.235 213.154)"><g class="k" transform="translate(0 0)"><g transform="translate(-39.98 -36.198)"><rect class="l" width="5.569" height="109.76" transform="matrix(0.493, 0.87, -0.87, 0.493, 95.479, 0)"/><rect class="l" width="5.569" height="109.76" transform="matrix(0.493, 0.87, -0.87, 0.493, 100.973, 9.689)"/><rect class="l" width="5.569" height="109.76" transform="matrix(0.493, 0.87, -0.87, 0.493, 106.466, 19.378)"/><rect class="l" width="5.569" height="109.76" transform="matrix(0.493, 0.87, -0.87, 0.493, 111.96, 29.066)"/><rect class="l" width="5.569" height="109.76" transform="matrix(0.493, 0.87, -0.87, 0.493, 117.454, 38.755)"/><rect class="l" width="5.569" height="109.76" transform="matrix(0.493, 0.87, -0.87, 0.493, 122.948, 48.444)"/><rect class="l" width="5.569" height="109.76" transform="matrix(0.493, 0.87, -0.87, 0.493, 128.441, 58.133)"/><rect class="l" width="5.569" height="109.76" transform="matrix(0.493, 0.87, -0.87, 0.493, 133.935, 67.822)"/></g></g></g></g></svg>