<svg xmlns="http://www.w3.org/2000/svg" xmlns:xlink="http://www.w3.org/1999/xlink" width="880" height="636" viewBox="0 0 880 636"><defs><style>.a{fill:#ee743b;}.b{fill:none;}.c{opacity:0.09;clip-path:url(#e);}.d{fill:#fedea9;}.e{fill:#fcbf57;opacity:0.37;}.f{fill:#f5824d;stroke:#fff;}.f,.g{font-size:172px;font-family:Poppins-Bold, Poppins;font-weight:700;}.g,.h,.j,.l{fill:#fff;}.h{font-size:27px;}.h,.j{font-family:Poppins-SemiBold, Poppins;font-weight:600;}.i{fill:#16223b;}.j{font-size:32px;}.k{clip-path:url(#f);}.m{filter:url(#c);}.n{filter:url(#a);}</style><filter id="a" x="160" y="203" width="574" height="393" filterUnits="userSpaceOnUse"><feOffset dx="20" dy="24" input="SourceAlpha"/><feGaussianBlur stdDeviation="10" result="b"/><feFlood flood-color="#ee743b" flood-opacity="0.361"/><feComposite operator="in" in2="b"/><feComposite in="SourceGraphic"/></filter><filter id="c" x="140" y="89" width="640" height="507" filterUnits="userSpaceOnUse"><feOffset dx="20" dy="24" input="SourceAlpha"/><feGaussianBlur stdDeviation="10" result="d"/><feFlood flood-color="#ee743b" flood-opacity="0.361"/><feComposite operator="in" in2="d"/><feComposite in="SourceGraphic"/></filter><clipPath id="e"><g class="n" transform="matrix(1, 0, 0, 1, 0, 0)"><rect class="a" width="514" height="333" transform="translate(52 3892)"/></g></clipPath><clipPath id="f"><rect class="b" width="86" height="86"/></clipPath></defs><g transform="translate(30 -3252.08)"><g class="m" transform="matrix(1, 0, 0, 1, -30, 3252.08)"><rect class="a" width="580" height="447" transform="translate(150 95)"/></g><g class="c" transform="translate(88 -430.92)"><path class="d" d="M147.8,223.765c20.719-2.763,37.294-19.338,40.057-38.675,2.763-17.956-5.525-34.532-19.338-44.2l33.15-82.876,33.15,82.876c-12.431,8.288-19.338,22.1-19.338,37.294,0,12.431,5.525,24.863,15.194,34.532a48.694,48.694,0,0,0,35.913,11.05,46.885,46.885,0,0,0,40.057-40.057,42.535,42.535,0,0,0-4.144-26.244L360.51,110.5,310.785,266.584a186.369,186.369,0,0,0-33.15-11.05,314.168,314.168,0,0,0-151.939,0,186.369,186.369,0,0,0-33.15,11.05l-49.726-154.7,58.013,46.963a44.118,44.118,0,0,0-4.144,19.338c0,12.431,5.525,24.863,15.194,34.532a48.269,48.269,0,0,0,30.388,11.05Zm-6.906-71.826,9.669,4.144c11.05,4.144,16.575,15.194,15.194,26.244a23.493,23.493,0,0,1-20.719,20.719c-6.906,1.381-13.813-1.381-19.338-5.525s-8.288-11.05-8.288-17.956c0-5.525,1.381-11.05,5.525-15.194l6.906-8.288L0,51.107,80.113,301.116l11.05-5.525A187.547,187.547,0,0,1,131.22,280.4a270.786,270.786,0,0,1,140.889,0,221.321,221.321,0,0,1,40.057,15.194l11.05,5.525L403.33,51.107,273.491,154.7l6.906,8.288c4.144,5.525,5.525,12.431,5.525,17.956A23.493,23.493,0,0,1,265.2,201.665c-6.906,1.381-13.813-1.381-19.338-5.525s-8.288-11.05-8.288-17.956c0-9.669,6.906-19.338,15.194-22.1l9.669-4.144L201.665,0Z" transform="translate(110.335 4067.972)"/></g><ellipse class="e" cx="290" cy="168" rx="290" ry="168" transform="translate(120 3402.08)"/><text class="f" transform="translate(417 3600.08)"><tspan x="-219.3" y="0">100%</tspan></text><text class="g" transform="translate(410 3600.08)"><tspan x="-219.3" y="0">100%</tspan></text><text class="h" transform="translate(422 3694.08)"><tspan x="-179.726" y="0">TO INCREASE MY LEVERAGE</tspan></text><rect class="i" width="165" height="45" transform="translate(334 3610.08)"/><text class="j" transform="translate(362 3644.08)"><tspan x="0" y="0">BONUS</tspan></text><rect class="i" width="101" height="45" transform="translate(366 3416.08)"/><text class="j" transform="translate(387 3450.08)"><tspan x="0" y="0">GET</tspan></text><g transform="translate(693.701 3640.564)"><g class="k" transform="translate(-46.701 19.516)"><g transform="translate(-60.617 -54.882)"><rect class="l" width="8.444" height="166.415" transform="matrix(0.493, 0.87, -0.87, 0.493, 144.763, 0)"/><rect class="l" width="8.444" height="166.415" transform="matrix(0.493, 0.87, -0.87, 0.493, 153.092, 14.69)"/><rect class="l" width="8.444" height="166.415" transform="matrix(0.493, 0.87, -0.87, 0.493, 161.422, 29.38)"/><rect class="l" width="8.444" height="166.415" transform="matrix(0.493, 0.87, -0.87, 0.493, 169.751, 44.07)"/><rect class="l" width="8.444" height="166.415" transform="matrix(0.493, 0.87, -0.87, 0.493, 178.081, 58.76)"/><rect class="l" width="8.444" height="166.415" transform="matrix(0.493, 0.87, -0.87, 0.493, 186.41, 73.45)"/><rect class="l" width="8.444" height="166.415" transform="matrix(0.493, 0.87, -0.87, 0.493, 194.739, 88.14)"/><rect class="l" width="8.444" height="166.415" transform="matrix(0.493, 0.87, -0.87, 0.493, 203.069, 102.83)"/></g></g></g></g></svg>