<svg xmlns="http://www.w3.org/2000/svg" width="281.735" height="434.181" viewBox="0 0 281.735 434.181"><defs><style>.a{opacity:0.05;}.b{fill:#16223b;}</style></defs><g class="a" transform="translate(-1135 -1179.5)"><path class="b" d="M121.571,0V53.067H92.625V0L0,16.4C3.859,165.954,91.66,224.81,91.66,224.81v-123.5h28.945v123.5S209.372,165.954,213.231,16.4Z" transform="translate(1168.77 1388.871)"/><path class="b" d="M103.239,156.305c14.473-1.93,26.051-13.508,27.981-27.016a31.7,31.7,0,0,0-13.508-30.875l23.156-57.891,23.156,57.891c-8.684,5.789-13.508,15.438-13.508,26.051,0,8.684,3.859,17.367,10.613,24.121a34.014,34.014,0,0,0,25.086,7.719A32.75,32.75,0,0,0,214.2,128.325a29.712,29.712,0,0,0-2.895-18.332l40.523-32.8L217.09,186.216a130.184,130.184,0,0,0-23.156-7.719,219.453,219.453,0,0,0-106.133,0,130.184,130.184,0,0,0-23.156,7.719L29.91,78.153l40.524,32.8a30.818,30.818,0,0,0-2.895,13.508c0,8.684,3.859,17.367,10.613,24.121a33.717,33.717,0,0,0,21.227,7.719Zm-4.824-50.172,6.754,2.895c7.719,2.895,11.578,10.613,10.613,18.332a16.411,16.411,0,0,1-14.473,14.473c-4.824.965-9.648-.965-13.508-3.859a15.558,15.558,0,0,1-5.789-12.543c0-3.859.965-7.719,3.859-10.613l4.824-5.789L0,35.7,55.961,210.337l7.719-3.859A131.005,131.005,0,0,1,91.66,195.864a189.149,189.149,0,0,1,98.414,0,154.6,154.6,0,0,1,27.981,10.613l7.719,3.859L281.735,35.7l-90.7,72.364,4.824,5.789a21.223,21.223,0,0,1,3.859,12.543,16.411,16.411,0,0,1-14.473,14.473c-4.824.965-9.648-.965-13.508-3.859a15.558,15.558,0,0,1-5.789-12.543c0-6.754,4.824-13.508,10.613-15.438l6.754-2.895L140.868,0Z" transform="translate(1135 1179.5)"/></g></svg>