<svg xmlns="http://www.w3.org/2000/svg" xmlns:xlink="http://www.w3.org/1999/xlink" width="115" height="115" viewBox="0 0 115 115"><defs><style>.a{fill:url(#a);}.b{fill:#fef1eb;}.c{fill:#fed79f;}.d{opacity:0.85;clip-path:url(#b);}.e{opacity:0.28;fill:url(#c);}.f{fill:#fff;}.g{fill:url(#d);}</style><linearGradient id="a" x1="0.309" y1="0.5" x2="2.495" y2="0.5" gradientUnits="objectBoundingBox"><stop offset="0" stop-color="#ffd9a1"/><stop offset="1" stop-color="#f37944"/></linearGradient><clipPath id="b"><rect class="a" width="98.796" height="98.796" rx="49.398" transform="translate(670.602 752.102)"/></clipPath><linearGradient id="c" x1="0.309" y1="0.5" x2="2.495" y2="0.5" gradientUnits="objectBoundingBox"><stop offset="0" stop-color="#fff7eb"/><stop offset="1" stop-color="#fff"/></linearGradient><linearGradient id="d" y1="0.5" x2="1" y2="0.5" gradientUnits="objectBoundingBox"><stop offset="0" stop-color="#ffd596"/><stop offset="1" stop-color="#e95c29"/></linearGradient></defs><g transform="translate(-254 -639)"><circle class="b" cx="57.5" cy="57.5" r="57.5" transform="translate(254 639)"/><circle class="c" cx="49.4" cy="49.4" r="49.4" transform="translate(262 647)"/><g class="d" transform="translate(-408.602 -105.102)"><rect class="e" width="124.796" height="124.796" rx="62.398" transform="translate(701 717.704)"/></g><g transform="translate(3421.882 -1814.66)"><rect class="f" width="66.189" height="2.807" rx="1.403" transform="translate(-3142.833 2528.64)"/><g transform="translate(-3133.488 2486.975)"><g transform="translate(0 0)"><rect class="f" width="11.483" height="12.787" transform="translate(0 28.849)"/><rect class="f" width="11.483" height="20.116" transform="translate(15.31 21.52)"/><path class="f" d="M-2750.106,2486.975h-2.177l-3.564,11.228v30.408h11.483V2498.2h5.4Z" transform="translate(2786.469 -2486.975)"/></g></g><g transform="translate(-3135.665 2486.975)"><rect class="g" width="11.483" height="12.787" transform="translate(0 28.849)"/><rect class="g" width="11.483" height="20.116" transform="translate(15.31 21.52)"/><path class="g" d="M-2814.64,2486.975l-11.137,11.228h5.4v30.408h11.483V2498.2h5.4Z" transform="translate(2851.003 -2486.975)"/></g><rect class="g" width="66.189" height="2.807" rx="1.403" transform="translate(-3145.01 2528.64)"/></g></g></svg>