<svg xmlns="http://www.w3.org/2000/svg" xmlns:xlink="http://www.w3.org/1999/xlink" width="115" height="115" viewBox="0 0 115 115"><defs><style>.a{fill:url(#a);}.b{fill:#ee743b;opacity:0.1;}.c{opacity:0.85;clip-path:url(#c);}.d{opacity:0.28;fill:url(#d);}.e{fill:url(#e);}.f{fill:url(#f);}.g{fill:#fff;}.h{fill:url(#g);}</style><linearGradient id="a" x1="0.309" y1="0.5" x2="2.495" y2="0.5" gradientUnits="objectBoundingBox"><stop offset="0" stop-color="#ffd9a1"/><stop offset="1" stop-color="#f37944"/></linearGradient><clipPath id="c"><rect class="a" width="98.796" height="98.796" rx="49.398" transform="translate(670.602 752.102)"/></clipPath><linearGradient id="d" x1="0.309" y1="0.5" x2="2.495" y2="0.5" gradientUnits="objectBoundingBox"><stop offset="0" stop-color="#fff7eb"/><stop offset="1" stop-color="#fff"/></linearGradient><linearGradient id="e" x1="0.472" y1="0.64" x2="0.684" y2="-0.178" gradientUnits="objectBoundingBox"><stop offset="0" stop-color="#ffd9a1"/><stop offset="0.419" stop-color="#f37944"/></linearGradient><linearGradient id="f" x1="0" y1="0.5" x2="1" y2="0.5" xlink:href="#a"/><linearGradient id="g" x1="0" y1="0.5" x2="1" y2="0.5" xlink:href="#a"/></defs><g transform="translate(-1071 -638)"><circle class="b" cx="57.5" cy="57.5" r="57.5" transform="translate(1071 638)"/><rect class="a" width="98.796" height="98.796" rx="49.398" transform="translate(1079 646)"/><g class="c" transform="translate(408.076 -106.212)"><rect class="d" width="130.796" height="130.796" rx="65" transform="translate(681.602 686.704)"/></g><g transform="translate(1110.63 655.713)"><path class="e" d="M41.017,24.024V55.389a3.139,3.139,0,0,1-.245,1.209,2.953,2.953,0,0,1-.641.967,2.808,2.808,0,0,1-2.076.907H-5.669a2.808,2.808,0,0,1-2.076-.907,2.953,2.953,0,0,1-.641-.967,3.139,3.139,0,0,1-.245-1.209V24.024a5.979,5.979,0,0,1,1.251-3.686A6.14,6.14,0,0,1-2.493,17.95H34.88a6.14,6.14,0,0,1,4.886,2.387A5.979,5.979,0,0,1,41.017,24.024Z" transform="translate(0 5.385)"/><path class="f" d="M3.98,24.815l14.912-4.07L17,16.917a2.929,2.929,0,0,0-3.925-1.324L-5.538,24.815Z" transform="translate(6.251)"/><path class="g" d="M18.181,16.616a2.941,2.941,0,0,0-.771.106l-4.886,1.336-14.912,4.07H21.919l-.913-3.348A2.926,2.926,0,0,0,18.181,16.616Z" transform="translate(12.62 2.688)"/><path class="h" d="M37.585,18.628H-5.695a2.918,2.918,0,0,0-2.287,1.1,2.906,2.906,0,0,0-.541,1.058,3.094,3.094,0,0,0-.106.768V54.178A2.929,2.929,0,0,0-5.7,57.106H37.582a2.931,2.931,0,0,0,2.928-2.928V21.556A2.924,2.924,0,0,0,37.585,18.628Z" transform="translate(0.002 6.756)"/><path class="g" d="M23.272,23.683a2.9,2.9,0,0,0-1.973-.768H3.842A2.929,2.929,0,0,0,.914,25.843v6.518a2.929,2.929,0,0,0,2.928,2.928H21.3a3.076,3.076,0,0,0,.949-.157,2.942,2.942,0,0,0,1.979-2.771V25.843A2.913,2.913,0,0,0,23.272,23.683Zm-13.317,6a1.465,1.465,0,0,1-1.466,1.466h-.97a1.465,1.465,0,0,1-1.466-1.466v-.97a1.437,1.437,0,0,1,.562-1.148,1.485,1.485,0,0,1,.9-.317h.97a1.465,1.465,0,0,1,1.466,1.466v.97Z" transform="translate(19.295 15.423)"/></g></g></svg>