<svg xmlns="http://www.w3.org/2000/svg" xmlns:xlink="http://www.w3.org/1999/xlink" width="115" height="115" viewBox="0 0 115 115"><defs><style>.a{fill:url(#a);}.b{fill:#ee743b;opacity:0.1;}.c{opacity:0.85;clip-path:url(#c);}.d{opacity:0.28;fill:url(#d);}.e{fill:#fff;}.f{fill:url(#e);}.g{fill:url(#h);}</style><linearGradient id="a" x1="0.309" y1="0.5" x2="2.495" y2="0.5" gradientUnits="objectBoundingBox"><stop offset="0" stop-color="#ffd9a1"/><stop offset="1" stop-color="#f37944"/></linearGradient><clipPath id="c"><rect class="a" width="98.796" height="98.796" rx="49.398" transform="translate(670.602 752.102)"/></clipPath><linearGradient id="d" x1="0.309" y1="0.5" x2="2.495" y2="0.5" gradientUnits="objectBoundingBox"><stop offset="0" stop-color="#fff7eb"/><stop offset="1" stop-color="#fff"/></linearGradient><linearGradient id="e" y1="0.5" x2="1" y2="0.5" gradientUnits="objectBoundingBox"><stop offset="0" stop-color="#ffd596"/><stop offset="1" stop-color="#e95c29"/></linearGradient><linearGradient id="h" x1="0.401" y1="0.664" x2="0.556" y2="0.406" xlink:href="#e"/></defs><g transform="translate(-655 -638)"><g transform="translate(-8 -106)"><circle class="b" cx="57.5" cy="57.5" r="57.5" transform="translate(663 744)"/><rect class="a" width="98.796" height="98.796" rx="49.398" transform="translate(670.602 752.102)"/></g><g class="c" transform="translate(-8 -106)"><rect class="d" width="130.796" height="130.796" rx="65" transform="translate(681.602 686.704)"/></g><g transform="translate(4194.274 -24.988)"><rect class="e" width="31.781" height="24.104" rx="5" transform="translate(-3511.369 713.168)"/><path class="f" d="M-3495.312,801.524a35.187,35.187,0,0,0,4.573-.293V785.317a35.209,35.209,0,0,0-4.573-.293c-9.063,0-16.41,3.332-16.41,7.443v1.614C-3511.722,798.192-3504.375,801.524-3495.312,801.524Z" transform="translate(-0.001 -77.024)"/><path class="f" d="M-3495.312,896.771a35.231,35.231,0,0,0,4.573-.293v-4.665a35.19,35.19,0,0,1-4.573.295c-7.911,0-14.514-2.539-16.065-5.919a3.634,3.634,0,0,0-.345,1.524v1.614C-3511.722,893.438-3504.375,896.771-3495.312,896.771Z" transform="translate(-0.001 -163.961)"/><path class="f" d="M-3490.739,951.26V950.9a35.207,35.207,0,0,1-4.573.295c-7.911,0-14.514-2.539-16.065-5.919a3.626,3.626,0,0,0-.345,1.524v1.614c0,4.111,7.347,7.443,16.41,7.443a34.853,34.853,0,0,0,5.186-.38,5.872,5.872,0,0,1-.612-2.6Z" transform="translate(0 -214.735)"/><g transform="translate(-3500.459 710.788)"><path class="g" d="M-3427.3,812.335c-2.382-.13-4.153-.828-4.3-2.158h3.8a.618.618,0,0,0,.5.521v-.911c-1.771-.279-4.33-.6-4.33-2.186,0-1.256,1.98-1.944,4.33-2v-.753h1v.753c2.527.1,4.1.828,4.25,2.121h-3.847a.587.587,0,0,0-.4-.474v.9c1.754.326,4.443.632,4.443,2.2,0,1.1-1.578,1.972-4.443,2.009v.744h-1Zm0-4.418v-.744c-.322.037-.5.149-.5.335S-3427.609,807.815-3427.3,807.917Zm1,2.065v.8c.37-.047.627-.167.627-.391C-3425.677,810.205-3425.918,810.085-3426.3,809.982Z" transform="translate(3431.633 -804.848)"/></g><rect class="e" width="32.134" height="42.658" rx="8" transform="translate(-3491.252 698.26)"/><g transform="translate(-3491.646 695.394)"><g transform="translate(0 0)"><path class="f" d="M-3352.56,695.394c-9.063,0-16.411,3.332-16.411,7.443v1.614c0,4.111,7.347,7.443,16.411,7.443s16.41-3.332,16.41-7.443v-1.614C-3336.15,698.726-3343.5,695.394-3352.56,695.394Z" transform="translate(3368.971 -695.394)"/><path class="f" d="M-3352.56,802.478c-7.911,0-14.514-2.539-16.066-5.919a3.633,3.633,0,0,0-.345,1.524V799.7c0,4.111,7.347,7.443,16.411,7.443s16.41-3.332,16.41-7.443v-1.614a3.63,3.63,0,0,0-.345-1.524C-3338.046,799.939-3344.649,802.478-3352.56,802.478Z" transform="translate(3368.971 -782.331)"/><path class="f" d="M-3352.56,861.562c-7.911,0-14.514-2.539-16.066-5.919a3.633,3.633,0,0,0-.345,1.524v1.614c0,4.111,7.347,7.443,16.411,7.443s16.41-3.332,16.41-7.443v-1.614a3.629,3.629,0,0,0-.345-1.524C-3338.046,859.023-3344.649,861.562-3352.56,861.562Z" transform="translate(3368.971 -833.105)"/><path class="f" d="M-3352.56,923.835c-7.911,0-14.514-2.539-16.066-5.919a3.634,3.634,0,0,0-.345,1.524v1.614c0,4.111,7.347,7.443,16.411,7.443s16.41-3.332,16.41-7.443V919.44a3.629,3.629,0,0,0-.345-1.524C-3338.046,921.3-3344.649,923.835-3352.56,923.835Z" transform="translate(3368.971 -886.62)"/><path class="f" d="M-3352.56,982.918c-7.911,0-14.514-2.539-16.066-5.918a3.634,3.634,0,0,0-.345,1.524v1.614c0,4.111,7.347,7.443,16.411,7.443s16.41-3.332,16.41-7.443v-1.614A3.629,3.629,0,0,0-3336.5,977C-3338.046,980.378-3344.649,982.918-3352.56,982.918Z" transform="translate(3368.971 -937.393)"/></g></g><g transform="translate(-3480.07 697.416)"><path class="g" d="M-3282.337,717.258c-2.382-.13-4.153-.828-4.3-2.158h3.8a.618.618,0,0,0,.5.521v-.911c-1.771-.279-4.33-.6-4.33-2.186,0-1.256,1.98-1.944,4.33-2v-.753h1v.753c2.527.1,4.1.828,4.25,2.121h-3.847a.588.588,0,0,0-.4-.474v.9c1.754.326,4.443.633,4.443,2.2,0,1.1-1.577,1.972-4.443,2.009v.744h-1Zm0-4.418V712.1c-.322.037-.5.149-.5.335S-3282.643,712.738-3282.337,712.84Zm1,2.065v.8c.37-.046.628-.167.628-.391C-3280.711,715.128-3280.953,715.008-3281.339,714.905Z" transform="translate(3286.667 -709.771)"/></g></g></g></svg>