<svg xmlns="http://www.w3.org/2000/svg" width="43.302" height="43.308" viewBox="0 0 43.302 43.308"><defs><style>.a{fill:#ee743b;}</style></defs><path class="a" d="M41.648,11.931A1.691,1.691,0,0,0,43.34,10.24V8.464A8.474,8.474,0,0,0,34.876,0S8.361,0,8.3.012A8.635,8.635,0,0,0,2.375,2.667,8.337,8.337,0,0,0,.043,8.756c0,.043,0,24.4,0,24.4A10.167,10.167,0,0,0,10.193,43.308H34.876a8.473,8.473,0,0,0,8.464-8.464V22a8.473,8.473,0,0,0-8.464-8.464H8.5A5.065,5.065,0,0,1,3.426,8.706,4.986,4.986,0,0,1,4.822,5,5.234,5.234,0,0,1,8.591,3.389l26.285-.006a5.087,5.087,0,0,1,5.081,5.081V10.24a1.692,1.692,0,0,0,1.692,1.691ZM8.5,16.921H34.876A5.087,5.087,0,0,1,39.957,22V34.845a5.087,5.087,0,0,1-5.081,5.081H10.193a6.78,6.78,0,0,1-6.772-6.772V15.237A8.435,8.435,0,0,0,8.5,16.921Zm28.079,11.5a2.114,2.114,0,1,1-2.114-2.114A2.114,2.114,0,0,1,36.574,28.423Zm0-19.959a1.691,1.691,0,0,0-1.691-1.691H8.5a1.692,1.692,0,0,0,0,3.383H34.882A1.692,1.692,0,0,0,36.574,8.464Z" transform="translate(-0.038)"/></svg>