<svg xmlns="http://www.w3.org/2000/svg" xmlns:xlink="http://www.w3.org/1999/xlink" width="155" height="155" viewBox="0 0 155 155"><defs><style>.a{opacity:0.2;}.a,.b{fill:url(#a);}.c{fill:#fff;}.d{fill:none;}.e,.f{stroke:none;}.f{fill:#fff;}.g{filter:url(#c);}</style><linearGradient id="a" x1="0.537" y1="1" x2="0.46" gradientUnits="objectBoundingBox"><stop offset="0" stop-color="#ee743b"/><stop offset="1" stop-color="#fedea9"/></linearGradient><filter id="c" x="0" y="0" width="155" height="155" filterUnits="userSpaceOnUse"><feOffset dx="4" dy="5" input="SourceAlpha"/><feGaussianBlur stdDeviation="4.5" result="d"/><feFlood flood-opacity="0.059"/><feComposite operator="in" in2="d"/><feComposite in="SourceGraphic"/></filter></defs><g transform="translate(-1063.5 -2033.5)"><circle class="a" cx="71" cy="71" r="71" transform="translate(1066 2035)"/><g class="g" transform="matrix(1, 0, 0, 1, 1063.5, 2033.5)"><circle class="b" cx="64" cy="64" r="64" transform="translate(9.5 8.5)"/></g><g transform="translate(1105.57 2075.001)"><path class="c" d="M406.621,208.43a4.128,4.128,0,0,0-3.981,3.1h-2.21v2.064h2.21a4.12,4.12,0,1,0,3.981-5.159Zm0,6.191a2.064,2.064,0,1,1,2.064-2.064A2.063,2.063,0,0,1,406.621,214.621Zm0,0" transform="translate(-348.409 -181.548)"/><path class="c" d="M156.559,8.309a4.077,4.077,0,0,0,1.754-.408l1.973,2.368a4.09,4.09,0,0,0,2.464,6.148v2.21h2.064v-2.21a4.09,4.09,0,0,0,2.464-6.148L169.251,7.9A4.077,4.077,0,0,0,171,8.309a4.155,4.155,0,1,0-3.344-1.727l-1.885,2.263a3.978,3.978,0,0,0-3.987,0L159.9,6.582a4.118,4.118,0,1,0-3.344,1.727ZM171,2.118a2.064,2.064,0,1,1-2.064,2.064A2.063,2.063,0,0,1,171,2.118Zm-7.223,8.255a2.064,2.064,0,1,1-2.064,2.064A2.063,2.063,0,0,1,163.782,10.373Zm-7.223-8.255A2.064,2.064,0,1,1,154.5,4.182,2.063,2.063,0,0,1,156.559,2.118Zm0,0" transform="translate(-132.398 0)"/><path class="c" d="M306.773,91.05l1.459,1.459,4.41-4.41a4.073,4.073,0,0,0,2.083.585,4.127,4.127,0,1,0-4.127-4.127,4.076,4.076,0,0,0,.585,2.083Zm7.952-8.557a2.064,2.064,0,1,1-2.064,2.064A2.063,2.063,0,0,1,314.725,82.493Zm0,0" transform="translate(-266.832 -70.056)"/><path class="c" d="M394.773,66.611l1.209-1.209,1.459,1.459-1.209,1.209Zm0,0" transform="translate(-343.482 -56.967)"/><path class="c" d="M416.923,8.809l.71-.71a4.073,4.073,0,0,0,2.083.585,4.127,4.127,0,1,0-4.127-4.127,4.076,4.076,0,0,0,.585,2.083l-.71.71Zm2.793-6.316a2.064,2.064,0,1,1-2.064,2.064A2.063,2.063,0,0,1,419.716,2.493Zm0,0" transform="translate(-361.505 -0.375)"/><path class="c" d="M84.557,88.685a4.07,4.07,0,0,0,2.083-.585l4.41,4.41,1.459-1.459-4.41-4.41a4.071,4.071,0,0,0,.585-2.083,4.127,4.127,0,1,0-4.127,4.127Zm0-6.191a2.064,2.064,0,1,1-2.064,2.064,2.063,2.063,0,0,1,2.064-2.064Zm0,0" transform="translate(-69.682 -70.057)"/><path class="c" d="M4.557,8.684A4.07,4.07,0,0,0,6.64,8.1l.71.71L8.809,7.35,8.1,6.64a4.07,4.07,0,0,0,.585-2.083A4.127,4.127,0,1,0,4.557,8.684Zm0-6.191A2.064,2.064,0,1,1,2.493,4.557,2.063,2.063,0,0,1,4.557,2.493Zm0,0" transform="translate(0 -0.375)"/><path class="c" d="M65.4,66.861,66.861,65.4l1.209,1.209-1.46,1.459Zm0,0" transform="translate(-56.593 -56.967)"/><path class="c" d="M314.726,310.6a4.079,4.079,0,0,0-2.083.585l-4.41-4.41-1.459,1.459,4.41,4.41a4.079,4.079,0,0,0-.585,2.083,4.127,4.127,0,1,0,4.127-4.127Zm0,6.191a2.064,2.064,0,1,1,2.064-2.064A2.063,2.063,0,0,1,314.726,316.79Zm0,0" transform="translate(-266.833 -267.207)"/><path class="c" d="M419.717,415.59a4.079,4.079,0,0,0-2.083.585l-.71-.71-1.459,1.459.71.71a4.079,4.079,0,0,0-.585,2.083,4.127,4.127,0,1,0,4.127-4.127Zm0,6.191a2.064,2.064,0,1,1,2.064-2.064A2.063,2.063,0,0,1,419.717,421.781Zm0,0" transform="translate(-361.505 -361.88)"/><path class="c" d="M170.623,346.748a4.086,4.086,0,0,0-1.754.413l-1.973-2.373a4.09,4.09,0,0,0-2.464-6.148v-2.21h-2.064v2.21a4.09,4.09,0,0,0-2.464,6.148l-1.973,2.373a4.088,4.088,0,0,0-1.754-.413,4.156,4.156,0,1,0,3.344,1.728l1.885-2.263a3.976,3.976,0,0,0,3.987,0l1.885,2.263a4.118,4.118,0,1,0,3.344-1.728Zm-14.445,6.191a2.064,2.064,0,1,1,2.064-2.064A2.063,2.063,0,0,1,156.178,352.939Zm7.223-8.255a2.064,2.064,0,1,1,2.064-2.064A2.063,2.063,0,0,1,163.4,344.685Zm7.223,8.255a2.064,2.064,0,1,1,2.064-2.064A2.063,2.063,0,0,1,170.623,352.939Zm0,0" transform="translate(-132.016 -293.039)"/><path class="c" d="M394.773,396.233l1.459-1.459,1.209,1.209-1.459,1.46Zm0,0" transform="translate(-343.482 -343.857)"/><path class="c" d="M7.35,415.465l-.71.71a4.076,4.076,0,0,0-2.083-.585,4.127,4.127,0,1,0,4.127,4.127,4.073,4.073,0,0,0-.585-2.083l.71-.71ZM4.557,421.78a2.064,2.064,0,1,1,2.064-2.064A2.063,2.063,0,0,1,4.557,421.78Zm0,0" transform="translate(0 -361.88)"/><path class="c" d="M92.509,308.233l-1.459-1.459-4.41,4.41a4.077,4.077,0,0,0-2.083-.585,4.127,4.127,0,1,0,4.127,4.127,4.073,4.073,0,0,0-.585-2.083Zm-7.952,8.557a2.064,2.064,0,1,1,2.064-2.064A2.063,2.063,0,0,1,84.557,316.789Zm0,0" transform="translate(-69.682 -267.207)"/><path class="c" d="M65.4,395.983l1.209-1.209,1.46,1.459-1.209,1.209Zm0,0" transform="translate(-56.593 -343.858)"/><path class="c" d="M336.43,232.43h2.064v2.064H336.43Zm0,0" transform="translate(-292.664 -202.452)"/><path class="c" d="M368.43,232.43h2.064v2.064H368.43Zm0,0" transform="translate(-320.537 -202.452)"/><path class="c" d="M4.565,216.781a4.127,4.127,0,0,0,3.981-3.1h2.21v-2.064H8.546a4.12,4.12,0,1,0-3.981,5.159Zm0-6.191A2.064,2.064,0,1,1,2.5,212.654,2.063,2.063,0,0,1,4.565,210.59Zm0,0" transform="translate(-0.008 -181.644)"/><path class="c" d="M128.43,232.43h2.064v2.064H128.43Zm0,0" transform="translate(-111.491 -202.452)"/><path class="c" d="M96.43,232.43h2.064v2.064H96.43Zm0,0" transform="translate(-83.618 -202.452)"/><g class="d" transform="translate(21.066 20.636)"><path class="e" d="M10.383,0A10.383,10.383,0,1,1,0,10.383,10.383,10.383,0,0,1,10.383,0Z"/><path class="f" d="M 10.38269424438477 3.000003814697266 C 6.311863899230957 3.000003814697266 3.000003814697266 6.311863899230957 3.000003814697266 10.38269424438477 C 3.000003814697266 14.45352363586426 6.311863899230957 17.76538467407227 10.38269424438477 17.76538467407227 C 14.45352363586426 17.76538467407227 17.76538467407227 14.45352363586426 17.76538467407227 10.38269424438477 C 17.76538467407227 6.311863899230957 14.45352363586426 3.000003814697266 10.38269424438477 3.000003814697266 M 10.38269424438477 3.814697265625e-06 C 16.11689376831055 3.814697265625e-06 20.76538467407227 4.648494720458984 20.76538467407227 10.38269424438477 C 20.76538467407227 16.11689376831055 16.11689376831055 20.76538467407227 10.38269424438477 20.76538467407227 C 4.648494720458984 20.76538467407227 3.814697265625e-06 16.11689376831055 3.814697265625e-06 10.38269424438477 C 3.814697265625e-06 4.648494720458984 4.648494720458984 3.814697265625e-06 10.38269424438477 3.814697265625e-06 Z"/></g></g></g></svg>