<svg xmlns="http://www.w3.org/2000/svg" xmlns:xlink="http://www.w3.org/1999/xlink" width="155" height="155" viewBox="0 0 155 155"><defs><style>.a{opacity:0.2;}.a,.b{fill:url(#a);}.c{fill:#fff;}.d{filter:url(#c);}</style><linearGradient id="a" x1="0.537" y1="1" x2="0.46" gradientUnits="objectBoundingBox"><stop offset="0" stop-color="#ee743b"/><stop offset="1" stop-color="#fedea9"/></linearGradient><filter id="c" x="0" y="0" width="155" height="155" filterUnits="userSpaceOnUse"><feOffset dx="4" dy="5" input="SourceAlpha"/><feGaussianBlur stdDeviation="4.5" result="d"/><feFlood flood-opacity="0.059"/><feComposite operator="in" in2="d"/><feComposite in="SourceGraphic"/></filter></defs><g transform="translate(-1063.5 -2355.5)"><circle class="a" cx="71" cy="71" r="71" transform="translate(1066 2357)"/><g class="d" transform="matrix(1, 0, 0, 1, 1063.5, 2355.5)"><circle class="b" cx="64" cy="64" r="64" transform="translate(9.5 8.5)"/></g><g transform="translate(1106.82 2397.82)"><path class="c" d="M48.682,22.11V20.237a2.809,2.809,0,0,0,0-5.618H46.809a.936.936,0,1,1,0-1.873h2.809v.936h1.873V10.873H48.682V9H46.809v1.873a2.809,2.809,0,1,0,0,5.618h1.873a.936.936,0,1,1,0,1.873H45.873v-.936H44v2.809h2.809V22.11Z" transform="translate(-2.734 -0.509)"/><path class="c" d="M57.6,15.3A10.3,10.3,0,1,0,47.3,25.6,10.313,10.313,0,0,0,57.6,15.3Zm-18.728,0A8.428,8.428,0,1,1,47.3,23.728,8.437,8.437,0,0,1,38.873,15.3Z" transform="translate(-2.289 -0.254)"/><path class="c" d="M59.057,15.046a14.046,14.046,0,1,0-19.1,13.091l-1.892,1.892H30.54L23.985,37.52H12.764L1.249,49.994l1.376,1.271L13.583,39.393H24.836L31.391,31.9h7.454l3.145-3.145a13.981,13.981,0,0,0,2.653.317l-4.7,4.7H31.433l-5.618,7.491H14.621L1,56.832v2.225H55.312V24.564a13.979,13.979,0,0,0,3.746-9.518Zm-26.219,0A12.173,12.173,0,1,1,45.011,27.219,12.187,12.187,0,0,1,32.838,15.046ZM47.82,28.809V57.185H44.075v-24.9l3.432-3.432C47.611,28.839,47.717,28.83,47.82,28.809Zm-7.1,6.838L42.2,34.162V57.185H38.456V35.647ZM14.11,57.185H10.364V48.975l3.746-4.28Zm1.873-14.046h3.746V57.185H15.983Zm5.618,0h3.746V57.185H21.6Zm5.618-.625,3.746-4.994V57.185H27.219Zm5.618-6.867h3.746V57.185H32.838ZM8.491,51.116v6.069H3.181Zm41.2,6.069V28.273a14.019,14.019,0,0,0,3.746-2.016V57.185Z"/><path class="c" d="M6.873,36.728H8.746V32.983h1.873V21.746H8.746V18H6.873v3.746H5V32.983H6.873Zm0-13.11H8.746V31.11H6.873Z" transform="translate(-0.254 -1.081)"/><path class="c" d="M14.873,31.855h1.873V28.11h1.873V18.746H16.746V15H14.873v3.746H13V28.11h1.873Zm0-11.237h1.873v5.618H14.873Z" transform="translate(-0.763 -0.89)"/><path class="c" d="M22.873,24.983h1.873V21.237h1.873V13.746H24.746V10H22.873v3.746H21v7.491h1.873Zm0-9.364h1.873v3.746H22.873Z" transform="translate(-1.272 -0.572)"/></g></g></svg>