<svg xmlns="http://www.w3.org/2000/svg" width="122" height="122" viewBox="0 0 122 122"><defs><style>.a,.b{fill:#f7a823;}.a{opacity:0.08;}.c{fill:#fff;}</style></defs><g transform="translate(-659.055 -555.027)"><circle class="a" cx="61" cy="61" r="61" transform="translate(659.055 555.027)"/><circle class="b" cx="50" cy="50" r="50" transform="translate(670.055 566.027)"/><g transform="translate(696.055 575.149)"><path class="c" d="M110.954,239.874c-.255-.09-.516-.185-.777-.283v-4.158a2.681,2.681,0,0,1,1.079.518.879.879,0,0,0,1.186-1.3,4.539,4.539,0,0,0-2.265-1.009v-.849a.879.879,0,1,0-1.758,0v.917c-.13.029-.263.062-.4.1a3.581,3.581,0,0,0-2.453,2.809,3.153,3.153,0,0,0,1.032,3.107,8.489,8.489,0,0,0,1.819,1.042v5.272a3.613,3.613,0,0,1-1.921-.72.879.879,0,0,0-.963,1.472,5.284,5.284,0,0,0,2.883,1.01v.951a.879.879,0,0,0,1.758,0v-1.021a4.307,4.307,0,0,0,3.38-3.533,3.782,3.782,0,0,0-2.6-4.327Zm-3.269-1.529a1.418,1.418,0,0,1-.389-1.4,1.861,1.861,0,0,1,1.123-1.413v3.279a5.282,5.282,0,0,1-.734-.469Zm4.138,5.564a2.585,2.585,0,0,1-1.646,2v-4.444l.191.068A2.051,2.051,0,0,1,111.823,243.91Z" transform="translate(-92.678 -193.96)"/><path class="c" d="M60.629,44.783a2.043,2.043,0,0,0-1.3-1.485l-2.517-.925a.879.879,0,1,0-.607,1.65l2.517.925a.293.293,0,0,1,.106.482L36.368,67.9a.293.293,0,0,1-.482-.106L32.729,59.2a2.048,2.048,0,0,0-1.218-1.218l-8.589-3.157a.293.293,0,0,1-.106-.482L45.28,31.878a.293.293,0,0,1,.482.106l3.157,8.589a2.048,2.048,0,0,0,1.218,1.218l2.185.8a.879.879,0,1,0,.607-1.65l-2.185-.8a.292.292,0,0,1-.174-.174l-3.157-8.589a2.052,2.052,0,0,0-3.376-.743l-.85.85V22.762a2.054,2.054,0,0,0-2.052-2.052H32.179a4.235,4.235,0,0,0-5.048-5.975,4.232,4.232,0,0,0-8.006,0,4.236,4.236,0,0,0-5.049,5.975h-.738a.879.879,0,0,0,0,1.758H19.6V30.79a16.524,16.524,0,0,0-2.959-.269,16.326,16.326,0,0,0-5.208.835H4.83v-8.6a.293.293,0,0,1,.293-.293H9.132a.879.879,0,0,0,0-1.758H5.123a2.054,2.054,0,0,0-2.052,2.052V37.526c0,.005,0,.011,0,.016a16.615,16.615,0,0,0,.17,19.487.879.879,0,1,0,1.415-1.044,14.753,14.753,0,0,1-2.9-8.818,14.888,14.888,0,0,1,29.336-3.592l-1.488,1.488a13.141,13.141,0,1,0-4.753,12.344l1.885.693a14.856,14.856,0,0,1-19.453.635A.879.879,0,0,0,6.177,60.1a16.617,16.617,0,0,0,22.39-1.328l2.337.859a.292.292,0,0,1,.174.174L34.235,68.4a2.043,2.043,0,0,0,1.485,1.3,2.07,2.07,0,0,0,.445.049,2.042,2.042,0,0,0,1.447-.6L60.076,46.674A2.043,2.043,0,0,0,60.629,44.783ZM4.83,35.455V33.116h2.9A16.763,16.763,0,0,0,4.83,35.455Zm36.6-12.693v8.6H26.653V22.469H41.134A.293.293,0,0,1,41.427,22.762ZM30.166,17.021a2.478,2.478,0,0,1,0,3.5,1.618,1.618,0,0,1-.243.189H25.64a14.074,14.074,0,0,0,1.693-4.166,2.47,2.47,0,0,1,2.834.476Zm-7.038-3.385A2.478,2.478,0,0,1,25.6,16.112c0,.254-.145,1.332-1.967,4.6H22.621c-1.822-3.266-1.967-4.344-1.967-4.6A2.478,2.478,0,0,1,23.129,13.636Zm-7.038,6.885a2.476,2.476,0,0,1,2.834-3.976,14.072,14.072,0,0,0,1.692,4.165H16.334A1.615,1.615,0,0,1,16.091,20.522Zm5.272,1.947h3.531v8.889H21.838c-.158-.052-.316-.1-.475-.148ZM27.05,34.182a16.519,16.519,0,0,0-1.492-1.066h15.87v.128l-3.4,3.4H29.533a16.711,16.711,0,0,0-2.484-2.465Zm3.739,4.224h5.476l-3.747,3.747a16.654,16.654,0,0,0-1.729-3.747ZM16.646,58.538A11.371,11.371,0,1,1,28,46.666L21.572,53.1a2.052,2.052,0,0,0,.743,3.376l.554.2A11.352,11.352,0,0,1,16.646,58.538Z"/><path class="c" d="M319.581,289.9a.88.88,0,0,0,.813-1.212L315.332,276.3a.879.879,0,1,0-1.628.665l5.063,12.385A.88.88,0,0,0,319.581,289.9Z" transform="translate(-276.469 -232.602)"/><path class="c" d="M269.194,304.922a2.991,2.991,0,0,0-.848,2.382,3.85,3.85,0,0,0,3.47,3.469q.129.01.257.01a2.96,2.96,0,0,0,2.125-.858,2.991,2.991,0,0,0,.848-2.382,3.85,3.85,0,0,0-3.47-3.47A2.989,2.989,0,0,0,269.194,304.922Zm3.5,1.506a2,2,0,0,1,.6,1.247,1.193,1.193,0,0,1-1.345,1.345,2.095,2.095,0,0,1-1.847-1.847,1.261,1.261,0,0,1,.338-1.007,1.23,1.23,0,0,1,.887-.343c.039,0,.08,0,.12,0a1.994,1.994,0,0,1,1.247.6Z" transform="translate(-236.536 -257.559)"/><path class="c" d="M364.15,319.418a2.959,2.959,0,0,0,2.125-.858,3.372,3.372,0,0,0-.262-4.741h0a3.186,3.186,0,1,0-4.479,4.479,3.751,3.751,0,0,0,2.359,1.11Q364.023,319.418,364.15,319.418Zm-1.634-4.618a1.232,1.232,0,0,1,.888-.346,1.978,1.978,0,0,1,1.366.608,1.629,1.629,0,0,1,.262,2.254,1.261,1.261,0,0,1-1.007.338,1.994,1.994,0,0,1-1.247-.6A1.629,1.629,0,0,1,362.516,314.8Z" transform="translate(-317.704 -265.173)"/></g></g></svg>