<svg xmlns="http://www.w3.org/2000/svg" width="122" height="122" viewBox="0 0 122 122"><defs><style>.a,.b{fill:#16223b;}.a{opacity:0.08;}.c{fill:#f8f8f8;}</style></defs><g transform="translate(-307 -555.027)"><circle class="a" cx="61" cy="61" r="61" transform="translate(307 555.027)"/><circle class="b" cx="50" cy="50" r="50" transform="translate(318 566.027)"/><g transform="translate(307.427 589.327)"><g transform="translate(37.681 0)"><g transform="translate(0 0)"><path class="c" d="M81.813,9.1A87.672,87.672,0,0,1,60.719.154a1.108,1.108,0,0,0-1.127,0A85.271,85.271,0,0,1,38.5,9.1a1.109,1.109,0,0,0-.816,1.069V21.5a32.589,32.589,0,0,0,9.9,23.811c4.86,4.762,10.522,7.4,12.578,7.4s7.717-2.634,12.577-7.4a32.589,32.589,0,0,0,9.9-23.811V10.17A1.108,1.108,0,0,0,81.813,9.1Zm-1.4,12.4a30.415,30.415,0,0,1-9.23,22.227c-4.78,4.683-9.89,6.763-11.026,6.763s-6.246-2.079-11.026-6.763A30.416,30.416,0,0,1,39.9,21.5V11.012A87.314,87.314,0,0,0,60.155,2.393a90.077,90.077,0,0,0,20.256,8.618Z" transform="translate(-37.681 0)"/><path class="c" d="M88.584,99.646a1.109,1.109,0,0,0-1.438-.625c-1.981.78-4.013,1.5-6.042,2.135a1.109,1.109,0,0,0-.777,1.058v4.281a1.109,1.109,0,1,0,2.217,0v-3.471c1.82-.589,3.638-1.24,5.414-1.94A1.108,1.108,0,0,0,88.584,99.646Z" transform="translate(-75.937 -88.758)"/><path class="c" d="M171.314,88.429a1.109,1.109,0,0,0,.445-.093l.02-.009a1.109,1.109,0,1,0-.9-2.029l-.018.008a1.108,1.108,0,0,0,.448,2.123Z" transform="translate(-156.561 -77.331)"/><path class="c" d="M311.668,345.709a1.109,1.109,0,0,0-1.535.322,26.977,26.977,0,0,1-3.186,3.98,28.313,28.313,0,0,1-3.18,2.829,1.109,1.109,0,1,0,1.344,1.763,30.557,30.557,0,0,0,3.43-3.051,29.172,29.172,0,0,0,3.448-4.308A1.109,1.109,0,0,0,311.668,345.709Z" transform="translate(-275.985 -309.96)"/><path class="c" d="M277.181,432.118l-.064.037a1.109,1.109,0,1,0,1.111,1.919l.073-.043a1.109,1.109,0,1,0-1.12-1.913Z" transform="translate(-251.973 -387.5)"/><path class="c" d="M128.974,162.774a3.605,3.605,0,1,0-5.1,5.1l6.547,6.546a3.606,3.606,0,0,0,5.1,0l13.666-13.666a3.605,3.605,0,0,0-5.1-5.1l-11.117,11.117Zm16.682-5.552a1.388,1.388,0,1,1,1.963,1.963l-13.666,13.666a1.389,1.389,0,0,1-1.963,0l-6.546-6.546a1.388,1.388,0,0,1,1.963-1.963l4.781,4.781a1.109,1.109,0,0,0,1.568,0Z" transform="translate(-114.057 -138.685)"/></g></g></g></g></svg>