<svg xmlns="http://www.w3.org/2000/svg" width="122" height="122" viewBox="0 0 122 122"><defs><style>.a,.b{fill:#ee743b;}.a{opacity:0.08;}.c{fill:#fff;}</style></defs><g transform="translate(-1010.11 -555.027)"><circle class="a" cx="61" cy="61" r="61" transform="translate(1010.11 555.027)"/><circle class="b" cx="50" cy="50" r="50" transform="translate(1021.11 566.027)"/><g transform="translate(1042.11 587.027)"><path class="c" d="M32.536,57.443H24.907A2.247,2.247,0,0,1,22.663,55.2v-3.35a23.7,23.7,0,0,1-6.009-2.492l-2.371,2.371a2.247,2.247,0,0,1-3.173,0L5.715,46.333a2.246,2.246,0,0,1,0-3.173l2.371-2.371A23.7,23.7,0,0,1,5.593,34.78H2.244A2.247,2.247,0,0,1,0,32.536V24.907a2.247,2.247,0,0,1,2.244-2.244H5.586a23.7,23.7,0,0,1,2.489-6.02l-2.36-2.36a2.246,2.246,0,0,1,0-3.173L11.11,5.715a2.247,2.247,0,0,1,3.173,0l2.352,2.353a23.7,23.7,0,0,1,6.028-2.5V2.244A2.247,2.247,0,0,1,24.907,0h7.629A2.247,2.247,0,0,1,34.78,2.244V5.557a23.713,23.713,0,0,1,6.038,2.5L43.16,5.715a2.246,2.246,0,0,1,3.173,0l5.395,5.395a2.247,2.247,0,0,1,0,3.173l-2.342,2.342a23.713,23.713,0,0,1,2.5,6.038H55.2a2.246,2.246,0,0,1,2.244,2.244v7.629A2.246,2.246,0,0,1,55.2,34.78H51.878a23.717,23.717,0,0,1-2.5,6.028l2.352,2.353a2.246,2.246,0,0,1,0,3.173l-5.394,5.395a2.247,2.247,0,0,1-3.173,0l-2.36-2.36a23.715,23.715,0,0,1-6.02,2.489V55.2a2.247,2.247,0,0,1-2.244,2.244ZM16.485,46.817a1.12,1.12,0,0,1,.6.176,21.482,21.482,0,0,0,6.938,2.878,1.122,1.122,0,0,1,.88,1.1V55.2h7.629V50.972a1.122,1.122,0,0,1,.881-1.1A21.5,21.5,0,0,0,40.366,47a1.122,1.122,0,0,1,1.4.153l2.985,2.985,5.394-5.394-2.978-2.978a1.122,1.122,0,0,1-.152-1.4A21.5,21.5,0,0,0,49.9,33.415a1.122,1.122,0,0,1,1.1-.88h4.2V24.907H51a1.122,1.122,0,0,1-1.1-.881,21.484,21.484,0,0,0-2.884-6.966,1.123,1.123,0,0,1,.153-1.4L50.141,12.7,44.747,7.3,41.78,10.269a1.123,1.123,0,0,1-1.4.153,21.494,21.494,0,0,0-6.966-2.884,1.122,1.122,0,0,1-.881-1.1v-4.2H24.907v4.2a1.122,1.122,0,0,1-.879,1.1,21.494,21.494,0,0,0-6.956,2.888,1.121,1.121,0,0,1-1.4-.152L12.7,7.3,7.3,12.7l2.985,2.985a1.121,1.121,0,0,1,.153,1.4,21.5,21.5,0,0,0-2.873,6.949,1.122,1.122,0,0,1-1.1.881H2.244v7.629H6.476a1.122,1.122,0,0,1,1.1.88,21.488,21.488,0,0,0,2.878,6.938,1.122,1.122,0,0,1-.153,1.4l-3,3L12.7,50.141l3-3a1.122,1.122,0,0,1,.794-.329Zm0,0"/><path class="c" d="M126.44,142.77a16.377,16.377,0,1,1,8.007-30.667,1.122,1.122,0,1,1-1.1,1.957,14.136,14.136,0,1,0,5.742,6.02,1.122,1.122,0,1,1,2.007-1A16.375,16.375,0,0,1,126.44,142.77Zm0,0" transform="translate(-97.719 -97.676)"/><path class="c" d="M345.474,154.256a1.123,1.123,0,1,1,.793-.329A1.129,1.129,0,0,1,345.474,154.256Zm0,0" transform="translate(-305.718 -134.957)"/><path class="c" d="M176.866,198.862a1.122,1.122,0,0,1-.793-.329l-7.095-7.1a1.122,1.122,0,0,1,0-1.586L173,185.827a1.123,1.123,0,0,1,1.587,0l2.277,2.278,5.444-5.444a1.121,1.121,0,0,1,1.586,0l4.024,4.024a1.122,1.122,0,0,1,0,1.586l-10.262,10.262A1.124,1.124,0,0,1,176.866,198.862Zm-5.508-8.217,5.508,5.508,8.675-8.675-2.438-2.438-5.444,5.444a1.122,1.122,0,0,1-1.587,0l-2.278-2.278Zm0,0" transform="translate(-149.727 -161.876)"/></g></g></svg>