<svg xmlns="http://www.w3.org/2000/svg" xmlns:xlink="http://www.w3.org/1999/xlink" width="15" height="23" viewBox="0 0 15 23"><defs><style>.a{fill:#fff;}.b{clip-path:url(#a);}.c{fill:#ee743b;}</style><clipPath id="a"><rect class="a" width="15" height="23" transform="translate(907 1083)"/></clipPath></defs><g class="b" transform="translate(-907 -1083)"><g transform="translate(-9.031 142.22)"><path class="c" d="M239.454,124.175l-2.111-1.584v-3.226a.587.587,0,0,0-1.173,0v3.519a.585.585,0,0,0,.235.469l2.346,1.76a.587.587,0,0,0,.7-.938Z" transform="translate(686.596 830.014)"/><path class="c" d="M6.515,0a6.515,6.515,0,1,0,6.515,6.515A6.523,6.523,0,0,0,6.515,0Zm0,12.021a5.506,5.506,0,1,1,5.506-5.506A5.513,5.513,0,0,1,6.515,12.021Z" transform="translate(917 946.22)"/></g></g></svg>